<?xml version="1.0" encoding="utf-8"?>
<!-- Generator: Adobe Illustrator 24.0.2, SVG Export Plug-In . SVG Version: 6.00 Build 0)  -->
<svg version="1.1" id="Layer_1" xmlns="http://www.w3.org/2000/svg" xmlns:xlink="http://www.w3.org/1999/xlink" x="0px" y="0px"
	 viewBox="0 0 55 55" style="enable-background:new 0 0 55 55;" xml:space="preserve">
<style type="text/css">
	.st0{fill:url(#SVGID_1_);stroke:#000000;stroke-miterlimit:10;}
	.st1{opacity:0.61;fill:url(#SVGID_2_);}
	.st2{fill:url(#SVGID_3_);}
	.st3{fill:url(#SVGID_4_);}
	.st4{fill:url(#glow_10_);}
	.st5{fill:url(#SVGID_5_);}
	.st6{fill:url(#SVGID_6_);}
	.st7{fill:url(#SVGID_7_);}
	.st8{opacity:0.72;fill:url(#glow_11_);}
	.st9{opacity:0.5;fill:#FEFCF8;}
	.st10{fill:url(#SVGID_8_);}
	.st11{fill:url(#SVGID_9_);}
	.st12{fill:url(#SVGID_10_);}
	.st13{fill:url(#SVGID_11_);}
	.st14{fill:url(#SVGID_12_);}
	.st15{opacity:0.72;fill:url(#glow_12_);}
	.st16{fill:url(#SVGID_13_);stroke:#D6F2FA;stroke-width:0.125;stroke-miterlimit:10;}
	.st17{fill:url(#SVGID_14_);}
	.st18{opacity:0.85;}
	.st19{opacity:0.72;fill:url(#glow_13_);}
	.st20{fill:url(#SVGID_15_);}
	.st21{fill:url(#SVGID_16_);}
	.st22{fill:url(#SVGID_17_);}
	.st23{fill:url(#SVGID_18_);}
	.st24{fill:url(#SVGID_19_);}
	.st25{fill:url(#SVGID_20_);}
	.st26{fill:url(#glow_14_);}
	.st27{fill:url(#SVGID_21_);stroke:#000000;stroke-width:0.125;stroke-miterlimit:10;}
	.st28{fill:url(#SVGID_22_);stroke:#000000;stroke-width:0.125;stroke-miterlimit:10;}
	.st29{fill:url(#SVGID_23_);}
	.st30{fill:#003A66;}
	.st31{fill:none;stroke:#F7F8FD;stroke-width:0.125;stroke-miterlimit:10;}
	.st32{fill:#07B2F2;}
	.st33{fill:#ADE7FE;}
	.st34{fill:#C5E4FC;}
	.st35{fill:#9C7FFC;}
	.st36{fill:#BD9BFD;}
	.st37{fill:#A182FA;}
	.st38{fill:#AC90FE;}
	.st39{fill:#1879EF;}
	.st40{fill:#069BF6;}
	.st41{fill:#36E1FE;}
</style>
<linearGradient id="SVGID_1_" gradientUnits="userSpaceOnUse" x1="27.5" y1="2.4284" x2="27.5" y2="52.5716">
	<stop  offset="0" style="stop-color:#000109"/>
	<stop  offset="0.4999" style="stop-color:#000D16"/>
	<stop  offset="0.5122" style="stop-color:#013043"/>
	<stop  offset="1" style="stop-color:#090417"/>
</linearGradient>
<path class="st0" d="M42.9,52.6H12.1c-5.5,0-10-4.5-10-10V12.7c0-5.7,4.6-10.3,10.3-10.3h30.5c5.5,0,10,4.5,10,10v30.1
	C52.9,48.1,48.4,52.6,42.9,52.6z"/>
<radialGradient id="SVGID_2_" cx="27.7685" cy="37.544" r="19.6252" fx="27.7845" fy="39.7456" gradientUnits="userSpaceOnUse">
	<stop  offset="0" style="stop-color:#0182B0"/>
	<stop  offset="0.19" style="stop-color:#017FAD;stop-opacity:0.81"/>
	<stop  offset="0.3512" style="stop-color:#0277A2;stop-opacity:0.6488"/>
	<stop  offset="0.5019" style="stop-color:#036891;stop-opacity:0.4981"/>
	<stop  offset="0.6463" style="stop-color:#045478;stop-opacity:0.3537"/>
	<stop  offset="0.7862" style="stop-color:#063A58;stop-opacity:0.2138"/>
	<stop  offset="0.9208" style="stop-color:#081A31;stop-opacity:7.921654e-02"/>
	<stop  offset="1" style="stop-color:#090417;stop-opacity:0"/>
</radialGradient>
<ellipse class="st1" cx="27.8" cy="37.5" rx="17.7" ry="4.3"/>
<radialGradient id="SVGID_3_" cx="9.9401" cy="32.2187" r="6.7673" gradientUnits="userSpaceOnUse">
	<stop  offset="0" style="stop-color:#000109"/>
	<stop  offset="1" style="stop-color:#090417;stop-opacity:0"/>
</radialGradient>
<ellipse class="st2" cx="9.9" cy="32.2" rx="7.1" ry="1.5"/>
<radialGradient id="SVGID_4_" cx="44.761" cy="31.9605" r="6.7673" gradientUnits="userSpaceOnUse">
	<stop  offset="0" style="stop-color:#000109"/>
	<stop  offset="1" style="stop-color:#090417;stop-opacity:0"/>
</radialGradient>
<ellipse class="st3" cx="44.8" cy="32" rx="7.1" ry="1.5"/>
<linearGradient id="glow_10_" gradientUnits="userSpaceOnUse" x1="8.832" y1="24.3232" x2="46.5078" y2="24.3232">
	<stop  offset="1.564883e-03" style="stop-color:#ABF8FD"/>
	<stop  offset="8.281601e-02" style="stop-color:#AEF9FD"/>
	<stop  offset="0.1516" style="stop-color:#B9FBFE"/>
	<stop  offset="0.1927" style="stop-color:#C3FDFE"/>
	<stop  offset="0.277" style="stop-color:#C8FCFE"/>
	<stop  offset="0.3703" style="stop-color:#D5F8FD"/>
	<stop  offset="0.4326" style="stop-color:#E2F5FC"/>
	<stop  offset="0.6161" style="stop-color:#EDECFD"/>
	<stop  offset="0.6664" style="stop-color:#F1E9FD"/>
	<stop  offset="0.8168" style="stop-color:#F8DEFC"/>
	<stop  offset="1" style="stop-color:#F0BFFC"/>
</linearGradient>
<path id="glow_5_" class="st4" d="M27.9,40h-0.4c-0.9,0-1.6-0.7-1.6-1.5l-17-28v-0.1c0-0.9,0.7-1.7,1.7-1.7h34.4
	c0.9,0,1.7,0.7,1.7,1.7v0.1l-0.1,0.1L29.5,38.5C29.4,39.3,28.7,40,27.9,40z M9.8,10.2l17,27.9v0.1c0,0.4,0.3,0.7,0.7,0.7h0.4
	c0.4,0,0.7-0.3,0.7-0.7v-0.1l0.1-0.1l16.9-27.8c-0.1-0.3-0.3-0.5-0.6-0.5H10.5C10.2,9.7,9.9,9.9,9.8,10.2z"/>
<radialGradient id="SVGID_5_" cx="27.7685" cy="44.73" r="13.508" gradientUnits="userSpaceOnUse">
	<stop  offset="0" style="stop-color:#000109"/>
	<stop  offset="1" style="stop-color:#090417;stop-opacity:0"/>
</radialGradient>
<ellipse class="st5" cx="27.8" cy="44.7" rx="14.1" ry="3.1"/>
<g id="_x31__ball">
	<radialGradient id="SVGID_6_" cx="11.0257" cy="25.5707" r="8.1189" fx="8.8449" fy="18.8652" gradientUnits="userSpaceOnUse">
		<stop  offset="0.1215" style="stop-color:#FAB712"/>
		<stop  offset="0.4138" style="stop-color:#DF8D04"/>
		<stop  offset="0.4669" style="stop-color:#D78904"/>
		<stop  offset="0.5471" style="stop-color:#C37D04"/>
		<stop  offset="0.6445" style="stop-color:#A16903"/>
		<stop  offset="0.7552" style="stop-color:#714E03"/>
		<stop  offset="0.8758" style="stop-color:#362B02"/>
		<stop  offset="0.8921" style="stop-color:#2D2602"/>
		<stop  offset="0.9364" style="stop-color:#171702"/>
		<stop  offset="0.948" style="stop-color:#111302"/>
		<stop  offset="0.9946" style="stop-color:#C4E2F6"/>
	</radialGradient>
	<circle class="st6" cx="11" cy="25.6" r="7.7"/>
	<radialGradient id="SVGID_7_" cx="9.3587" cy="24.0963" r="3.3686" fx="8.5457" fy="21.267" gradientUnits="userSpaceOnUse">
		<stop  offset="0" style="stop-color:#F9ECD9"/>
		<stop  offset="0.1754" style="stop-color:#F5E8D5;stop-opacity:0.9825"/>
		<stop  offset="0.3652" style="stop-color:#E8DCC8;stop-opacity:0.9635"/>
		<stop  offset="0.5617" style="stop-color:#D2C8B3;stop-opacity:0.9438"/>
		<stop  offset="0.763" style="stop-color:#B4AC95;stop-opacity:0.9237"/>
		<stop  offset="0.9659" style="stop-color:#8D896F;stop-opacity:0.9034"/>
		<stop  offset="0.9996" style="stop-color:#868268;stop-opacity:0.9"/>
	</radialGradient>
	<circle class="st7" cx="9.4" cy="24.1" r="3.4"/>
	<radialGradient id="glow_11_" cx="8.3604" cy="21.4561" r="1.1814" gradientUnits="userSpaceOnUse">
		<stop  offset="0" style="stop-color:#FEFCF8"/>
		<stop  offset="1" style="stop-color:#FDFCF8;stop-opacity:0.2"/>
	</radialGradient>
	<path id="glow_2_" class="st8" d="M9,22c-0.5,0.6-1.3,0.8-1.6,0.5c-0.4-0.3-0.2-1.1,0.3-1.6c0.5-0.6,1.3-0.8,1.6-0.5
		C9.7,20.7,9.5,21.5,9,22z"/>
	
		<ellipse id="glow_1_" transform="matrix(0.9114 -0.4115 0.4115 0.9114 -9.232 4.9215)" class="st9" cx="6.8" cy="23.9" rx="0.3" ry="0.6"/>
	<path d="M8.2,22.7l0-0.6l1.3,0.1l-0.2,3.8l-0.9,0l0.2-3.1L8.2,22.7z"/>
</g>
<g id="_x31_2_ball">
	<radialGradient id="SVGID_8_" cx="44.479" cy="25.5432" r="7.5895" fx="42.1742" fy="19.3238" gradientUnits="userSpaceOnUse">
		<stop  offset="1.225295e-02" style="stop-color:#D90F12"/>
		<stop  offset="0.2551" style="stop-color:#CE0F15"/>
		<stop  offset="0.5428" style="stop-color:#BB0F19"/>
		<stop  offset="0.666" style="stop-color:#990A11"/>
		<stop  offset="0.877" style="stop-color:#580002"/>
		<stop  offset="0.9146" style="stop-color:#550002"/>
		<stop  offset="0.9471" style="stop-color:#4A0001"/>
		<stop  offset="0.9776" style="stop-color:#380001"/>
		<stop  offset="1" style="stop-color:#260000"/>
	</radialGradient>
	<circle class="st10" cx="44.5" cy="25.5" r="7.6"/>
	<radialGradient id="SVGID_9_" cx="42.6905" cy="20.5088" r="5.6295" fx="41.593" fy="18.2884" gradientUnits="userSpaceOnUse">
		<stop  offset="0" style="stop-color:#F0E1CE"/>
		<stop  offset="0.1981" style="stop-color:#E6D6C4"/>
		<stop  offset="0.5311" style="stop-color:#CCBAAA"/>
		<stop  offset="0.7386" style="stop-color:#A19690"/>
		<stop  offset="1" style="stop-color:#65646D"/>
	</radialGradient>
	<path class="st11" d="M37.3,23.1c1-3,3.9-5.1,7.2-5.1c1.3,0,2.5,0.3,3.6,0.9l0,0c-1.6,0-3.7,0.4-5.8,1.3
		C40.3,20.9,38.5,22,37.3,23.1L37.3,23.1z"/>
	<radialGradient id="SVGID_10_" cx="46.1022" cy="30.6702" r="6.1788" fx="45.429" fy="29.4732" gradientUnits="userSpaceOnUse">
		<stop  offset="0" style="stop-color:#F0E1CE"/>
		<stop  offset="0.1981" style="stop-color:#E6D6C4"/>
		<stop  offset="0.5311" style="stop-color:#CCBAAA"/>
		<stop  offset="0.7386" style="stop-color:#A19690"/>
		<stop  offset="1" style="stop-color:#65646D"/>
	</radialGradient>
	<path class="st12" d="M40.6,32.1c1.1-1.3,3.4-2.5,6.1-3.3c1.8-0.5,3.5-0.7,4.9-0.6l0,0c-1.1,2.9-3.9,4.9-7.1,4.9
		C43.1,33.1,41.8,32.7,40.6,32.1L40.6,32.1z"/>
	<radialGradient id="SVGID_11_" cx="44.479" cy="25.5432" r="7.5895" fx="42.1742" fy="19.3238" gradientUnits="userSpaceOnUse">
		<stop  offset="0" style="stop-color:#DDC5AC;stop-opacity:0"/>
		<stop  offset="9.861043e-02" style="stop-color:#D2BCA4;stop-opacity:4.930522e-02"/>
		<stop  offset="0.2724" style="stop-color:#B4A490;stop-opacity:0.1362"/>
		<stop  offset="0.5009" style="stop-color:#847C6F;stop-opacity:0.2505"/>
		<stop  offset="0.7721" style="stop-color:#434741;stop-opacity:0.386"/>
		<stop  offset="1" style="stop-color:#061517;stop-opacity:0.5"/>
	</radialGradient>
	<circle class="st13" cx="44.5" cy="25.5" r="7.6"/>
	<radialGradient id="SVGID_12_" cx="46.8458" cy="24.3321" r="3.9037" fx="45.7891" fy="21.9208" gradientUnits="userSpaceOnUse">
		<stop  offset="0" style="stop-color:#F0E1CE"/>
		<stop  offset="0.1981" style="stop-color:#E6D6C4"/>
		<stop  offset="0.5311" style="stop-color:#CCBAAA"/>
		<stop  offset="0.6455" style="stop-color:#C9B7A8"/>
		<stop  offset="0.7341" style="stop-color:#BFAFA2"/>
		<stop  offset="0.8141" style="stop-color:#AFA199"/>
		<stop  offset="0.8889" style="stop-color:#978E8B"/>
		<stop  offset="0.9596" style="stop-color:#7A7579"/>
		<stop  offset="1" style="stop-color:#65646D"/>
	</radialGradient>
	<circle class="st14" cx="46.8" cy="24.3" r="3.2"/>
	<radialGradient id="glow_12_" cx="43.3092" cy="21.8275" r="1.0368" gradientUnits="userSpaceOnUse">
		<stop  offset="0" style="stop-color:#FEFCF8"/>
		<stop  offset="1" style="stop-color:#FDFCF8;stop-opacity:0.2"/>
	</radialGradient>
	<path id="glow_3_" class="st15" d="M44.1,22c-0.2,0.7-0.7,1.1-1.1,1c-0.4-0.1-0.6-0.8-0.4-1.4c0.2-0.7,0.7-1.1,1.1-1
		C44.1,20.8,44.3,21.4,44.1,22z"/>
	
		<ellipse id="glow_4_" transform="matrix(0.3828 -0.9238 0.9238 0.3828 6.0835 55.1973)" class="st9" cx="44.4" cy="23" rx="0.6" ry="0.4"/>
	<g>
		<path d="M45,24l-0.2-0.6l1-0.4l1.2,3.3l-0.7,0.3l-1-2.7L45,24z"/>
		<path d="M49.1,24.6l0.3,0.7l-2.2,0.9l0.5-1.9c0-0.2,0.1-0.4,0.1-0.5c0-0.1,0-0.3,0-0.4c0-0.1-0.1-0.2-0.2-0.2c-0.1,0-0.2,0-0.3,0
			c-0.1,0-0.2,0.1-0.2,0.2c0,0.1,0,0.2,0,0.3l-0.8-0.2c0.1-0.3,0.1-0.5,0.3-0.7c0.1-0.2,0.3-0.3,0.5-0.4c0.2-0.1,0.4-0.1,0.6-0.1
			c0.2,0,0.4,0.1,0.5,0.2c0.2,0.1,0.3,0.3,0.4,0.5c0.1,0.2,0.1,0.3,0.1,0.5c0,0.2,0,0.3,0,0.4c0,0.1-0.1,0.3-0.1,0.5
			c-0.1,0.2-0.1,0.4-0.1,0.5L49.1,24.6z"/>
	</g>
</g>
<g id="_x38__ball">
	<radialGradient id="SVGID_13_" cx="27.7685" cy="26.7767" r="14.8624" fx="27.9036" fy="11.915" gradientUnits="userSpaceOnUse">
		<stop  offset="0" style="stop-color:#094787"/>
		<stop  offset="5.181360e-02" style="stop-color:#0D0C0D"/>
		<stop  offset="0.9524" style="stop-color:#000205"/>
		<stop  offset="0.9928" style="stop-color:#055F90"/>
	</radialGradient>
	<circle class="st16" cx="27.8" cy="26.8" r="14.9"/>
	<radialGradient id="SVGID_14_" cx="27.7064" cy="24.0959" r="7.8647" fx="27.6239" fy="16.2316" gradientUnits="userSpaceOnUse">
		<stop  offset="0" style="stop-color:#EEE8DD"/>
		<stop  offset="0.2232" style="stop-color:#EBE4DA"/>
		<stop  offset="0.4274" style="stop-color:#E0D9CF"/>
		<stop  offset="0.6243" style="stop-color:#CEC7BE"/>
		<stop  offset="0.8154" style="stop-color:#B5ADA6"/>
		<stop  offset="1" style="stop-color:#968C88"/>
	</radialGradient>
	<circle class="st17" cx="27.7" cy="24.1" r="7.9"/>
	<path class="st18" d="M24.6,20.4c0.2-0.4,0.4-0.7,0.8-0.9c0.3-0.2,0.7-0.4,1.1-0.6c0.4-0.1,0.9-0.2,1.3-0.2c0.9,0,1.7,0.3,2.3,0.8
		c0.6,0.5,0.9,1.3,0.9,2.2c0,0.4-0.1,0.8-0.3,1.2c-0.2,0.4-0.5,0.7-0.8,0.9c0.5,0.3,0.9,0.7,1.1,1.1c0.2,0.4,0.3,0.9,0.3,1.5
		c0,0.5-0.1,0.9-0.3,1.3c-0.2,0.4-0.5,0.7-0.8,1c-0.4,0.3-0.8,0.5-1.2,0.6c-0.4,0.1-0.9,0.2-1.3,0.2c-0.6,0-1.2-0.1-1.8-0.4
		c-0.6-0.2-1-0.6-1.4-1.1c-0.3-0.5-0.5-1-0.5-1.6c0-0.5,0.1-1,0.4-1.4c0.3-0.4,0.6-0.8,1-1.1c-0.8-0.6-1.1-1.3-1.1-2.1
		C24.3,21.3,24.4,20.8,24.6,20.4z M28.8,25.5c-0.1-0.2-0.5-0.5-1.2-0.7c-0.5,0.3-0.8,0.5-1,0.7c-0.2,0.2-0.3,0.4-0.3,0.7
		c0,0.3,0.1,0.6,0.4,0.8c0.2,0.2,0.5,0.3,0.9,0.3c0.4,0,0.8-0.1,1-0.3c0.3-0.2,0.4-0.5,0.4-0.9C29,25.9,29,25.7,28.8,25.5z
		 M27.7,22.8c0.4-0.2,0.7-0.4,0.8-0.6c0.1-0.2,0.2-0.4,0.2-0.6c0-0.5-0.4-0.8-1.1-0.8c-0.3,0-0.5,0.1-0.7,0.3
		c-0.2,0.2-0.3,0.4-0.3,0.6C26.7,22,27,22.3,27.7,22.8z"/>
	
		<radialGradient id="glow_13_" cx="23.9567" cy="19.6042" r="2.3049" gradientTransform="matrix(1 0 0 2 0 -19.6042)" gradientUnits="userSpaceOnUse">
		<stop  offset="0" style="stop-color:#FEFCF8"/>
		<stop  offset="1" style="stop-color:#FDFCF8;stop-opacity:0.2"/>
	</radialGradient>
	<path id="glow" class="st19" d="M25,20.9c-1.2,1-2.6,1.2-3.2,0.5c-0.6-0.7-0.1-2.1,1.1-3.1s2.6-1.2,3.2-0.5
		C26.7,18.5,26.2,19.9,25,20.9z"/>
	<linearGradient id="SVGID_15_" gradientUnits="userSpaceOnUse" x1="39.1394" y1="22.6945" x2="40.8459" y2="22.6945">
		<stop  offset="0" style="stop-color:#6F50B0"/>
		<stop  offset="0.1548" style="stop-color:#6F4BBB"/>
		<stop  offset="0.4265" style="stop-color:#6D3DD8"/>
		<stop  offset="0.5195" style="stop-color:#6D37E4"/>
		<stop  offset="0.6766" style="stop-color:#8D5EEA"/>
		<stop  offset="1" style="stop-color:#D7B7F7"/>
	</linearGradient>
	<path class="st20" d="M39.1,19.8c0.9,2.3,1.2,4.2,1.1,5.8c0.5-0.6,0.6-1.5,0.6-1.8C40.7,22.3,39.4,20.2,39.1,19.8z"/>
	<linearGradient id="SVGID_16_" gradientUnits="userSpaceOnUse" x1="40.1853" y1="26.9399" x2="41.3111" y2="26.9399">
		<stop  offset="0" style="stop-color:#210236"/>
		<stop  offset="8.231923e-02" style="stop-color:#2A0341"/>
		<stop  offset="0.2273" style="stop-color:#41075F"/>
		<stop  offset="0.4165" style="stop-color:#660C8E"/>
		<stop  offset="0.5233" style="stop-color:#7E10AC"/>
		<stop  offset="0.8277" style="stop-color:#A416D0"/>
		<stop  offset="1" style="stop-color:#BC19E6"/>
	</linearGradient>
	<path class="st21" d="M41.2,25.1c-0.1,1.3-0.6,1.8-0.8,1.9c0,0.6-0.1,1.5-0.3,1.8c0.6-0.3,1-1.1,1-1.3
		C41.4,26.6,41.3,25.4,41.2,25.1z"/>
	<linearGradient id="SVGID_17_" gradientUnits="userSpaceOnUse" x1="17.3446" y1="16.7772" x2="26.5745" y2="16.7772">
		<stop  offset="0" style="stop-color:#DAE1E0"/>
		<stop  offset="2.504147e-02" style="stop-color:#CFD9DA"/>
		<stop  offset="6.914192e-02" style="stop-color:#B1C3CA"/>
		<stop  offset="0.1267" style="stop-color:#82A0B1"/>
		<stop  offset="0.1518" style="stop-color:#6B8FA5"/>
		<stop  offset="0.2111" style="stop-color:#7C9CAF"/>
		<stop  offset="0.3192" style="stop-color:#A4BAC8"/>
		<stop  offset="0.5514" style="stop-color:#9EB5C4"/>
		<stop  offset="0.8121" style="stop-color:#708FA6"/>
		<stop  offset="0.8411" style="stop-color:#6B8BA3"/>
		<stop  offset="1" style="stop-color:#456681"/>
	</linearGradient>
	<path class="st22" d="M26.6,13.2c-0.6,0.2-0.8,0.5-0.9,0.6c-2.3,0.3-6.3,2.3-8.3,6.5c-0.1-1,0.1-2,0.2-2.2S21,12.9,26.6,13.2z"/>
	<linearGradient id="SVGID_18_" gradientUnits="userSpaceOnUse" x1="15.045" y1="23.196" x2="16.033" y2="23.196">
		<stop  offset="0" style="stop-color:#268DAD"/>
		<stop  offset="0.1441" style="stop-color:#2082A9"/>
		<stop  offset="0.3971" style="stop-color:#0E65A0"/>
		<stop  offset="0.5053" style="stop-color:#06569B"/>
		<stop  offset="0.6921" style="stop-color:#084073"/>
		<stop  offset="1" style="stop-color:#0C1929"/>
	</linearGradient>
	<path class="st23" d="M16,21c-0.3,1-0.1,1.7,0,1.9c-0.3,0.4-0.6,1.7-0.5,2.4c-0.4-0.8-0.5-1.8-0.5-2.1C15,22.9,15.8,21.3,16,21z"/>
	<linearGradient id="SVGID_19_" gradientUnits="userSpaceOnUse" x1="14.0854" y1="26.6466" x2="15.1712" y2="26.6466">
		<stop  offset="0" style="stop-color:#3BE9F7"/>
		<stop  offset="6.176320e-02" style="stop-color:#37DEED"/>
		<stop  offset="0.1706" style="stop-color:#2DC0D3"/>
		<stop  offset="0.3137" style="stop-color:#1D90A8"/>
		<stop  offset="0.4838" style="stop-color:#064F6E"/>
		<stop  offset="0.5195" style="stop-color:#014061"/>
		<stop  offset="0.8049" style="stop-color:#02273B"/>
		<stop  offset="1" style="stop-color:#02151E"/>
	</linearGradient>
	<path class="st24" d="M15,26.7c-0.2,0.5,0,1.8,0.1,2.1c-0.7-0.6-1.1-1.3-1.1-1.6c0-0.2,0-2,0.3-2.7C14.4,25.6,14.6,26.5,15,26.7z"
		/>
	<linearGradient id="SVGID_20_" gradientUnits="userSpaceOnUse" x1="13.3853" y1="19.0506" x2="42.0018" y2="19.0506">
		<stop  offset="0" style="stop-color:#DAE1E0"/>
		<stop  offset="3.266828e-02" style="stop-color:#CFE4E4"/>
		<stop  offset="9.019362e-02" style="stop-color:#B1EEEF"/>
		<stop  offset="0.1578" style="stop-color:#87FBFF"/>
		<stop  offset="0.2057" style="stop-color:#76F9FE"/>
		<stop  offset="0.3004" style="stop-color:#4AF4FD"/>
		<stop  offset="0.3057" style="stop-color:#47F4FD"/>
		<stop  offset="0.4114" style="stop-color:#21F3FC"/>
		<stop  offset="0.4474" style="stop-color:#13F2FC"/>
		<stop  offset="0.6022" style="stop-color:#4CABF8"/>
		<stop  offset="0.7482" style="stop-color:#F8FBFD"/>
		<stop  offset="0.9003" style="stop-color:#1E9FEC"/>
		<stop  offset="1" style="stop-color:#1A7AF9"/>
	</linearGradient>
	<path class="st25" d="M13.5,26.1c1.7-11.4,10.2-14.2,15.2-13.8c5,0.3,12.8,4.6,13.3,13.7c-0.1-4.4-1.5-9.1-8.2-12.4
		c-6.9-3.4-12.8,0.1-15.2,1.9c-1.5,1.1-4.7,4.2-5.2,8.2C13.3,24.9,13.4,25.8,13.5,26.1z"/>
</g>
<linearGradient id="glow_14_" gradientUnits="userSpaceOnUse" x1="5.1634" y1="5.1634" x2="51.1073" y2="51.1073">
	<stop  offset="0" style="stop-color:#9FFBFD"/>
	<stop  offset="0.518" style="stop-color:#B07CF9"/>
	<stop  offset="1" style="stop-color:#DC54FC"/>
</linearGradient>
<path id="glow_6_" class="st26" d="M42.5,51.6h-30c-5.2,0-9.4-4.2-9.4-9.4V12.8c0-5.2,4.2-9.4,9.4-9.4h30c5.2,0,9.4,4.2,9.4,9.4
	v29.4C51.9,47.4,47.7,51.6,42.5,51.6z M12.5,4C7.7,4,3.7,8,3.7,12.8v29.4c0,4.8,3.9,8.8,8.8,8.8h30c4.8,0,8.8-3.9,8.8-8.8V12.8
	C51.3,8,47.3,4,42.5,4H12.5z"/>
<g id="cue">
	<linearGradient id="SVGID_21_" gradientUnits="userSpaceOnUse" x1="7.1444" y1="39.4531" x2="11.5563" y2="44.4486">
		<stop  offset="0" style="stop-color:#B17039"/>
		<stop  offset="6.427345e-02" style="stop-color:#BC6E2A"/>
		<stop  offset="0.1171" style="stop-color:#D78C42"/>
		<stop  offset="0.1633" style="stop-color:#FAD2AA"/>
		<stop  offset="0.2092" style="stop-color:#DB9656"/>
		<stop  offset="0.2629" style="stop-color:#B56427"/>
		<stop  offset="0.2885" style="stop-color:#944B16"/>
		<stop  offset="0.318" style="stop-color:#AB5D24"/>
		<stop  offset="0.3587" style="stop-color:#944F1F"/>
		<stop  offset="0.4212" style="stop-color:#774119"/>
		<stop  offset="0.4767" style="stop-color:#6E3915"/>
		<stop  offset="0.5181" style="stop-color:#361E10"/>
		<stop  offset="0.7766" style="stop-color:#1A1A21"/>
		<stop  offset="0.8067" style="stop-color:#1D2D4E"/>
		<stop  offset="0.8385" style="stop-color:#161D22"/>
		<stop  offset="1" style="stop-color:#061719"/>
	</linearGradient>
	<path class="st27" d="M11.5,35.2c-1.1,0.8-5.9,4.9-9.4,7.9v0.4c0.3,3,1.6,5.3,4.3,7.3c3.9-4,8.1-8.3,9.1-9.4
		c1.9-1.9,0.6-4.3-0.2-5.3C14.6,35.2,13.2,33.9,11.5,35.2z"/>
	<linearGradient id="SVGID_22_" gradientUnits="userSpaceOnUse" x1="14.4023" y1="32.6397" x2="19.2407" y2="38.1183">
		<stop  offset="0" style="stop-color:#F6F0EA"/>
		<stop  offset="3.812695e-02" style="stop-color:#F4F8FB"/>
		<stop  offset="0.138" style="stop-color:#F8EDDF"/>
		<stop  offset="0.1601" style="stop-color:#FDF7EB"/>
		<stop  offset="0.2287" style="stop-color:#FBF0E2"/>
		<stop  offset="0.2561" style="stop-color:#E7D3BD"/>
		<stop  offset="0.4247" style="stop-color:#A99886"/>
		<stop  offset="0.5559" style="stop-color:#79726E"/>
		<stop  offset="0.7932" style="stop-color:#2F4D65"/>
		<stop  offset="0.8088" style="stop-color:#4E79B6"/>
		<stop  offset="0.8431" style="stop-color:#4F77B7"/>
		<stop  offset="0.8637" style="stop-color:#375D85"/>
		<stop  offset="1" style="stop-color:#26638B"/>
	</linearGradient>
	<path class="st28" d="M11.6,35.1c2-0.2,5.7,1.8,4.3,6c2.3-2.4,3.6-3.7,4.3-4.4c2.8-2.7-1.8-7.2-4.5-5S11.6,35.1,11.6,35.1z"/>
	<g>
		<linearGradient id="SVGID_23_" gradientUnits="userSpaceOnUse" x1="17.8284" y1="29.9819" x2="22.1219" y2="34.8434">
			<stop  offset="0" style="stop-color:#3496CE"/>
			<stop  offset="5.491257e-02" style="stop-color:#278FD1"/>
			<stop  offset="0.1097" style="stop-color:#6EA1D6"/>
			<stop  offset="0.1669" style="stop-color:#3085C1"/>
			<stop  offset="0.4694" style="stop-color:#034277"/>
			<stop  offset="0.6904" style="stop-color:#011324"/>
			<stop  offset="0.9997" style="stop-color:#000B19"/>
		</linearGradient>
		<path class="st29" d="M20.4,36.4c0.5-0.9,0.5-1.9,0-2.9c-0.6-1.3-2-2.2-3.3-2.2c-0.3,0-0.7,0.1-1,0.2c0,0,0.9-0.7,1-0.7
			c0.9-0.7,1.8-0.8,2.4-0.8c0.8,0,1.6,0.3,2.1,0.8c1,1.1,1.6,2.9-0.1,4.5L20.4,36.4z"/>
		<path class="st30" d="M19.5,30c0.8,0,1.6,0.3,2,0.8c1,1.1,1.5,2.8-0.1,4.5l-0.8,0.9c0.3-0.8,0.3-1.7-0.1-2.6
			c-0.6-1.3-2-2.3-3.3-2.3c-0.2,0-0.4,0-0.7,0.1c0,0,0,0,0,0c0.3-0.2,0.6-0.4,0.7-0.5C18.1,30.1,18.9,30,19.5,30 M19.5,29.9
			c-0.8,0-1.6,0.3-2.4,0.8c-0.2,0.1-1.1,0.8-1.7,1.3c0.6-0.4,1.2-0.6,1.8-0.6c2.5,0,4.8,3.2,2.8,5.6l1.6-1.7c1.9-1.9,1-3.7,0.1-4.6
			C21.2,30.2,20.4,29.9,19.5,29.9L19.5,29.9z M19.9,37l-0.3,0.3C19.7,37.2,19.8,37.1,19.9,37L19.9,37z"/>
	</g>
</g>
<g id="star">
	<polygon id="glow_7_" class="st31" points="25.9,49.1 26.3,47.2 24.8,45.9 26.7,45.9 27.5,44 28.2,45.9 30.2,45.9 28.6,47.2 
		29.1,49.1 27.5,47.9 	"/>
	<polygon class="st32" points="27.5,46.7 27.5,44 26.7,45.9 	"/>
	<polygon class="st33" points="27.5,46.7 28.2,45.9 27.5,44 	"/>
	<polygon class="st34" points="27.5,46.7 30.2,45.9 28.2,45.9 	"/>
	<polygon class="st35" points="27.5,46.7 28.6,47.2 30.2,45.9 	"/>
	<polygon class="st36" points="27.5,46.7 29.1,49.1 28.6,47.2 	"/>
	<polygon class="st37" points="27.5,47.9 27.5,46.7 29.1,49.1 	"/>
	<polygon class="st38" points="27.5,47.9 25.9,49.1 27.5,46.7 	"/>
	<polygon class="st39" points="27.5,46.7 25.9,49.1 26.3,47.2 	"/>
	<polygon class="st40" points="27.5,46.7 26.3,47.2 24.8,45.9 	"/>
	<polygon class="st41" points="27.5,46.7 26.7,45.9 24.8,45.9 	"/>
</g>
<g id="star_1_">
	<polygon id="glow_8_" class="st31" points="34.9,49.1 35.3,47.2 33.8,45.9 35.7,45.9 36.5,44 37.2,45.9 39.2,45.9 37.6,47.2 
		38.1,49.1 36.5,47.9 	"/>
	<polygon class="st32" points="36.5,46.7 36.5,44 35.7,45.9 	"/>
	<polygon class="st33" points="36.5,46.7 37.2,45.9 36.5,44 	"/>
	<polygon class="st34" points="36.5,46.7 39.2,45.9 37.2,45.9 	"/>
	<polygon class="st35" points="36.5,46.7 37.6,47.2 39.2,45.9 	"/>
	<polygon class="st36" points="36.5,46.7 38.1,49.1 37.6,47.2 	"/>
	<polygon class="st37" points="36.5,47.9 36.5,46.7 38.1,49.1 	"/>
	<polygon class="st38" points="36.5,47.9 34.9,49.1 36.5,46.7 	"/>
	<polygon class="st39" points="36.5,46.7 34.9,49.1 35.3,47.2 	"/>
	<polygon class="st40" points="36.5,46.7 35.3,47.2 33.8,45.9 	"/>
	<polygon class="st41" points="36.5,46.7 35.7,45.9 33.8,45.9 	"/>
</g>
<g id="star_2_">
	<polygon id="glow_9_" class="st31" points="16.9,49.1 17.3,47.2 15.8,45.9 17.7,45.9 18.5,44 19.2,45.9 21.2,45.9 19.6,47.2 
		20.1,49.1 18.5,47.9 	"/>
	<polygon class="st32" points="18.5,46.7 18.5,44 17.7,45.9 	"/>
	<polygon class="st33" points="18.5,46.7 19.2,45.9 18.5,44 	"/>
	<polygon class="st34" points="18.5,46.7 21.2,45.9 19.2,45.9 	"/>
	<polygon class="st35" points="18.5,46.7 19.6,47.2 21.2,45.9 	"/>
	<polygon class="st36" points="18.5,46.7 20.1,49.1 19.6,47.2 	"/>
	<polygon class="st37" points="18.5,47.9 18.5,46.7 20.1,49.1 	"/>
	<polygon class="st38" points="18.5,47.9 16.9,49.1 18.5,46.7 	"/>
	<polygon class="st39" points="18.5,46.7 16.9,49.1 17.3,47.2 	"/>
	<polygon class="st40" points="18.5,46.7 17.3,47.2 15.8,45.9 	"/>
	<polygon class="st41" points="18.5,46.7 17.7,45.9 15.8,45.9 	"/>
</g>
</svg>
