<svg xmlns="http://www.w3.org/2000/svg" width="0" height="0">
	
	<svg id="icon-menu" viewBox="0 0 21 21">
		<style type="text/css">
			.st0{fill:#006102;}
		</style>
		<rect class="st0" x="3.5" y="4" width="14" height="3" rx="1"/>
		<rect class="st0" x="3.5" y="9" width="14" height="3" rx="1"/>
		<rect class="st0" x="3.5" y="14" width="14" height="3" rx="1"/>
	</svg>
	
	<svg id="icon-champion" viewBox="0 0 59 61">
		<style type="text/css">
			.st0{fill:#B1520E;}
			.st1{fill:url(#SVGID_1_);}
			.st2{fill:#832E19;}
			.st3{fill:url(#SVGID_2_);}
			.st4{fill:url(#SVGID_3_);}
			.st5{fill:url(#SVGID_4_);}
			.st6{fill:url(#SVGID_5_);}
			.st7{fill:#FCBE57;}
			.st8{fill:#F29047;}
			.st9{fill:#FFEBCC;}
			.st10{fill:#FBBA46;}
			.st11{fill:url(#SVGID_6_);}
			.st12{fill:#CD570F;}
			.st13{fill:url(#SVGID_7_);}
			.st14{fill:#FFFFF6;}
			.st15{fill:#FAF482;}
			.st16{fill:#FFF2DF;}
			.st17{fill:#F79E4E;}
			.st18{fill:#F9EDC3;}
			.st19{fill:url(#SVGID_8_);}
			.st20{fill:#70310E;}
			.st21{fill:#FFFFF8;}
			.st22{fill:#FFEA81;}
			.st23{fill:#FFF8DB;}
			.st24{fill:none;stroke:#000000;stroke-width:0.5;stroke-miterlimit:10;}
			.st25{fill:url(#SVGID_9_);}
			.st26{fill:url(#SVGID_10_);}
		</style>
		<path class="st0" d="M57.6,18.8c-0.8-6.4-5.1-8.3-6.3-8.4c-0.2-1.1-1-1.5-2-1.6c-0.1-1.1-1.1-4.6-1.5-5.2c-2.4-2.2-13.1-3-23.9-0.6
			S6.4,12.9,5.6,17.5c-4,2.8-6,9.8-3.4,15.2C4.6,38.1,9.7,43,19,42.3c0.8,1.7,3.3,1.5,4.1,0.8c1.3,1.2,5,2,6.4,1.9
			c0,1.4,2.3,2.5,3.2,2c0,1.8-0.4,3.3-1.5,4.4c-1.1,1.1-2,3.8-1.7,5.3c0.4,1.5,0.9,3.2,3.2,3.3c2.2,0.2,14.4-0.8,18.2-4.4
			c2.7-2.6,0.3-6.4-1.5-7s-5-1.7-5.6-4.3c1.3-0.4,2-2.2,1.2-3.1c2.2-1.5,4-4.6,4.4-6c1.3,0.6,3.3,0.5,3.7-2.3
			C55.9,30.8,58.3,25.1,57.6,18.8z M11.1,34.1c-1.4-1.7-2.2-5-1.4-7.4c0.3,1.4,2.8,6.8,6,10C14.1,36.6,12.5,35.8,11.1,34.1z
			 M51.2,26.8c0.3-1.7,0.3-6,0-7.5C52.9,20.9,52.6,25.2,51.2,26.8z"/>
		<linearGradient id="SVGID_1_" gradientUnits="userSpaceOnUse" x1="34.2472" y1="20.6234" x2="34.2472" y2="58.9838" gradientTransform="matrix(1 0 0 -1 0 61.8898)">
			<stop  offset="0" style="stop-color:#DF6138;stop-opacity:0.4"/>
			<stop  offset="0.5194" style="stop-color:#D96237"/>
			<stop  offset="1" style="stop-color:#E5653E"/>
		</linearGradient>
		<path class="st1" d="M19.8,6.5C24,4.8,34.7,0.5,47.7,4.7C53,19,52.5,34.3,45,41.1c-2.5-2.2-8.3-1.4-10.5,0c-2.2,1.4-14.3-6.3-16-8.9
			s-1.3-7.1,0-8.7c1.3-1.6,1.1-8.8-0.4-10.5S18.2,7.3,19.8,6.5z"/>
		<path class="st2" d="M33.1,57c6.8-3.3,10.6-4,13.8-4.2c3.2-0.2,5.6-0.6,4.7,1.2c-0.8,1.9-2.2,2.5-3.2,3c1.3-2.2-0.1-3.4-4.3-2.8
			C40,54.8,35.2,56.3,33.1,57z"/>
		<linearGradient id="SVGID_2_" gradientUnits="userSpaceOnUse" x1="37.1481" y1="1.8581" x2="37.1481" y2="4.9961" gradientTransform="matrix(1 0 0 -1 0 61.8898)">
			<stop  offset="0" style="stop-color:#C18B69"/>
			<stop  offset="1" style="stop-color:#B05624"/>
		</linearGradient>
		<path class="st3" d="M32.8,59.9c-2.8-0.3-3-0.9-1.1-1.8c2.2-1,6.5-1.6,10.5-0.8c4,0.8-0.8,2-1.9,2.2C38.6,59.8,36.3,60.3,32.8,59.9z
			"/>
		<linearGradient id="SVGID_3_" gradientUnits="userSpaceOnUse" x1="45.7105" y1="41.0793" x2="45.7105" y2="13.6601" gradientTransform="matrix(1 0 0 -1 0 61.8898)">
			<stop  offset="0" style="stop-color:#DD6439"/>
			<stop  offset="0.2605" style="stop-color:#C55919"/>
			<stop  offset="0.6661" style="stop-color:#9E4410"/>
			<stop  offset="1" style="stop-color:#5B1305"/>
		</linearGradient>
		<path class="st4" d="M50,20.8c1.2,8.2-0.3,14.6-5.9,19.9c0.5,0.5-0.1,0.9-0.5,0.9c0.4,1.1,0.3,1.7-1.1,2.2c-0.3,0.9,2.3,3.8,4.2,4.4
			c-3.9-1.4-5.5-3.6-5.7-4.3s0.3-1.2,1.3-1.5c0.9-0.3,0.8-1.4,0.2-1.6C44.1,39.7,50.5,34.5,50,20.8z"/>
		<linearGradient id="SVGID_4_" gradientUnits="userSpaceOnUse" x1="19.6896" y1="43.7041" x2="19.6896" y2="56.5738" gradientTransform="matrix(1 0 0 -1 0 61.8898)">
			<stop  offset="0" style="stop-color:#DD6439;stop-opacity:0"/>
			<stop  offset="1" style="stop-color:#5B1305"/>
		</linearGradient>
		<path class="st5" d="M22.3,5.3c-1.8,0.4-3,1.1-3.6,1.6c-1.8,3-1.6,6.2-1.3,8.4c0.8,1,1.3,1.2,1.3,2.9C19.1,12.3,19.7,7.9,22.3,5.3z"
			/>
		<linearGradient id="SVGID_5_" gradientUnits="userSpaceOnUse" x1="14.5748" y1="47.3441" x2="14.5748" y2="53.8021" gradientTransform="matrix(1 0 0 -1 0 61.8898)">
			<stop  offset="0" style="stop-color:#DD6439;stop-opacity:0"/>
			<stop  offset="1" style="stop-color:#5B1305"/>
		</linearGradient>
		<path class="st6" d="M16.3,8.1C15,8.6,13.7,9.7,13,10.3c-0.3,1.3-0.1,2.5,0.3,3.3c0.2-0.4,0.8-1.1,1.5,0.9
			C14,12.4,13.7,10.7,16.3,8.1z"/>
		<path class="st7" d="M52.3,12.8c-1.4-0.8-2.6,0.3,0,1.9c2.3,1.4,3.3,4.1,3.6,5.5C56.7,16.9,53,13.2,52.3,12.8z"/>
		<path class="st8" d="M42.7,45.2c-1-1.1-2.8-0.5-3.2,0.3c-0.4,0.8-0.8,3.3,0.7,3.9c1.5,0.6,6.9-0.3,8.3-0.5
			C44.5,48.5,43.8,46.4,42.7,45.2z"/>
		<path class="st7" d="M48.3,5.1c0-0.8-0.7-1.6-0.7-1.6s-6.2-2.2-13.1-1.9C27.6,2,18.9,3,10.7,9.8c-4.5,3.7-4.4,7.3-5.1,7.7
			c-0.6,0.3-2.1,1.7-2.6,2.8s-3.7,8.3,0.1,14.2s7.5,6.7,9.9,7C7.2,39.2,3.1,33.6,3,28c-0.1-4.1,4.5-11.1,10.5-10.8
			c3,0.2,4.2,1.6,4.7,3c0.4-2.4-0.5-5-4.5-5.1c-4-0.1-5.2,1.4-5.8,1.8C10.9,9.6,20.3,5,28.6,4.2S41.9,2.9,48.3,5.1z"/>
		<path class="st9" d="M32.3,49.6c0.4-1.2,0.8-0.9,0.6,0.4c-0.2,1.3-1.7,2.5-2.2,3.1c-0.4,0.4-1.1,0.3,0.1-1.2
			C32,50.4,31.8,51.2,32.3,49.6z"/>
		<path class="st9" d="M52.6,23.5c0.4-1.2,0.6,0,0.4,1.3c-0.2,1.3-0.8,2.6-1.4,3.3c-0.4,0.4-0.8-0.3-0.3-1.2
			C52.2,25.2,52.1,25,52.6,23.5z"/>
		<path class="st9" d="M49.5,31.4c0.4-1.2,0.3,0.7,0.1,2c-0.2,1.3-1.1,4.3-2,5c-0.5,0.3-0.4-0.7,0.1-1.7C48.6,35,49,33,49.5,31.4z"/>
		<path class="st10" d="M51.4,54.5c-0.1-1,1.1-1.6-2.9-1.7c-4.1-0.1-8.3,0.9-13.1,3c-0.5-1.1-1.2-1.9-1.2-2.3c2.2-1.7,7.6-3.1,11-3.7
			c3.3-0.6,4.4-0.4,5.3-0.4C52,51.4,52.1,53.9,51.4,54.5z"/>
		<linearGradient id="SVGID_6_" gradientUnits="userSpaceOnUse" x1="21.5784" y1="44.1938" x2="21.5784" y2="4.3319" gradientTransform="matrix(1 0 0 -1 0 61.8898)">
			<stop  offset="0" style="stop-color:#DD6439"/>
			<stop  offset="0.2605" style="stop-color:#C55919"/>
			<stop  offset="0.6661" style="stop-color:#9E4410"/>
			<stop  offset="1" style="stop-color:#5B1305"/>
		</linearGradient>
		<path class="st11" d="M32,57.6c0.6-0.6,2.8-1.6,3.4-1.8c-0.4-1.2-1.5-2-1.2-2.5c2.2-1.5,3.3-5,1.1-8.1c-0.9,0.4-2.3,0-2-1.4
			s5-2.5,6.3-2.5c-2.6-0.5-5.1-0.2-5.6,0c1.3-1.9,1-9.4-7.5-11.1c-8.5-1.8-8.7-2.3-9.8-3.4c-0.8,0.8-1.1,2.1-1.1,2.9
			c1.2,3.3,4.9,7.1,7.3,8.3c-2.1,0.7-5.5,1.3-8.3,0.4c-2.9-0.9-6.4-2.9-7.5-7.7c-1.2-4.8,2.3-7.9,5.2-7.7c3,0.3,4.1,0.7,4.4,1.4
			c0.8-0.2,2.3-3,1.6-4.3c-0.7-1.2-2.1-3-6.3-2.3s-8.2,4.9-8.3,10S7,38.2,10.4,39.6s7.5,1.2,9.6,1.1c-1.8,1.1-0.4,2.5,0.4,2.8
			c0.8,0.2,2.1,0.6,3.3-1.1c1.2-1.7,0.7-2.5,0.5-2.9c2.8,2.3,6.5,4.1,7.2,4.4c-0.8,1.1,0.6,2.9,2.8,2.7c0.4,3.5-1.2,6.8-3.2,8
			c-2,1.2-0.6,2.2,0.4,1.5C31.9,55.5,32.2,56.5,32,57.6z"/>
		<path class="st12" d="M50.5,14c3.6,1.4,5.5,6.5,4.9,10.3c-0.9,5.2-2.6,6.2-4.9,7.7c0.8-3.1,0.7-3.4,0.6-4c2-1.7,1.6-4.1,1.5-6
			c-0.1-1.9-0.6-2.9-1.5-2.9C51.1,16.8,51.4,15.8,50.5,14z"/>
		<linearGradient id="SVGID_7_" gradientUnits="userSpaceOnUse" x1="11.6808" y1="28.9402" x2="11.6808" y2="39.8046" gradientTransform="matrix(1 0 0 -1 0 61.8898)">
			<stop  offset="0" style="stop-color:#D16121;stop-opacity:0.3"/>
			<stop  offset="1" style="stop-color:#893C0E"/>
		</linearGradient>
		<path class="st13" d="M14.2,26.1c1.6,0.6,2.5-2,2.4-2.5c-0.5-1.5-2.6-1.8-4.6-1.4c-2.2,0.5-5.3,1.4-5.3,5.3c0,2.3,1.9,4.3,2.9,5.3
			c-1.6-4-1.6-7.3,1.3-8C13,24.5,13.1,25.8,14.2,26.1z"/>
		<path class="st14" d="M38.9,51.2c1.9-0.7,5.5-1.5,7.2-1.7c-1.1,0.2-0.9,0.9-0.7,1.4c0.3,0.6-1.2,1.8-2.4,1.5
			c-1.2-0.3-1.1-1.3-0.8-1.6C41.3,50.9,39.9,51,38.9,51.2z"/>
		<path class="st14" d="M51,50.3c-0.7-1.2-2.1-1.4-1,0.3c1.1,1.7,1.8,1.5,1.8,2.8C52,52.1,51.7,51.5,51,50.3z"/>
		<path class="st15" d="M16.5,37.2c-1.9-0.1-3.2-0.6-4.7-1.9c-1.4-1.4-1.6-2.1-1.9-2.8c-0.3-0.6-2.4-1.5-0.8,1.2
			c1.2,1.9,2.5,3.6,5.6,4.3c3,0.8,5.2,0.4,5.8,0.3c1.6-0.1,1.8-1.2-0.4-1.1C17.8,37.5,17.1,37.2,16.5,37.2z"/>
		<path class="st16" d="M16.2,37.1c-1.2,0-2.2-0.5-3.3-1.2c0.6,0.8,1.5,2.2,4.4,2.3s4.1-0.8,1-1.3c-2.4-0.3-3.1-2.9-3.4-4
			C13.3,34.7,15.7,36.9,16.2,37.1z"/>
		<path class="st15" d="M23,42.9c0.4-0.3,0.9-0.9,1.1-1.4c2.4,1.2,3.6,2.3,5.4,2.5c1.7,0.1,1.3,1.1-1,0.9C26.2,44.6,24.8,43.9,23,42.9
			z"/>
		<path class="st17" d="M41.5,41c-1.5-0.1-4.4,0.7-6.5,1.6c-2,0.8-1.8,3.1,0.3,2.3c2-0.8,4.2-1.7,5.5-2C42.2,42.6,44.7,41.3,41.5,41z"
			/>
		<path class="st18" d="M39.6,41.3c-2,0.2-2.8,0.8-2.7,1.2c0.1,0.4,0.5,1,2.4,0.4c1.9-0.6,3.5-0.5,2.7-0.9
			C41.1,41.5,40.4,41.3,39.6,41.3z"/>
		<linearGradient id="SVGID_8_" gradientUnits="userSpaceOnUse" x1="35.9334" y1="58.9019" x2="35.9334" y2="30.24" gradientTransform="matrix(1 0 0 -1 0 61.8898)">
			<stop  offset="0" style="stop-color:#FFC56D"/>
			<stop  offset="1" style="stop-color:#F67D52;stop-opacity:0.1"/>
		</linearGradient>
		<path class="st19" d="M44.7,3.8c-3.9-1.1-14.1-1.2-18.8,0.5c-3.3,5.6-5.5,15.7-1.6,20.3s12.2,8.9,17.9,6.3s7.9-7.2,7.3-13.5
			C48.8,11.1,46,6.4,44.7,3.8z"/>
		<path class="st20" d="M49.1,8.8c1.1,0,2.1,1.1,2.6,1.9c-1.3,0-1.6,1.1-0.8,2.6c0.8,1.5,1.1,4.5,0.8,6.1c0,0-0.5-0.2-0.9-0.6
			c0.2-2.9-0.3-6.6-1.2-8.2L49.1,8.8z"/>
		<path class="st21" d="M43.9,3.6c-0.7-0.2-3.3-0.9-3.5,0.4c-0.2,1.3-0.1,4.1,1.9,4.1c2,0,3.4-1.4,3.1-2.4C45.1,4,44.4,3.7,43.9,3.6z"
			/>
		<path class="st21" d="M34.1,3.2c-2.6-0.2-5.8,0.3-8.1,0.7c-2.1,0.4-3-0.6,1.2-1.3s5.1-0.8,7-0.8C36.1,2,38.3,3.6,34.1,3.2z"/>
		<path class="st22" d="M11.2,24.9c1-0.3,1.7,0.4,2.3,0.5c1.1,0,0.6-1.4-1.3-1.4c-1.9-0.1-2.6,0.7-2.9,1.1C9,25.7,8.6,27,8.7,27.2
			C9,25.9,9.5,25.3,11.2,24.9z"/>
		<path class="st23" d="M7.7,17.6c-1.1-1.5-4,2-4.1,3.8c-0.1,1.7,0.5,1.3,1.7,0C6.5,19.9,8.5,18.7,7.7,17.6z"/>
		<g>
			<path class="st24" d="M47.8,3.7c-2.4-2.2-13.1-3-23.9-0.6S6.4,12.9,5.6,17.5c-4,2.8-6,9.8-3.4,15.2S9.7,43,19,42.3
				c0.8,1.7,3.3,1.5,4.1,0.8c1.3,1.2,5,2,6.4,1.9c0,1.4,2.3,2.5,3.2,2c0,1.8-0.4,3.3-1.5,4.4c-1.1,1.1-2,3.8-1.7,5.3
				c0.4,1.5,0.9,3.2,3.2,3.3c2.2,0.2,14.4-0.8,18.2-4.4c2.7-2.6,0.3-6.4-1.5-7s-5-1.7-5.6-4.3c1.3-0.4,2-2.2,1.2-3.1
				c2.2-1.5,4-4.6,4.4-6c1.3,0.6,3.3,0.5,3.7-2.3c2.8-2.2,5.2-7.9,4.5-14.2c-0.8-6.4-5.1-8.3-6.3-8.4c-0.2-1.1-1-1.5-2-1.6
				C49.1,7.8,48.2,4.3,47.8,3.7z"/>
			<path class="st24" d="M9.7,26.8c-0.8,2.3,0,5.7,1.4,7.4s3,2.5,4.5,2.7C12.4,33.6,9.9,28.1,9.7,26.8z"/>
			<path class="st24" d="M51.2,26.8c1.4-1.6,1.7-6,0-7.5C51.4,20.8,51.5,25.1,51.2,26.8z"/>
		</g>
		<radialGradient id="SVGID_9_" cx="21.8354" cy="48.54" r="8.0272" gradientTransform="matrix(1 0 0 -1 0 61.8898)" gradientUnits="userSpaceOnUse">
			<stop  offset="0" style="stop-color:#FFFA68"/>
			<stop  offset="1" style="stop-color:#FEFFF6;stop-opacity:0"/>
		</radialGradient>
		<path class="st25" d="M22.2,13.7c4.3,0,7.7-0.2,7.7-0.3S26.4,13,22.2,13c0-4.3-0.2-7.7-0.3-7.7s-0.3,3.4-0.3,7.7
			c-4.3,0-7.7,0.2-7.7,0.3c0,0.2,3.4,0.3,7.7,0.3c0,4.3,0.2,7.7,0.3,7.7S22.2,18,22.2,13.7z"/>
		<radialGradient id="SVGID_10_" cx="21.8252" cy="48.54" r="4.2179" gradientTransform="matrix(1 0 0 -1 0 61.8898)" gradientUnits="userSpaceOnUse">
			<stop  offset="0" style="stop-color:#FFFFF8"/>
			<stop  offset="1" style="stop-color:#FEFFF6;stop-opacity:0"/>
		</radialGradient>
		<path class="st26" d="M22,13.5c2.2,0,4-0.1,4-0.2s-1.8-0.2-4-0.2c0-2.2-0.1-4-0.2-4s-0.2,1.8-0.2,4c-2.2,0-4,0.1-4,0.2
			s1.8,0.2,4,0.2c0,2.2,0.1,4,0.2,4S22,15.8,22,13.5z"/>
	</svg>

	<svg id="solid-sprite-sheet" viewBox="0 0 148 148" size="keep">
		<style type="text/css">
			.st0{fill:#fff;}
			.st1{fill:#dd0;}
			.st2{fill:#00f;}
			.st3{fill:#f00;}
			.st4{fill:#f08;}
			.st5{fill:#f80;}
			.st6{fill:#080;}
			.st7{fill:#800;}
			.st8{fill:#000;}
		</style>
		<circle class="st0" cx="24" cy="24" r="24"/>
		<circle class="st1" cx="72" cy="24" r="24"/>
		<circle class="st2" cx="120" cy="24" r="24"/>
		<circle class="st3" cx="24" cy="72" r="24"/>
		<circle class="st4" cx="72" cy="72" r="24"/>
		<circle class="st5" cx="120" cy="72" r="24"/>
		<circle class="st6" cx="24" cy="120" r="24"/>
		<circle class="st7" cx="72" cy="120" r="24"/>
		<circle class="st8" cx="120" cy="120" r="24"/>
	</svg>

	<svg id="ball-shadow" viewBox="0 0 50 50" size="keep">
		<style type="text/css">
			.st0{fill:url(#SVGID_1_);}
		</style>
		<radialGradient id="SVGID_1_" cx="25" cy="25" r="17" gradientUnits="userSpaceOnUse">
			<stop  offset="0" style="stop-color:#000;stop-opacity:0.9"/>
			<stop  offset=".9" style="stop-color:#000;stop-opacity:0"/>
		</radialGradient>
		<circle class="st0" cx="25" cy="25" r="25"/>
	</svg>

	<svg id="ball-shade" viewBox="0 0 52 52" size="keep">
		<style type="text/css">
			.st0{opacity:0.9;fill:url(#SVGID_1_);}
		</style>
		<radialGradient id="SVGID_1_" cx="26" cy="26" r="32.7053" fx="25.7836" fy="6.1884" gradientUnits="userSpaceOnUse">
			<stop  offset="0.1481" style="stop-color:#F0F0F0;stop-opacity:0.5"/>
			<stop  offset="0.208" style="stop-color:#E7E7E7;stop-opacity:0.5"/>
			<stop  offset="0.3042" style="stop-color:#D0D0D0;stop-opacity:0.5"/>
			<stop  offset="0.8878" style="stop-color:#000;stop-opacity:0.8"/>
			<stop  offset="0.9121" style="stop-color:#000;stop-opacity:0.7"/>
			<stop  offset="0.9558" style="stop-color:#000;stop-opacity:0.6"/>
			<stop  offset="1" style="stop-color:#000;stop-opacity:0.5"/>
		</radialGradient>
		<circle class="st0" cx="26" cy="26" r="26"/>
	</svg>

	<svg id="ball-highlight" viewBox="0 0 52 52" size="keep">
		<style type="text/css">
			.st1{opacity:0.65;fill:url(#SVGID_2_);}
			.st2{opacity:0.95;fill:url(#SVGID_3_);}
			.st3{opacity:1.0;fill:url(#SVGID_4_);}
		</style>
		<linearGradient id="SVGID_2_" gradientUnits="userSpaceOnUse" x1="6.0811" y1="18.2199" x2="18.7608" y2="18.0038" gradientTransform="matrix(-0.808 -0.5892 0.5892 -0.808 10.1663 36.313)">
			<stop  offset="0" style="stop-color:#F0F0F0;stop-opacity:0"/>
			<stop  offset="1" style="stop-color:#F0F0F0;stop-opacity:0.8"/>
		</linearGradient>
		<radialGradient id="SVGID_3_" cx="34.5" cy="14.5" r="7.5" gradientUnits="userSpaceOnUse">
			<stop  offset="0" style="stop-color:#fff;stop-opacity:0.9"/>
			<stop  offset="0.2475" style="stop-color:#fff;stop-opacity:0.402"/>
			<stop  offset="0.5607" style="stop-color:#fff;stop-opacity:0.1514"/>
			<stop  offset="1" style="stop-color:#fff;stop-opacity:0"/>
		</radialGradient>
		<radialGradient id="SVGID_4_" cx="27" cy="20" r="5" gradientUnits="userSpaceOnUse">
			<stop  offset="0" style="stop-color:#fff;stop-opacity:0.9"/>
			<stop  offset="0.2691" style="stop-color:#fff;stop-opacity:0.5848"/>
			<stop  offset="0.5396" style="stop-color:#fff;stop-opacity:0.3683"/>
			<stop  offset="0.8101" style="stop-color:#fff;stop-opacity:0.1519"/>
			<stop  offset="1" style="stop-color:#fff;stop-opacity:0"/>
		</radialGradient>
		<path class="st1" d="M15.8,18c4.4-6,5.8-12.5,3.1-14.4S10.5,4.9,6.2,11S0.4,23.5,3,25.4S11.5,24.1,15.8,18z"/>
		<circle class="st2" cx="34.5" cy="14.5" r="9"/>
		<circle class="st3" cx="27" cy="20" r="5"/>
	</svg>

	<svg id="spot-sprite-sheet" viewBox="0 0 152 152" size="keep">
		<style type="text/css">
			.st0{fill:#fff;}
			.st1{fill:#d00;}
		</style>
		<g>
			<circle class="st0" cx="19" cy="19" r="19"/>
			<circle class="st0" cx="57" cy="19" r="19"/>
			<circle class="st0" cx="95" cy="19" r="19"/>
			<circle class="st0" cx="133" cy="19" r="19"/>
			<circle class="st0" cx="19" cy="57" r="19"/>
			<circle class="st0" cx="57" cy="57" r="19"/>
			<circle class="st0" cx="95" cy="57" r="19"/>
			<circle class="st0" cx="133" cy="57" r="19"/>
			<circle class="st0" cx="19" cy="95" r="19"/>
			<circle class="st0" cx="57" cy="95" r="19"/>
			<circle class="st0" cx="95" cy="95" r="19"/>
			<circle class="st0" cx="133" cy="95" r="19"/>
			<circle class="st0" cx="19" cy="133" r="19"/>
			<circle class="st0" cx="57" cy="133" r="19"/>
			<circle class="st0" cx="95" cy="133" r="19"/>
			<circle class="st0" cx="133" cy="133" r="19"/>
		</g>
		<circle class="st1" cx="19" cy="19" r="6"/>
		<g>
			<path d="M118.2,125.6h0.6c4.2,0,5.4-2.2,5.5-3.9h3.6V144h-4.4v-15.3h-5.3V125.6z"/>
			<path d="M135.8,130.7c0.8-0.6,1.8-1.2,4-1.2c3,0,6.7,2.1,6.7,7.2c0,3-1.5,8-8.1,8c-3.5,0-7-2.1-7.2-6.6h4.4c0.2,1.8,1.2,3,3.1,3
				c2.1,0,3.3-1.8,3.3-4.2c0-2-0.9-4-3.3-4c-0.6,0-2.1,0-2.9,1.6l-3.9-0.2l1.5-12.2h12.2v3.7h-9.1L135.8,130.7z"/>
		</g>
		<g>
			<path d="M79.5,125.6h0.6c4.2,0,5.4-2.2,5.5-3.9h3.6V144h-4.4v-15.3h-5.3V125.6z"/>
			<path d="M108.2,139.1h-2.5v4.9h-4.4v-4.9h-8.8v-3.8l8.2-13.6h5v13.9h2.5V139.1z M101.3,135.7c0-5.4,0.1-8.9,0.1-9.6h-0.1l-5.6,9.6
				H101.3z"/>
		</g>
		<g>
			<path d="M42,125.6h0.6c4.2,0,5.4-2.2,5.5-3.9h3.6V144h-4.4v-15.3H42V125.6z"/>
			<path d="M60.8,131.1h0.7c1.3,0,3.7-0.1,3.7-3c0-0.8-0.4-2.9-2.8-2.9c-3,0-3,2.9-3,3.6h-4.1c0-4.2,2.4-7.2,7.4-7.2
				c3,0,6.9,1.5,6.9,6.2c0,2.3-1.4,3.7-2.7,4.2v0.1c0.8,0.2,3.4,1.4,3.4,5.2c0,4.2-3.1,7.2-7.6,7.2c-2.1,0-7.7-0.5-7.7-7.4h4.3l0,0
				c0,1.2,0.3,3.9,3.3,3.9c1.8,0,3.3-1.2,3.3-3.7c0-3-3-3.2-5-3.2V131.1z"/>
		</g>
		<g>
			<path d="M3.9,125.7h0.6c4.2,0,5.4-2.2,5.5-3.9h3.6v22.3H9.2v-15.3H3.9V125.7z"/>
			<path d="M17.1,129.7c0-7.2,5.3-7.9,7.3-7.9c4.3,0,7.7,2.5,7.7,7c0,3.8-2.5,5.8-4.6,7.2c-2.9,2.1-4.5,3.1-5,4.1h9.7v3.9H16.9
				c0.2-2.6,0.3-5.3,5.2-8.8c4-2.9,5.6-4,5.6-6.6c0-1.5-0.9-3.2-3.1-3.2c-3.1,0-3.2,2.5-3.2,4.2H17.1z"/>
		</g>
		<g>
			<path d="M120.3,87.4h0.6c4.2,0,5.4-2.2,5.5-3.9h3.6v22.3h-4.4V90.5h-5.3V87.4z"/>
			<path d="M133,87.4h0.6c4.2,0,5.4-2.2,5.5-3.9h3.6v22.3h-4.4V90.5H133V87.4z"/>
		</g>
		<g>
			<path d="M80.7,87.7h0.6c4.2,0,5.4-2.2,5.5-3.9h3.6v22.3H86V90.8h-5.3V87.7z"/>
			<path d="M101.6,83.9c5.2,0,7.7,3.6,7.7,11.4s-2.5,11.5-7.7,11.5c-5.2,0-7.7-3.6-7.7-11.5S96.3,83.9,101.6,83.9z M101.6,103.2
				c2.5,0,3.2-2.2,3.2-7.9c0-5.7-0.7-7.9-3.2-7.9c-2.5,0-3.2,2.2-3.2,7.9C98.4,101,99.1,103.2,101.6,103.2z"/>
		</g>
		<g>
			<path d="M54.1,100.7L54.1,100.7c0.3,1.6,1.2,2.2,2.6,2.2c1.8,0,3.6-1.5,3.7-6.2l-0.1-0.1c-1,1.5-2.7,1.9-4.2,1.9
				c-4.3,0-6.7-3.2-6.7-7c0-5.5,3.2-8,7.6-8c7.7,0,7.8,8.3,7.8,11.5c0,8.6-4.1,11.4-8.1,11.4c-3.8,0-6.5-2.2-6.9-5.7H54.1z M57,95
				c1.5,0,3.2-1.1,3.2-3.7c0-2.5-1.1-4.1-3.4-4.1c-1.1,0-3.2,0.6-3.2,3.8C53.7,94.3,55.3,95,57,95z"/>
		</g>
		<g>
			<path d="M19.1,106.4c-5.7,0-7.7-3.7-7.7-6.8c0-1.1,0-4.1,3.4-5.6C13,93.1,12,91.7,12,89.7c0-3.8,3-6.1,6.9-6.1
				c4.6,0,7.1,2.7,7.1,5.8c0,1.9-0.8,3.5-2.6,4.5c2.1,1.1,3.3,2.5,3.3,5.4C26.8,102,25,106.4,19.1,106.4z M19,95.9
				c-1.6,0-3.1,1-3.1,3.5c0,2.1,1.2,3.5,3.2,3.5c2.3,0,3.2-2,3.2-3.5C22.3,97.8,21.4,95.9,19,95.9z M21.8,89.8c0-1.7-1.2-2.8-2.6-2.8
				c-2,0-3,1.1-3,2.8c0,1.3,1,2.8,2.9,2.8C20.8,92.6,21.8,91.4,21.8,89.8z"/>
		</g>
		<g>
			<path d="M142.3,49.4c-2.1,2.3-7.6,8.9-8.1,18.5h-4.5c0.5-8.9,6.1-16,7.9-18h-11.1l0.1-3.9h15.7V49.4z"/>
		</g>
		<g>
			<path d="M97.9,51.2c-0.1-1.3-0.9-2.1-2.6-2.1c-2.9,0-3.5,3.3-3.7,6.1l0.1,0.1c0.6-0.8,1.7-1.9,4.2-1.9c4.6,0,6.8,3.5,6.8,6.9
				c0,4.9-3,8.1-7.3,8.1c-6.7,0-8.1-5.6-8.1-11.2c0-4.2,0.6-11.7,8.3-11.7c0.9,0,3.5,0.3,4.6,1.4c1.2,1.2,1.7,1.9,2.1,4.2H97.9z
				 M95.1,57c-1.7,0-3.4,1-3.4,3.8c0,2.4,1.4,4.1,3.5,4.1c1.6,0,3.1-1.2,3.1-4.2C98.3,57.9,96.5,57,95.1,57z"/>
		</g>
		<g>
			<path d="M53.9,54.3c0.8-0.6,1.8-1.2,4-1.2c3,0,6.7,2.1,6.7,7.2c0,3-1.5,8-8.1,8c-3.5,0-7-2.1-7.2-6.6h4.4c0.2,1.8,1.2,3,3.1,3
				c2.1,0,3.3-1.8,3.3-4.2c0-2-0.9-4-3.3-4c-0.6,0-2.1,0-3,1.6L50,58l1.5-12.2h12.2v3.7h-9.1L53.9,54.3z"/>
		</g>
		<g>
			<path d="M25.8,63.2h-2.5v4.9H19v-4.9h-8.8v-3.8l8.2-13.6h5v13.9h2.5V63.2z M19,59.8c0-5.4,0.1-8.9,0.1-9.6H19l-5.6,9.6H19z"/>
		</g>
		<g>
			<path d="M131.2,16.9h0.7c1.3,0,3.7-0.1,3.7-3c0-0.8-0.4-2.9-2.8-2.9c-3,0-3,2.9-3,3.6h-4.1c0-4.2,2.4-7.2,7.4-7.2
				c3,0,6.9,1.5,6.9,6.2c0,2.3-1.4,3.7-2.7,4.2v0.1c0.8,0.2,3.4,1.4,3.4,5.2c0,4.2-3.1,7.2-7.6,7.2c-2.1,0-7.7-0.5-7.7-7.4h4.3l0,0
				c0,1.2,0.3,3.9,3.3,3.9c1.8,0,3.3-1.2,3.3-3.7c0-3-3-3.2-5-3.2V16.9z"/>
		</g>
		<g>
			<path d="M86.5,15.7c0-7.2,5.3-7.9,7.3-7.9c4.3,0,7.7,2.5,7.7,7c0,3.8-2.5,5.8-4.6,7.2c-3,2.1-4.5,3.1-5,4.1h9.7v3.9H86.2
				c0.2-2.6,0.3-5.3,5.2-8.8c4-2.9,5.6-4,5.6-6.6c0-1.5-0.9-3.2-3.1-3.2c-3.1,0-3.2,2.5-3.2,4.2H86.5z"/>
		</g>
		<g>
			<path d="M50.2,11.7h0.6c4.2,0,5.4-2.2,5.5-3.9h3.6v22.3h-4.4V14.8h-5.3V11.7z"/>
		</g>
	</svg>

	<svg id="ball-sprite-sheet-9" viewBox="0 0 250 450" size="keep">
		<style type="text/css">
			.st0{fill:#dd0;}
			.st1{fill:#fff;}
		</style>
		<g>
			<circle class="st0" cx="24.5" cy="24.5" r="24.5"/>
			<circle class="st1" cx="24.5" cy="24.5" r="17.4"/>
		</g>
		<g>
			<circle class="st0" cx="74.5" cy="24.5" r="24.5"/>
			<ellipse class="st1" cx="74.5" cy="26" rx="17.4" ry="16.8"/>
		</g>
		<g>
			<circle class="st0" cx="124.5" cy="24.5" r="24.5"/>
			<circle class="st1" cx="124.5" cy="27.6" r="17.4"/>
		</g>
		<g>
			<circle class="st0" cx="174.5" cy="24.5" r="24.5"/>
			<ellipse class="st1" cx="174.5" cy="28.6" rx="17.4" ry="16.8"/>
		</g>
		<g>
			<circle class="st0" cx="224.5" cy="24.5" r="24.5"/>
			<ellipse class="st1" cx="224.5" cy="29.9" rx="17.4" ry="16.6"/>
		</g>
		<g>
			<circle class="st0" cx="24.5" cy="74.5" r="24.5"/>
			<ellipse class="st1" cx="24.5" cy="81.2" rx="17.4" ry="15.9"/>
		</g>
		<g>
			<circle class="st0" cx="74.5" cy="74.5" r="24.5"/>
			<ellipse class="st1" cx="74.5" cy="82.7" rx="17.4" ry="15.5"/>
		</g>
		<g>
			<circle class="st0" cx="124.5" cy="74.5" r="24.5"/>
			<ellipse class="st1" cx="124.5" cy="83.4" rx="17.4" ry="14.8"/>
		</g>
		<g>
			<circle class="st0" cx="174.5" cy="74.5" r="24.5"/>
			<ellipse class="st1" cx="174.5" cy="84.7" rx="17.4" ry="13.9"/>
		</g>
		<g>
			<circle class="st0" cx="224.5" cy="74.5" r="24.5"/>
			<ellipse class="st1" cx="224.5" cy="85.9" rx="17.4" ry="13.1"/>
		</g>
		<g>
			<circle class="st0" cx="24.5" cy="124.5" r="24.5"/>
			<ellipse class="st1" cx="24.5" cy="137.1" rx="17.4" ry="11.9"/>
		</g>
		<g>
			<circle class="st0" cx="74.5" cy="124.5" r="24.5"/>
			<ellipse class="st1" cx="74.5" cy="137.8" rx="17.4" ry="11.2"/>
		</g>
		<g>
			<circle class="st0" cx="124.5" cy="124.5" r="24.5"/>
			<path class="st1" d="M141.8,138.9c0,5.6-9.5,10.1-17.3,10.1c-7.8,0.1-17.3-4.5-17.3-10.1c0-5.6,7.8-10.1,17.3-10.1
				S141.8,133.3,141.8,138.9z"/>
		</g>
		<g>
			<circle class="st0" cx="174.5" cy="124.5" r="24.5"/>
			<ellipse class="st1" cx="174.5" cy="139.8" rx="17.4" ry="9.2"/>
		</g>
		<g>
			<circle class="st0" cx="224.5" cy="124.5" r="24.5"/>
			<path class="st1" d="M224.5,132.3c-9.6,0-17.4,3.7-17.4,8.4c0,0.9,0.6,1.8,1.7,2.8c0.8,0.7,1.6,1.3,2.5,1.8
				c3.5,2.1,8.6,3.7,13.1,3.8c0.1,0,0.2,0,0.4,0c0.4,0,0.7,0,1.1,0c0.1,0,0.3,0,0.4,0c1.9-0.2,3.9-0.6,5.7-1.1
				c3.5-1.1,6.7-3.1,9.3-5.5c0.4-0.6,0.6-1.1,0.6-1.6C241.9,136,234.1,132.3,224.5,132.3z"/>
			<path class="st1" d="M231.1,100.9c-2.1-0.6-4.4-0.9-6.7-0.9c0,0,0,0,0,0c-2.3,0-4.5,0.3-6.7,0.9c1.6,0.1,4.1,0.2,6.8,0.2
				C227.1,101.1,229.5,101.1,231.1,100.9z"/>
		</g>
		<g>
			<circle class="st0" cx="24.5" cy="174.5" r="24.5"/>
			<path class="st1" d="M41.6,191.4c0-4.2-7.8-7.6-17.4-7.6c-9.6,0-17.4,3.4-17.4,7.6c0,0.1,0.1,0.2,0.2,0.4c1.1,1.2,2.4,2.2,3.8,3.1
				c2,1.3,4.6,2.6,7.7,3.4c0.2,0,0.3,0.1,0.5,0.1c0.3,0.1,0.6,0.1,0.9,0.2c0.4,0.1,0.8,0.1,1.2,0.2c0.3,0,0.6,0.1,0.9,0.1
				c0.2,0,0.5,0,0.8,0.1c0.4,0,0.9,0.1,1.4,0.1c0,0,0.1,0,0.1,0c5.3,0,9.9-1.7,13-3.6c1.1-0.7,2.1-1.4,3-2.2
				C41.1,192.4,41.6,191.8,41.6,191.4z"/>
			<path class="st1" d="M24.1,152.9c4.8,0,8.7-0.6,8.8-1.4c-2.4-0.9-4.9-1.4-7.6-1.4c-0.3,0-0.7,0-1,0c-3.1,0-6,0.6-8.7,1.7
				C16.3,152.4,19.8,152.9,24.1,152.9z"/>
		</g>
		<g>
			<circle class="st0" cx="74.5" cy="174.5" r="24.5"/>
			<path class="st1" d="M75.4,199c6.4-0.2,12.2-2.9,16.4-7.1c-0.8-3.4-8.2-6-17.3-6s-16.5,2.6-17.3,6c4.2,4.2,10,6.9,16.4,7.1
				c0.3,0,0.6,0,0.9,0S75.1,199,75.4,199z"/>
			<path class="st1" d="M74.4,153.3c4.8,0,8.8-0.7,8.8-1.6c0,0,0-0.1,0-0.1c-2.6-1-5.3-1.5-8.2-1.5c-0.2,0-0.4,0-0.6,0
				c0,0-0.1,0-0.1,0c-3,0-6,0.6-8.6,1.7C65.7,152.6,69.6,153.3,74.4,153.3z"/>
		</g>
		<g>
			<circle class="st0" cx="124.5" cy="174.5" r="24.5"/>
			<path class="st1" d="M141.5,192.2c-1.7-2.5-8.6-4.5-17-4.5c-8.3,0-15.3,1.9-17,4.5c4.4,4.2,10.4,6.8,16.9,6.8c0,0,0,0,0,0
				C131.1,199,137.1,196.4,141.5,192.2z"/>
			<path class="st1" d="M124.4,153.3c4.8,0,8.8-0.7,8.8-1.6c0,0,0-0.1,0-0.1c-2.6-1-5.3-1.5-8.2-1.6c-0.2,0-0.4,0-0.5,0
				c0,0-0.1,0-0.1,0c-3,0-5.9,0.6-8.6,1.7C115.7,152.6,119.6,153.3,124.4,153.3z"/>
		</g>
		<g>
			<circle class="st0" cx="174.5" cy="174.5" r="24.5"/>
			<path class="st1" d="M174.2,188.9c-7.7,0-14.2,1.5-16.5,3.5c4.3,4.1,10.2,6.6,16.6,6.6c0.3,0,0.5,0,0.8,0
				c6.1-0.2,11.6-2.5,15.8-6.3C189,190.5,182.2,188.9,174.2,188.9z"/>
			<path class="st1" d="M165.3,152.2c0,1.2,3.9,2.2,8.8,2.2c4.8,0,8.8-1,8.8-2.2c0-0.5-0.6-1-1.7-1.3c-1.3-0.4-2.6-0.6-3.9-0.8
				c-0.9-0.1-1.9-0.1-2.9-0.1c-3,0-6,0.6-8.6,1.7C165.4,151.8,165.3,152,165.3,152.2z"/>
		</g>
		<g>
			<circle class="st0" cx="224.5" cy="174.5" r="24.5"/>
			<path class="st1" d="M224.7,199c6,0,11.5-2.3,15.7-5.9c-2.7-1.5-8.8-2.6-15.9-2.6s-13.3,1.1-15.9,2.6c4.2,3.6,9.7,5.8,15.7,5.9
				c0.1,0,0.1,0,0.2,0S224.6,199,224.7,199z"/>
			<path class="st1" d="M215.6,153.1c0,1.7,3.9,3.1,8.8,3.1c4.8,0,8.8-1.4,8.8-3.1c0-1.6-3.4-2.9-7.8-3.1c0,0-0.1,0-0.1,0
				c-0.3,0-0.5,0-0.8,0c-1.5,0-3.1,0.2-4.5,0.4C217.3,151,215.6,152,215.6,153.1z"/>
		</g>
		<g>
			<circle class="st0" cx="24.5" cy="224.5" r="24.5"/>
			<path class="st1" d="M9.2,243.6c4.2,3.3,9.4,5.3,15.1,5.4c0.2,0,0.3,0,0.5,0c5.6-0.1,10.7-2,14.8-5.2c-2.9-1.1-8.7-1.9-15.4-1.9
				C17.8,241.8,12.2,242.6,9.2,243.6z"/>
			<path class="st1" d="M13.2,203.6c0,2,5,3.6,11.1,3.6s11.1-1.6,11.1-3.6c0-0.5-0.3-1-0.9-1.4c-2.7-1.2-5.6-2-8.7-2.1
				c-0.1,0-0.1,0-0.2,0c-0.2,0-0.4,0-0.6,0c-0.2,0-0.5,0-0.7,0c-3.8,0-7.4,0.9-10.6,2.5C13.4,202.8,13.2,203.2,13.2,203.6z"/>
		</g>
		<g>
			<circle class="st0" cx="74.5" cy="224.5" r="24.5"/>
			<path class="st1" d="M74.7,249c5.4,0,10.4-1.8,14.4-4.8c-3.1-0.8-8.4-1.4-14.5-1.4S63,243.4,60,244.2c4,3,9,4.7,14.4,4.8
				c0.1,0,0.1,0,0.2,0S74.6,249,74.7,249z"/>
			<path class="st1" d="M90.5,205.9c-4.2-3.6-9.7-5.9-15.8-5.9c-0.3,0-0.5,0-0.8,0c-5.7,0.1-10.9,2.2-15,5.6c2.3,1.7,8.6,2.8,16,2.8
				C81.9,208.5,87.8,207.4,90.5,205.9z"/>
		</g>
		<g>
			<circle class="st0" cx="124.5" cy="224.5" r="24.5"/>
			<path class="st1" d="M124.6,249c4.9,0,9.5-1.5,13.3-4c-3.2-0.5-8-0.9-13.4-0.9c-5.4,0-10.2,0.3-13.4,0.9c3.8,2.5,8.4,4,13.3,4
				c0.1,0,0.1,0,0.2,0C124.6,249,124.6,249,124.6,249z"/>
			<path class="st1" d="M124.9,210.3c7.7,0,14.3-1.6,16.3-3.7c-4.3-4-10.1-6.5-16.5-6.6c-0.4,0-0.7,0-1.1,0
				c-5.9,0.2-11.2,2.5-15.4,6.1C109.8,208.5,116.7,210.3,124.9,210.3z"/>
		</g>
		<g>
			<circle class="st0" cx="174.5" cy="224.5" r="24.5"/>
			<path class="st1" d="M174.6,249c4.6,0,8.8-1.3,12.4-3.5c-3.2-0.4-7.6-0.6-12.6-0.6s-9.4,0.2-12.6,0.6c3.6,2.2,7.9,3.5,12.4,3.5
				c0,0,0.1,0,0.1,0S174.6,249,174.6,249z"/>
			<path class="st1" d="M174.9,211.4c8.2,0,15-1.9,16.6-4.5c-4.4-4.2-10.3-6.8-16.8-6.9c-0.4,0-0.9,0-1.3,0
				c-5.9,0.3-11.3,2.6-15.4,6.3C159,209.2,166.2,211.4,174.9,211.4z"/>
		</g>
		<g>
			<circle class="st0" cx="224.5" cy="224.5" r="24.5"/>
			<path class="st1" d="M213.8,246.5c3.2,1.6,6.8,2.4,10.6,2.5c0.1,0,0.2,0,0.4,0c3.7,0,7.3-0.9,10.4-2.4c-3-0.2-6.9-0.3-11.1-0.3
				C220.2,246.3,216.6,246.4,213.8,246.5z"/>
			<path class="st1" d="M224.4,213.3c9.3,0,16.9-2.9,17-6.6c-4.2-4-9.9-6.5-16.1-6.7c-0.3,0-0.6,0-0.9,0c0,0-0.1,0-0.1,0
				c-6.6,0-12.5,2.7-16.9,6.9C207.8,210.5,215.2,213.3,224.4,213.3z"/>
		</g>
		<g>
			<circle class="st0" cx="24.5" cy="274.5" r="24.5"/>
			<path class="st1" d="M15.3,297.2c2.8,1.1,5.9,1.8,9.1,1.8c0.1,0,0.2,0,0.2,0c3.2,0,6.3-0.7,9.1-1.8c-2.7-0.1-5.9-0.2-9.4-0.2
				C21,297,17.9,297.1,15.3,297.2z"/>
			<path class="st1" d="M24.7,265.2c9.4,0,17-3.4,17-7.6c0-0.2,0-0.4-0.1-0.6c-4.4-4.3-10.4-6.9-17-7c-0.5,0-1,0-1.5,0
				c-5.8,0.3-11.1,2.7-15.2,6.4c-0.1,0.4-0.2,0.8-0.2,1.2C7.8,261.8,15.4,265.2,24.7,265.2z"/>
		</g>
		<g>
			<circle class="st0" cx="74.5" cy="274.5" r="24.5"/>
			<path class="st1" d="M74.6,299c2.7,0,5.2-0.5,7.6-1.3c-2.3,0-5-0.1-7.8-0.1s-5.4,0-7.8,0.1c2.4,0.8,5,1.2,7.6,1.3c0,0,0.1,0,0.1,0
				S74.6,299,74.6,299z"/>
			<path class="st1" d="M74.9,267c9.4,0,17-3.8,17-8.5c0-0.5-0.1-1.1-0.3-1.6c-4.4-4.2-10.3-6.8-16.8-6.9c-1,0-2,0.1-2.9,0.1
				c-4.8,0.5-9.3,2.5-12.8,5.4c-0.7,0.9-1.1,1.9-1.1,3C57.9,263.2,65.5,267,74.9,267z"/>
		</g>
		<g>
			<circle class="st0" cx="124.5" cy="274.5" r="24.5"/>
			<path class="st1" d="M124.6,299c2.3,0,4.5-0.3,6.5-0.9c-2,0-4.3,0-6.6,0c-2.4,0-4.6,0-6.7,0c2.1,0.6,4.3,0.9,6.5,0.9
				C124.4,299,124.5,299,124.6,299C124.5,299,124.6,299,124.6,299z"/>
			<path class="st1" d="M107.9,259.4c0,5.2,7.6,9.4,17,9.4s17-4.2,17-9.4c0-1.1-0.4-2.2-1-3.1c-4.3-3.9-9.9-6.2-16.1-6.3
				c-1.5,0-3,0.1-4.4,0.3c-3.5,0.6-6.7,1.9-9.6,3.8C109,255.7,107.9,257.5,107.9,259.4z"/>
		</g>
		<g>
			<circle class="st0" cx="174.5" cy="274.5" r="24.5"/>
			<ellipse class="st1" cx="174.5" cy="260.3" rx="17" ry="10.3"/>
		</g>
		<g>
			<circle class="st0" cx="224.5" cy="274.5" r="24.5"/>
			<ellipse class="st1" cx="224.5" cy="261.2" rx="17" ry="11.2"/>
		</g>
		<g>
			<circle class="st0" cx="24.5" cy="324.5" r="24.5"/>
			<ellipse class="st1" cx="24.5" cy="312.2" rx="17" ry="12.2"/>
		</g>
		<g>
			<circle class="st0" cx="74.5" cy="324.5" r="24.5"/>
			<ellipse class="st1" cx="74.5" cy="313.4" rx="17" ry="13.1"/>
		</g>
		<g>
			<circle class="st0" cx="124.5" cy="324.5" r="24.5"/>
			<ellipse class="st1" cx="124.5" cy="314.5" rx="17" ry="13.9"/>
		</g>
		<g>
			<circle class="st0" cx="174.5" cy="324.5" r="24.5"/>
			<ellipse class="st1" cx="174.5" cy="315.7" rx="17" ry="14.7"/>
		</g>
		<g>
			<circle class="st0" cx="224.5" cy="324.5" r="24.5"/>
			<ellipse class="st1" cx="224.5" cy="316.9" rx="17" ry="15.3"/>
		</g>
		<g>
			<circle class="st0" cx="24.5" cy="374.5" r="24.5"/>
			<ellipse class="st1" cx="24.5" cy="368" rx="17" ry="16"/>
		</g>
		<g>
			<circle class="st0" cx="74.5" cy="374.5" r="24.5"/>
			<ellipse class="st1" cx="74.5" cy="369.4" rx="17" ry="16.4"/>
		</g>
		<g>
			<circle class="st0" cx="124.5" cy="374.5" r="24.5"/>
			<ellipse class="st1" cx="124.5" cy="370.7" rx="17" ry="16.7"/>
		</g>
		<g>
			<circle class="st0" cx="174.5" cy="374.5" r="24.5"/>
			<circle class="st1" cx="174.5" cy="372" r="17"/>
		</g>
		<g>
			<circle class="st0" cx="224.5" cy="374.5" r="24.5"/>
			<ellipse class="st1" cx="224.5" cy="373.2" rx="17" ry="17.2"/>
		</g>
		<g>
			<circle class="st0" cx="24.5" cy="424.5" r="24.5"/>
			<ellipse class="st1" cx="24.5" cy="423.4" rx="17" ry="17.3"/>
		</g>
	</svg>

	<svg id="ball-sprite-sheet-10" viewBox="0 0 250 450" size="keep">
		<style type="text/css">
			.st0{fill:#3550A1;}
			.st1{fill:#fff;}
		</style>
		<g>
			<circle class="st0" cx="24.5" cy="24.5" r="24.5"/>
			<circle class="st1" cx="24.5" cy="24.5" r="17.4"/>
		</g>
		<g>
			<circle class="st0" cx="74.5" cy="24.5" r="24.5"/>
			<ellipse class="st1" cx="74.5" cy="26" rx="17.4" ry="16.8"/>
		</g>
		<g>
			<circle class="st0" cx="124.5" cy="24.5" r="24.5"/>
			<circle class="st1" cx="124.5" cy="27.6" r="17.4"/>
		</g>
		<g>
			<circle class="st0" cx="174.5" cy="24.5" r="24.5"/>
			<ellipse class="st1" cx="174.5" cy="28.6" rx="17.4" ry="16.8"/>
		</g>
		<g>
			<circle class="st0" cx="224.5" cy="24.5" r="24.5"/>
			<ellipse class="st1" cx="224.5" cy="29.9" rx="17.4" ry="16.6"/>
		</g>
		<g>
			<circle class="st0" cx="24.5" cy="74.5" r="24.5"/>
			<ellipse class="st1" cx="24.5" cy="81.2" rx="17.4" ry="15.9"/>
		</g>
		<g>
			<circle class="st0" cx="74.5" cy="74.5" r="24.5"/>
			<ellipse class="st1" cx="74.5" cy="82.7" rx="17.4" ry="15.5"/>
		</g>
		<g>
			<circle class="st0" cx="124.5" cy="74.5" r="24.5"/>
			<ellipse class="st1" cx="124.5" cy="83.4" rx="17.4" ry="14.8"/>
		</g>
		<g>
			<circle class="st0" cx="174.5" cy="74.5" r="24.5"/>
			<ellipse class="st1" cx="174.5" cy="84.7" rx="17.4" ry="13.9"/>
		</g>
		<g>
			<circle class="st0" cx="224.5" cy="74.5" r="24.5"/>
			<ellipse class="st1" cx="224.5" cy="85.9" rx="17.4" ry="13.1"/>
		</g>
		<g>
			<circle class="st0" cx="24.5" cy="124.5" r="24.5"/>
			<ellipse class="st1" cx="24.5" cy="137.1" rx="17.4" ry="11.9"/>
		</g>
		<g>
			<circle class="st0" cx="74.5" cy="124.5" r="24.5"/>
			<ellipse class="st1" cx="74.5" cy="137.8" rx="17.4" ry="11.2"/>
		</g>
		<g>
			<circle class="st0" cx="124.5" cy="124.5" r="24.5"/>
			<path class="st1" d="M141.8,138.9c0,5.6-9.5,10.1-17.3,10.1c-7.8,0.1-17.3-4.5-17.3-10.1c0-5.6,7.8-10.1,17.3-10.1
				S141.8,133.3,141.8,138.9z"/>
		</g>
		<g>
			<circle class="st0" cx="174.5" cy="124.5" r="24.5"/>
			<ellipse class="st1" cx="174.5" cy="139.8" rx="17.4" ry="9.2"/>
		</g>
		<g>
			<circle class="st0" cx="224.5" cy="124.5" r="24.5"/>
			<path class="st1" d="M224.5,132.3c-9.6,0-17.4,3.7-17.4,8.4c0,0.9,0.6,1.8,1.7,2.8c0.8,0.7,1.6,1.3,2.5,1.8
				c3.5,2.1,8.6,3.7,13.1,3.8c0.1,0,0.2,0,0.4,0c0.4,0,0.7,0,1.1,0c0.1,0,0.3,0,0.4,0c1.9-0.2,3.9-0.6,5.7-1.1
				c3.5-1.1,6.7-3.1,9.3-5.5c0.4-0.6,0.6-1.1,0.6-1.6C241.9,136,234.1,132.3,224.5,132.3z"/>
			<path class="st1" d="M231.1,100.9c-2.1-0.6-4.4-0.9-6.7-0.9c0,0,0,0,0,0c-2.3,0-4.5,0.3-6.7,0.9c1.6,0.1,4.1,0.2,6.8,0.2
				C227.1,101.1,229.5,101.1,231.1,100.9z"/>
		</g>
		<g>
			<circle class="st0" cx="24.5" cy="174.5" r="24.5"/>
			<path class="st1" d="M41.6,191.4c0-4.2-7.8-7.6-17.4-7.6c-9.6,0-17.4,3.4-17.4,7.6c0,0.1,0.1,0.2,0.2,0.4c1.1,1.2,2.4,2.2,3.8,3.1
				c2,1.3,4.6,2.6,7.7,3.4c0.2,0,0.3,0.1,0.5,0.1c0.3,0.1,0.6,0.1,0.9,0.2c0.4,0.1,0.8,0.1,1.2,0.2c0.3,0,0.6,0.1,0.9,0.1
				c0.2,0,0.5,0,0.8,0.1c0.4,0,0.9,0.1,1.4,0.1c0,0,0.1,0,0.1,0c5.3,0,9.9-1.7,13-3.6c1.1-0.7,2.1-1.4,3-2.2
				C41.1,192.4,41.6,191.8,41.6,191.4z"/>
			<path class="st1" d="M24.1,152.9c4.8,0,8.7-0.6,8.8-1.4c-2.4-0.9-4.9-1.4-7.6-1.4c-0.3,0-0.7,0-1,0c-3.1,0-6,0.6-8.7,1.7
				C16.3,152.4,19.8,152.9,24.1,152.9z"/>
		</g>
		<g>
			<circle class="st0" cx="74.5" cy="174.5" r="24.5"/>
			<path class="st1" d="M75.4,199c6.4-0.2,12.2-2.9,16.4-7.1c-0.8-3.4-8.2-6-17.3-6s-16.5,2.6-17.3,6c4.2,4.2,10,6.9,16.4,7.1
				c0.3,0,0.6,0,0.9,0S75.1,199,75.4,199z"/>
			<path class="st1" d="M74.4,153.3c4.8,0,8.8-0.7,8.8-1.6c0,0,0-0.1,0-0.1c-2.6-1-5.3-1.5-8.2-1.5c-0.2,0-0.4,0-0.6,0
				c0,0-0.1,0-0.1,0c-3,0-6,0.6-8.6,1.7C65.7,152.6,69.6,153.3,74.4,153.3z"/>
		</g>
		<g>
			<circle class="st0" cx="124.5" cy="174.5" r="24.5"/>
			<path class="st1" d="M141.5,192.2c-1.7-2.5-8.6-4.5-17-4.5c-8.3,0-15.3,1.9-17,4.5c4.4,4.2,10.4,6.8,16.9,6.8c0,0,0,0,0,0
				C131.1,199,137.1,196.4,141.5,192.2z"/>
			<path class="st1" d="M124.4,153.3c4.8,0,8.8-0.7,8.8-1.6c0,0,0-0.1,0-0.1c-2.6-1-5.3-1.5-8.2-1.6c-0.2,0-0.4,0-0.5,0
				c0,0-0.1,0-0.1,0c-3,0-5.9,0.6-8.6,1.7C115.7,152.6,119.6,153.3,124.4,153.3z"/>
		</g>
		<g>
			<circle class="st0" cx="174.5" cy="174.5" r="24.5"/>
			<path class="st1" d="M174.2,188.9c-7.7,0-14.2,1.5-16.5,3.5c4.3,4.1,10.2,6.6,16.6,6.6c0.3,0,0.5,0,0.8,0
				c6.1-0.2,11.6-2.5,15.8-6.3C189,190.5,182.2,188.9,174.2,188.9z"/>
			<path class="st1" d="M165.3,152.2c0,1.2,3.9,2.2,8.8,2.2c4.8,0,8.8-1,8.8-2.2c0-0.5-0.6-1-1.7-1.3c-1.3-0.4-2.6-0.6-3.9-0.8
				c-0.9-0.1-1.9-0.1-2.9-0.1c-3,0-6,0.6-8.6,1.7C165.4,151.8,165.3,152,165.3,152.2z"/>
		</g>
		<g>
			<circle class="st0" cx="224.5" cy="174.5" r="24.5"/>
			<path class="st1" d="M224.7,199c6,0,11.5-2.3,15.7-5.9c-2.7-1.5-8.8-2.6-15.9-2.6s-13.3,1.1-15.9,2.6c4.2,3.6,9.7,5.8,15.7,5.9
				c0.1,0,0.1,0,0.2,0S224.6,199,224.7,199z"/>
			<path class="st1" d="M215.6,153.1c0,1.7,3.9,3.1,8.8,3.1c4.8,0,8.8-1.4,8.8-3.1c0-1.6-3.4-2.9-7.8-3.1c0,0-0.1,0-0.1,0
				c-0.3,0-0.5,0-0.8,0c-1.5,0-3.1,0.2-4.5,0.4C217.3,151,215.6,152,215.6,153.1z"/>
		</g>
		<g>
			<circle class="st0" cx="24.5" cy="224.5" r="24.5"/>
			<path class="st1" d="M9.2,243.6c4.2,3.3,9.4,5.3,15.1,5.4c0.2,0,0.3,0,0.5,0c5.6-0.1,10.7-2,14.8-5.2c-2.9-1.1-8.7-1.9-15.4-1.9
				C17.8,241.8,12.2,242.6,9.2,243.6z"/>
			<path class="st1" d="M13.2,203.6c0,2,5,3.6,11.1,3.6s11.1-1.6,11.1-3.6c0-0.5-0.3-1-0.9-1.4c-2.7-1.2-5.6-2-8.7-2.1
				c-0.1,0-0.1,0-0.2,0c-0.2,0-0.4,0-0.6,0c-0.2,0-0.5,0-0.7,0c-3.8,0-7.4,0.9-10.6,2.5C13.4,202.8,13.2,203.2,13.2,203.6z"/>
		</g>
		<g>
			<circle class="st0" cx="74.5" cy="224.5" r="24.5"/>
			<path class="st1" d="M74.7,249c5.4,0,10.4-1.8,14.4-4.8c-3.1-0.8-8.4-1.4-14.5-1.4S63,243.4,60,244.2c4,3,9,4.7,14.4,4.8
				c0.1,0,0.1,0,0.2,0S74.6,249,74.7,249z"/>
			<path class="st1" d="M90.5,205.9c-4.2-3.6-9.7-5.9-15.8-5.9c-0.3,0-0.5,0-0.8,0c-5.7,0.1-10.9,2.2-15,5.6c2.3,1.7,8.6,2.8,16,2.8
				C81.9,208.5,87.8,207.4,90.5,205.9z"/>
		</g>
		<g>
			<circle class="st0" cx="124.5" cy="224.5" r="24.5"/>
			<path class="st1" d="M124.6,249c4.9,0,9.5-1.5,13.3-4c-3.2-0.5-8-0.9-13.4-0.9c-5.4,0-10.2,0.3-13.4,0.9c3.8,2.5,8.4,4,13.3,4
				c0.1,0,0.1,0,0.2,0C124.6,249,124.6,249,124.6,249z"/>
			<path class="st1" d="M124.9,210.3c7.7,0,14.3-1.6,16.3-3.7c-4.3-4-10.1-6.5-16.5-6.6c-0.4,0-0.7,0-1.1,0
				c-5.9,0.2-11.2,2.5-15.4,6.1C109.8,208.5,116.7,210.3,124.9,210.3z"/>
		</g>
		<g>
			<circle class="st0" cx="174.5" cy="224.5" r="24.5"/>
			<path class="st1" d="M174.6,249c4.6,0,8.8-1.3,12.4-3.5c-3.2-0.4-7.6-0.6-12.6-0.6s-9.4,0.2-12.6,0.6c3.6,2.2,7.9,3.5,12.4,3.5
				c0,0,0.1,0,0.1,0S174.6,249,174.6,249z"/>
			<path class="st1" d="M174.9,211.4c8.2,0,15-1.9,16.6-4.5c-4.4-4.2-10.3-6.8-16.8-6.9c-0.4,0-0.9,0-1.3,0
				c-5.9,0.3-11.3,2.6-15.4,6.3C159,209.2,166.2,211.4,174.9,211.4z"/>
		</g>
		<g>
			<circle class="st0" cx="224.5" cy="224.5" r="24.5"/>
			<path class="st1" d="M213.8,246.5c3.2,1.6,6.8,2.4,10.6,2.5c0.1,0,0.2,0,0.4,0c3.7,0,7.3-0.9,10.4-2.4c-3-0.2-6.9-0.3-11.1-0.3
				C220.2,246.3,216.6,246.4,213.8,246.5z"/>
			<path class="st1" d="M224.4,213.3c9.3,0,16.9-2.9,17-6.6c-4.2-4-9.9-6.5-16.1-6.7c-0.3,0-0.6,0-0.9,0c0,0-0.1,0-0.1,0
				c-6.6,0-12.5,2.7-16.9,6.9C207.8,210.5,215.2,213.3,224.4,213.3z"/>
		</g>
		<g>
			<circle class="st0" cx="24.5" cy="274.5" r="24.5"/>
			<path class="st1" d="M15.3,297.2c2.8,1.1,5.9,1.8,9.1,1.8c0.1,0,0.2,0,0.2,0c3.2,0,6.3-0.7,9.1-1.8c-2.7-0.1-5.9-0.2-9.4-0.2
				C21,297,17.9,297.1,15.3,297.2z"/>
			<path class="st1" d="M24.7,265.2c9.4,0,17-3.4,17-7.6c0-0.2,0-0.4-0.1-0.6c-4.4-4.3-10.4-6.9-17-7c-0.5,0-1,0-1.5,0
				c-5.8,0.3-11.1,2.7-15.2,6.4c-0.1,0.4-0.2,0.8-0.2,1.2C7.8,261.8,15.4,265.2,24.7,265.2z"/>
		</g>
		<g>
			<circle class="st0" cx="74.5" cy="274.5" r="24.5"/>
			<path class="st1" d="M74.6,299c2.7,0,5.2-0.5,7.6-1.3c-2.3,0-5-0.1-7.8-0.1s-5.4,0-7.8,0.1c2.4,0.8,5,1.2,7.6,1.3c0,0,0.1,0,0.1,0
				S74.6,299,74.6,299z"/>
			<path class="st1" d="M74.9,267c9.4,0,17-3.8,17-8.5c0-0.5-0.1-1.1-0.3-1.6c-4.4-4.2-10.3-6.8-16.8-6.9c-1,0-2,0.1-2.9,0.1
				c-4.8,0.5-9.3,2.5-12.8,5.4c-0.7,0.9-1.1,1.9-1.1,3C57.9,263.2,65.5,267,74.9,267z"/>
		</g>
		<g>
			<circle class="st0" cx="124.5" cy="274.5" r="24.5"/>
			<path class="st1" d="M124.6,299c2.3,0,4.5-0.3,6.5-0.9c-2,0-4.3,0-6.6,0c-2.4,0-4.6,0-6.7,0c2.1,0.6,4.3,0.9,6.5,0.9
				C124.4,299,124.5,299,124.6,299C124.5,299,124.6,299,124.6,299z"/>
			<path class="st1" d="M107.9,259.4c0,5.2,7.6,9.4,17,9.4s17-4.2,17-9.4c0-1.1-0.4-2.2-1-3.1c-4.3-3.9-9.9-6.2-16.1-6.3
				c-1.5,0-3,0.1-4.4,0.3c-3.5,0.6-6.7,1.9-9.6,3.8C109,255.7,107.9,257.5,107.9,259.4z"/>
		</g>
		<g>
			<circle class="st0" cx="174.5" cy="274.5" r="24.5"/>
			<ellipse class="st1" cx="174.5" cy="260.3" rx="17" ry="10.3"/>
		</g>
		<g>
			<circle class="st0" cx="224.5" cy="274.5" r="24.5"/>
			<ellipse class="st1" cx="224.5" cy="261.2" rx="17" ry="11.2"/>
		</g>
		<g>
			<circle class="st0" cx="24.5" cy="324.5" r="24.5"/>
			<ellipse class="st1" cx="24.5" cy="312.2" rx="17" ry="12.2"/>
		</g>
		<g>
			<circle class="st0" cx="74.5" cy="324.5" r="24.5"/>
			<ellipse class="st1" cx="74.5" cy="313.4" rx="17" ry="13.1"/>
		</g>
		<g>
			<circle class="st0" cx="124.5" cy="324.5" r="24.5"/>
			<ellipse class="st1" cx="124.5" cy="314.5" rx="17" ry="13.9"/>
		</g>
		<g>
			<circle class="st0" cx="174.5" cy="324.5" r="24.5"/>
			<ellipse class="st1" cx="174.5" cy="315.7" rx="17" ry="14.7"/>
		</g>
		<g>
			<circle class="st0" cx="224.5" cy="324.5" r="24.5"/>
			<ellipse class="st1" cx="224.5" cy="316.9" rx="17" ry="15.3"/>
		</g>
		<g>
			<circle class="st0" cx="24.5" cy="374.5" r="24.5"/>
			<ellipse class="st1" cx="24.5" cy="368" rx="17" ry="16"/>
		</g>
		<g>
			<circle class="st0" cx="74.5" cy="374.5" r="24.5"/>
			<ellipse class="st1" cx="74.5" cy="369.4" rx="17" ry="16.4"/>
		</g>
		<g>
			<circle class="st0" cx="124.5" cy="374.5" r="24.5"/>
			<ellipse class="st1" cx="124.5" cy="370.7" rx="17" ry="16.7"/>
		</g>
		<g>
			<circle class="st0" cx="174.5" cy="374.5" r="24.5"/>
			<circle class="st1" cx="174.5" cy="372" r="17"/>
		</g>
		<g>
			<circle class="st0" cx="224.5" cy="374.5" r="24.5"/>
			<ellipse class="st1" cx="224.5" cy="373.2" rx="17" ry="17.2"/>
		</g>
		<g>
			<circle class="st0" cx="24.5" cy="424.5" r="24.5"/>
			<ellipse class="st1" cx="24.5" cy="423.4" rx="17" ry="17.3"/>
		</g>
	</svg>

	<svg id="ball-sprite-sheet-11" viewBox="0 0 250 450" size="keep">
		<style type="text/css">
			.st0{fill:#e00;}
			.st1{fill:#fff;}
		</style>
		<g>
			<circle class="st0" cx="24.5" cy="24.5" r="24.5"/>
			<circle class="st1" cx="24.5" cy="24.5" r="17.4"/>
		</g>
		<g>
			<circle class="st0" cx="74.5" cy="24.5" r="24.5"/>
			<ellipse class="st1" cx="74.5" cy="26" rx="17.4" ry="16.8"/>
		</g>
		<g>
			<circle class="st0" cx="124.5" cy="24.5" r="24.5"/>
			<circle class="st1" cx="124.5" cy="27.6" r="17.4"/>
		</g>
		<g>
			<circle class="st0" cx="174.5" cy="24.5" r="24.5"/>
			<ellipse class="st1" cx="174.5" cy="28.6" rx="17.4" ry="16.8"/>
		</g>
		<g>
			<circle class="st0" cx="224.5" cy="24.5" r="24.5"/>
			<ellipse class="st1" cx="224.5" cy="29.9" rx="17.4" ry="16.6"/>
		</g>
		<g>
			<circle class="st0" cx="24.5" cy="74.5" r="24.5"/>
			<ellipse class="st1" cx="24.5" cy="81.2" rx="17.4" ry="15.9"/>
		</g>
		<g>
			<circle class="st0" cx="74.5" cy="74.5" r="24.5"/>
			<ellipse class="st1" cx="74.5" cy="82.7" rx="17.4" ry="15.5"/>
		</g>
		<g>
			<circle class="st0" cx="124.5" cy="74.5" r="24.5"/>
			<ellipse class="st1" cx="124.5" cy="83.4" rx="17.4" ry="14.8"/>
		</g>
		<g>
			<circle class="st0" cx="174.5" cy="74.5" r="24.5"/>
			<ellipse class="st1" cx="174.5" cy="84.7" rx="17.4" ry="13.9"/>
		</g>
		<g>
			<circle class="st0" cx="224.5" cy="74.5" r="24.5"/>
			<ellipse class="st1" cx="224.5" cy="85.9" rx="17.4" ry="13.1"/>
		</g>
		<g>
			<circle class="st0" cx="24.5" cy="124.5" r="24.5"/>
			<ellipse class="st1" cx="24.5" cy="137.1" rx="17.4" ry="11.9"/>
		</g>
		<g>
			<circle class="st0" cx="74.5" cy="124.5" r="24.5"/>
			<ellipse class="st1" cx="74.5" cy="137.8" rx="17.4" ry="11.2"/>
		</g>
		<g>
			<circle class="st0" cx="124.5" cy="124.5" r="24.5"/>
			<path class="st1" d="M141.8,138.9c0,5.6-9.5,10.1-17.3,10.1c-7.8,0.1-17.3-4.5-17.3-10.1c0-5.6,7.8-10.1,17.3-10.1
				S141.8,133.3,141.8,138.9z"/>
		</g>
		<g>
			<circle class="st0" cx="174.5" cy="124.5" r="24.5"/>
			<ellipse class="st1" cx="174.5" cy="139.8" rx="17.4" ry="9.2"/>
		</g>
		<g>
			<circle class="st0" cx="224.5" cy="124.5" r="24.5"/>
			<path class="st1" d="M224.5,132.3c-9.6,0-17.4,3.7-17.4,8.4c0,0.9,0.6,1.8,1.7,2.8c0.8,0.7,1.6,1.3,2.5,1.8
				c3.5,2.1,8.6,3.7,13.1,3.8c0.1,0,0.2,0,0.4,0c0.4,0,0.7,0,1.1,0c0.1,0,0.3,0,0.4,0c1.9-0.2,3.9-0.6,5.7-1.1
				c3.5-1.1,6.7-3.1,9.3-5.5c0.4-0.6,0.6-1.1,0.6-1.6C241.9,136,234.1,132.3,224.5,132.3z"/>
			<path class="st1" d="M231.1,100.9c-2.1-0.6-4.4-0.9-6.7-0.9c0,0,0,0,0,0c-2.3,0-4.5,0.3-6.7,0.9c1.6,0.1,4.1,0.2,6.8,0.2
				C227.1,101.1,229.5,101.1,231.1,100.9z"/>
		</g>
		<g>
			<circle class="st0" cx="24.5" cy="174.5" r="24.5"/>
			<path class="st1" d="M41.6,191.4c0-4.2-7.8-7.6-17.4-7.6c-9.6,0-17.4,3.4-17.4,7.6c0,0.1,0.1,0.2,0.2,0.4c1.1,1.2,2.4,2.2,3.8,3.1
				c2,1.3,4.6,2.6,7.7,3.4c0.2,0,0.3,0.1,0.5,0.1c0.3,0.1,0.6,0.1,0.9,0.2c0.4,0.1,0.8,0.1,1.2,0.2c0.3,0,0.6,0.1,0.9,0.1
				c0.2,0,0.5,0,0.8,0.1c0.4,0,0.9,0.1,1.4,0.1c0,0,0.1,0,0.1,0c5.3,0,9.9-1.7,13-3.6c1.1-0.7,2.1-1.4,3-2.2
				C41.1,192.4,41.6,191.8,41.6,191.4z"/>
			<path class="st1" d="M24.1,152.9c4.8,0,8.7-0.6,8.8-1.4c-2.4-0.9-4.9-1.4-7.6-1.4c-0.3,0-0.7,0-1,0c-3.1,0-6,0.6-8.7,1.7
				C16.3,152.4,19.8,152.9,24.1,152.9z"/>
		</g>
		<g>
			<circle class="st0" cx="74.5" cy="174.5" r="24.5"/>
			<path class="st1" d="M75.4,199c6.4-0.2,12.2-2.9,16.4-7.1c-0.8-3.4-8.2-6-17.3-6s-16.5,2.6-17.3,6c4.2,4.2,10,6.9,16.4,7.1
				c0.3,0,0.6,0,0.9,0S75.1,199,75.4,199z"/>
			<path class="st1" d="M74.4,153.3c4.8,0,8.8-0.7,8.8-1.6c0,0,0-0.1,0-0.1c-2.6-1-5.3-1.5-8.2-1.5c-0.2,0-0.4,0-0.6,0
				c0,0-0.1,0-0.1,0c-3,0-6,0.6-8.6,1.7C65.7,152.6,69.6,153.3,74.4,153.3z"/>
		</g>
		<g>
			<circle class="st0" cx="124.5" cy="174.5" r="24.5"/>
			<path class="st1" d="M141.5,192.2c-1.7-2.5-8.6-4.5-17-4.5c-8.3,0-15.3,1.9-17,4.5c4.4,4.2,10.4,6.8,16.9,6.8c0,0,0,0,0,0
				C131.1,199,137.1,196.4,141.5,192.2z"/>
			<path class="st1" d="M124.4,153.3c4.8,0,8.8-0.7,8.8-1.6c0,0,0-0.1,0-0.1c-2.6-1-5.3-1.5-8.2-1.6c-0.2,0-0.4,0-0.5,0
				c0,0-0.1,0-0.1,0c-3,0-5.9,0.6-8.6,1.7C115.7,152.6,119.6,153.3,124.4,153.3z"/>
		</g>
		<g>
			<circle class="st0" cx="174.5" cy="174.5" r="24.5"/>
			<path class="st1" d="M174.2,188.9c-7.7,0-14.2,1.5-16.5,3.5c4.3,4.1,10.2,6.6,16.6,6.6c0.3,0,0.5,0,0.8,0
				c6.1-0.2,11.6-2.5,15.8-6.3C189,190.5,182.2,188.9,174.2,188.9z"/>
			<path class="st1" d="M165.3,152.2c0,1.2,3.9,2.2,8.8,2.2c4.8,0,8.8-1,8.8-2.2c0-0.5-0.6-1-1.7-1.3c-1.3-0.4-2.6-0.6-3.9-0.8
				c-0.9-0.1-1.9-0.1-2.9-0.1c-3,0-6,0.6-8.6,1.7C165.4,151.8,165.3,152,165.3,152.2z"/>
		</g>
		<g>
			<circle class="st0" cx="224.5" cy="174.5" r="24.5"/>
			<path class="st1" d="M224.7,199c6,0,11.5-2.3,15.7-5.9c-2.7-1.5-8.8-2.6-15.9-2.6s-13.3,1.1-15.9,2.6c4.2,3.6,9.7,5.8,15.7,5.9
				c0.1,0,0.1,0,0.2,0S224.6,199,224.7,199z"/>
			<path class="st1" d="M215.6,153.1c0,1.7,3.9,3.1,8.8,3.1c4.8,0,8.8-1.4,8.8-3.1c0-1.6-3.4-2.9-7.8-3.1c0,0-0.1,0-0.1,0
				c-0.3,0-0.5,0-0.8,0c-1.5,0-3.1,0.2-4.5,0.4C217.3,151,215.6,152,215.6,153.1z"/>
		</g>
		<g>
			<circle class="st0" cx="24.5" cy="224.5" r="24.5"/>
			<path class="st1" d="M9.2,243.6c4.2,3.3,9.4,5.3,15.1,5.4c0.2,0,0.3,0,0.5,0c5.6-0.1,10.7-2,14.8-5.2c-2.9-1.1-8.7-1.9-15.4-1.9
				C17.8,241.8,12.2,242.6,9.2,243.6z"/>
			<path class="st1" d="M13.2,203.6c0,2,5,3.6,11.1,3.6s11.1-1.6,11.1-3.6c0-0.5-0.3-1-0.9-1.4c-2.7-1.2-5.6-2-8.7-2.1
				c-0.1,0-0.1,0-0.2,0c-0.2,0-0.4,0-0.6,0c-0.2,0-0.5,0-0.7,0c-3.8,0-7.4,0.9-10.6,2.5C13.4,202.8,13.2,203.2,13.2,203.6z"/>
		</g>
		<g>
			<circle class="st0" cx="74.5" cy="224.5" r="24.5"/>
			<path class="st1" d="M74.7,249c5.4,0,10.4-1.8,14.4-4.8c-3.1-0.8-8.4-1.4-14.5-1.4S63,243.4,60,244.2c4,3,9,4.7,14.4,4.8
				c0.1,0,0.1,0,0.2,0S74.6,249,74.7,249z"/>
			<path class="st1" d="M90.5,205.9c-4.2-3.6-9.7-5.9-15.8-5.9c-0.3,0-0.5,0-0.8,0c-5.7,0.1-10.9,2.2-15,5.6c2.3,1.7,8.6,2.8,16,2.8
				C81.9,208.5,87.8,207.4,90.5,205.9z"/>
		</g>
		<g>
			<circle class="st0" cx="124.5" cy="224.5" r="24.5"/>
			<path class="st1" d="M124.6,249c4.9,0,9.5-1.5,13.3-4c-3.2-0.5-8-0.9-13.4-0.9c-5.4,0-10.2,0.3-13.4,0.9c3.8,2.5,8.4,4,13.3,4
				c0.1,0,0.1,0,0.2,0C124.6,249,124.6,249,124.6,249z"/>
			<path class="st1" d="M124.9,210.3c7.7,0,14.3-1.6,16.3-3.7c-4.3-4-10.1-6.5-16.5-6.6c-0.4,0-0.7,0-1.1,0
				c-5.9,0.2-11.2,2.5-15.4,6.1C109.8,208.5,116.7,210.3,124.9,210.3z"/>
		</g>
		<g>
			<circle class="st0" cx="174.5" cy="224.5" r="24.5"/>
			<path class="st1" d="M174.6,249c4.6,0,8.8-1.3,12.4-3.5c-3.2-0.4-7.6-0.6-12.6-0.6s-9.4,0.2-12.6,0.6c3.6,2.2,7.9,3.5,12.4,3.5
				c0,0,0.1,0,0.1,0S174.6,249,174.6,249z"/>
			<path class="st1" d="M174.9,211.4c8.2,0,15-1.9,16.6-4.5c-4.4-4.2-10.3-6.8-16.8-6.9c-0.4,0-0.9,0-1.3,0
				c-5.9,0.3-11.3,2.6-15.4,6.3C159,209.2,166.2,211.4,174.9,211.4z"/>
		</g>
		<g>
			<circle class="st0" cx="224.5" cy="224.5" r="24.5"/>
			<path class="st1" d="M213.8,246.5c3.2,1.6,6.8,2.4,10.6,2.5c0.1,0,0.2,0,0.4,0c3.7,0,7.3-0.9,10.4-2.4c-3-0.2-6.9-0.3-11.1-0.3
				C220.2,246.3,216.6,246.4,213.8,246.5z"/>
			<path class="st1" d="M224.4,213.3c9.3,0,16.9-2.9,17-6.6c-4.2-4-9.9-6.5-16.1-6.7c-0.3,0-0.6,0-0.9,0c0,0-0.1,0-0.1,0
				c-6.6,0-12.5,2.7-16.9,6.9C207.8,210.5,215.2,213.3,224.4,213.3z"/>
		</g>
		<g>
			<circle class="st0" cx="24.5" cy="274.5" r="24.5"/>
			<path class="st1" d="M15.3,297.2c2.8,1.1,5.9,1.8,9.1,1.8c0.1,0,0.2,0,0.2,0c3.2,0,6.3-0.7,9.1-1.8c-2.7-0.1-5.9-0.2-9.4-0.2
				C21,297,17.9,297.1,15.3,297.2z"/>
			<path class="st1" d="M24.7,265.2c9.4,0,17-3.4,17-7.6c0-0.2,0-0.4-0.1-0.6c-4.4-4.3-10.4-6.9-17-7c-0.5,0-1,0-1.5,0
				c-5.8,0.3-11.1,2.7-15.2,6.4c-0.1,0.4-0.2,0.8-0.2,1.2C7.8,261.8,15.4,265.2,24.7,265.2z"/>
		</g>
		<g>
			<circle class="st0" cx="74.5" cy="274.5" r="24.5"/>
			<path class="st1" d="M74.6,299c2.7,0,5.2-0.5,7.6-1.3c-2.3,0-5-0.1-7.8-0.1s-5.4,0-7.8,0.1c2.4,0.8,5,1.2,7.6,1.3c0,0,0.1,0,0.1,0
				S74.6,299,74.6,299z"/>
			<path class="st1" d="M74.9,267c9.4,0,17-3.8,17-8.5c0-0.5-0.1-1.1-0.3-1.6c-4.4-4.2-10.3-6.8-16.8-6.9c-1,0-2,0.1-2.9,0.1
				c-4.8,0.5-9.3,2.5-12.8,5.4c-0.7,0.9-1.1,1.9-1.1,3C57.9,263.2,65.5,267,74.9,267z"/>
		</g>
		<g>
			<circle class="st0" cx="124.5" cy="274.5" r="24.5"/>
			<path class="st1" d="M124.6,299c2.3,0,4.5-0.3,6.5-0.9c-2,0-4.3,0-6.6,0c-2.4,0-4.6,0-6.7,0c2.1,0.6,4.3,0.9,6.5,0.9
				C124.4,299,124.5,299,124.6,299C124.5,299,124.6,299,124.6,299z"/>
			<path class="st1" d="M107.9,259.4c0,5.2,7.6,9.4,17,9.4s17-4.2,17-9.4c0-1.1-0.4-2.2-1-3.1c-4.3-3.9-9.9-6.2-16.1-6.3
				c-1.5,0-3,0.1-4.4,0.3c-3.5,0.6-6.7,1.9-9.6,3.8C109,255.7,107.9,257.5,107.9,259.4z"/>
		</g>
		<g>
			<circle class="st0" cx="174.5" cy="274.5" r="24.5"/>
			<ellipse class="st1" cx="174.5" cy="260.3" rx="17" ry="10.3"/>
		</g>
		<g>
			<circle class="st0" cx="224.5" cy="274.5" r="24.5"/>
			<ellipse class="st1" cx="224.5" cy="261.2" rx="17" ry="11.2"/>
		</g>
		<g>
			<circle class="st0" cx="24.5" cy="324.5" r="24.5"/>
			<ellipse class="st1" cx="24.5" cy="312.2" rx="17" ry="12.2"/>
		</g>
		<g>
			<circle class="st0" cx="74.5" cy="324.5" r="24.5"/>
			<ellipse class="st1" cx="74.5" cy="313.4" rx="17" ry="13.1"/>
		</g>
		<g>
			<circle class="st0" cx="124.5" cy="324.5" r="24.5"/>
			<ellipse class="st1" cx="124.5" cy="314.5" rx="17" ry="13.9"/>
		</g>
		<g>
			<circle class="st0" cx="174.5" cy="324.5" r="24.5"/>
			<ellipse class="st1" cx="174.5" cy="315.7" rx="17" ry="14.7"/>
		</g>
		<g>
			<circle class="st0" cx="224.5" cy="324.5" r="24.5"/>
			<ellipse class="st1" cx="224.5" cy="316.9" rx="17" ry="15.3"/>
		</g>
		<g>
			<circle class="st0" cx="24.5" cy="374.5" r="24.5"/>
			<ellipse class="st1" cx="24.5" cy="368" rx="17" ry="16"/>
		</g>
		<g>
			<circle class="st0" cx="74.5" cy="374.5" r="24.5"/>
			<ellipse class="st1" cx="74.5" cy="369.4" rx="17" ry="16.4"/>
		</g>
		<g>
			<circle class="st0" cx="124.5" cy="374.5" r="24.5"/>
			<ellipse class="st1" cx="124.5" cy="370.7" rx="17" ry="16.7"/>
		</g>
		<g>
			<circle class="st0" cx="174.5" cy="374.5" r="24.5"/>
			<circle class="st1" cx="174.5" cy="372" r="17"/>
		</g>
		<g>
			<circle class="st0" cx="224.5" cy="374.5" r="24.5"/>
			<ellipse class="st1" cx="224.5" cy="373.2" rx="17" ry="17.2"/>
		</g>
		<g>
			<circle class="st0" cx="24.5" cy="424.5" r="24.5"/>
			<ellipse class="st1" cx="24.5" cy="423.4" rx="17" ry="17.3"/>
		</g>
	</svg>

	<svg id="ball-sprite-sheet-12" viewBox="0 0 250 450" size="keep">
		<style type="text/css">
			.st0{fill:#e07;}
			.st1{fill:#fff;}
		</style>
		<g>
			<circle class="st0" cx="24.5" cy="24.5" r="24.5"/>
			<circle class="st1" cx="24.5" cy="24.5" r="17.4"/>
		</g>
		<g>
			<circle class="st0" cx="74.5" cy="24.5" r="24.5"/>
			<ellipse class="st1" cx="74.5" cy="26" rx="17.4" ry="16.8"/>
		</g>
		<g>
			<circle class="st0" cx="124.5" cy="24.5" r="24.5"/>
			<circle class="st1" cx="124.5" cy="27.6" r="17.4"/>
		</g>
		<g>
			<circle class="st0" cx="174.5" cy="24.5" r="24.5"/>
			<ellipse class="st1" cx="174.5" cy="28.6" rx="17.4" ry="16.8"/>
		</g>
		<g>
			<circle class="st0" cx="224.5" cy="24.5" r="24.5"/>
			<ellipse class="st1" cx="224.5" cy="29.9" rx="17.4" ry="16.6"/>
		</g>
		<g>
			<circle class="st0" cx="24.5" cy="74.5" r="24.5"/>
			<ellipse class="st1" cx="24.5" cy="81.2" rx="17.4" ry="15.9"/>
		</g>
		<g>
			<circle class="st0" cx="74.5" cy="74.5" r="24.5"/>
			<ellipse class="st1" cx="74.5" cy="82.7" rx="17.4" ry="15.5"/>
		</g>
		<g>
			<circle class="st0" cx="124.5" cy="74.5" r="24.5"/>
			<ellipse class="st1" cx="124.5" cy="83.4" rx="17.4" ry="14.8"/>
		</g>
		<g>
			<circle class="st0" cx="174.5" cy="74.5" r="24.5"/>
			<ellipse class="st1" cx="174.5" cy="84.7" rx="17.4" ry="13.9"/>
		</g>
		<g>
			<circle class="st0" cx="224.5" cy="74.5" r="24.5"/>
			<ellipse class="st1" cx="224.5" cy="85.9" rx="17.4" ry="13.1"/>
		</g>
		<g>
			<circle class="st0" cx="24.5" cy="124.5" r="24.5"/>
			<ellipse class="st1" cx="24.5" cy="137.1" rx="17.4" ry="11.9"/>
		</g>
		<g>
			<circle class="st0" cx="74.5" cy="124.5" r="24.5"/>
			<ellipse class="st1" cx="74.5" cy="137.8" rx="17.4" ry="11.2"/>
		</g>
		<g>
			<circle class="st0" cx="124.5" cy="124.5" r="24.5"/>
			<path class="st1" d="M141.8,138.9c0,5.6-9.5,10.1-17.3,10.1c-7.8,0.1-17.3-4.5-17.3-10.1c0-5.6,7.8-10.1,17.3-10.1
				S141.8,133.3,141.8,138.9z"/>
		</g>
		<g>
			<circle class="st0" cx="174.5" cy="124.5" r="24.5"/>
			<ellipse class="st1" cx="174.5" cy="139.8" rx="17.4" ry="9.2"/>
		</g>
		<g>
			<circle class="st0" cx="224.5" cy="124.5" r="24.5"/>
			<path class="st1" d="M224.5,132.3c-9.6,0-17.4,3.7-17.4,8.4c0,0.9,0.6,1.8,1.7,2.8c0.8,0.7,1.6,1.3,2.5,1.8
				c3.5,2.1,8.6,3.7,13.1,3.8c0.1,0,0.2,0,0.4,0c0.4,0,0.7,0,1.1,0c0.1,0,0.3,0,0.4,0c1.9-0.2,3.9-0.6,5.7-1.1
				c3.5-1.1,6.7-3.1,9.3-5.5c0.4-0.6,0.6-1.1,0.6-1.6C241.9,136,234.1,132.3,224.5,132.3z"/>
			<path class="st1" d="M231.1,100.9c-2.1-0.6-4.4-0.9-6.7-0.9c0,0,0,0,0,0c-2.3,0-4.5,0.3-6.7,0.9c1.6,0.1,4.1,0.2,6.8,0.2
				C227.1,101.1,229.5,101.1,231.1,100.9z"/>
		</g>
		<g>
			<circle class="st0" cx="24.5" cy="174.5" r="24.5"/>
			<path class="st1" d="M41.6,191.4c0-4.2-7.8-7.6-17.4-7.6c-9.6,0-17.4,3.4-17.4,7.6c0,0.1,0.1,0.2,0.2,0.4c1.1,1.2,2.4,2.2,3.8,3.1
				c2,1.3,4.6,2.6,7.7,3.4c0.2,0,0.3,0.1,0.5,0.1c0.3,0.1,0.6,0.1,0.9,0.2c0.4,0.1,0.8,0.1,1.2,0.2c0.3,0,0.6,0.1,0.9,0.1
				c0.2,0,0.5,0,0.8,0.1c0.4,0,0.9,0.1,1.4,0.1c0,0,0.1,0,0.1,0c5.3,0,9.9-1.7,13-3.6c1.1-0.7,2.1-1.4,3-2.2
				C41.1,192.4,41.6,191.8,41.6,191.4z"/>
			<path class="st1" d="M24.1,152.9c4.8,0,8.7-0.6,8.8-1.4c-2.4-0.9-4.9-1.4-7.6-1.4c-0.3,0-0.7,0-1,0c-3.1,0-6,0.6-8.7,1.7
				C16.3,152.4,19.8,152.9,24.1,152.9z"/>
		</g>
		<g>
			<circle class="st0" cx="74.5" cy="174.5" r="24.5"/>
			<path class="st1" d="M75.4,199c6.4-0.2,12.2-2.9,16.4-7.1c-0.8-3.4-8.2-6-17.3-6s-16.5,2.6-17.3,6c4.2,4.2,10,6.9,16.4,7.1
				c0.3,0,0.6,0,0.9,0S75.1,199,75.4,199z"/>
			<path class="st1" d="M74.4,153.3c4.8,0,8.8-0.7,8.8-1.6c0,0,0-0.1,0-0.1c-2.6-1-5.3-1.5-8.2-1.5c-0.2,0-0.4,0-0.6,0
				c0,0-0.1,0-0.1,0c-3,0-6,0.6-8.6,1.7C65.7,152.6,69.6,153.3,74.4,153.3z"/>
		</g>
		<g>
			<circle class="st0" cx="124.5" cy="174.5" r="24.5"/>
			<path class="st1" d="M141.5,192.2c-1.7-2.5-8.6-4.5-17-4.5c-8.3,0-15.3,1.9-17,4.5c4.4,4.2,10.4,6.8,16.9,6.8c0,0,0,0,0,0
				C131.1,199,137.1,196.4,141.5,192.2z"/>
			<path class="st1" d="M124.4,153.3c4.8,0,8.8-0.7,8.8-1.6c0,0,0-0.1,0-0.1c-2.6-1-5.3-1.5-8.2-1.6c-0.2,0-0.4,0-0.5,0
				c0,0-0.1,0-0.1,0c-3,0-5.9,0.6-8.6,1.7C115.7,152.6,119.6,153.3,124.4,153.3z"/>
		</g>
		<g>
			<circle class="st0" cx="174.5" cy="174.5" r="24.5"/>
			<path class="st1" d="M174.2,188.9c-7.7,0-14.2,1.5-16.5,3.5c4.3,4.1,10.2,6.6,16.6,6.6c0.3,0,0.5,0,0.8,0
				c6.1-0.2,11.6-2.5,15.8-6.3C189,190.5,182.2,188.9,174.2,188.9z"/>
			<path class="st1" d="M165.3,152.2c0,1.2,3.9,2.2,8.8,2.2c4.8,0,8.8-1,8.8-2.2c0-0.5-0.6-1-1.7-1.3c-1.3-0.4-2.6-0.6-3.9-0.8
				c-0.9-0.1-1.9-0.1-2.9-0.1c-3,0-6,0.6-8.6,1.7C165.4,151.8,165.3,152,165.3,152.2z"/>
		</g>
		<g>
			<circle class="st0" cx="224.5" cy="174.5" r="24.5"/>
			<path class="st1" d="M224.7,199c6,0,11.5-2.3,15.7-5.9c-2.7-1.5-8.8-2.6-15.9-2.6s-13.3,1.1-15.9,2.6c4.2,3.6,9.7,5.8,15.7,5.9
				c0.1,0,0.1,0,0.2,0S224.6,199,224.7,199z"/>
			<path class="st1" d="M215.6,153.1c0,1.7,3.9,3.1,8.8,3.1c4.8,0,8.8-1.4,8.8-3.1c0-1.6-3.4-2.9-7.8-3.1c0,0-0.1,0-0.1,0
				c-0.3,0-0.5,0-0.8,0c-1.5,0-3.1,0.2-4.5,0.4C217.3,151,215.6,152,215.6,153.1z"/>
		</g>
		<g>
			<circle class="st0" cx="24.5" cy="224.5" r="24.5"/>
			<path class="st1" d="M9.2,243.6c4.2,3.3,9.4,5.3,15.1,5.4c0.2,0,0.3,0,0.5,0c5.6-0.1,10.7-2,14.8-5.2c-2.9-1.1-8.7-1.9-15.4-1.9
				C17.8,241.8,12.2,242.6,9.2,243.6z"/>
			<path class="st1" d="M13.2,203.6c0,2,5,3.6,11.1,3.6s11.1-1.6,11.1-3.6c0-0.5-0.3-1-0.9-1.4c-2.7-1.2-5.6-2-8.7-2.1
				c-0.1,0-0.1,0-0.2,0c-0.2,0-0.4,0-0.6,0c-0.2,0-0.5,0-0.7,0c-3.8,0-7.4,0.9-10.6,2.5C13.4,202.8,13.2,203.2,13.2,203.6z"/>
		</g>
		<g>
			<circle class="st0" cx="74.5" cy="224.5" r="24.5"/>
			<path class="st1" d="M74.7,249c5.4,0,10.4-1.8,14.4-4.8c-3.1-0.8-8.4-1.4-14.5-1.4S63,243.4,60,244.2c4,3,9,4.7,14.4,4.8
				c0.1,0,0.1,0,0.2,0S74.6,249,74.7,249z"/>
			<path class="st1" d="M90.5,205.9c-4.2-3.6-9.7-5.9-15.8-5.9c-0.3,0-0.5,0-0.8,0c-5.7,0.1-10.9,2.2-15,5.6c2.3,1.7,8.6,2.8,16,2.8
				C81.9,208.5,87.8,207.4,90.5,205.9z"/>
		</g>
		<g>
			<circle class="st0" cx="124.5" cy="224.5" r="24.5"/>
			<path class="st1" d="M124.6,249c4.9,0,9.5-1.5,13.3-4c-3.2-0.5-8-0.9-13.4-0.9c-5.4,0-10.2,0.3-13.4,0.9c3.8,2.5,8.4,4,13.3,4
				c0.1,0,0.1,0,0.2,0C124.6,249,124.6,249,124.6,249z"/>
			<path class="st1" d="M124.9,210.3c7.7,0,14.3-1.6,16.3-3.7c-4.3-4-10.1-6.5-16.5-6.6c-0.4,0-0.7,0-1.1,0
				c-5.9,0.2-11.2,2.5-15.4,6.1C109.8,208.5,116.7,210.3,124.9,210.3z"/>
		</g>
		<g>
			<circle class="st0" cx="174.5" cy="224.5" r="24.5"/>
			<path class="st1" d="M174.6,249c4.6,0,8.8-1.3,12.4-3.5c-3.2-0.4-7.6-0.6-12.6-0.6s-9.4,0.2-12.6,0.6c3.6,2.2,7.9,3.5,12.4,3.5
				c0,0,0.1,0,0.1,0S174.6,249,174.6,249z"/>
			<path class="st1" d="M174.9,211.4c8.2,0,15-1.9,16.6-4.5c-4.4-4.2-10.3-6.8-16.8-6.9c-0.4,0-0.9,0-1.3,0
				c-5.9,0.3-11.3,2.6-15.4,6.3C159,209.2,166.2,211.4,174.9,211.4z"/>
		</g>
		<g>
			<circle class="st0" cx="224.5" cy="224.5" r="24.5"/>
			<path class="st1" d="M213.8,246.5c3.2,1.6,6.8,2.4,10.6,2.5c0.1,0,0.2,0,0.4,0c3.7,0,7.3-0.9,10.4-2.4c-3-0.2-6.9-0.3-11.1-0.3
				C220.2,246.3,216.6,246.4,213.8,246.5z"/>
			<path class="st1" d="M224.4,213.3c9.3,0,16.9-2.9,17-6.6c-4.2-4-9.9-6.5-16.1-6.7c-0.3,0-0.6,0-0.9,0c0,0-0.1,0-0.1,0
				c-6.6,0-12.5,2.7-16.9,6.9C207.8,210.5,215.2,213.3,224.4,213.3z"/>
		</g>
		<g>
			<circle class="st0" cx="24.5" cy="274.5" r="24.5"/>
			<path class="st1" d="M15.3,297.2c2.8,1.1,5.9,1.8,9.1,1.8c0.1,0,0.2,0,0.2,0c3.2,0,6.3-0.7,9.1-1.8c-2.7-0.1-5.9-0.2-9.4-0.2
				C21,297,17.9,297.1,15.3,297.2z"/>
			<path class="st1" d="M24.7,265.2c9.4,0,17-3.4,17-7.6c0-0.2,0-0.4-0.1-0.6c-4.4-4.3-10.4-6.9-17-7c-0.5,0-1,0-1.5,0
				c-5.8,0.3-11.1,2.7-15.2,6.4c-0.1,0.4-0.2,0.8-0.2,1.2C7.8,261.8,15.4,265.2,24.7,265.2z"/>
		</g>
		<g>
			<circle class="st0" cx="74.5" cy="274.5" r="24.5"/>
			<path class="st1" d="M74.6,299c2.7,0,5.2-0.5,7.6-1.3c-2.3,0-5-0.1-7.8-0.1s-5.4,0-7.8,0.1c2.4,0.8,5,1.2,7.6,1.3c0,0,0.1,0,0.1,0
				S74.6,299,74.6,299z"/>
			<path class="st1" d="M74.9,267c9.4,0,17-3.8,17-8.5c0-0.5-0.1-1.1-0.3-1.6c-4.4-4.2-10.3-6.8-16.8-6.9c-1,0-2,0.1-2.9,0.1
				c-4.8,0.5-9.3,2.5-12.8,5.4c-0.7,0.9-1.1,1.9-1.1,3C57.9,263.2,65.5,267,74.9,267z"/>
		</g>
		<g>
			<circle class="st0" cx="124.5" cy="274.5" r="24.5"/>
			<path class="st1" d="M124.6,299c2.3,0,4.5-0.3,6.5-0.9c-2,0-4.3,0-6.6,0c-2.4,0-4.6,0-6.7,0c2.1,0.6,4.3,0.9,6.5,0.9
				C124.4,299,124.5,299,124.6,299C124.5,299,124.6,299,124.6,299z"/>
			<path class="st1" d="M107.9,259.4c0,5.2,7.6,9.4,17,9.4s17-4.2,17-9.4c0-1.1-0.4-2.2-1-3.1c-4.3-3.9-9.9-6.2-16.1-6.3
				c-1.5,0-3,0.1-4.4,0.3c-3.5,0.6-6.7,1.9-9.6,3.8C109,255.7,107.9,257.5,107.9,259.4z"/>
		</g>
		<g>
			<circle class="st0" cx="174.5" cy="274.5" r="24.5"/>
			<ellipse class="st1" cx="174.5" cy="260.3" rx="17" ry="10.3"/>
		</g>
		<g>
			<circle class="st0" cx="224.5" cy="274.5" r="24.5"/>
			<ellipse class="st1" cx="224.5" cy="261.2" rx="17" ry="11.2"/>
		</g>
		<g>
			<circle class="st0" cx="24.5" cy="324.5" r="24.5"/>
			<ellipse class="st1" cx="24.5" cy="312.2" rx="17" ry="12.2"/>
		</g>
		<g>
			<circle class="st0" cx="74.5" cy="324.5" r="24.5"/>
			<ellipse class="st1" cx="74.5" cy="313.4" rx="17" ry="13.1"/>
		</g>
		<g>
			<circle class="st0" cx="124.5" cy="324.5" r="24.5"/>
			<ellipse class="st1" cx="124.5" cy="314.5" rx="17" ry="13.9"/>
		</g>
		<g>
			<circle class="st0" cx="174.5" cy="324.5" r="24.5"/>
			<ellipse class="st1" cx="174.5" cy="315.7" rx="17" ry="14.7"/>
		</g>
		<g>
			<circle class="st0" cx="224.5" cy="324.5" r="24.5"/>
			<ellipse class="st1" cx="224.5" cy="316.9" rx="17" ry="15.3"/>
		</g>
		<g>
			<circle class="st0" cx="24.5" cy="374.5" r="24.5"/>
			<ellipse class="st1" cx="24.5" cy="368" rx="17" ry="16"/>
		</g>
		<g>
			<circle class="st0" cx="74.5" cy="374.5" r="24.5"/>
			<ellipse class="st1" cx="74.5" cy="369.4" rx="17" ry="16.4"/>
		</g>
		<g>
			<circle class="st0" cx="124.5" cy="374.5" r="24.5"/>
			<ellipse class="st1" cx="124.5" cy="370.7" rx="17" ry="16.7"/>
		</g>
		<g>
			<circle class="st0" cx="174.5" cy="374.5" r="24.5"/>
			<circle class="st1" cx="174.5" cy="372" r="17"/>
		</g>
		<g>
			<circle class="st0" cx="224.5" cy="374.5" r="24.5"/>
			<ellipse class="st1" cx="224.5" cy="373.2" rx="17" ry="17.2"/>
		</g>
		<g>
			<circle class="st0" cx="24.5" cy="424.5" r="24.5"/>
			<ellipse class="st1" cx="24.5" cy="423.4" rx="17" ry="17.3"/>
		</g>
	</svg>

	<svg id="ball-sprite-sheet-13" viewBox="0 0 250 450" size="keep">
		<style type="text/css">
			.st0{fill:#e70;}
			.st1{fill:#fff;}
		</style>
		<g>
			<circle class="st0" cx="24.5" cy="24.5" r="24.5"/>
			<circle class="st1" cx="24.5" cy="24.5" r="17.4"/>
		</g>
		<g>
			<circle class="st0" cx="74.5" cy="24.5" r="24.5"/>
			<ellipse class="st1" cx="74.5" cy="26" rx="17.4" ry="16.8"/>
		</g>
		<g>
			<circle class="st0" cx="124.5" cy="24.5" r="24.5"/>
			<circle class="st1" cx="124.5" cy="27.6" r="17.4"/>
		</g>
		<g>
			<circle class="st0" cx="174.5" cy="24.5" r="24.5"/>
			<ellipse class="st1" cx="174.5" cy="28.6" rx="17.4" ry="16.8"/>
		</g>
		<g>
			<circle class="st0" cx="224.5" cy="24.5" r="24.5"/>
			<ellipse class="st1" cx="224.5" cy="29.9" rx="17.4" ry="16.6"/>
		</g>
		<g>
			<circle class="st0" cx="24.5" cy="74.5" r="24.5"/>
			<ellipse class="st1" cx="24.5" cy="81.2" rx="17.4" ry="15.9"/>
		</g>
		<g>
			<circle class="st0" cx="74.5" cy="74.5" r="24.5"/>
			<ellipse class="st1" cx="74.5" cy="82.7" rx="17.4" ry="15.5"/>
		</g>
		<g>
			<circle class="st0" cx="124.5" cy="74.5" r="24.5"/>
			<ellipse class="st1" cx="124.5" cy="83.4" rx="17.4" ry="14.8"/>
		</g>
		<g>
			<circle class="st0" cx="174.5" cy="74.5" r="24.5"/>
			<ellipse class="st1" cx="174.5" cy="84.7" rx="17.4" ry="13.9"/>
		</g>
		<g>
			<circle class="st0" cx="224.5" cy="74.5" r="24.5"/>
			<ellipse class="st1" cx="224.5" cy="85.9" rx="17.4" ry="13.1"/>
		</g>
		<g>
			<circle class="st0" cx="24.5" cy="124.5" r="24.5"/>
			<ellipse class="st1" cx="24.5" cy="137.1" rx="17.4" ry="11.9"/>
		</g>
		<g>
			<circle class="st0" cx="74.5" cy="124.5" r="24.5"/>
			<ellipse class="st1" cx="74.5" cy="137.8" rx="17.4" ry="11.2"/>
		</g>
		<g>
			<circle class="st0" cx="124.5" cy="124.5" r="24.5"/>
			<path class="st1" d="M141.8,138.9c0,5.6-9.5,10.1-17.3,10.1c-7.8,0.1-17.3-4.5-17.3-10.1c0-5.6,7.8-10.1,17.3-10.1
				S141.8,133.3,141.8,138.9z"/>
		</g>
		<g>
			<circle class="st0" cx="174.5" cy="124.5" r="24.5"/>
			<ellipse class="st1" cx="174.5" cy="139.8" rx="17.4" ry="9.2"/>
		</g>
		<g>
			<circle class="st0" cx="224.5" cy="124.5" r="24.5"/>
			<path class="st1" d="M224.5,132.3c-9.6,0-17.4,3.7-17.4,8.4c0,0.9,0.6,1.8,1.7,2.8c0.8,0.7,1.6,1.3,2.5,1.8
				c3.5,2.1,8.6,3.7,13.1,3.8c0.1,0,0.2,0,0.4,0c0.4,0,0.7,0,1.1,0c0.1,0,0.3,0,0.4,0c1.9-0.2,3.9-0.6,5.7-1.1
				c3.5-1.1,6.7-3.1,9.3-5.5c0.4-0.6,0.6-1.1,0.6-1.6C241.9,136,234.1,132.3,224.5,132.3z"/>
			<path class="st1" d="M231.1,100.9c-2.1-0.6-4.4-0.9-6.7-0.9c0,0,0,0,0,0c-2.3,0-4.5,0.3-6.7,0.9c1.6,0.1,4.1,0.2,6.8,0.2
				C227.1,101.1,229.5,101.1,231.1,100.9z"/>
		</g>
		<g>
			<circle class="st0" cx="24.5" cy="174.5" r="24.5"/>
			<path class="st1" d="M41.6,191.4c0-4.2-7.8-7.6-17.4-7.6c-9.6,0-17.4,3.4-17.4,7.6c0,0.1,0.1,0.2,0.2,0.4c1.1,1.2,2.4,2.2,3.8,3.1
				c2,1.3,4.6,2.6,7.7,3.4c0.2,0,0.3,0.1,0.5,0.1c0.3,0.1,0.6,0.1,0.9,0.2c0.4,0.1,0.8,0.1,1.2,0.2c0.3,0,0.6,0.1,0.9,0.1
				c0.2,0,0.5,0,0.8,0.1c0.4,0,0.9,0.1,1.4,0.1c0,0,0.1,0,0.1,0c5.3,0,9.9-1.7,13-3.6c1.1-0.7,2.1-1.4,3-2.2
				C41.1,192.4,41.6,191.8,41.6,191.4z"/>
			<path class="st1" d="M24.1,152.9c4.8,0,8.7-0.6,8.8-1.4c-2.4-0.9-4.9-1.4-7.6-1.4c-0.3,0-0.7,0-1,0c-3.1,0-6,0.6-8.7,1.7
				C16.3,152.4,19.8,152.9,24.1,152.9z"/>
		</g>
		<g>
			<circle class="st0" cx="74.5" cy="174.5" r="24.5"/>
			<path class="st1" d="M75.4,199c6.4-0.2,12.2-2.9,16.4-7.1c-0.8-3.4-8.2-6-17.3-6s-16.5,2.6-17.3,6c4.2,4.2,10,6.9,16.4,7.1
				c0.3,0,0.6,0,0.9,0S75.1,199,75.4,199z"/>
			<path class="st1" d="M74.4,153.3c4.8,0,8.8-0.7,8.8-1.6c0,0,0-0.1,0-0.1c-2.6-1-5.3-1.5-8.2-1.5c-0.2,0-0.4,0-0.6,0
				c0,0-0.1,0-0.1,0c-3,0-6,0.6-8.6,1.7C65.7,152.6,69.6,153.3,74.4,153.3z"/>
		</g>
		<g>
			<circle class="st0" cx="124.5" cy="174.5" r="24.5"/>
			<path class="st1" d="M141.5,192.2c-1.7-2.5-8.6-4.5-17-4.5c-8.3,0-15.3,1.9-17,4.5c4.4,4.2,10.4,6.8,16.9,6.8c0,0,0,0,0,0
				C131.1,199,137.1,196.4,141.5,192.2z"/>
			<path class="st1" d="M124.4,153.3c4.8,0,8.8-0.7,8.8-1.6c0,0,0-0.1,0-0.1c-2.6-1-5.3-1.5-8.2-1.6c-0.2,0-0.4,0-0.5,0
				c0,0-0.1,0-0.1,0c-3,0-5.9,0.6-8.6,1.7C115.7,152.6,119.6,153.3,124.4,153.3z"/>
		</g>
		<g>
			<circle class="st0" cx="174.5" cy="174.5" r="24.5"/>
			<path class="st1" d="M174.2,188.9c-7.7,0-14.2,1.5-16.5,3.5c4.3,4.1,10.2,6.6,16.6,6.6c0.3,0,0.5,0,0.8,0
				c6.1-0.2,11.6-2.5,15.8-6.3C189,190.5,182.2,188.9,174.2,188.9z"/>
			<path class="st1" d="M165.3,152.2c0,1.2,3.9,2.2,8.8,2.2c4.8,0,8.8-1,8.8-2.2c0-0.5-0.6-1-1.7-1.3c-1.3-0.4-2.6-0.6-3.9-0.8
				c-0.9-0.1-1.9-0.1-2.9-0.1c-3,0-6,0.6-8.6,1.7C165.4,151.8,165.3,152,165.3,152.2z"/>
		</g>
		<g>
			<circle class="st0" cx="224.5" cy="174.5" r="24.5"/>
			<path class="st1" d="M224.7,199c6,0,11.5-2.3,15.7-5.9c-2.7-1.5-8.8-2.6-15.9-2.6s-13.3,1.1-15.9,2.6c4.2,3.6,9.7,5.8,15.7,5.9
				c0.1,0,0.1,0,0.2,0S224.6,199,224.7,199z"/>
			<path class="st1" d="M215.6,153.1c0,1.7,3.9,3.1,8.8,3.1c4.8,0,8.8-1.4,8.8-3.1c0-1.6-3.4-2.9-7.8-3.1c0,0-0.1,0-0.1,0
				c-0.3,0-0.5,0-0.8,0c-1.5,0-3.1,0.2-4.5,0.4C217.3,151,215.6,152,215.6,153.1z"/>
		</g>
		<g>
			<circle class="st0" cx="24.5" cy="224.5" r="24.5"/>
			<path class="st1" d="M9.2,243.6c4.2,3.3,9.4,5.3,15.1,5.4c0.2,0,0.3,0,0.5,0c5.6-0.1,10.7-2,14.8-5.2c-2.9-1.1-8.7-1.9-15.4-1.9
				C17.8,241.8,12.2,242.6,9.2,243.6z"/>
			<path class="st1" d="M13.2,203.6c0,2,5,3.6,11.1,3.6s11.1-1.6,11.1-3.6c0-0.5-0.3-1-0.9-1.4c-2.7-1.2-5.6-2-8.7-2.1
				c-0.1,0-0.1,0-0.2,0c-0.2,0-0.4,0-0.6,0c-0.2,0-0.5,0-0.7,0c-3.8,0-7.4,0.9-10.6,2.5C13.4,202.8,13.2,203.2,13.2,203.6z"/>
		</g>
		<g>
			<circle class="st0" cx="74.5" cy="224.5" r="24.5"/>
			<path class="st1" d="M74.7,249c5.4,0,10.4-1.8,14.4-4.8c-3.1-0.8-8.4-1.4-14.5-1.4S63,243.4,60,244.2c4,3,9,4.7,14.4,4.8
				c0.1,0,0.1,0,0.2,0S74.6,249,74.7,249z"/>
			<path class="st1" d="M90.5,205.9c-4.2-3.6-9.7-5.9-15.8-5.9c-0.3,0-0.5,0-0.8,0c-5.7,0.1-10.9,2.2-15,5.6c2.3,1.7,8.6,2.8,16,2.8
				C81.9,208.5,87.8,207.4,90.5,205.9z"/>
		</g>
		<g>
			<circle class="st0" cx="124.5" cy="224.5" r="24.5"/>
			<path class="st1" d="M124.6,249c4.9,0,9.5-1.5,13.3-4c-3.2-0.5-8-0.9-13.4-0.9c-5.4,0-10.2,0.3-13.4,0.9c3.8,2.5,8.4,4,13.3,4
				c0.1,0,0.1,0,0.2,0C124.6,249,124.6,249,124.6,249z"/>
			<path class="st1" d="M124.9,210.3c7.7,0,14.3-1.6,16.3-3.7c-4.3-4-10.1-6.5-16.5-6.6c-0.4,0-0.7,0-1.1,0
				c-5.9,0.2-11.2,2.5-15.4,6.1C109.8,208.5,116.7,210.3,124.9,210.3z"/>
		</g>
		<g>
			<circle class="st0" cx="174.5" cy="224.5" r="24.5"/>
			<path class="st1" d="M174.6,249c4.6,0,8.8-1.3,12.4-3.5c-3.2-0.4-7.6-0.6-12.6-0.6s-9.4,0.2-12.6,0.6c3.6,2.2,7.9,3.5,12.4,3.5
				c0,0,0.1,0,0.1,0S174.6,249,174.6,249z"/>
			<path class="st1" d="M174.9,211.4c8.2,0,15-1.9,16.6-4.5c-4.4-4.2-10.3-6.8-16.8-6.9c-0.4,0-0.9,0-1.3,0
				c-5.9,0.3-11.3,2.6-15.4,6.3C159,209.2,166.2,211.4,174.9,211.4z"/>
		</g>
		<g>
			<circle class="st0" cx="224.5" cy="224.5" r="24.5"/>
			<path class="st1" d="M213.8,246.5c3.2,1.6,6.8,2.4,10.6,2.5c0.1,0,0.2,0,0.4,0c3.7,0,7.3-0.9,10.4-2.4c-3-0.2-6.9-0.3-11.1-0.3
				C220.2,246.3,216.6,246.4,213.8,246.5z"/>
			<path class="st1" d="M224.4,213.3c9.3,0,16.9-2.9,17-6.6c-4.2-4-9.9-6.5-16.1-6.7c-0.3,0-0.6,0-0.9,0c0,0-0.1,0-0.1,0
				c-6.6,0-12.5,2.7-16.9,6.9C207.8,210.5,215.2,213.3,224.4,213.3z"/>
		</g>
		<g>
			<circle class="st0" cx="24.5" cy="274.5" r="24.5"/>
			<path class="st1" d="M15.3,297.2c2.8,1.1,5.9,1.8,9.1,1.8c0.1,0,0.2,0,0.2,0c3.2,0,6.3-0.7,9.1-1.8c-2.7-0.1-5.9-0.2-9.4-0.2
				C21,297,17.9,297.1,15.3,297.2z"/>
			<path class="st1" d="M24.7,265.2c9.4,0,17-3.4,17-7.6c0-0.2,0-0.4-0.1-0.6c-4.4-4.3-10.4-6.9-17-7c-0.5,0-1,0-1.5,0
				c-5.8,0.3-11.1,2.7-15.2,6.4c-0.1,0.4-0.2,0.8-0.2,1.2C7.8,261.8,15.4,265.2,24.7,265.2z"/>
		</g>
		<g>
			<circle class="st0" cx="74.5" cy="274.5" r="24.5"/>
			<path class="st1" d="M74.6,299c2.7,0,5.2-0.5,7.6-1.3c-2.3,0-5-0.1-7.8-0.1s-5.4,0-7.8,0.1c2.4,0.8,5,1.2,7.6,1.3c0,0,0.1,0,0.1,0
				S74.6,299,74.6,299z"/>
			<path class="st1" d="M74.9,267c9.4,0,17-3.8,17-8.5c0-0.5-0.1-1.1-0.3-1.6c-4.4-4.2-10.3-6.8-16.8-6.9c-1,0-2,0.1-2.9,0.1
				c-4.8,0.5-9.3,2.5-12.8,5.4c-0.7,0.9-1.1,1.9-1.1,3C57.9,263.2,65.5,267,74.9,267z"/>
		</g>
		<g>
			<circle class="st0" cx="124.5" cy="274.5" r="24.5"/>
			<path class="st1" d="M124.6,299c2.3,0,4.5-0.3,6.5-0.9c-2,0-4.3,0-6.6,0c-2.4,0-4.6,0-6.7,0c2.1,0.6,4.3,0.9,6.5,0.9
				C124.4,299,124.5,299,124.6,299C124.5,299,124.6,299,124.6,299z"/>
			<path class="st1" d="M107.9,259.4c0,5.2,7.6,9.4,17,9.4s17-4.2,17-9.4c0-1.1-0.4-2.2-1-3.1c-4.3-3.9-9.9-6.2-16.1-6.3
				c-1.5,0-3,0.1-4.4,0.3c-3.5,0.6-6.7,1.9-9.6,3.8C109,255.7,107.9,257.5,107.9,259.4z"/>
		</g>
		<g>
			<circle class="st0" cx="174.5" cy="274.5" r="24.5"/>
			<ellipse class="st1" cx="174.5" cy="260.3" rx="17" ry="10.3"/>
		</g>
		<g>
			<circle class="st0" cx="224.5" cy="274.5" r="24.5"/>
			<ellipse class="st1" cx="224.5" cy="261.2" rx="17" ry="11.2"/>
		</g>
		<g>
			<circle class="st0" cx="24.5" cy="324.5" r="24.5"/>
			<ellipse class="st1" cx="24.5" cy="312.2" rx="17" ry="12.2"/>
		</g>
		<g>
			<circle class="st0" cx="74.5" cy="324.5" r="24.5"/>
			<ellipse class="st1" cx="74.5" cy="313.4" rx="17" ry="13.1"/>
		</g>
		<g>
			<circle class="st0" cx="124.5" cy="324.5" r="24.5"/>
			<ellipse class="st1" cx="124.5" cy="314.5" rx="17" ry="13.9"/>
		</g>
		<g>
			<circle class="st0" cx="174.5" cy="324.5" r="24.5"/>
			<ellipse class="st1" cx="174.5" cy="315.7" rx="17" ry="14.7"/>
		</g>
		<g>
			<circle class="st0" cx="224.5" cy="324.5" r="24.5"/>
			<ellipse class="st1" cx="224.5" cy="316.9" rx="17" ry="15.3"/>
		</g>
		<g>
			<circle class="st0" cx="24.5" cy="374.5" r="24.5"/>
			<ellipse class="st1" cx="24.5" cy="368" rx="17" ry="16"/>
		</g>
		<g>
			<circle class="st0" cx="74.5" cy="374.5" r="24.5"/>
			<ellipse class="st1" cx="74.5" cy="369.4" rx="17" ry="16.4"/>
		</g>
		<g>
			<circle class="st0" cx="124.5" cy="374.5" r="24.5"/>
			<ellipse class="st1" cx="124.5" cy="370.7" rx="17" ry="16.7"/>
		</g>
		<g>
			<circle class="st0" cx="174.5" cy="374.5" r="24.5"/>
			<circle class="st1" cx="174.5" cy="372" r="17"/>
		</g>
		<g>
			<circle class="st0" cx="224.5" cy="374.5" r="24.5"/>
			<ellipse class="st1" cx="224.5" cy="373.2" rx="17" ry="17.2"/>
		</g>
		<g>
			<circle class="st0" cx="24.5" cy="424.5" r="24.5"/>
			<ellipse class="st1" cx="24.5" cy="423.4" rx="17" ry="17.3"/>
		</g>
	</svg>

	<svg id="ball-sprite-sheet-14" viewBox="0 0 250 450" size="keep">
		<style type="text/css">
			.st0{fill:#070;}
			.st1{fill:#fff;}
		</style>
		<g>
			<circle class="st0" cx="24.5" cy="24.5" r="24.5"/>
			<circle class="st1" cx="24.5" cy="24.5" r="17.4"/>
		</g>
		<g>
			<circle class="st0" cx="74.5" cy="24.5" r="24.5"/>
			<ellipse class="st1" cx="74.5" cy="26" rx="17.4" ry="16.8"/>
		</g>
		<g>
			<circle class="st0" cx="124.5" cy="24.5" r="24.5"/>
			<circle class="st1" cx="124.5" cy="27.6" r="17.4"/>
		</g>
		<g>
			<circle class="st0" cx="174.5" cy="24.5" r="24.5"/>
			<ellipse class="st1" cx="174.5" cy="28.6" rx="17.4" ry="16.8"/>
		</g>
		<g>
			<circle class="st0" cx="224.5" cy="24.5" r="24.5"/>
			<ellipse class="st1" cx="224.5" cy="29.9" rx="17.4" ry="16.6"/>
		</g>
		<g>
			<circle class="st0" cx="24.5" cy="74.5" r="24.5"/>
			<ellipse class="st1" cx="24.5" cy="81.2" rx="17.4" ry="15.9"/>
		</g>
		<g>
			<circle class="st0" cx="74.5" cy="74.5" r="24.5"/>
			<ellipse class="st1" cx="74.5" cy="82.7" rx="17.4" ry="15.5"/>
		</g>
		<g>
			<circle class="st0" cx="124.5" cy="74.5" r="24.5"/>
			<ellipse class="st1" cx="124.5" cy="83.4" rx="17.4" ry="14.8"/>
		</g>
		<g>
			<circle class="st0" cx="174.5" cy="74.5" r="24.5"/>
			<ellipse class="st1" cx="174.5" cy="84.7" rx="17.4" ry="13.9"/>
		</g>
		<g>
			<circle class="st0" cx="224.5" cy="74.5" r="24.5"/>
			<ellipse class="st1" cx="224.5" cy="85.9" rx="17.4" ry="13.1"/>
		</g>
		<g>
			<circle class="st0" cx="24.5" cy="124.5" r="24.5"/>
			<ellipse class="st1" cx="24.5" cy="137.1" rx="17.4" ry="11.9"/>
		</g>
		<g>
			<circle class="st0" cx="74.5" cy="124.5" r="24.5"/>
			<ellipse class="st1" cx="74.5" cy="137.8" rx="17.4" ry="11.2"/>
		</g>
		<g>
			<circle class="st0" cx="124.5" cy="124.5" r="24.5"/>
			<path class="st1" d="M141.8,138.9c0,5.6-9.5,10.1-17.3,10.1c-7.8,0.1-17.3-4.5-17.3-10.1c0-5.6,7.8-10.1,17.3-10.1
				S141.8,133.3,141.8,138.9z"/>
		</g>
		<g>
			<circle class="st0" cx="174.5" cy="124.5" r="24.5"/>
			<ellipse class="st1" cx="174.5" cy="139.8" rx="17.4" ry="9.2"/>
		</g>
		<g>
			<circle class="st0" cx="224.5" cy="124.5" r="24.5"/>
			<path class="st1" d="M224.5,132.3c-9.6,0-17.4,3.7-17.4,8.4c0,0.9,0.6,1.8,1.7,2.8c0.8,0.7,1.6,1.3,2.5,1.8
				c3.5,2.1,8.6,3.7,13.1,3.8c0.1,0,0.2,0,0.4,0c0.4,0,0.7,0,1.1,0c0.1,0,0.3,0,0.4,0c1.9-0.2,3.9-0.6,5.7-1.1
				c3.5-1.1,6.7-3.1,9.3-5.5c0.4-0.6,0.6-1.1,0.6-1.6C241.9,136,234.1,132.3,224.5,132.3z"/>
			<path class="st1" d="M231.1,100.9c-2.1-0.6-4.4-0.9-6.7-0.9c0,0,0,0,0,0c-2.3,0-4.5,0.3-6.7,0.9c1.6,0.1,4.1,0.2,6.8,0.2
				C227.1,101.1,229.5,101.1,231.1,100.9z"/>
		</g>
		<g>
			<circle class="st0" cx="24.5" cy="174.5" r="24.5"/>
			<path class="st1" d="M41.6,191.4c0-4.2-7.8-7.6-17.4-7.6c-9.6,0-17.4,3.4-17.4,7.6c0,0.1,0.1,0.2,0.2,0.4c1.1,1.2,2.4,2.2,3.8,3.1
				c2,1.3,4.6,2.6,7.7,3.4c0.2,0,0.3,0.1,0.5,0.1c0.3,0.1,0.6,0.1,0.9,0.2c0.4,0.1,0.8,0.1,1.2,0.2c0.3,0,0.6,0.1,0.9,0.1
				c0.2,0,0.5,0,0.8,0.1c0.4,0,0.9,0.1,1.4,0.1c0,0,0.1,0,0.1,0c5.3,0,9.9-1.7,13-3.6c1.1-0.7,2.1-1.4,3-2.2
				C41.1,192.4,41.6,191.8,41.6,191.4z"/>
			<path class="st1" d="M24.1,152.9c4.8,0,8.7-0.6,8.8-1.4c-2.4-0.9-4.9-1.4-7.6-1.4c-0.3,0-0.7,0-1,0c-3.1,0-6,0.6-8.7,1.7
				C16.3,152.4,19.8,152.9,24.1,152.9z"/>
		</g>
		<g>
			<circle class="st0" cx="74.5" cy="174.5" r="24.5"/>
			<path class="st1" d="M75.4,199c6.4-0.2,12.2-2.9,16.4-7.1c-0.8-3.4-8.2-6-17.3-6s-16.5,2.6-17.3,6c4.2,4.2,10,6.9,16.4,7.1
				c0.3,0,0.6,0,0.9,0S75.1,199,75.4,199z"/>
			<path class="st1" d="M74.4,153.3c4.8,0,8.8-0.7,8.8-1.6c0,0,0-0.1,0-0.1c-2.6-1-5.3-1.5-8.2-1.5c-0.2,0-0.4,0-0.6,0
				c0,0-0.1,0-0.1,0c-3,0-6,0.6-8.6,1.7C65.7,152.6,69.6,153.3,74.4,153.3z"/>
		</g>
		<g>
			<circle class="st0" cx="124.5" cy="174.5" r="24.5"/>
			<path class="st1" d="M141.5,192.2c-1.7-2.5-8.6-4.5-17-4.5c-8.3,0-15.3,1.9-17,4.5c4.4,4.2,10.4,6.8,16.9,6.8c0,0,0,0,0,0
				C131.1,199,137.1,196.4,141.5,192.2z"/>
			<path class="st1" d="M124.4,153.3c4.8,0,8.8-0.7,8.8-1.6c0,0,0-0.1,0-0.1c-2.6-1-5.3-1.5-8.2-1.6c-0.2,0-0.4,0-0.5,0
				c0,0-0.1,0-0.1,0c-3,0-5.9,0.6-8.6,1.7C115.7,152.6,119.6,153.3,124.4,153.3z"/>
		</g>
		<g>
			<circle class="st0" cx="174.5" cy="174.5" r="24.5"/>
			<path class="st1" d="M174.2,188.9c-7.7,0-14.2,1.5-16.5,3.5c4.3,4.1,10.2,6.6,16.6,6.6c0.3,0,0.5,0,0.8,0
				c6.1-0.2,11.6-2.5,15.8-6.3C189,190.5,182.2,188.9,174.2,188.9z"/>
			<path class="st1" d="M165.3,152.2c0,1.2,3.9,2.2,8.8,2.2c4.8,0,8.8-1,8.8-2.2c0-0.5-0.6-1-1.7-1.3c-1.3-0.4-2.6-0.6-3.9-0.8
				c-0.9-0.1-1.9-0.1-2.9-0.1c-3,0-6,0.6-8.6,1.7C165.4,151.8,165.3,152,165.3,152.2z"/>
		</g>
		<g>
			<circle class="st0" cx="224.5" cy="174.5" r="24.5"/>
			<path class="st1" d="M224.7,199c6,0,11.5-2.3,15.7-5.9c-2.7-1.5-8.8-2.6-15.9-2.6s-13.3,1.1-15.9,2.6c4.2,3.6,9.7,5.8,15.7,5.9
				c0.1,0,0.1,0,0.2,0S224.6,199,224.7,199z"/>
			<path class="st1" d="M215.6,153.1c0,1.7,3.9,3.1,8.8,3.1c4.8,0,8.8-1.4,8.8-3.1c0-1.6-3.4-2.9-7.8-3.1c0,0-0.1,0-0.1,0
				c-0.3,0-0.5,0-0.8,0c-1.5,0-3.1,0.2-4.5,0.4C217.3,151,215.6,152,215.6,153.1z"/>
		</g>
		<g>
			<circle class="st0" cx="24.5" cy="224.5" r="24.5"/>
			<path class="st1" d="M9.2,243.6c4.2,3.3,9.4,5.3,15.1,5.4c0.2,0,0.3,0,0.5,0c5.6-0.1,10.7-2,14.8-5.2c-2.9-1.1-8.7-1.9-15.4-1.9
				C17.8,241.8,12.2,242.6,9.2,243.6z"/>
			<path class="st1" d="M13.2,203.6c0,2,5,3.6,11.1,3.6s11.1-1.6,11.1-3.6c0-0.5-0.3-1-0.9-1.4c-2.7-1.2-5.6-2-8.7-2.1
				c-0.1,0-0.1,0-0.2,0c-0.2,0-0.4,0-0.6,0c-0.2,0-0.5,0-0.7,0c-3.8,0-7.4,0.9-10.6,2.5C13.4,202.8,13.2,203.2,13.2,203.6z"/>
		</g>
		<g>
			<circle class="st0" cx="74.5" cy="224.5" r="24.5"/>
			<path class="st1" d="M74.7,249c5.4,0,10.4-1.8,14.4-4.8c-3.1-0.8-8.4-1.4-14.5-1.4S63,243.4,60,244.2c4,3,9,4.7,14.4,4.8
				c0.1,0,0.1,0,0.2,0S74.6,249,74.7,249z"/>
			<path class="st1" d="M90.5,205.9c-4.2-3.6-9.7-5.9-15.8-5.9c-0.3,0-0.5,0-0.8,0c-5.7,0.1-10.9,2.2-15,5.6c2.3,1.7,8.6,2.8,16,2.8
				C81.9,208.5,87.8,207.4,90.5,205.9z"/>
		</g>
		<g>
			<circle class="st0" cx="124.5" cy="224.5" r="24.5"/>
			<path class="st1" d="M124.6,249c4.9,0,9.5-1.5,13.3-4c-3.2-0.5-8-0.9-13.4-0.9c-5.4,0-10.2,0.3-13.4,0.9c3.8,2.5,8.4,4,13.3,4
				c0.1,0,0.1,0,0.2,0C124.6,249,124.6,249,124.6,249z"/>
			<path class="st1" d="M124.9,210.3c7.7,0,14.3-1.6,16.3-3.7c-4.3-4-10.1-6.5-16.5-6.6c-0.4,0-0.7,0-1.1,0
				c-5.9,0.2-11.2,2.5-15.4,6.1C109.8,208.5,116.7,210.3,124.9,210.3z"/>
		</g>
		<g>
			<circle class="st0" cx="174.5" cy="224.5" r="24.5"/>
			<path class="st1" d="M174.6,249c4.6,0,8.8-1.3,12.4-3.5c-3.2-0.4-7.6-0.6-12.6-0.6s-9.4,0.2-12.6,0.6c3.6,2.2,7.9,3.5,12.4,3.5
				c0,0,0.1,0,0.1,0S174.6,249,174.6,249z"/>
			<path class="st1" d="M174.9,211.4c8.2,0,15-1.9,16.6-4.5c-4.4-4.2-10.3-6.8-16.8-6.9c-0.4,0-0.9,0-1.3,0
				c-5.9,0.3-11.3,2.6-15.4,6.3C159,209.2,166.2,211.4,174.9,211.4z"/>
		</g>
		<g>
			<circle class="st0" cx="224.5" cy="224.5" r="24.5"/>
			<path class="st1" d="M213.8,246.5c3.2,1.6,6.8,2.4,10.6,2.5c0.1,0,0.2,0,0.4,0c3.7,0,7.3-0.9,10.4-2.4c-3-0.2-6.9-0.3-11.1-0.3
				C220.2,246.3,216.6,246.4,213.8,246.5z"/>
			<path class="st1" d="M224.4,213.3c9.3,0,16.9-2.9,17-6.6c-4.2-4-9.9-6.5-16.1-6.7c-0.3,0-0.6,0-0.9,0c0,0-0.1,0-0.1,0
				c-6.6,0-12.5,2.7-16.9,6.9C207.8,210.5,215.2,213.3,224.4,213.3z"/>
		</g>
		<g>
			<circle class="st0" cx="24.5" cy="274.5" r="24.5"/>
			<path class="st1" d="M15.3,297.2c2.8,1.1,5.9,1.8,9.1,1.8c0.1,0,0.2,0,0.2,0c3.2,0,6.3-0.7,9.1-1.8c-2.7-0.1-5.9-0.2-9.4-0.2
				C21,297,17.9,297.1,15.3,297.2z"/>
			<path class="st1" d="M24.7,265.2c9.4,0,17-3.4,17-7.6c0-0.2,0-0.4-0.1-0.6c-4.4-4.3-10.4-6.9-17-7c-0.5,0-1,0-1.5,0
				c-5.8,0.3-11.1,2.7-15.2,6.4c-0.1,0.4-0.2,0.8-0.2,1.2C7.8,261.8,15.4,265.2,24.7,265.2z"/>
		</g>
		<g>
			<circle class="st0" cx="74.5" cy="274.5" r="24.5"/>
			<path class="st1" d="M74.6,299c2.7,0,5.2-0.5,7.6-1.3c-2.3,0-5-0.1-7.8-0.1s-5.4,0-7.8,0.1c2.4,0.8,5,1.2,7.6,1.3c0,0,0.1,0,0.1,0
				S74.6,299,74.6,299z"/>
			<path class="st1" d="M74.9,267c9.4,0,17-3.8,17-8.5c0-0.5-0.1-1.1-0.3-1.6c-4.4-4.2-10.3-6.8-16.8-6.9c-1,0-2,0.1-2.9,0.1
				c-4.8,0.5-9.3,2.5-12.8,5.4c-0.7,0.9-1.1,1.9-1.1,3C57.9,263.2,65.5,267,74.9,267z"/>
		</g>
		<g>
			<circle class="st0" cx="124.5" cy="274.5" r="24.5"/>
			<path class="st1" d="M124.6,299c2.3,0,4.5-0.3,6.5-0.9c-2,0-4.3,0-6.6,0c-2.4,0-4.6,0-6.7,0c2.1,0.6,4.3,0.9,6.5,0.9
				C124.4,299,124.5,299,124.6,299C124.5,299,124.6,299,124.6,299z"/>
			<path class="st1" d="M107.9,259.4c0,5.2,7.6,9.4,17,9.4s17-4.2,17-9.4c0-1.1-0.4-2.2-1-3.1c-4.3-3.9-9.9-6.2-16.1-6.3
				c-1.5,0-3,0.1-4.4,0.3c-3.5,0.6-6.7,1.9-9.6,3.8C109,255.7,107.9,257.5,107.9,259.4z"/>
		</g>
		<g>
			<circle class="st0" cx="174.5" cy="274.5" r="24.5"/>
			<ellipse class="st1" cx="174.5" cy="260.3" rx="17" ry="10.3"/>
		</g>
		<g>
			<circle class="st0" cx="224.5" cy="274.5" r="24.5"/>
			<ellipse class="st1" cx="224.5" cy="261.2" rx="17" ry="11.2"/>
		</g>
		<g>
			<circle class="st0" cx="24.5" cy="324.5" r="24.5"/>
			<ellipse class="st1" cx="24.5" cy="312.2" rx="17" ry="12.2"/>
		</g>
		<g>
			<circle class="st0" cx="74.5" cy="324.5" r="24.5"/>
			<ellipse class="st1" cx="74.5" cy="313.4" rx="17" ry="13.1"/>
		</g>
		<g>
			<circle class="st0" cx="124.5" cy="324.5" r="24.5"/>
			<ellipse class="st1" cx="124.5" cy="314.5" rx="17" ry="13.9"/>
		</g>
		<g>
			<circle class="st0" cx="174.5" cy="324.5" r="24.5"/>
			<ellipse class="st1" cx="174.5" cy="315.7" rx="17" ry="14.7"/>
		</g>
		<g>
			<circle class="st0" cx="224.5" cy="324.5" r="24.5"/>
			<ellipse class="st1" cx="224.5" cy="316.9" rx="17" ry="15.3"/>
		</g>
		<g>
			<circle class="st0" cx="24.5" cy="374.5" r="24.5"/>
			<ellipse class="st1" cx="24.5" cy="368" rx="17" ry="16"/>
		</g>
		<g>
			<circle class="st0" cx="74.5" cy="374.5" r="24.5"/>
			<ellipse class="st1" cx="74.5" cy="369.4" rx="17" ry="16.4"/>
		</g>
		<g>
			<circle class="st0" cx="124.5" cy="374.5" r="24.5"/>
			<ellipse class="st1" cx="124.5" cy="370.7" rx="17" ry="16.7"/>
		</g>
		<g>
			<circle class="st0" cx="174.5" cy="374.5" r="24.5"/>
			<circle class="st1" cx="174.5" cy="372" r="17"/>
		</g>
		<g>
			<circle class="st0" cx="224.5" cy="374.5" r="24.5"/>
			<ellipse class="st1" cx="224.5" cy="373.2" rx="17" ry="17.2"/>
		</g>
		<g>
			<circle class="st0" cx="24.5" cy="424.5" r="24.5"/>
			<ellipse class="st1" cx="24.5" cy="423.4" rx="17" ry="17.3"/>
		</g>
	</svg>

	<svg id="ball-sprite-sheet-15" viewBox="0 0 250 450" size="keep">
		<style type="text/css">
			.st0{fill:#700;}
			.st1{fill:#fff;}
		</style>
		<g>
			<circle class="st0" cx="24.5" cy="24.5" r="24.5"/>
			<circle class="st1" cx="24.5" cy="24.5" r="17.4"/>
		</g>
		<g>
			<circle class="st0" cx="74.5" cy="24.5" r="24.5"/>
			<ellipse class="st1" cx="74.5" cy="26" rx="17.4" ry="16.8"/>
		</g>
		<g>
			<circle class="st0" cx="124.5" cy="24.5" r="24.5"/>
			<circle class="st1" cx="124.5" cy="27.6" r="17.4"/>
		</g>
		<g>
			<circle class="st0" cx="174.5" cy="24.5" r="24.5"/>
			<ellipse class="st1" cx="174.5" cy="28.6" rx="17.4" ry="16.8"/>
		</g>
		<g>
			<circle class="st0" cx="224.5" cy="24.5" r="24.5"/>
			<ellipse class="st1" cx="224.5" cy="29.9" rx="17.4" ry="16.6"/>
		</g>
		<g>
			<circle class="st0" cx="24.5" cy="74.5" r="24.5"/>
			<ellipse class="st1" cx="24.5" cy="81.2" rx="17.4" ry="15.9"/>
		</g>
		<g>
			<circle class="st0" cx="74.5" cy="74.5" r="24.5"/>
			<ellipse class="st1" cx="74.5" cy="82.7" rx="17.4" ry="15.5"/>
		</g>
		<g>
			<circle class="st0" cx="124.5" cy="74.5" r="24.5"/>
			<ellipse class="st1" cx="124.5" cy="83.4" rx="17.4" ry="14.8"/>
		</g>
		<g>
			<circle class="st0" cx="174.5" cy="74.5" r="24.5"/>
			<ellipse class="st1" cx="174.5" cy="84.7" rx="17.4" ry="13.9"/>
		</g>
		<g>
			<circle class="st0" cx="224.5" cy="74.5" r="24.5"/>
			<ellipse class="st1" cx="224.5" cy="85.9" rx="17.4" ry="13.1"/>
		</g>
		<g>
			<circle class="st0" cx="24.5" cy="124.5" r="24.5"/>
			<ellipse class="st1" cx="24.5" cy="137.1" rx="17.4" ry="11.9"/>
		</g>
		<g>
			<circle class="st0" cx="74.5" cy="124.5" r="24.5"/>
			<ellipse class="st1" cx="74.5" cy="137.8" rx="17.4" ry="11.2"/>
		</g>
		<g>
			<circle class="st0" cx="124.5" cy="124.5" r="24.5"/>
			<path class="st1" d="M141.8,138.9c0,5.6-9.5,10.1-17.3,10.1c-7.8,0.1-17.3-4.5-17.3-10.1c0-5.6,7.8-10.1,17.3-10.1
				S141.8,133.3,141.8,138.9z"/>
		</g>
		<g>
			<circle class="st0" cx="174.5" cy="124.5" r="24.5"/>
			<ellipse class="st1" cx="174.5" cy="139.8" rx="17.4" ry="9.2"/>
		</g>
		<g>
			<circle class="st0" cx="224.5" cy="124.5" r="24.5"/>
			<path class="st1" d="M224.5,132.3c-9.6,0-17.4,3.7-17.4,8.4c0,0.9,0.6,1.8,1.7,2.8c0.8,0.7,1.6,1.3,2.5,1.8
				c3.5,2.1,8.6,3.7,13.1,3.8c0.1,0,0.2,0,0.4,0c0.4,0,0.7,0,1.1,0c0.1,0,0.3,0,0.4,0c1.9-0.2,3.9-0.6,5.7-1.1
				c3.5-1.1,6.7-3.1,9.3-5.5c0.4-0.6,0.6-1.1,0.6-1.6C241.9,136,234.1,132.3,224.5,132.3z"/>
			<path class="st1" d="M231.1,100.9c-2.1-0.6-4.4-0.9-6.7-0.9c0,0,0,0,0,0c-2.3,0-4.5,0.3-6.7,0.9c1.6,0.1,4.1,0.2,6.8,0.2
				C227.1,101.1,229.5,101.1,231.1,100.9z"/>
		</g>
		<g>
			<circle class="st0" cx="24.5" cy="174.5" r="24.5"/>
			<path class="st1" d="M41.6,191.4c0-4.2-7.8-7.6-17.4-7.6c-9.6,0-17.4,3.4-17.4,7.6c0,0.1,0.1,0.2,0.2,0.4c1.1,1.2,2.4,2.2,3.8,3.1
				c2,1.3,4.6,2.6,7.7,3.4c0.2,0,0.3,0.1,0.5,0.1c0.3,0.1,0.6,0.1,0.9,0.2c0.4,0.1,0.8,0.1,1.2,0.2c0.3,0,0.6,0.1,0.9,0.1
				c0.2,0,0.5,0,0.8,0.1c0.4,0,0.9,0.1,1.4,0.1c0,0,0.1,0,0.1,0c5.3,0,9.9-1.7,13-3.6c1.1-0.7,2.1-1.4,3-2.2
				C41.1,192.4,41.6,191.8,41.6,191.4z"/>
			<path class="st1" d="M24.1,152.9c4.8,0,8.7-0.6,8.8-1.4c-2.4-0.9-4.9-1.4-7.6-1.4c-0.3,0-0.7,0-1,0c-3.1,0-6,0.6-8.7,1.7
				C16.3,152.4,19.8,152.9,24.1,152.9z"/>
		</g>
		<g>
			<circle class="st0" cx="74.5" cy="174.5" r="24.5"/>
			<path class="st1" d="M75.4,199c6.4-0.2,12.2-2.9,16.4-7.1c-0.8-3.4-8.2-6-17.3-6s-16.5,2.6-17.3,6c4.2,4.2,10,6.9,16.4,7.1
				c0.3,0,0.6,0,0.9,0S75.1,199,75.4,199z"/>
			<path class="st1" d="M74.4,153.3c4.8,0,8.8-0.7,8.8-1.6c0,0,0-0.1,0-0.1c-2.6-1-5.3-1.5-8.2-1.5c-0.2,0-0.4,0-0.6,0
				c0,0-0.1,0-0.1,0c-3,0-6,0.6-8.6,1.7C65.7,152.6,69.6,153.3,74.4,153.3z"/>
		</g>
		<g>
			<circle class="st0" cx="124.5" cy="174.5" r="24.5"/>
			<path class="st1" d="M141.5,192.2c-1.7-2.5-8.6-4.5-17-4.5c-8.3,0-15.3,1.9-17,4.5c4.4,4.2,10.4,6.8,16.9,6.8c0,0,0,0,0,0
				C131.1,199,137.1,196.4,141.5,192.2z"/>
			<path class="st1" d="M124.4,153.3c4.8,0,8.8-0.7,8.8-1.6c0,0,0-0.1,0-0.1c-2.6-1-5.3-1.5-8.2-1.6c-0.2,0-0.4,0-0.5,0
				c0,0-0.1,0-0.1,0c-3,0-5.9,0.6-8.6,1.7C115.7,152.6,119.6,153.3,124.4,153.3z"/>
		</g>
		<g>
			<circle class="st0" cx="174.5" cy="174.5" r="24.5"/>
			<path class="st1" d="M174.2,188.9c-7.7,0-14.2,1.5-16.5,3.5c4.3,4.1,10.2,6.6,16.6,6.6c0.3,0,0.5,0,0.8,0
				c6.1-0.2,11.6-2.5,15.8-6.3C189,190.5,182.2,188.9,174.2,188.9z"/>
			<path class="st1" d="M165.3,152.2c0,1.2,3.9,2.2,8.8,2.2c4.8,0,8.8-1,8.8-2.2c0-0.5-0.6-1-1.7-1.3c-1.3-0.4-2.6-0.6-3.9-0.8
				c-0.9-0.1-1.9-0.1-2.9-0.1c-3,0-6,0.6-8.6,1.7C165.4,151.8,165.3,152,165.3,152.2z"/>
		</g>
		<g>
			<circle class="st0" cx="224.5" cy="174.5" r="24.5"/>
			<path class="st1" d="M224.7,199c6,0,11.5-2.3,15.7-5.9c-2.7-1.5-8.8-2.6-15.9-2.6s-13.3,1.1-15.9,2.6c4.2,3.6,9.7,5.8,15.7,5.9
				c0.1,0,0.1,0,0.2,0S224.6,199,224.7,199z"/>
			<path class="st1" d="M215.6,153.1c0,1.7,3.9,3.1,8.8,3.1c4.8,0,8.8-1.4,8.8-3.1c0-1.6-3.4-2.9-7.8-3.1c0,0-0.1,0-0.1,0
				c-0.3,0-0.5,0-0.8,0c-1.5,0-3.1,0.2-4.5,0.4C217.3,151,215.6,152,215.6,153.1z"/>
		</g>
		<g>
			<circle class="st0" cx="24.5" cy="224.5" r="24.5"/>
			<path class="st1" d="M9.2,243.6c4.2,3.3,9.4,5.3,15.1,5.4c0.2,0,0.3,0,0.5,0c5.6-0.1,10.7-2,14.8-5.2c-2.9-1.1-8.7-1.9-15.4-1.9
				C17.8,241.8,12.2,242.6,9.2,243.6z"/>
			<path class="st1" d="M13.2,203.6c0,2,5,3.6,11.1,3.6s11.1-1.6,11.1-3.6c0-0.5-0.3-1-0.9-1.4c-2.7-1.2-5.6-2-8.7-2.1
				c-0.1,0-0.1,0-0.2,0c-0.2,0-0.4,0-0.6,0c-0.2,0-0.5,0-0.7,0c-3.8,0-7.4,0.9-10.6,2.5C13.4,202.8,13.2,203.2,13.2,203.6z"/>
		</g>
		<g>
			<circle class="st0" cx="74.5" cy="224.5" r="24.5"/>
			<path class="st1" d="M74.7,249c5.4,0,10.4-1.8,14.4-4.8c-3.1-0.8-8.4-1.4-14.5-1.4S63,243.4,60,244.2c4,3,9,4.7,14.4,4.8
				c0.1,0,0.1,0,0.2,0S74.6,249,74.7,249z"/>
			<path class="st1" d="M90.5,205.9c-4.2-3.6-9.7-5.9-15.8-5.9c-0.3,0-0.5,0-0.8,0c-5.7,0.1-10.9,2.2-15,5.6c2.3,1.7,8.6,2.8,16,2.8
				C81.9,208.5,87.8,207.4,90.5,205.9z"/>
		</g>
		<g>
			<circle class="st0" cx="124.5" cy="224.5" r="24.5"/>
			<path class="st1" d="M124.6,249c4.9,0,9.5-1.5,13.3-4c-3.2-0.5-8-0.9-13.4-0.9c-5.4,0-10.2,0.3-13.4,0.9c3.8,2.5,8.4,4,13.3,4
				c0.1,0,0.1,0,0.2,0C124.6,249,124.6,249,124.6,249z"/>
			<path class="st1" d="M124.9,210.3c7.7,0,14.3-1.6,16.3-3.7c-4.3-4-10.1-6.5-16.5-6.6c-0.4,0-0.7,0-1.1,0
				c-5.9,0.2-11.2,2.5-15.4,6.1C109.8,208.5,116.7,210.3,124.9,210.3z"/>
		</g>
		<g>
			<circle class="st0" cx="174.5" cy="224.5" r="24.5"/>
			<path class="st1" d="M174.6,249c4.6,0,8.8-1.3,12.4-3.5c-3.2-0.4-7.6-0.6-12.6-0.6s-9.4,0.2-12.6,0.6c3.6,2.2,7.9,3.5,12.4,3.5
				c0,0,0.1,0,0.1,0S174.6,249,174.6,249z"/>
			<path class="st1" d="M174.9,211.4c8.2,0,15-1.9,16.6-4.5c-4.4-4.2-10.3-6.8-16.8-6.9c-0.4,0-0.9,0-1.3,0
				c-5.9,0.3-11.3,2.6-15.4,6.3C159,209.2,166.2,211.4,174.9,211.4z"/>
		</g>
		<g>
			<circle class="st0" cx="224.5" cy="224.5" r="24.5"/>
			<path class="st1" d="M213.8,246.5c3.2,1.6,6.8,2.4,10.6,2.5c0.1,0,0.2,0,0.4,0c3.7,0,7.3-0.9,10.4-2.4c-3-0.2-6.9-0.3-11.1-0.3
				C220.2,246.3,216.6,246.4,213.8,246.5z"/>
			<path class="st1" d="M224.4,213.3c9.3,0,16.9-2.9,17-6.6c-4.2-4-9.9-6.5-16.1-6.7c-0.3,0-0.6,0-0.9,0c0,0-0.1,0-0.1,0
				c-6.6,0-12.5,2.7-16.9,6.9C207.8,210.5,215.2,213.3,224.4,213.3z"/>
		</g>
		<g>
			<circle class="st0" cx="24.5" cy="274.5" r="24.5"/>
			<path class="st1" d="M15.3,297.2c2.8,1.1,5.9,1.8,9.1,1.8c0.1,0,0.2,0,0.2,0c3.2,0,6.3-0.7,9.1-1.8c-2.7-0.1-5.9-0.2-9.4-0.2
				C21,297,17.9,297.1,15.3,297.2z"/>
			<path class="st1" d="M24.7,265.2c9.4,0,17-3.4,17-7.6c0-0.2,0-0.4-0.1-0.6c-4.4-4.3-10.4-6.9-17-7c-0.5,0-1,0-1.5,0
				c-5.8,0.3-11.1,2.7-15.2,6.4c-0.1,0.4-0.2,0.8-0.2,1.2C7.8,261.8,15.4,265.2,24.7,265.2z"/>
		</g>
		<g>
			<circle class="st0" cx="74.5" cy="274.5" r="24.5"/>
			<path class="st1" d="M74.6,299c2.7,0,5.2-0.5,7.6-1.3c-2.3,0-5-0.1-7.8-0.1s-5.4,0-7.8,0.1c2.4,0.8,5,1.2,7.6,1.3c0,0,0.1,0,0.1,0
				S74.6,299,74.6,299z"/>
			<path class="st1" d="M74.9,267c9.4,0,17-3.8,17-8.5c0-0.5-0.1-1.1-0.3-1.6c-4.4-4.2-10.3-6.8-16.8-6.9c-1,0-2,0.1-2.9,0.1
				c-4.8,0.5-9.3,2.5-12.8,5.4c-0.7,0.9-1.1,1.9-1.1,3C57.9,263.2,65.5,267,74.9,267z"/>
		</g>
		<g>
			<circle class="st0" cx="124.5" cy="274.5" r="24.5"/>
			<path class="st1" d="M124.6,299c2.3,0,4.5-0.3,6.5-0.9c-2,0-4.3,0-6.6,0c-2.4,0-4.6,0-6.7,0c2.1,0.6,4.3,0.9,6.5,0.9
				C124.4,299,124.5,299,124.6,299C124.5,299,124.6,299,124.6,299z"/>
			<path class="st1" d="M107.9,259.4c0,5.2,7.6,9.4,17,9.4s17-4.2,17-9.4c0-1.1-0.4-2.2-1-3.1c-4.3-3.9-9.9-6.2-16.1-6.3
				c-1.5,0-3,0.1-4.4,0.3c-3.5,0.6-6.7,1.9-9.6,3.8C109,255.7,107.9,257.5,107.9,259.4z"/>
		</g>
		<g>
			<circle class="st0" cx="174.5" cy="274.5" r="24.5"/>
			<ellipse class="st1" cx="174.5" cy="260.3" rx="17" ry="10.3"/>
		</g>
		<g>
			<circle class="st0" cx="224.5" cy="274.5" r="24.5"/>
			<ellipse class="st1" cx="224.5" cy="261.2" rx="17" ry="11.2"/>
		</g>
		<g>
			<circle class="st0" cx="24.5" cy="324.5" r="24.5"/>
			<ellipse class="st1" cx="24.5" cy="312.2" rx="17" ry="12.2"/>
		</g>
		<g>
			<circle class="st0" cx="74.5" cy="324.5" r="24.5"/>
			<ellipse class="st1" cx="74.5" cy="313.4" rx="17" ry="13.1"/>
		</g>
		<g>
			<circle class="st0" cx="124.5" cy="324.5" r="24.5"/>
			<ellipse class="st1" cx="124.5" cy="314.5" rx="17" ry="13.9"/>
		</g>
		<g>
			<circle class="st0" cx="174.5" cy="324.5" r="24.5"/>
			<ellipse class="st1" cx="174.5" cy="315.7" rx="17" ry="14.7"/>
		</g>
		<g>
			<circle class="st0" cx="224.5" cy="324.5" r="24.5"/>
			<ellipse class="st1" cx="224.5" cy="316.9" rx="17" ry="15.3"/>
		</g>
		<g>
			<circle class="st0" cx="24.5" cy="374.5" r="24.5"/>
			<ellipse class="st1" cx="24.5" cy="368" rx="17" ry="16"/>
		</g>
		<g>
			<circle class="st0" cx="74.5" cy="374.5" r="24.5"/>
			<ellipse class="st1" cx="74.5" cy="369.4" rx="17" ry="16.4"/>
		</g>
		<g>
			<circle class="st0" cx="124.5" cy="374.5" r="24.5"/>
			<ellipse class="st1" cx="124.5" cy="370.7" rx="17" ry="16.7"/>
		</g>
		<g>
			<circle class="st0" cx="174.5" cy="374.5" r="24.5"/>
			<circle class="st1" cx="174.5" cy="372" r="17"/>
		</g>
		<g>
			<circle class="st0" cx="224.5" cy="374.5" r="24.5"/>
			<ellipse class="st1" cx="224.5" cy="373.2" rx="17" ry="17.2"/>
		</g>
		<g>
			<circle class="st0" cx="24.5" cy="424.5" r="24.5"/>
			<ellipse class="st1" cx="24.5" cy="423.4" rx="17" ry="17.3"/>
		</g>
	</svg>

</svg>