<svg xmlns="http://www.w3.org/2000/svg" width="0" height="0">

	<svg id="solid-sprite-sheet" viewBox="0 0 148 148" size="keep">
		<style type="text/css">
			.st0{fill:#fff;}
			.st1{fill:#ff0;}
			.st2{fill:#00f;}
			.st3{fill:#f00;}
			.st4{fill:#f08;}
			.st5{fill:#f80;}
			.st6{fill:#080;}
			.st7{fill:#800;}
			.st8{fill:#000;}
		</style>
		<circle class="st0" cx="24" cy="24" r="24"/>
		<circle class="st1" cx="72" cy="24" r="24"/>
		<circle class="st2" cx="120" cy="24" r="24"/>
		<circle class="st3" cx="24" cy="72" r="24"/>
		<circle class="st4" cx="72" cy="72" r="24"/>
		<circle class="st5" cx="120" cy="72" r="24"/>
		<circle class="st6" cx="24" cy="120" r="24"/>
		<circle class="st7" cx="72" cy="120" r="24"/>
		<circle class="st8" cx="120" cy="120" r="24"/>
	</svg>

	<svg id="ball-sprite-sheet-9" viewBox="0 0 250 450" size="keep">
		<style type="text/css">
			.st0{fill:#ee0;}
			.st1{fill:#fff;}
		</style>
		<g>
			<circle class="st0" cx="24" cy="24" r="24"/>
			<circle class="st1" cx="24" cy="24" r="17"/>
		</g>
		<g>
			<circle class="st0" cx="74" cy="24" r="24"/>
			<ellipse class="st1" cx="74" cy="25.5" rx="17" ry="16.5"/>
		</g>
		<g>
			<circle class="st0" cx="124" cy="24" r="24"/>
			<circle class="st1" cx="124" cy="27" r="17"/>
		</g>
		<g>
			<circle class="st0" cx="174" cy="24" r="24"/>
			<ellipse class="st1" cx="174" cy="28" rx="17" ry="16.5"/>
		</g>
		<g>
			<circle class="st0" cx="224" cy="24" r="24"/>
			<ellipse class="st1" cx="224" cy="29.3" rx="17" ry="16.3"/>
		</g>
		<g>
			<circle class="st0" cx="24" cy="74" r="24"/>
			<ellipse class="st1" cx="24" cy="80.5" rx="17" ry="15.6"/>
		</g>
		<g>
			<circle class="st0" cx="74" cy="74" r="24"/>
			<ellipse class="st1" cx="74" cy="82" rx="17" ry="15.2"/>
		</g>
		<g>
			<circle class="st0" cx="124" cy="74" r="24"/>
			<ellipse class="st1" cx="124" cy="82.7" rx="17" ry="14.5"/>
		</g>
		<g>
			<circle class="st0" cx="174" cy="74" r="24"/>
			<ellipse class="st1" cx="174" cy="84" rx="17" ry="13.6"/>
		</g>
		<g>
			<circle class="st0" cx="224" cy="74" r="24"/>
			<ellipse class="st1" cx="224" cy="85.1" rx="17" ry="12.9"/>
		</g>
		<g>
			<circle class="st0" cx="24" cy="124" r="24"/>
			<ellipse class="st1" cx="24" cy="136.3" rx="17" ry="11.7"/>
		</g>
		<g>
			<circle class="st0" cx="74" cy="124" r="24"/>
			<ellipse class="st1" cx="74" cy="137.1" rx="17" ry="10.9"/>
		</g>
		<g>
			<circle class="st0" cx="124" cy="124" r="24"/>
			<path class="st1" d="M141,138.1c0,5.5-9.3,9.9-17,9.9c-7.7,0.1-17-4.5-17-9.9c0-5.5,7.6-9.9,17-9.9S141,132.6,141,138.1z"/>
		</g>
		<g>
			<circle class="st0" cx="174" cy="124" r="24"/>
			<ellipse class="st1" cx="174" cy="139" rx="17" ry="9"/>
		</g>
		<g>
			<circle class="st0" cx="224" cy="124" r="24"/>
			<path class="st1" d="M224,131.6c-9.4,0-17,3.7-17,8.2c0,0.9,0.6,1.8,1.6,2.7c0.8,0.6,1.6,1.2,2.5,1.8c3.4,2,8.4,3.7,12.9,3.7
				c0.1,0,0.2,0,0.3,0c0.3,0,0.7,0,1,0c0.1,0,0.3,0,0.4,0c1.9-0.2,3.8-0.6,5.6-1.1c3.4-1.1,6.5-3,9.1-5.4c0.4-0.5,0.6-1.1,0.6-1.6
				C241,135.3,233.4,131.6,224,131.6z"/>
			<path class="st1" d="M230.5,100.9c-2.1-0.6-4.3-0.9-6.6-0.9c0,0,0,0,0,0c-2.3,0-4.5,0.3-6.5,0.9c1.6,0.1,4,0.2,6.7,0.2
				C226.6,101.1,228.9,101,230.5,100.9z"/>
		</g>
		<g>
			<circle class="st0" cx="24" cy="174" r="24"/>
			<path class="st1" d="M40.7,190.6c0-4.1-7.6-7.4-17-7.4c-9.4,0-17,3.3-17,7.4c0,0.1,0.1,0.2,0.2,0.4c1.1,1.1,2.4,2.2,3.7,3
				c1.9,1.3,4.5,2.6,7.6,3.3c0.2,0,0.3,0.1,0.5,0.1c0.3,0.1,0.6,0.1,0.8,0.2c0.4,0.1,0.8,0.1,1.2,0.2c0.3,0,0.6,0.1,0.8,0.1
				c0.2,0,0.5,0,0.7,0.1c0.4,0,0.9,0.1,1.3,0.1c0,0,0.1,0,0.1,0c5.2,0,9.7-1.7,12.8-3.5c1-0.6,2-1.4,2.9-2.1
				C40.3,191.6,40.7,190.9,40.7,190.6z"/>
			<path class="st1" d="M23.6,152.8c4.7,0,8.5-0.6,8.6-1.4c-2.3-0.8-4.8-1.3-7.4-1.4c-0.3,0-0.7,0-1,0c-3,0-5.9,0.6-8.6,1.7
				C16,152.3,19.4,152.8,23.6,152.8z"/>
		</g>
		<g>
			<circle class="st0" cx="74" cy="174" r="24"/>
			<path class="st1" d="M74.8,198c6.3-0.2,11.9-2.8,16.1-7c-0.7-3.3-8-5.9-16.9-5.9s-16.2,2.6-16.9,5.9c4.2,4.1,9.8,6.8,16.1,7
				c0.3,0,0.6,0,0.8,0S74.6,198,74.8,198z"/>
			<path class="st1" d="M73.9,153.2c4.7,0,8.6-0.7,8.6-1.6c0,0,0-0.1,0-0.1c-2.5-0.9-5.2-1.5-8-1.5c-0.2,0-0.4,0-0.5,0
				c0,0-0.1,0-0.1,0c-3,0-5.8,0.6-8.5,1.6C65.3,152.5,69.2,153.2,73.9,153.2z"/>
		</g>
		<g>
			<circle class="st0" cx="124" cy="174" r="24"/>
			<path class="st1" d="M140.6,191.3c-1.7-2.5-8.5-4.4-16.6-4.4c-8.2,0-15,1.9-16.6,4.4c4.3,4.1,10.1,6.7,16.6,6.7c0,0,0,0,0,0
				C130.5,198,136.3,195.4,140.6,191.3z"/>
			<path class="st1" d="M123.9,153.2c4.7,0,8.6-0.7,8.6-1.6c0,0,0-0.1,0-0.1c-2.5-0.9-5.2-1.5-8-1.5c-0.2,0-0.3,0-0.5,0
				c0,0-0.1,0-0.1,0c-3,0-5.8,0.6-8.4,1.6C115.3,152.5,119.2,153.2,123.9,153.2z"/>
		</g>
		<g>
			<circle class="st0" cx="174" cy="174" r="24"/>
			<path class="st1" d="M173.7,188.1c-7.5,0-13.9,1.4-16.1,3.4c4.3,4,10,6.4,16.2,6.5c0.3,0,0.5,0,0.8,0c6-0.1,11.4-2.5,15.5-6.2
				C188.2,189.7,181.6,188.1,173.7,188.1z"/>
			<path class="st1" d="M165,152.2c0,1.2,3.8,2.2,8.6,2.2c4.7,0,8.6-1,8.6-2.2c0-0.5-0.6-0.9-1.7-1.3c-1.2-0.3-2.5-0.6-3.9-0.7
				c-0.9-0.1-1.8-0.1-2.8-0.1c-3,0-5.8,0.6-8.5,1.6C165.1,151.8,165,152,165,152.2z"/>
		</g>
		<g>
			<circle class="st0" cx="224" cy="174" r="24"/>
			<path class="st1" d="M224.2,198c5.9,0,11.3-2.2,15.4-5.8c-2.6-1.5-8.6-2.5-15.6-2.5s-13,1-15.6,2.5c4.2,3.6,9.5,5.7,15.4,5.8
				c0.1,0,0.1,0,0.2,0S224.1,198,224.2,198z"/>
			<path class="st1" d="M215.3,153c0,1.7,3.8,3,8.6,3c4.7,0,8.6-1.4,8.6-3c0-1.6-3.4-2.8-7.7-3c0,0-0.1,0-0.1,0c-0.3,0-0.5,0-0.8,0
				c-1.5,0-3,0.2-4.4,0.4C217,151,215.3,151.9,215.3,153z"/>
		</g>
		<g>
			<circle class="st0" cx="24" cy="224" r="24"/>
			<path class="st1" d="M9,242.7c4.1,3.3,9.2,5.2,14.8,5.3c0.2,0,0.3,0,0.5,0c5.5-0.1,10.5-2,14.5-5.1c-2.8-1.1-8.5-1.9-15.1-1.9
				C17.4,241,12,241.7,9,242.7z"/>
			<path class="st1" d="M12.9,203.5c0,1.9,4.9,3.5,10.9,3.5s10.9-1.6,10.9-3.5c0-0.5-0.3-1-0.9-1.4c-2.6-1.2-5.5-1.9-8.5-2.1
				c-0.1,0-0.1,0-0.2,0c-0.2,0-0.4,0-0.6,0c-0.2,0-0.4,0-0.7,0c-3.7,0-7.3,0.9-10.4,2.4C13.1,202.8,12.9,203.1,12.9,203.5z"/>
		</g>
		<g>
			<circle class="st0" cx="74" cy="224" r="24"/>
			<path class="st1" d="M74.2,248c5.3,0,10.1-1.8,14.1-4.7c-3-0.8-8.3-1.4-14.3-1.4s-11.2,0.6-14.3,1.4c3.9,2.9,8.8,4.7,14.1,4.7
				c0.1,0,0.1,0,0.2,0S74.1,248,74.2,248z"/>
			<path class="st1" d="M89.6,205.8c-4.2-3.6-9.5-5.7-15.4-5.8c-0.3,0-0.5,0-0.8,0c-5.6,0.1-10.7,2.2-14.7,5.5
				c2.3,1.6,8.4,2.8,15.7,2.8C81.2,208.3,87.1,207.3,89.6,205.8z"/>
		</g>
		<g>
			<circle class="st0" cx="124" cy="224" r="24"/>
			<path class="st1" d="M124.1,248c4.8,0,9.3-1.5,13-3.9c-3.1-0.5-7.8-0.9-13.1-0.9c-5.3,0-10,0.3-13.2,0.9c3.7,2.5,8.2,3.9,13,3.9
				c0.1,0,0.1,0,0.2,0C124.1,248,124.1,248,124.1,248z"/>
			<path class="st1" d="M124.4,210.1c7.6,0,14-1.5,16-3.7c-4.2-4-9.9-6.4-16.1-6.4c-0.4,0-0.7,0-1.1,0c-5.8,0.2-11,2.4-15,6
				C109.6,208.4,116.3,210.1,124.4,210.1z"/>
		</g>
		<g>
			<circle class="st0" cx="174" cy="224" r="24"/>
			<path class="st1" d="M174.1,248c4.5,0,8.6-1.3,12.2-3.4c-3.1-0.4-7.5-0.6-12.3-0.6s-9.2,0.2-12.3,0.6c3.6,2.1,7.7,3.4,12.2,3.4
				c0,0,0.1,0,0.1,0S174.1,248,174.1,248z"/>
			<path class="st1" d="M174.4,211.2c8,0,14.7-1.9,16.3-4.4c-4.3-4.1-10.1-6.7-16.4-6.7c-0.4,0-0.9,0-1.3,0c-5.8,0.3-11,2.6-15,6.2
				C158.8,209,165.8,211.2,174.4,211.2z"/>
		</g>
		<g>
			<circle class="st0" cx="224" cy="224" r="24"/>
			<path class="st1" d="M213.5,245.6c3.1,1.5,6.6,2.4,10.4,2.4c0.1,0,0.2,0,0.4,0c3.7,0,7.1-0.9,10.2-2.4c-2.9-0.2-6.7-0.3-10.9-0.3
				C219.8,245.3,216.3,245.4,213.5,245.6z"/>
			<path class="st1" d="M223.9,213.1c9.1,0,16.5-2.9,16.6-6.5c-4.1-3.9-9.7-6.4-15.8-6.6c-0.3,0-0.6,0-0.9,0c0,0-0.1,0-0.1,0
				c-6.4,0-12.2,2.6-16.5,6.7C207.6,210.3,214.9,213.1,223.9,213.1z"/>
		</g>
		<g>
			<circle class="st0" cx="24" cy="274" r="24"/>
			<path class="st1" d="M15,296.2c2.8,1.1,5.8,1.8,8.9,1.8c0.1,0,0.2,0,0.2,0c3.1,0,6.1-0.6,8.9-1.8c-2.6-0.1-5.8-0.2-9.2-0.2
				C20.6,296.1,17.5,296.1,15,296.2z"/>
			<path class="st1" d="M24.2,264.9c9.2,0,16.6-3.3,16.6-7.4c0-0.2,0-0.4-0.1-0.6c-4.3-4.2-10.2-6.8-16.6-6.8c-0.5,0-1,0-1.5,0
				c-5.7,0.3-10.9,2.6-14.8,6.2c-0.1,0.4-0.2,0.8-0.2,1.2C7.6,261.6,15,264.9,24.2,264.9z"/>
		</g>
		<g>
			<circle class="st0" cx="74" cy="274" r="24"/>
			<path class="st1" d="M74.1,298c2.6,0,5.1-0.4,7.5-1.2c-2.3,0-4.9-0.1-7.6-0.1s-5.3,0-7.6,0.1c2.4,0.8,4.9,1.2,7.5,1.2
				c0,0,0.1,0,0.1,0S74.1,298,74.1,298z"/>
			<path class="st1" d="M74.4,266.6c9.2,0,16.6-3.7,16.6-8.3c0-0.5-0.1-1-0.3-1.5c-4.3-4.1-10.1-6.7-16.5-6.8c-1,0-1.9,0.1-2.9,0.1
				c-4.7,0.5-9.1,2.4-12.6,5.3c-0.7,0.9-1.1,1.9-1.1,2.9C57.8,262.9,65.2,266.6,74.4,266.6z"/>
		</g>
		<g>
			<circle class="st0" cx="124" cy="274" r="24"/>
			<path class="st1" d="M124.1,298c2.2,0,4.4-0.3,6.4-0.9c-2,0-4.2,0-6.5,0c-2.3,0-4.5,0-6.5,0c2,0.6,4.2,0.9,6.4,0.9
				C123.9,298,124,298,124.1,298C124,298,124.1,298,124.1,298z"/>
			<path class="st1" d="M107.8,259.2c0,5.1,7.4,9.2,16.6,9.2s16.6-4.1,16.6-9.2c0-1.1-0.4-2.1-1-3.1c-4.2-3.8-9.7-6.1-15.8-6.1
				c-1.5,0-2.9,0.1-4.3,0.3c-3.4,0.6-6.6,1.9-9.4,3.8C108.8,255.6,107.8,257.3,107.8,259.2z"/>
		</g>
		<g>
			<circle class="st0" cx="174" cy="274" r="24"/>
			<ellipse class="st1" cx="174" cy="260.1" rx="16.6" ry="10.1"/>
		</g>
		<g>
			<circle class="st0" cx="224" cy="274" r="24"/>
			<ellipse class="st1" cx="224" cy="260.9" rx="16.6" ry="10.9"/>
		</g>
		<g>
			<circle class="st0" cx="24" cy="324" r="24"/>
			<ellipse class="st1" cx="24" cy="312" rx="16.6" ry="12"/>
		</g>
		<g>
			<circle class="st0" cx="74" cy="324" r="24"/>
			<ellipse class="st1" cx="74" cy="313.2" rx="16.6" ry="12.9"/>
		</g>
		<g>
			<circle class="st0" cx="124" cy="324" r="24"/>
			<ellipse class="st1" cx="124" cy="314.2" rx="16.6" ry="13.6"/>
		</g>
		<g>
			<circle class="st0" cx="174" cy="324" r="24"/>
			<ellipse class="st1" cx="174" cy="315.4" rx="16.6" ry="14.4"/>
		</g>
		<g>
			<circle class="st0" cx="224" cy="324" r="24"/>
			<ellipse class="st1" cx="224" cy="316.6" rx="16.6" ry="15"/>
		</g>
		<g>
			<circle class="st0" cx="24" cy="374" r="24"/>
			<ellipse class="st1" cx="24" cy="367.6" rx="16.6" ry="15.6"/>
		</g>
		<g>
			<circle class="st0" cx="74" cy="374" r="24"/>
			<ellipse class="st1" cx="74" cy="369" rx="16.6" ry="16.1"/>
		</g>
		<g>
			<circle class="st0" cx="124" cy="374" r="24"/>
			<ellipse class="st1" cx="124" cy="370.3" rx="16.6" ry="16.3"/>
		</g>
		<g>
			<circle class="st0" cx="174" cy="374" r="24"/>
			<circle class="st1" cx="174" cy="371.5" r="16.6"/>
		</g>
		<g>
			<circle class="st0" cx="224" cy="374" r="24"/>
			<ellipse class="st1" cx="224" cy="372.7" rx="16.6" ry="16.9"/>
		</g>
		<g>
			<circle class="st0" cx="24" cy="424" r="24"/>
			<ellipse class="st1" cx="24" cy="422.9" rx="16.6" ry="17"/>
		</g>
	</svg>

	<svg id="ball-sprite-sheet-10" viewBox="0 0 250 450" size="keep">
		<style type="text/css">
			.st0{fill:#3550A1;}
			.st1{fill:#fff;}
		</style>
		<g>
			<circle class="st0" cx="24" cy="24" r="24"/>
			<circle class="st1" cx="24" cy="24" r="17"/>
		</g>
		<g>
			<circle class="st0" cx="74" cy="24" r="24"/>
			<ellipse class="st1" cx="74" cy="25.5" rx="17" ry="16.5"/>
		</g>
		<g>
			<circle class="st0" cx="124" cy="24" r="24"/>
			<circle class="st1" cx="124" cy="27" r="17"/>
		</g>
		<g>
			<circle class="st0" cx="174" cy="24" r="24"/>
			<ellipse class="st1" cx="174" cy="28" rx="17" ry="16.5"/>
		</g>
		<g>
			<circle class="st0" cx="224" cy="24" r="24"/>
			<ellipse class="st1" cx="224" cy="29.3" rx="17" ry="16.3"/>
		</g>
		<g>
			<circle class="st0" cx="24" cy="74" r="24"/>
			<ellipse class="st1" cx="24" cy="80.5" rx="17" ry="15.6"/>
		</g>
		<g>
			<circle class="st0" cx="74" cy="74" r="24"/>
			<ellipse class="st1" cx="74" cy="82" rx="17" ry="15.2"/>
		</g>
		<g>
			<circle class="st0" cx="124" cy="74" r="24"/>
			<ellipse class="st1" cx="124" cy="82.7" rx="17" ry="14.5"/>
		</g>
		<g>
			<circle class="st0" cx="174" cy="74" r="24"/>
			<ellipse class="st1" cx="174" cy="84" rx="17" ry="13.6"/>
		</g>
		<g>
			<circle class="st0" cx="224" cy="74" r="24"/>
			<ellipse class="st1" cx="224" cy="85.1" rx="17" ry="12.9"/>
		</g>
		<g>
			<circle class="st0" cx="24" cy="124" r="24"/>
			<ellipse class="st1" cx="24" cy="136.3" rx="17" ry="11.7"/>
		</g>
		<g>
			<circle class="st0" cx="74" cy="124" r="24"/>
			<ellipse class="st1" cx="74" cy="137.1" rx="17" ry="10.9"/>
		</g>
		<g>
			<circle class="st0" cx="124" cy="124" r="24"/>
			<path class="st1" d="M141,138.1c0,5.5-9.3,9.9-17,9.9c-7.7,0.1-17-4.5-17-9.9c0-5.5,7.6-9.9,17-9.9S141,132.6,141,138.1z"/>
		</g>
		<g>
			<circle class="st0" cx="174" cy="124" r="24"/>
			<ellipse class="st1" cx="174" cy="139" rx="17" ry="9"/>
		</g>
		<g>
			<circle class="st0" cx="224" cy="124" r="24"/>
			<path class="st1" d="M224,131.6c-9.4,0-17,3.7-17,8.2c0,0.9,0.6,1.8,1.6,2.7c0.8,0.6,1.6,1.2,2.5,1.8c3.4,2,8.4,3.7,12.9,3.7
				c0.1,0,0.2,0,0.3,0c0.3,0,0.7,0,1,0c0.1,0,0.3,0,0.4,0c1.9-0.2,3.8-0.6,5.6-1.1c3.4-1.1,6.5-3,9.1-5.4c0.4-0.5,0.6-1.1,0.6-1.6
				C241,135.3,233.4,131.6,224,131.6z"/>
			<path class="st1" d="M230.5,100.9c-2.1-0.6-4.3-0.9-6.6-0.9c0,0,0,0,0,0c-2.3,0-4.5,0.3-6.5,0.9c1.6,0.1,4,0.2,6.7,0.2
				C226.6,101.1,228.9,101,230.5,100.9z"/>
		</g>
		<g>
			<circle class="st0" cx="24" cy="174" r="24"/>
			<path class="st1" d="M40.7,190.6c0-4.1-7.6-7.4-17-7.4c-9.4,0-17,3.3-17,7.4c0,0.1,0.1,0.2,0.2,0.4c1.1,1.1,2.4,2.2,3.7,3
				c1.9,1.3,4.5,2.6,7.6,3.3c0.2,0,0.3,0.1,0.5,0.1c0.3,0.1,0.6,0.1,0.8,0.2c0.4,0.1,0.8,0.1,1.2,0.2c0.3,0,0.6,0.1,0.8,0.1
				c0.2,0,0.5,0,0.7,0.1c0.4,0,0.9,0.1,1.3,0.1c0,0,0.1,0,0.1,0c5.2,0,9.7-1.7,12.8-3.5c1-0.6,2-1.4,2.9-2.1
				C40.3,191.6,40.7,190.9,40.7,190.6z"/>
			<path class="st1" d="M23.6,152.8c4.7,0,8.5-0.6,8.6-1.4c-2.3-0.8-4.8-1.3-7.4-1.4c-0.3,0-0.7,0-1,0c-3,0-5.9,0.6-8.6,1.7
				C16,152.3,19.4,152.8,23.6,152.8z"/>
		</g>
		<g>
			<circle class="st0" cx="74" cy="174" r="24"/>
			<path class="st1" d="M74.8,198c6.3-0.2,11.9-2.8,16.1-7c-0.7-3.3-8-5.9-16.9-5.9s-16.2,2.6-16.9,5.9c4.2,4.1,9.8,6.8,16.1,7
				c0.3,0,0.6,0,0.8,0S74.6,198,74.8,198z"/>
			<path class="st1" d="M73.9,153.2c4.7,0,8.6-0.7,8.6-1.6c0,0,0-0.1,0-0.1c-2.5-0.9-5.2-1.5-8-1.5c-0.2,0-0.4,0-0.5,0
				c0,0-0.1,0-0.1,0c-3,0-5.8,0.6-8.5,1.6C65.3,152.5,69.2,153.2,73.9,153.2z"/>
		</g>
		<g>
			<circle class="st0" cx="124" cy="174" r="24"/>
			<path class="st1" d="M140.6,191.3c-1.7-2.5-8.5-4.4-16.6-4.4c-8.2,0-15,1.9-16.6,4.4c4.3,4.1,10.1,6.7,16.6,6.7c0,0,0,0,0,0
				C130.5,198,136.3,195.4,140.6,191.3z"/>
			<path class="st1" d="M123.9,153.2c4.7,0,8.6-0.7,8.6-1.6c0,0,0-0.1,0-0.1c-2.5-0.9-5.2-1.5-8-1.5c-0.2,0-0.3,0-0.5,0
				c0,0-0.1,0-0.1,0c-3,0-5.8,0.6-8.4,1.6C115.3,152.5,119.2,153.2,123.9,153.2z"/>
		</g>
		<g>
			<circle class="st0" cx="174" cy="174" r="24"/>
			<path class="st1" d="M173.7,188.1c-7.5,0-13.9,1.4-16.1,3.4c4.3,4,10,6.4,16.2,6.5c0.3,0,0.5,0,0.8,0c6-0.1,11.4-2.5,15.5-6.2
				C188.2,189.7,181.6,188.1,173.7,188.1z"/>
			<path class="st1" d="M165,152.2c0,1.2,3.8,2.2,8.6,2.2c4.7,0,8.6-1,8.6-2.2c0-0.5-0.6-0.9-1.7-1.3c-1.2-0.3-2.5-0.6-3.9-0.7
				c-0.9-0.1-1.8-0.1-2.8-0.1c-3,0-5.8,0.6-8.5,1.6C165.1,151.8,165,152,165,152.2z"/>
		</g>
		<g>
			<circle class="st0" cx="224" cy="174" r="24"/>
			<path class="st1" d="M224.2,198c5.9,0,11.3-2.2,15.4-5.8c-2.6-1.5-8.6-2.5-15.6-2.5s-13,1-15.6,2.5c4.2,3.6,9.5,5.7,15.4,5.8
				c0.1,0,0.1,0,0.2,0S224.1,198,224.2,198z"/>
			<path class="st1" d="M215.3,153c0,1.7,3.8,3,8.6,3c4.7,0,8.6-1.4,8.6-3c0-1.6-3.4-2.8-7.7-3c0,0-0.1,0-0.1,0c-0.3,0-0.5,0-0.8,0
				c-1.5,0-3,0.2-4.4,0.4C217,151,215.3,151.9,215.3,153z"/>
		</g>
		<g>
			<circle class="st0" cx="24" cy="224" r="24"/>
			<path class="st1" d="M9,242.7c4.1,3.3,9.2,5.2,14.8,5.3c0.2,0,0.3,0,0.5,0c5.5-0.1,10.5-2,14.5-5.1c-2.8-1.1-8.5-1.9-15.1-1.9
				C17.4,241,12,241.7,9,242.7z"/>
			<path class="st1" d="M12.9,203.5c0,1.9,4.9,3.5,10.9,3.5s10.9-1.6,10.9-3.5c0-0.5-0.3-1-0.9-1.4c-2.6-1.2-5.5-1.9-8.5-2.1
				c-0.1,0-0.1,0-0.2,0c-0.2,0-0.4,0-0.6,0c-0.2,0-0.4,0-0.7,0c-3.7,0-7.3,0.9-10.4,2.4C13.1,202.8,12.9,203.1,12.9,203.5z"/>
		</g>
		<g>
			<circle class="st0" cx="74" cy="224" r="24"/>
			<path class="st1" d="M74.2,248c5.3,0,10.1-1.8,14.1-4.7c-3-0.8-8.3-1.4-14.3-1.4s-11.2,0.6-14.3,1.4c3.9,2.9,8.8,4.7,14.1,4.7
				c0.1,0,0.1,0,0.2,0S74.1,248,74.2,248z"/>
			<path class="st1" d="M89.6,205.8c-4.2-3.6-9.5-5.7-15.4-5.8c-0.3,0-0.5,0-0.8,0c-5.6,0.1-10.7,2.2-14.7,5.5
				c2.3,1.6,8.4,2.8,15.7,2.8C81.2,208.3,87.1,207.3,89.6,205.8z"/>
		</g>
		<g>
			<circle class="st0" cx="124" cy="224" r="24"/>
			<path class="st1" d="M124.1,248c4.8,0,9.3-1.5,13-3.9c-3.1-0.5-7.8-0.9-13.1-0.9c-5.3,0-10,0.3-13.2,0.9c3.7,2.5,8.2,3.9,13,3.9
				c0.1,0,0.1,0,0.2,0C124.1,248,124.1,248,124.1,248z"/>
			<path class="st1" d="M124.4,210.1c7.6,0,14-1.5,16-3.7c-4.2-4-9.9-6.4-16.1-6.4c-0.4,0-0.7,0-1.1,0c-5.8,0.2-11,2.4-15,6
				C109.6,208.4,116.3,210.1,124.4,210.1z"/>
		</g>
		<g>
			<circle class="st0" cx="174" cy="224" r="24"/>
			<path class="st1" d="M174.1,248c4.5,0,8.6-1.3,12.2-3.4c-3.1-0.4-7.5-0.6-12.3-0.6s-9.2,0.2-12.3,0.6c3.6,2.1,7.7,3.4,12.2,3.4
				c0,0,0.1,0,0.1,0S174.1,248,174.1,248z"/>
			<path class="st1" d="M174.4,211.2c8,0,14.7-1.9,16.3-4.4c-4.3-4.1-10.1-6.7-16.4-6.7c-0.4,0-0.9,0-1.3,0c-5.8,0.3-11,2.6-15,6.2
				C158.8,209,165.8,211.2,174.4,211.2z"/>
		</g>
		<g>
			<circle class="st0" cx="224" cy="224" r="24"/>
			<path class="st1" d="M213.5,245.6c3.1,1.5,6.6,2.4,10.4,2.4c0.1,0,0.2,0,0.4,0c3.7,0,7.1-0.9,10.2-2.4c-2.9-0.2-6.7-0.3-10.9-0.3
				C219.8,245.3,216.3,245.4,213.5,245.6z"/>
			<path class="st1" d="M223.9,213.1c9.1,0,16.5-2.9,16.6-6.5c-4.1-3.9-9.7-6.4-15.8-6.6c-0.3,0-0.6,0-0.9,0c0,0-0.1,0-0.1,0
				c-6.4,0-12.2,2.6-16.5,6.7C207.6,210.3,214.9,213.1,223.9,213.1z"/>
		</g>
		<g>
			<circle class="st0" cx="24" cy="274" r="24"/>
			<path class="st1" d="M15,296.2c2.8,1.1,5.8,1.8,8.9,1.8c0.1,0,0.2,0,0.2,0c3.1,0,6.1-0.6,8.9-1.8c-2.6-0.1-5.8-0.2-9.2-0.2
				C20.6,296.1,17.5,296.1,15,296.2z"/>
			<path class="st1" d="M24.2,264.9c9.2,0,16.6-3.3,16.6-7.4c0-0.2,0-0.4-0.1-0.6c-4.3-4.2-10.2-6.8-16.6-6.8c-0.5,0-1,0-1.5,0
				c-5.7,0.3-10.9,2.6-14.8,6.2c-0.1,0.4-0.2,0.8-0.2,1.2C7.6,261.6,15,264.9,24.2,264.9z"/>
		</g>
		<g>
			<circle class="st0" cx="74" cy="274" r="24"/>
			<path class="st1" d="M74.1,298c2.6,0,5.1-0.4,7.5-1.2c-2.3,0-4.9-0.1-7.6-0.1s-5.3,0-7.6,0.1c2.4,0.8,4.9,1.2,7.5,1.2
				c0,0,0.1,0,0.1,0S74.1,298,74.1,298z"/>
			<path class="st1" d="M74.4,266.6c9.2,0,16.6-3.7,16.6-8.3c0-0.5-0.1-1-0.3-1.5c-4.3-4.1-10.1-6.7-16.5-6.8c-1,0-1.9,0.1-2.9,0.1
				c-4.7,0.5-9.1,2.4-12.6,5.3c-0.7,0.9-1.1,1.9-1.1,2.9C57.8,262.9,65.2,266.6,74.4,266.6z"/>
		</g>
		<g>
			<circle class="st0" cx="124" cy="274" r="24"/>
			<path class="st1" d="M124.1,298c2.2,0,4.4-0.3,6.4-0.9c-2,0-4.2,0-6.5,0c-2.3,0-4.5,0-6.5,0c2,0.6,4.2,0.9,6.4,0.9
				C123.9,298,124,298,124.1,298C124,298,124.1,298,124.1,298z"/>
			<path class="st1" d="M107.8,259.2c0,5.1,7.4,9.2,16.6,9.2s16.6-4.1,16.6-9.2c0-1.1-0.4-2.1-1-3.1c-4.2-3.8-9.7-6.1-15.8-6.1
				c-1.5,0-2.9,0.1-4.3,0.3c-3.4,0.6-6.6,1.9-9.4,3.8C108.8,255.6,107.8,257.3,107.8,259.2z"/>
		</g>
		<g>
			<circle class="st0" cx="174" cy="274" r="24"/>
			<ellipse class="st1" cx="174" cy="260.1" rx="16.6" ry="10.1"/>
		</g>
		<g>
			<circle class="st0" cx="224" cy="274" r="24"/>
			<ellipse class="st1" cx="224" cy="260.9" rx="16.6" ry="10.9"/>
		</g>
		<g>
			<circle class="st0" cx="24" cy="324" r="24"/>
			<ellipse class="st1" cx="24" cy="312" rx="16.6" ry="12"/>
		</g>
		<g>
			<circle class="st0" cx="74" cy="324" r="24"/>
			<ellipse class="st1" cx="74" cy="313.2" rx="16.6" ry="12.9"/>
		</g>
		<g>
			<circle class="st0" cx="124" cy="324" r="24"/>
			<ellipse class="st1" cx="124" cy="314.2" rx="16.6" ry="13.6"/>
		</g>
		<g>
			<circle class="st0" cx="174" cy="324" r="24"/>
			<ellipse class="st1" cx="174" cy="315.4" rx="16.6" ry="14.4"/>
		</g>
		<g>
			<circle class="st0" cx="224" cy="324" r="24"/>
			<ellipse class="st1" cx="224" cy="316.6" rx="16.6" ry="15"/>
		</g>
		<g>
			<circle class="st0" cx="24" cy="374" r="24"/>
			<ellipse class="st1" cx="24" cy="367.6" rx="16.6" ry="15.6"/>
		</g>
		<g>
			<circle class="st0" cx="74" cy="374" r="24"/>
			<ellipse class="st1" cx="74" cy="369" rx="16.6" ry="16.1"/>
		</g>
		<g>
			<circle class="st0" cx="124" cy="374" r="24"/>
			<ellipse class="st1" cx="124" cy="370.3" rx="16.6" ry="16.3"/>
		</g>
		<g>
			<circle class="st0" cx="174" cy="374" r="24"/>
			<circle class="st1" cx="174" cy="371.5" r="16.6"/>
		</g>
		<g>
			<circle class="st0" cx="224" cy="374" r="24"/>
			<ellipse class="st1" cx="224" cy="372.7" rx="16.6" ry="16.9"/>
		</g>
		<g>
			<circle class="st0" cx="24" cy="424" r="24"/>
			<ellipse class="st1" cx="24" cy="422.9" rx="16.6" ry="17"/>
		</g>
	</svg>

	<svg id="ball-sprite-sheet-11" viewBox="0 0 250 450" size="keep">
		<style type="text/css">
			.st0{fill:#e00;}
			.st1{fill:#fff;}
		</style>
		<g>
			<circle class="st0" cx="24" cy="24" r="24"/>
			<circle class="st1" cx="24" cy="24" r="17"/>
		</g>
		<g>
			<circle class="st0" cx="74" cy="24" r="24"/>
			<ellipse class="st1" cx="74" cy="25.5" rx="17" ry="16.5"/>
		</g>
		<g>
			<circle class="st0" cx="124" cy="24" r="24"/>
			<circle class="st1" cx="124" cy="27" r="17"/>
		</g>
		<g>
			<circle class="st0" cx="174" cy="24" r="24"/>
			<ellipse class="st1" cx="174" cy="28" rx="17" ry="16.5"/>
		</g>
		<g>
			<circle class="st0" cx="224" cy="24" r="24"/>
			<ellipse class="st1" cx="224" cy="29.3" rx="17" ry="16.3"/>
		</g>
		<g>
			<circle class="st0" cx="24" cy="74" r="24"/>
			<ellipse class="st1" cx="24" cy="80.5" rx="17" ry="15.6"/>
		</g>
		<g>
			<circle class="st0" cx="74" cy="74" r="24"/>
			<ellipse class="st1" cx="74" cy="82" rx="17" ry="15.2"/>
		</g>
		<g>
			<circle class="st0" cx="124" cy="74" r="24"/>
			<ellipse class="st1" cx="124" cy="82.7" rx="17" ry="14.5"/>
		</g>
		<g>
			<circle class="st0" cx="174" cy="74" r="24"/>
			<ellipse class="st1" cx="174" cy="84" rx="17" ry="13.6"/>
		</g>
		<g>
			<circle class="st0" cx="224" cy="74" r="24"/>
			<ellipse class="st1" cx="224" cy="85.1" rx="17" ry="12.9"/>
		</g>
		<g>
			<circle class="st0" cx="24" cy="124" r="24"/>
			<ellipse class="st1" cx="24" cy="136.3" rx="17" ry="11.7"/>
		</g>
		<g>
			<circle class="st0" cx="74" cy="124" r="24"/>
			<ellipse class="st1" cx="74" cy="137.1" rx="17" ry="10.9"/>
		</g>
		<g>
			<circle class="st0" cx="124" cy="124" r="24"/>
			<path class="st1" d="M141,138.1c0,5.5-9.3,9.9-17,9.9c-7.7,0.1-17-4.5-17-9.9c0-5.5,7.6-9.9,17-9.9S141,132.6,141,138.1z"/>
		</g>
		<g>
			<circle class="st0" cx="174" cy="124" r="24"/>
			<ellipse class="st1" cx="174" cy="139" rx="17" ry="9"/>
		</g>
		<g>
			<circle class="st0" cx="224" cy="124" r="24"/>
			<path class="st1" d="M224,131.6c-9.4,0-17,3.7-17,8.2c0,0.9,0.6,1.8,1.6,2.7c0.8,0.6,1.6,1.2,2.5,1.8c3.4,2,8.4,3.7,12.9,3.7
				c0.1,0,0.2,0,0.3,0c0.3,0,0.7,0,1,0c0.1,0,0.3,0,0.4,0c1.9-0.2,3.8-0.6,5.6-1.1c3.4-1.1,6.5-3,9.1-5.4c0.4-0.5,0.6-1.1,0.6-1.6
				C241,135.3,233.4,131.6,224,131.6z"/>
			<path class="st1" d="M230.5,100.9c-2.1-0.6-4.3-0.9-6.6-0.9c0,0,0,0,0,0c-2.3,0-4.5,0.3-6.5,0.9c1.6,0.1,4,0.2,6.7,0.2
				C226.6,101.1,228.9,101,230.5,100.9z"/>
		</g>
		<g>
			<circle class="st0" cx="24" cy="174" r="24"/>
			<path class="st1" d="M40.7,190.6c0-4.1-7.6-7.4-17-7.4c-9.4,0-17,3.3-17,7.4c0,0.1,0.1,0.2,0.2,0.4c1.1,1.1,2.4,2.2,3.7,3
				c1.9,1.3,4.5,2.6,7.6,3.3c0.2,0,0.3,0.1,0.5,0.1c0.3,0.1,0.6,0.1,0.8,0.2c0.4,0.1,0.8,0.1,1.2,0.2c0.3,0,0.6,0.1,0.8,0.1
				c0.2,0,0.5,0,0.7,0.1c0.4,0,0.9,0.1,1.3,0.1c0,0,0.1,0,0.1,0c5.2,0,9.7-1.7,12.8-3.5c1-0.6,2-1.4,2.9-2.1
				C40.3,191.6,40.7,190.9,40.7,190.6z"/>
			<path class="st1" d="M23.6,152.8c4.7,0,8.5-0.6,8.6-1.4c-2.3-0.8-4.8-1.3-7.4-1.4c-0.3,0-0.7,0-1,0c-3,0-5.9,0.6-8.6,1.7
				C16,152.3,19.4,152.8,23.6,152.8z"/>
		</g>
		<g>
			<circle class="st0" cx="74" cy="174" r="24"/>
			<path class="st1" d="M74.8,198c6.3-0.2,11.9-2.8,16.1-7c-0.7-3.3-8-5.9-16.9-5.9s-16.2,2.6-16.9,5.9c4.2,4.1,9.8,6.8,16.1,7
				c0.3,0,0.6,0,0.8,0S74.6,198,74.8,198z"/>
			<path class="st1" d="M73.9,153.2c4.7,0,8.6-0.7,8.6-1.6c0,0,0-0.1,0-0.1c-2.5-0.9-5.2-1.5-8-1.5c-0.2,0-0.4,0-0.5,0
				c0,0-0.1,0-0.1,0c-3,0-5.8,0.6-8.5,1.6C65.3,152.5,69.2,153.2,73.9,153.2z"/>
		</g>
		<g>
			<circle class="st0" cx="124" cy="174" r="24"/>
			<path class="st1" d="M140.6,191.3c-1.7-2.5-8.5-4.4-16.6-4.4c-8.2,0-15,1.9-16.6,4.4c4.3,4.1,10.1,6.7,16.6,6.7c0,0,0,0,0,0
				C130.5,198,136.3,195.4,140.6,191.3z"/>
			<path class="st1" d="M123.9,153.2c4.7,0,8.6-0.7,8.6-1.6c0,0,0-0.1,0-0.1c-2.5-0.9-5.2-1.5-8-1.5c-0.2,0-0.3,0-0.5,0
				c0,0-0.1,0-0.1,0c-3,0-5.8,0.6-8.4,1.6C115.3,152.5,119.2,153.2,123.9,153.2z"/>
		</g>
		<g>
			<circle class="st0" cx="174" cy="174" r="24"/>
			<path class="st1" d="M173.7,188.1c-7.5,0-13.9,1.4-16.1,3.4c4.3,4,10,6.4,16.2,6.5c0.3,0,0.5,0,0.8,0c6-0.1,11.4-2.5,15.5-6.2
				C188.2,189.7,181.6,188.1,173.7,188.1z"/>
			<path class="st1" d="M165,152.2c0,1.2,3.8,2.2,8.6,2.2c4.7,0,8.6-1,8.6-2.2c0-0.5-0.6-0.9-1.7-1.3c-1.2-0.3-2.5-0.6-3.9-0.7
				c-0.9-0.1-1.8-0.1-2.8-0.1c-3,0-5.8,0.6-8.5,1.6C165.1,151.8,165,152,165,152.2z"/>
		</g>
		<g>
			<circle class="st0" cx="224" cy="174" r="24"/>
			<path class="st1" d="M224.2,198c5.9,0,11.3-2.2,15.4-5.8c-2.6-1.5-8.6-2.5-15.6-2.5s-13,1-15.6,2.5c4.2,3.6,9.5,5.7,15.4,5.8
				c0.1,0,0.1,0,0.2,0S224.1,198,224.2,198z"/>
			<path class="st1" d="M215.3,153c0,1.7,3.8,3,8.6,3c4.7,0,8.6-1.4,8.6-3c0-1.6-3.4-2.8-7.7-3c0,0-0.1,0-0.1,0c-0.3,0-0.5,0-0.8,0
				c-1.5,0-3,0.2-4.4,0.4C217,151,215.3,151.9,215.3,153z"/>
		</g>
		<g>
			<circle class="st0" cx="24" cy="224" r="24"/>
			<path class="st1" d="M9,242.7c4.1,3.3,9.2,5.2,14.8,5.3c0.2,0,0.3,0,0.5,0c5.5-0.1,10.5-2,14.5-5.1c-2.8-1.1-8.5-1.9-15.1-1.9
				C17.4,241,12,241.7,9,242.7z"/>
			<path class="st1" d="M12.9,203.5c0,1.9,4.9,3.5,10.9,3.5s10.9-1.6,10.9-3.5c0-0.5-0.3-1-0.9-1.4c-2.6-1.2-5.5-1.9-8.5-2.1
				c-0.1,0-0.1,0-0.2,0c-0.2,0-0.4,0-0.6,0c-0.2,0-0.4,0-0.7,0c-3.7,0-7.3,0.9-10.4,2.4C13.1,202.8,12.9,203.1,12.9,203.5z"/>
		</g>
		<g>
			<circle class="st0" cx="74" cy="224" r="24"/>
			<path class="st1" d="M74.2,248c5.3,0,10.1-1.8,14.1-4.7c-3-0.8-8.3-1.4-14.3-1.4s-11.2,0.6-14.3,1.4c3.9,2.9,8.8,4.7,14.1,4.7
				c0.1,0,0.1,0,0.2,0S74.1,248,74.2,248z"/>
			<path class="st1" d="M89.6,205.8c-4.2-3.6-9.5-5.7-15.4-5.8c-0.3,0-0.5,0-0.8,0c-5.6,0.1-10.7,2.2-14.7,5.5
				c2.3,1.6,8.4,2.8,15.7,2.8C81.2,208.3,87.1,207.3,89.6,205.8z"/>
		</g>
		<g>
			<circle class="st0" cx="124" cy="224" r="24"/>
			<path class="st1" d="M124.1,248c4.8,0,9.3-1.5,13-3.9c-3.1-0.5-7.8-0.9-13.1-0.9c-5.3,0-10,0.3-13.2,0.9c3.7,2.5,8.2,3.9,13,3.9
				c0.1,0,0.1,0,0.2,0C124.1,248,124.1,248,124.1,248z"/>
			<path class="st1" d="M124.4,210.1c7.6,0,14-1.5,16-3.7c-4.2-4-9.9-6.4-16.1-6.4c-0.4,0-0.7,0-1.1,0c-5.8,0.2-11,2.4-15,6
				C109.6,208.4,116.3,210.1,124.4,210.1z"/>
		</g>
		<g>
			<circle class="st0" cx="174" cy="224" r="24"/>
			<path class="st1" d="M174.1,248c4.5,0,8.6-1.3,12.2-3.4c-3.1-0.4-7.5-0.6-12.3-0.6s-9.2,0.2-12.3,0.6c3.6,2.1,7.7,3.4,12.2,3.4
				c0,0,0.1,0,0.1,0S174.1,248,174.1,248z"/>
			<path class="st1" d="M174.4,211.2c8,0,14.7-1.9,16.3-4.4c-4.3-4.1-10.1-6.7-16.4-6.7c-0.4,0-0.9,0-1.3,0c-5.8,0.3-11,2.6-15,6.2
				C158.8,209,165.8,211.2,174.4,211.2z"/>
		</g>
		<g>
			<circle class="st0" cx="224" cy="224" r="24"/>
			<path class="st1" d="M213.5,245.6c3.1,1.5,6.6,2.4,10.4,2.4c0.1,0,0.2,0,0.4,0c3.7,0,7.1-0.9,10.2-2.4c-2.9-0.2-6.7-0.3-10.9-0.3
				C219.8,245.3,216.3,245.4,213.5,245.6z"/>
			<path class="st1" d="M223.9,213.1c9.1,0,16.5-2.9,16.6-6.5c-4.1-3.9-9.7-6.4-15.8-6.6c-0.3,0-0.6,0-0.9,0c0,0-0.1,0-0.1,0
				c-6.4,0-12.2,2.6-16.5,6.7C207.6,210.3,214.9,213.1,223.9,213.1z"/>
		</g>
		<g>
			<circle class="st0" cx="24" cy="274" r="24"/>
			<path class="st1" d="M15,296.2c2.8,1.1,5.8,1.8,8.9,1.8c0.1,0,0.2,0,0.2,0c3.1,0,6.1-0.6,8.9-1.8c-2.6-0.1-5.8-0.2-9.2-0.2
				C20.6,296.1,17.5,296.1,15,296.2z"/>
			<path class="st1" d="M24.2,264.9c9.2,0,16.6-3.3,16.6-7.4c0-0.2,0-0.4-0.1-0.6c-4.3-4.2-10.2-6.8-16.6-6.8c-0.5,0-1,0-1.5,0
				c-5.7,0.3-10.9,2.6-14.8,6.2c-0.1,0.4-0.2,0.8-0.2,1.2C7.6,261.6,15,264.9,24.2,264.9z"/>
		</g>
		<g>
			<circle class="st0" cx="74" cy="274" r="24"/>
			<path class="st1" d="M74.1,298c2.6,0,5.1-0.4,7.5-1.2c-2.3,0-4.9-0.1-7.6-0.1s-5.3,0-7.6,0.1c2.4,0.8,4.9,1.2,7.5,1.2
				c0,0,0.1,0,0.1,0S74.1,298,74.1,298z"/>
			<path class="st1" d="M74.4,266.6c9.2,0,16.6-3.7,16.6-8.3c0-0.5-0.1-1-0.3-1.5c-4.3-4.1-10.1-6.7-16.5-6.8c-1,0-1.9,0.1-2.9,0.1
				c-4.7,0.5-9.1,2.4-12.6,5.3c-0.7,0.9-1.1,1.9-1.1,2.9C57.8,262.9,65.2,266.6,74.4,266.6z"/>
		</g>
		<g>
			<circle class="st0" cx="124" cy="274" r="24"/>
			<path class="st1" d="M124.1,298c2.2,0,4.4-0.3,6.4-0.9c-2,0-4.2,0-6.5,0c-2.3,0-4.5,0-6.5,0c2,0.6,4.2,0.9,6.4,0.9
				C123.9,298,124,298,124.1,298C124,298,124.1,298,124.1,298z"/>
			<path class="st1" d="M107.8,259.2c0,5.1,7.4,9.2,16.6,9.2s16.6-4.1,16.6-9.2c0-1.1-0.4-2.1-1-3.1c-4.2-3.8-9.7-6.1-15.8-6.1
				c-1.5,0-2.9,0.1-4.3,0.3c-3.4,0.6-6.6,1.9-9.4,3.8C108.8,255.6,107.8,257.3,107.8,259.2z"/>
		</g>
		<g>
			<circle class="st0" cx="174" cy="274" r="24"/>
			<ellipse class="st1" cx="174" cy="260.1" rx="16.6" ry="10.1"/>
		</g>
		<g>
			<circle class="st0" cx="224" cy="274" r="24"/>
			<ellipse class="st1" cx="224" cy="260.9" rx="16.6" ry="10.9"/>
		</g>
		<g>
			<circle class="st0" cx="24" cy="324" r="24"/>
			<ellipse class="st1" cx="24" cy="312" rx="16.6" ry="12"/>
		</g>
		<g>
			<circle class="st0" cx="74" cy="324" r="24"/>
			<ellipse class="st1" cx="74" cy="313.2" rx="16.6" ry="12.9"/>
		</g>
		<g>
			<circle class="st0" cx="124" cy="324" r="24"/>
			<ellipse class="st1" cx="124" cy="314.2" rx="16.6" ry="13.6"/>
		</g>
		<g>
			<circle class="st0" cx="174" cy="324" r="24"/>
			<ellipse class="st1" cx="174" cy="315.4" rx="16.6" ry="14.4"/>
		</g>
		<g>
			<circle class="st0" cx="224" cy="324" r="24"/>
			<ellipse class="st1" cx="224" cy="316.6" rx="16.6" ry="15"/>
		</g>
		<g>
			<circle class="st0" cx="24" cy="374" r="24"/>
			<ellipse class="st1" cx="24" cy="367.6" rx="16.6" ry="15.6"/>
		</g>
		<g>
			<circle class="st0" cx="74" cy="374" r="24"/>
			<ellipse class="st1" cx="74" cy="369" rx="16.6" ry="16.1"/>
		</g>
		<g>
			<circle class="st0" cx="124" cy="374" r="24"/>
			<ellipse class="st1" cx="124" cy="370.3" rx="16.6" ry="16.3"/>
		</g>
		<g>
			<circle class="st0" cx="174" cy="374" r="24"/>
			<circle class="st1" cx="174" cy="371.5" r="16.6"/>
		</g>
		<g>
			<circle class="st0" cx="224" cy="374" r="24"/>
			<ellipse class="st1" cx="224" cy="372.7" rx="16.6" ry="16.9"/>
		</g>
		<g>
			<circle class="st0" cx="24" cy="424" r="24"/>
			<ellipse class="st1" cx="24" cy="422.9" rx="16.6" ry="17"/>
		</g>
	</svg>

	<svg id="ball-sprite-sheet-12" viewBox="0 0 250 450" size="keep">
		<style type="text/css">
			.st0{fill:#e07;}
			.st1{fill:#fff;}
		</style>
		<g>
			<circle class="st0" cx="24" cy="24" r="24"/>
			<circle class="st1" cx="24" cy="24" r="17"/>
		</g>
		<g>
			<circle class="st0" cx="74" cy="24" r="24"/>
			<ellipse class="st1" cx="74" cy="25.5" rx="17" ry="16.5"/>
		</g>
		<g>
			<circle class="st0" cx="124" cy="24" r="24"/>
			<circle class="st1" cx="124" cy="27" r="17"/>
		</g>
		<g>
			<circle class="st0" cx="174" cy="24" r="24"/>
			<ellipse class="st1" cx="174" cy="28" rx="17" ry="16.5"/>
		</g>
		<g>
			<circle class="st0" cx="224" cy="24" r="24"/>
			<ellipse class="st1" cx="224" cy="29.3" rx="17" ry="16.3"/>
		</g>
		<g>
			<circle class="st0" cx="24" cy="74" r="24"/>
			<ellipse class="st1" cx="24" cy="80.5" rx="17" ry="15.6"/>
		</g>
		<g>
			<circle class="st0" cx="74" cy="74" r="24"/>
			<ellipse class="st1" cx="74" cy="82" rx="17" ry="15.2"/>
		</g>
		<g>
			<circle class="st0" cx="124" cy="74" r="24"/>
			<ellipse class="st1" cx="124" cy="82.7" rx="17" ry="14.5"/>
		</g>
		<g>
			<circle class="st0" cx="174" cy="74" r="24"/>
			<ellipse class="st1" cx="174" cy="84" rx="17" ry="13.6"/>
		</g>
		<g>
			<circle class="st0" cx="224" cy="74" r="24"/>
			<ellipse class="st1" cx="224" cy="85.1" rx="17" ry="12.9"/>
		</g>
		<g>
			<circle class="st0" cx="24" cy="124" r="24"/>
			<ellipse class="st1" cx="24" cy="136.3" rx="17" ry="11.7"/>
		</g>
		<g>
			<circle class="st0" cx="74" cy="124" r="24"/>
			<ellipse class="st1" cx="74" cy="137.1" rx="17" ry="10.9"/>
		</g>
		<g>
			<circle class="st0" cx="124" cy="124" r="24"/>
			<path class="st1" d="M141,138.1c0,5.5-9.3,9.9-17,9.9c-7.7,0.1-17-4.5-17-9.9c0-5.5,7.6-9.9,17-9.9S141,132.6,141,138.1z"/>
		</g>
		<g>
			<circle class="st0" cx="174" cy="124" r="24"/>
			<ellipse class="st1" cx="174" cy="139" rx="17" ry="9"/>
		</g>
		<g>
			<circle class="st0" cx="224" cy="124" r="24"/>
			<path class="st1" d="M224,131.6c-9.4,0-17,3.7-17,8.2c0,0.9,0.6,1.8,1.6,2.7c0.8,0.6,1.6,1.2,2.5,1.8c3.4,2,8.4,3.7,12.9,3.7
				c0.1,0,0.2,0,0.3,0c0.3,0,0.7,0,1,0c0.1,0,0.3,0,0.4,0c1.9-0.2,3.8-0.6,5.6-1.1c3.4-1.1,6.5-3,9.1-5.4c0.4-0.5,0.6-1.1,0.6-1.6
				C241,135.3,233.4,131.6,224,131.6z"/>
			<path class="st1" d="M230.5,100.9c-2.1-0.6-4.3-0.9-6.6-0.9c0,0,0,0,0,0c-2.3,0-4.5,0.3-6.5,0.9c1.6,0.1,4,0.2,6.7,0.2
				C226.6,101.1,228.9,101,230.5,100.9z"/>
		</g>
		<g>
			<circle class="st0" cx="24" cy="174" r="24"/>
			<path class="st1" d="M40.7,190.6c0-4.1-7.6-7.4-17-7.4c-9.4,0-17,3.3-17,7.4c0,0.1,0.1,0.2,0.2,0.4c1.1,1.1,2.4,2.2,3.7,3
				c1.9,1.3,4.5,2.6,7.6,3.3c0.2,0,0.3,0.1,0.5,0.1c0.3,0.1,0.6,0.1,0.8,0.2c0.4,0.1,0.8,0.1,1.2,0.2c0.3,0,0.6,0.1,0.8,0.1
				c0.2,0,0.5,0,0.7,0.1c0.4,0,0.9,0.1,1.3,0.1c0,0,0.1,0,0.1,0c5.2,0,9.7-1.7,12.8-3.5c1-0.6,2-1.4,2.9-2.1
				C40.3,191.6,40.7,190.9,40.7,190.6z"/>
			<path class="st1" d="M23.6,152.8c4.7,0,8.5-0.6,8.6-1.4c-2.3-0.8-4.8-1.3-7.4-1.4c-0.3,0-0.7,0-1,0c-3,0-5.9,0.6-8.6,1.7
				C16,152.3,19.4,152.8,23.6,152.8z"/>
		</g>
		<g>
			<circle class="st0" cx="74" cy="174" r="24"/>
			<path class="st1" d="M74.8,198c6.3-0.2,11.9-2.8,16.1-7c-0.7-3.3-8-5.9-16.9-5.9s-16.2,2.6-16.9,5.9c4.2,4.1,9.8,6.8,16.1,7
				c0.3,0,0.6,0,0.8,0S74.6,198,74.8,198z"/>
			<path class="st1" d="M73.9,153.2c4.7,0,8.6-0.7,8.6-1.6c0,0,0-0.1,0-0.1c-2.5-0.9-5.2-1.5-8-1.5c-0.2,0-0.4,0-0.5,0
				c0,0-0.1,0-0.1,0c-3,0-5.8,0.6-8.5,1.6C65.3,152.5,69.2,153.2,73.9,153.2z"/>
		</g>
		<g>
			<circle class="st0" cx="124" cy="174" r="24"/>
			<path class="st1" d="M140.6,191.3c-1.7-2.5-8.5-4.4-16.6-4.4c-8.2,0-15,1.9-16.6,4.4c4.3,4.1,10.1,6.7,16.6,6.7c0,0,0,0,0,0
				C130.5,198,136.3,195.4,140.6,191.3z"/>
			<path class="st1" d="M123.9,153.2c4.7,0,8.6-0.7,8.6-1.6c0,0,0-0.1,0-0.1c-2.5-0.9-5.2-1.5-8-1.5c-0.2,0-0.3,0-0.5,0
				c0,0-0.1,0-0.1,0c-3,0-5.8,0.6-8.4,1.6C115.3,152.5,119.2,153.2,123.9,153.2z"/>
		</g>
		<g>
			<circle class="st0" cx="174" cy="174" r="24"/>
			<path class="st1" d="M173.7,188.1c-7.5,0-13.9,1.4-16.1,3.4c4.3,4,10,6.4,16.2,6.5c0.3,0,0.5,0,0.8,0c6-0.1,11.4-2.5,15.5-6.2
				C188.2,189.7,181.6,188.1,173.7,188.1z"/>
			<path class="st1" d="M165,152.2c0,1.2,3.8,2.2,8.6,2.2c4.7,0,8.6-1,8.6-2.2c0-0.5-0.6-0.9-1.7-1.3c-1.2-0.3-2.5-0.6-3.9-0.7
				c-0.9-0.1-1.8-0.1-2.8-0.1c-3,0-5.8,0.6-8.5,1.6C165.1,151.8,165,152,165,152.2z"/>
		</g>
		<g>
			<circle class="st0" cx="224" cy="174" r="24"/>
			<path class="st1" d="M224.2,198c5.9,0,11.3-2.2,15.4-5.8c-2.6-1.5-8.6-2.5-15.6-2.5s-13,1-15.6,2.5c4.2,3.6,9.5,5.7,15.4,5.8
				c0.1,0,0.1,0,0.2,0S224.1,198,224.2,198z"/>
			<path class="st1" d="M215.3,153c0,1.7,3.8,3,8.6,3c4.7,0,8.6-1.4,8.6-3c0-1.6-3.4-2.8-7.7-3c0,0-0.1,0-0.1,0c-0.3,0-0.5,0-0.8,0
				c-1.5,0-3,0.2-4.4,0.4C217,151,215.3,151.9,215.3,153z"/>
		</g>
		<g>
			<circle class="st0" cx="24" cy="224" r="24"/>
			<path class="st1" d="M9,242.7c4.1,3.3,9.2,5.2,14.8,5.3c0.2,0,0.3,0,0.5,0c5.5-0.1,10.5-2,14.5-5.1c-2.8-1.1-8.5-1.9-15.1-1.9
				C17.4,241,12,241.7,9,242.7z"/>
			<path class="st1" d="M12.9,203.5c0,1.9,4.9,3.5,10.9,3.5s10.9-1.6,10.9-3.5c0-0.5-0.3-1-0.9-1.4c-2.6-1.2-5.5-1.9-8.5-2.1
				c-0.1,0-0.1,0-0.2,0c-0.2,0-0.4,0-0.6,0c-0.2,0-0.4,0-0.7,0c-3.7,0-7.3,0.9-10.4,2.4C13.1,202.8,12.9,203.1,12.9,203.5z"/>
		</g>
		<g>
			<circle class="st0" cx="74" cy="224" r="24"/>
			<path class="st1" d="M74.2,248c5.3,0,10.1-1.8,14.1-4.7c-3-0.8-8.3-1.4-14.3-1.4s-11.2,0.6-14.3,1.4c3.9,2.9,8.8,4.7,14.1,4.7
				c0.1,0,0.1,0,0.2,0S74.1,248,74.2,248z"/>
			<path class="st1" d="M89.6,205.8c-4.2-3.6-9.5-5.7-15.4-5.8c-0.3,0-0.5,0-0.8,0c-5.6,0.1-10.7,2.2-14.7,5.5
				c2.3,1.6,8.4,2.8,15.7,2.8C81.2,208.3,87.1,207.3,89.6,205.8z"/>
		</g>
		<g>
			<circle class="st0" cx="124" cy="224" r="24"/>
			<path class="st1" d="M124.1,248c4.8,0,9.3-1.5,13-3.9c-3.1-0.5-7.8-0.9-13.1-0.9c-5.3,0-10,0.3-13.2,0.9c3.7,2.5,8.2,3.9,13,3.9
				c0.1,0,0.1,0,0.2,0C124.1,248,124.1,248,124.1,248z"/>
			<path class="st1" d="M124.4,210.1c7.6,0,14-1.5,16-3.7c-4.2-4-9.9-6.4-16.1-6.4c-0.4,0-0.7,0-1.1,0c-5.8,0.2-11,2.4-15,6
				C109.6,208.4,116.3,210.1,124.4,210.1z"/>
		</g>
		<g>
			<circle class="st0" cx="174" cy="224" r="24"/>
			<path class="st1" d="M174.1,248c4.5,0,8.6-1.3,12.2-3.4c-3.1-0.4-7.5-0.6-12.3-0.6s-9.2,0.2-12.3,0.6c3.6,2.1,7.7,3.4,12.2,3.4
				c0,0,0.1,0,0.1,0S174.1,248,174.1,248z"/>
			<path class="st1" d="M174.4,211.2c8,0,14.7-1.9,16.3-4.4c-4.3-4.1-10.1-6.7-16.4-6.7c-0.4,0-0.9,0-1.3,0c-5.8,0.3-11,2.6-15,6.2
				C158.8,209,165.8,211.2,174.4,211.2z"/>
		</g>
		<g>
			<circle class="st0" cx="224" cy="224" r="24"/>
			<path class="st1" d="M213.5,245.6c3.1,1.5,6.6,2.4,10.4,2.4c0.1,0,0.2,0,0.4,0c3.7,0,7.1-0.9,10.2-2.4c-2.9-0.2-6.7-0.3-10.9-0.3
				C219.8,245.3,216.3,245.4,213.5,245.6z"/>
			<path class="st1" d="M223.9,213.1c9.1,0,16.5-2.9,16.6-6.5c-4.1-3.9-9.7-6.4-15.8-6.6c-0.3,0-0.6,0-0.9,0c0,0-0.1,0-0.1,0
				c-6.4,0-12.2,2.6-16.5,6.7C207.6,210.3,214.9,213.1,223.9,213.1z"/>
		</g>
		<g>
			<circle class="st0" cx="24" cy="274" r="24"/>
			<path class="st1" d="M15,296.2c2.8,1.1,5.8,1.8,8.9,1.8c0.1,0,0.2,0,0.2,0c3.1,0,6.1-0.6,8.9-1.8c-2.6-0.1-5.8-0.2-9.2-0.2
				C20.6,296.1,17.5,296.1,15,296.2z"/>
			<path class="st1" d="M24.2,264.9c9.2,0,16.6-3.3,16.6-7.4c0-0.2,0-0.4-0.1-0.6c-4.3-4.2-10.2-6.8-16.6-6.8c-0.5,0-1,0-1.5,0
				c-5.7,0.3-10.9,2.6-14.8,6.2c-0.1,0.4-0.2,0.8-0.2,1.2C7.6,261.6,15,264.9,24.2,264.9z"/>
		</g>
		<g>
			<circle class="st0" cx="74" cy="274" r="24"/>
			<path class="st1" d="M74.1,298c2.6,0,5.1-0.4,7.5-1.2c-2.3,0-4.9-0.1-7.6-0.1s-5.3,0-7.6,0.1c2.4,0.8,4.9,1.2,7.5,1.2
				c0,0,0.1,0,0.1,0S74.1,298,74.1,298z"/>
			<path class="st1" d="M74.4,266.6c9.2,0,16.6-3.7,16.6-8.3c0-0.5-0.1-1-0.3-1.5c-4.3-4.1-10.1-6.7-16.5-6.8c-1,0-1.9,0.1-2.9,0.1
				c-4.7,0.5-9.1,2.4-12.6,5.3c-0.7,0.9-1.1,1.9-1.1,2.9C57.8,262.9,65.2,266.6,74.4,266.6z"/>
		</g>
		<g>
			<circle class="st0" cx="124" cy="274" r="24"/>
			<path class="st1" d="M124.1,298c2.2,0,4.4-0.3,6.4-0.9c-2,0-4.2,0-6.5,0c-2.3,0-4.5,0-6.5,0c2,0.6,4.2,0.9,6.4,0.9
				C123.9,298,124,298,124.1,298C124,298,124.1,298,124.1,298z"/>
			<path class="st1" d="M107.8,259.2c0,5.1,7.4,9.2,16.6,9.2s16.6-4.1,16.6-9.2c0-1.1-0.4-2.1-1-3.1c-4.2-3.8-9.7-6.1-15.8-6.1
				c-1.5,0-2.9,0.1-4.3,0.3c-3.4,0.6-6.6,1.9-9.4,3.8C108.8,255.6,107.8,257.3,107.8,259.2z"/>
		</g>
		<g>
			<circle class="st0" cx="174" cy="274" r="24"/>
			<ellipse class="st1" cx="174" cy="260.1" rx="16.6" ry="10.1"/>
		</g>
		<g>
			<circle class="st0" cx="224" cy="274" r="24"/>
			<ellipse class="st1" cx="224" cy="260.9" rx="16.6" ry="10.9"/>
		</g>
		<g>
			<circle class="st0" cx="24" cy="324" r="24"/>
			<ellipse class="st1" cx="24" cy="312" rx="16.6" ry="12"/>
		</g>
		<g>
			<circle class="st0" cx="74" cy="324" r="24"/>
			<ellipse class="st1" cx="74" cy="313.2" rx="16.6" ry="12.9"/>
		</g>
		<g>
			<circle class="st0" cx="124" cy="324" r="24"/>
			<ellipse class="st1" cx="124" cy="314.2" rx="16.6" ry="13.6"/>
		</g>
		<g>
			<circle class="st0" cx="174" cy="324" r="24"/>
			<ellipse class="st1" cx="174" cy="315.4" rx="16.6" ry="14.4"/>
		</g>
		<g>
			<circle class="st0" cx="224" cy="324" r="24"/>
			<ellipse class="st1" cx="224" cy="316.6" rx="16.6" ry="15"/>
		</g>
		<g>
			<circle class="st0" cx="24" cy="374" r="24"/>
			<ellipse class="st1" cx="24" cy="367.6" rx="16.6" ry="15.6"/>
		</g>
		<g>
			<circle class="st0" cx="74" cy="374" r="24"/>
			<ellipse class="st1" cx="74" cy="369" rx="16.6" ry="16.1"/>
		</g>
		<g>
			<circle class="st0" cx="124" cy="374" r="24"/>
			<ellipse class="st1" cx="124" cy="370.3" rx="16.6" ry="16.3"/>
		</g>
		<g>
			<circle class="st0" cx="174" cy="374" r="24"/>
			<circle class="st1" cx="174" cy="371.5" r="16.6"/>
		</g>
		<g>
			<circle class="st0" cx="224" cy="374" r="24"/>
			<ellipse class="st1" cx="224" cy="372.7" rx="16.6" ry="16.9"/>
		</g>
		<g>
			<circle class="st0" cx="24" cy="424" r="24"/>
			<ellipse class="st1" cx="24" cy="422.9" rx="16.6" ry="17"/>
		</g>
	</svg>

	<svg id="ball-sprite-sheet-13" viewBox="0 0 250 450" size="keep">
		<style type="text/css">
			.st0{fill:#e70;}
			.st1{fill:#fff;}
		</style>
		<g>
			<circle class="st0" cx="24" cy="24" r="24"/>
			<circle class="st1" cx="24" cy="24" r="17"/>
		</g>
		<g>
			<circle class="st0" cx="74" cy="24" r="24"/>
			<ellipse class="st1" cx="74" cy="25.5" rx="17" ry="16.5"/>
		</g>
		<g>
			<circle class="st0" cx="124" cy="24" r="24"/>
			<circle class="st1" cx="124" cy="27" r="17"/>
		</g>
		<g>
			<circle class="st0" cx="174" cy="24" r="24"/>
			<ellipse class="st1" cx="174" cy="28" rx="17" ry="16.5"/>
		</g>
		<g>
			<circle class="st0" cx="224" cy="24" r="24"/>
			<ellipse class="st1" cx="224" cy="29.3" rx="17" ry="16.3"/>
		</g>
		<g>
			<circle class="st0" cx="24" cy="74" r="24"/>
			<ellipse class="st1" cx="24" cy="80.5" rx="17" ry="15.6"/>
		</g>
		<g>
			<circle class="st0" cx="74" cy="74" r="24"/>
			<ellipse class="st1" cx="74" cy="82" rx="17" ry="15.2"/>
		</g>
		<g>
			<circle class="st0" cx="124" cy="74" r="24"/>
			<ellipse class="st1" cx="124" cy="82.7" rx="17" ry="14.5"/>
		</g>
		<g>
			<circle class="st0" cx="174" cy="74" r="24"/>
			<ellipse class="st1" cx="174" cy="84" rx="17" ry="13.6"/>
		</g>
		<g>
			<circle class="st0" cx="224" cy="74" r="24"/>
			<ellipse class="st1" cx="224" cy="85.1" rx="17" ry="12.9"/>
		</g>
		<g>
			<circle class="st0" cx="24" cy="124" r="24"/>
			<ellipse class="st1" cx="24" cy="136.3" rx="17" ry="11.7"/>
		</g>
		<g>
			<circle class="st0" cx="74" cy="124" r="24"/>
			<ellipse class="st1" cx="74" cy="137.1" rx="17" ry="10.9"/>
		</g>
		<g>
			<circle class="st0" cx="124" cy="124" r="24"/>
			<path class="st1" d="M141,138.1c0,5.5-9.3,9.9-17,9.9c-7.7,0.1-17-4.5-17-9.9c0-5.5,7.6-9.9,17-9.9S141,132.6,141,138.1z"/>
		</g>
		<g>
			<circle class="st0" cx="174" cy="124" r="24"/>
			<ellipse class="st1" cx="174" cy="139" rx="17" ry="9"/>
		</g>
		<g>
			<circle class="st0" cx="224" cy="124" r="24"/>
			<path class="st1" d="M224,131.6c-9.4,0-17,3.7-17,8.2c0,0.9,0.6,1.8,1.6,2.7c0.8,0.6,1.6,1.2,2.5,1.8c3.4,2,8.4,3.7,12.9,3.7
				c0.1,0,0.2,0,0.3,0c0.3,0,0.7,0,1,0c0.1,0,0.3,0,0.4,0c1.9-0.2,3.8-0.6,5.6-1.1c3.4-1.1,6.5-3,9.1-5.4c0.4-0.5,0.6-1.1,0.6-1.6
				C241,135.3,233.4,131.6,224,131.6z"/>
			<path class="st1" d="M230.5,100.9c-2.1-0.6-4.3-0.9-6.6-0.9c0,0,0,0,0,0c-2.3,0-4.5,0.3-6.5,0.9c1.6,0.1,4,0.2,6.7,0.2
				C226.6,101.1,228.9,101,230.5,100.9z"/>
		</g>
		<g>
			<circle class="st0" cx="24" cy="174" r="24"/>
			<path class="st1" d="M40.7,190.6c0-4.1-7.6-7.4-17-7.4c-9.4,0-17,3.3-17,7.4c0,0.1,0.1,0.2,0.2,0.4c1.1,1.1,2.4,2.2,3.7,3
				c1.9,1.3,4.5,2.6,7.6,3.3c0.2,0,0.3,0.1,0.5,0.1c0.3,0.1,0.6,0.1,0.8,0.2c0.4,0.1,0.8,0.1,1.2,0.2c0.3,0,0.6,0.1,0.8,0.1
				c0.2,0,0.5,0,0.7,0.1c0.4,0,0.9,0.1,1.3,0.1c0,0,0.1,0,0.1,0c5.2,0,9.7-1.7,12.8-3.5c1-0.6,2-1.4,2.9-2.1
				C40.3,191.6,40.7,190.9,40.7,190.6z"/>
			<path class="st1" d="M23.6,152.8c4.7,0,8.5-0.6,8.6-1.4c-2.3-0.8-4.8-1.3-7.4-1.4c-0.3,0-0.7,0-1,0c-3,0-5.9,0.6-8.6,1.7
				C16,152.3,19.4,152.8,23.6,152.8z"/>
		</g>
		<g>
			<circle class="st0" cx="74" cy="174" r="24"/>
			<path class="st1" d="M74.8,198c6.3-0.2,11.9-2.8,16.1-7c-0.7-3.3-8-5.9-16.9-5.9s-16.2,2.6-16.9,5.9c4.2,4.1,9.8,6.8,16.1,7
				c0.3,0,0.6,0,0.8,0S74.6,198,74.8,198z"/>
			<path class="st1" d="M73.9,153.2c4.7,0,8.6-0.7,8.6-1.6c0,0,0-0.1,0-0.1c-2.5-0.9-5.2-1.5-8-1.5c-0.2,0-0.4,0-0.5,0
				c0,0-0.1,0-0.1,0c-3,0-5.8,0.6-8.5,1.6C65.3,152.5,69.2,153.2,73.9,153.2z"/>
		</g>
		<g>
			<circle class="st0" cx="124" cy="174" r="24"/>
			<path class="st1" d="M140.6,191.3c-1.7-2.5-8.5-4.4-16.6-4.4c-8.2,0-15,1.9-16.6,4.4c4.3,4.1,10.1,6.7,16.6,6.7c0,0,0,0,0,0
				C130.5,198,136.3,195.4,140.6,191.3z"/>
			<path class="st1" d="M123.9,153.2c4.7,0,8.6-0.7,8.6-1.6c0,0,0-0.1,0-0.1c-2.5-0.9-5.2-1.5-8-1.5c-0.2,0-0.3,0-0.5,0
				c0,0-0.1,0-0.1,0c-3,0-5.8,0.6-8.4,1.6C115.3,152.5,119.2,153.2,123.9,153.2z"/>
		</g>
		<g>
			<circle class="st0" cx="174" cy="174" r="24"/>
			<path class="st1" d="M173.7,188.1c-7.5,0-13.9,1.4-16.1,3.4c4.3,4,10,6.4,16.2,6.5c0.3,0,0.5,0,0.8,0c6-0.1,11.4-2.5,15.5-6.2
				C188.2,189.7,181.6,188.1,173.7,188.1z"/>
			<path class="st1" d="M165,152.2c0,1.2,3.8,2.2,8.6,2.2c4.7,0,8.6-1,8.6-2.2c0-0.5-0.6-0.9-1.7-1.3c-1.2-0.3-2.5-0.6-3.9-0.7
				c-0.9-0.1-1.8-0.1-2.8-0.1c-3,0-5.8,0.6-8.5,1.6C165.1,151.8,165,152,165,152.2z"/>
		</g>
		<g>
			<circle class="st0" cx="224" cy="174" r="24"/>
			<path class="st1" d="M224.2,198c5.9,0,11.3-2.2,15.4-5.8c-2.6-1.5-8.6-2.5-15.6-2.5s-13,1-15.6,2.5c4.2,3.6,9.5,5.7,15.4,5.8
				c0.1,0,0.1,0,0.2,0S224.1,198,224.2,198z"/>
			<path class="st1" d="M215.3,153c0,1.7,3.8,3,8.6,3c4.7,0,8.6-1.4,8.6-3c0-1.6-3.4-2.8-7.7-3c0,0-0.1,0-0.1,0c-0.3,0-0.5,0-0.8,0
				c-1.5,0-3,0.2-4.4,0.4C217,151,215.3,151.9,215.3,153z"/>
		</g>
		<g>
			<circle class="st0" cx="24" cy="224" r="24"/>
			<path class="st1" d="M9,242.7c4.1,3.3,9.2,5.2,14.8,5.3c0.2,0,0.3,0,0.5,0c5.5-0.1,10.5-2,14.5-5.1c-2.8-1.1-8.5-1.9-15.1-1.9
				C17.4,241,12,241.7,9,242.7z"/>
			<path class="st1" d="M12.9,203.5c0,1.9,4.9,3.5,10.9,3.5s10.9-1.6,10.9-3.5c0-0.5-0.3-1-0.9-1.4c-2.6-1.2-5.5-1.9-8.5-2.1
				c-0.1,0-0.1,0-0.2,0c-0.2,0-0.4,0-0.6,0c-0.2,0-0.4,0-0.7,0c-3.7,0-7.3,0.9-10.4,2.4C13.1,202.8,12.9,203.1,12.9,203.5z"/>
		</g>
		<g>
			<circle class="st0" cx="74" cy="224" r="24"/>
			<path class="st1" d="M74.2,248c5.3,0,10.1-1.8,14.1-4.7c-3-0.8-8.3-1.4-14.3-1.4s-11.2,0.6-14.3,1.4c3.9,2.9,8.8,4.7,14.1,4.7
				c0.1,0,0.1,0,0.2,0S74.1,248,74.2,248z"/>
			<path class="st1" d="M89.6,205.8c-4.2-3.6-9.5-5.7-15.4-5.8c-0.3,0-0.5,0-0.8,0c-5.6,0.1-10.7,2.2-14.7,5.5
				c2.3,1.6,8.4,2.8,15.7,2.8C81.2,208.3,87.1,207.3,89.6,205.8z"/>
		</g>
		<g>
			<circle class="st0" cx="124" cy="224" r="24"/>
			<path class="st1" d="M124.1,248c4.8,0,9.3-1.5,13-3.9c-3.1-0.5-7.8-0.9-13.1-0.9c-5.3,0-10,0.3-13.2,0.9c3.7,2.5,8.2,3.9,13,3.9
				c0.1,0,0.1,0,0.2,0C124.1,248,124.1,248,124.1,248z"/>
			<path class="st1" d="M124.4,210.1c7.6,0,14-1.5,16-3.7c-4.2-4-9.9-6.4-16.1-6.4c-0.4,0-0.7,0-1.1,0c-5.8,0.2-11,2.4-15,6
				C109.6,208.4,116.3,210.1,124.4,210.1z"/>
		</g>
		<g>
			<circle class="st0" cx="174" cy="224" r="24"/>
			<path class="st1" d="M174.1,248c4.5,0,8.6-1.3,12.2-3.4c-3.1-0.4-7.5-0.6-12.3-0.6s-9.2,0.2-12.3,0.6c3.6,2.1,7.7,3.4,12.2,3.4
				c0,0,0.1,0,0.1,0S174.1,248,174.1,248z"/>
			<path class="st1" d="M174.4,211.2c8,0,14.7-1.9,16.3-4.4c-4.3-4.1-10.1-6.7-16.4-6.7c-0.4,0-0.9,0-1.3,0c-5.8,0.3-11,2.6-15,6.2
				C158.8,209,165.8,211.2,174.4,211.2z"/>
		</g>
		<g>
			<circle class="st0" cx="224" cy="224" r="24"/>
			<path class="st1" d="M213.5,245.6c3.1,1.5,6.6,2.4,10.4,2.4c0.1,0,0.2,0,0.4,0c3.7,0,7.1-0.9,10.2-2.4c-2.9-0.2-6.7-0.3-10.9-0.3
				C219.8,245.3,216.3,245.4,213.5,245.6z"/>
			<path class="st1" d="M223.9,213.1c9.1,0,16.5-2.9,16.6-6.5c-4.1-3.9-9.7-6.4-15.8-6.6c-0.3,0-0.6,0-0.9,0c0,0-0.1,0-0.1,0
				c-6.4,0-12.2,2.6-16.5,6.7C207.6,210.3,214.9,213.1,223.9,213.1z"/>
		</g>
		<g>
			<circle class="st0" cx="24" cy="274" r="24"/>
			<path class="st1" d="M15,296.2c2.8,1.1,5.8,1.8,8.9,1.8c0.1,0,0.2,0,0.2,0c3.1,0,6.1-0.6,8.9-1.8c-2.6-0.1-5.8-0.2-9.2-0.2
				C20.6,296.1,17.5,296.1,15,296.2z"/>
			<path class="st1" d="M24.2,264.9c9.2,0,16.6-3.3,16.6-7.4c0-0.2,0-0.4-0.1-0.6c-4.3-4.2-10.2-6.8-16.6-6.8c-0.5,0-1,0-1.5,0
				c-5.7,0.3-10.9,2.6-14.8,6.2c-0.1,0.4-0.2,0.8-0.2,1.2C7.6,261.6,15,264.9,24.2,264.9z"/>
		</g>
		<g>
			<circle class="st0" cx="74" cy="274" r="24"/>
			<path class="st1" d="M74.1,298c2.6,0,5.1-0.4,7.5-1.2c-2.3,0-4.9-0.1-7.6-0.1s-5.3,0-7.6,0.1c2.4,0.8,4.9,1.2,7.5,1.2
				c0,0,0.1,0,0.1,0S74.1,298,74.1,298z"/>
			<path class="st1" d="M74.4,266.6c9.2,0,16.6-3.7,16.6-8.3c0-0.5-0.1-1-0.3-1.5c-4.3-4.1-10.1-6.7-16.5-6.8c-1,0-1.9,0.1-2.9,0.1
				c-4.7,0.5-9.1,2.4-12.6,5.3c-0.7,0.9-1.1,1.9-1.1,2.9C57.8,262.9,65.2,266.6,74.4,266.6z"/>
		</g>
		<g>
			<circle class="st0" cx="124" cy="274" r="24"/>
			<path class="st1" d="M124.1,298c2.2,0,4.4-0.3,6.4-0.9c-2,0-4.2,0-6.5,0c-2.3,0-4.5,0-6.5,0c2,0.6,4.2,0.9,6.4,0.9
				C123.9,298,124,298,124.1,298C124,298,124.1,298,124.1,298z"/>
			<path class="st1" d="M107.8,259.2c0,5.1,7.4,9.2,16.6,9.2s16.6-4.1,16.6-9.2c0-1.1-0.4-2.1-1-3.1c-4.2-3.8-9.7-6.1-15.8-6.1
				c-1.5,0-2.9,0.1-4.3,0.3c-3.4,0.6-6.6,1.9-9.4,3.8C108.8,255.6,107.8,257.3,107.8,259.2z"/>
		</g>
		<g>
			<circle class="st0" cx="174" cy="274" r="24"/>
			<ellipse class="st1" cx="174" cy="260.1" rx="16.6" ry="10.1"/>
		</g>
		<g>
			<circle class="st0" cx="224" cy="274" r="24"/>
			<ellipse class="st1" cx="224" cy="260.9" rx="16.6" ry="10.9"/>
		</g>
		<g>
			<circle class="st0" cx="24" cy="324" r="24"/>
			<ellipse class="st1" cx="24" cy="312" rx="16.6" ry="12"/>
		</g>
		<g>
			<circle class="st0" cx="74" cy="324" r="24"/>
			<ellipse class="st1" cx="74" cy="313.2" rx="16.6" ry="12.9"/>
		</g>
		<g>
			<circle class="st0" cx="124" cy="324" r="24"/>
			<ellipse class="st1" cx="124" cy="314.2" rx="16.6" ry="13.6"/>
		</g>
		<g>
			<circle class="st0" cx="174" cy="324" r="24"/>
			<ellipse class="st1" cx="174" cy="315.4" rx="16.6" ry="14.4"/>
		</g>
		<g>
			<circle class="st0" cx="224" cy="324" r="24"/>
			<ellipse class="st1" cx="224" cy="316.6" rx="16.6" ry="15"/>
		</g>
		<g>
			<circle class="st0" cx="24" cy="374" r="24"/>
			<ellipse class="st1" cx="24" cy="367.6" rx="16.6" ry="15.6"/>
		</g>
		<g>
			<circle class="st0" cx="74" cy="374" r="24"/>
			<ellipse class="st1" cx="74" cy="369" rx="16.6" ry="16.1"/>
		</g>
		<g>
			<circle class="st0" cx="124" cy="374" r="24"/>
			<ellipse class="st1" cx="124" cy="370.3" rx="16.6" ry="16.3"/>
		</g>
		<g>
			<circle class="st0" cx="174" cy="374" r="24"/>
			<circle class="st1" cx="174" cy="371.5" r="16.6"/>
		</g>
		<g>
			<circle class="st0" cx="224" cy="374" r="24"/>
			<ellipse class="st1" cx="224" cy="372.7" rx="16.6" ry="16.9"/>
		</g>
		<g>
			<circle class="st0" cx="24" cy="424" r="24"/>
			<ellipse class="st1" cx="24" cy="422.9" rx="16.6" ry="17"/>
		</g>
	</svg>

	<svg id="ball-sprite-sheet-14" viewBox="0 0 250 450" size="keep">
		<style type="text/css">
			.st0{fill:#070;}
			.st1{fill:#fff;}
		</style>
		<g>
			<circle class="st0" cx="24" cy="24" r="24"/>
			<circle class="st1" cx="24" cy="24" r="17"/>
		</g>
		<g>
			<circle class="st0" cx="74" cy="24" r="24"/>
			<ellipse class="st1" cx="74" cy="25.5" rx="17" ry="16.5"/>
		</g>
		<g>
			<circle class="st0" cx="124" cy="24" r="24"/>
			<circle class="st1" cx="124" cy="27" r="17"/>
		</g>
		<g>
			<circle class="st0" cx="174" cy="24" r="24"/>
			<ellipse class="st1" cx="174" cy="28" rx="17" ry="16.5"/>
		</g>
		<g>
			<circle class="st0" cx="224" cy="24" r="24"/>
			<ellipse class="st1" cx="224" cy="29.3" rx="17" ry="16.3"/>
		</g>
		<g>
			<circle class="st0" cx="24" cy="74" r="24"/>
			<ellipse class="st1" cx="24" cy="80.5" rx="17" ry="15.6"/>
		</g>
		<g>
			<circle class="st0" cx="74" cy="74" r="24"/>
			<ellipse class="st1" cx="74" cy="82" rx="17" ry="15.2"/>
		</g>
		<g>
			<circle class="st0" cx="124" cy="74" r="24"/>
			<ellipse class="st1" cx="124" cy="82.7" rx="17" ry="14.5"/>
		</g>
		<g>
			<circle class="st0" cx="174" cy="74" r="24"/>
			<ellipse class="st1" cx="174" cy="84" rx="17" ry="13.6"/>
		</g>
		<g>
			<circle class="st0" cx="224" cy="74" r="24"/>
			<ellipse class="st1" cx="224" cy="85.1" rx="17" ry="12.9"/>
		</g>
		<g>
			<circle class="st0" cx="24" cy="124" r="24"/>
			<ellipse class="st1" cx="24" cy="136.3" rx="17" ry="11.7"/>
		</g>
		<g>
			<circle class="st0" cx="74" cy="124" r="24"/>
			<ellipse class="st1" cx="74" cy="137.1" rx="17" ry="10.9"/>
		</g>
		<g>
			<circle class="st0" cx="124" cy="124" r="24"/>
			<path class="st1" d="M141,138.1c0,5.5-9.3,9.9-17,9.9c-7.7,0.1-17-4.5-17-9.9c0-5.5,7.6-9.9,17-9.9S141,132.6,141,138.1z"/>
		</g>
		<g>
			<circle class="st0" cx="174" cy="124" r="24"/>
			<ellipse class="st1" cx="174" cy="139" rx="17" ry="9"/>
		</g>
		<g>
			<circle class="st0" cx="224" cy="124" r="24"/>
			<path class="st1" d="M224,131.6c-9.4,0-17,3.7-17,8.2c0,0.9,0.6,1.8,1.6,2.7c0.8,0.6,1.6,1.2,2.5,1.8c3.4,2,8.4,3.7,12.9,3.7
				c0.1,0,0.2,0,0.3,0c0.3,0,0.7,0,1,0c0.1,0,0.3,0,0.4,0c1.9-0.2,3.8-0.6,5.6-1.1c3.4-1.1,6.5-3,9.1-5.4c0.4-0.5,0.6-1.1,0.6-1.6
				C241,135.3,233.4,131.6,224,131.6z"/>
			<path class="st1" d="M230.5,100.9c-2.1-0.6-4.3-0.9-6.6-0.9c0,0,0,0,0,0c-2.3,0-4.5,0.3-6.5,0.9c1.6,0.1,4,0.2,6.7,0.2
				C226.6,101.1,228.9,101,230.5,100.9z"/>
		</g>
		<g>
			<circle class="st0" cx="24" cy="174" r="24"/>
			<path class="st1" d="M40.7,190.6c0-4.1-7.6-7.4-17-7.4c-9.4,0-17,3.3-17,7.4c0,0.1,0.1,0.2,0.2,0.4c1.1,1.1,2.4,2.2,3.7,3
				c1.9,1.3,4.5,2.6,7.6,3.3c0.2,0,0.3,0.1,0.5,0.1c0.3,0.1,0.6,0.1,0.8,0.2c0.4,0.1,0.8,0.1,1.2,0.2c0.3,0,0.6,0.1,0.8,0.1
				c0.2,0,0.5,0,0.7,0.1c0.4,0,0.9,0.1,1.3,0.1c0,0,0.1,0,0.1,0c5.2,0,9.7-1.7,12.8-3.5c1-0.6,2-1.4,2.9-2.1
				C40.3,191.6,40.7,190.9,40.7,190.6z"/>
			<path class="st1" d="M23.6,152.8c4.7,0,8.5-0.6,8.6-1.4c-2.3-0.8-4.8-1.3-7.4-1.4c-0.3,0-0.7,0-1,0c-3,0-5.9,0.6-8.6,1.7
				C16,152.3,19.4,152.8,23.6,152.8z"/>
		</g>
		<g>
			<circle class="st0" cx="74" cy="174" r="24"/>
			<path class="st1" d="M74.8,198c6.3-0.2,11.9-2.8,16.1-7c-0.7-3.3-8-5.9-16.9-5.9s-16.2,2.6-16.9,5.9c4.2,4.1,9.8,6.8,16.1,7
				c0.3,0,0.6,0,0.8,0S74.6,198,74.8,198z"/>
			<path class="st1" d="M73.9,153.2c4.7,0,8.6-0.7,8.6-1.6c0,0,0-0.1,0-0.1c-2.5-0.9-5.2-1.5-8-1.5c-0.2,0-0.4,0-0.5,0
				c0,0-0.1,0-0.1,0c-3,0-5.8,0.6-8.5,1.6C65.3,152.5,69.2,153.2,73.9,153.2z"/>
		</g>
		<g>
			<circle class="st0" cx="124" cy="174" r="24"/>
			<path class="st1" d="M140.6,191.3c-1.7-2.5-8.5-4.4-16.6-4.4c-8.2,0-15,1.9-16.6,4.4c4.3,4.1,10.1,6.7,16.6,6.7c0,0,0,0,0,0
				C130.5,198,136.3,195.4,140.6,191.3z"/>
			<path class="st1" d="M123.9,153.2c4.7,0,8.6-0.7,8.6-1.6c0,0,0-0.1,0-0.1c-2.5-0.9-5.2-1.5-8-1.5c-0.2,0-0.3,0-0.5,0
				c0,0-0.1,0-0.1,0c-3,0-5.8,0.6-8.4,1.6C115.3,152.5,119.2,153.2,123.9,153.2z"/>
		</g>
		<g>
			<circle class="st0" cx="174" cy="174" r="24"/>
			<path class="st1" d="M173.7,188.1c-7.5,0-13.9,1.4-16.1,3.4c4.3,4,10,6.4,16.2,6.5c0.3,0,0.5,0,0.8,0c6-0.1,11.4-2.5,15.5-6.2
				C188.2,189.7,181.6,188.1,173.7,188.1z"/>
			<path class="st1" d="M165,152.2c0,1.2,3.8,2.2,8.6,2.2c4.7,0,8.6-1,8.6-2.2c0-0.5-0.6-0.9-1.7-1.3c-1.2-0.3-2.5-0.6-3.9-0.7
				c-0.9-0.1-1.8-0.1-2.8-0.1c-3,0-5.8,0.6-8.5,1.6C165.1,151.8,165,152,165,152.2z"/>
		</g>
		<g>
			<circle class="st0" cx="224" cy="174" r="24"/>
			<path class="st1" d="M224.2,198c5.9,0,11.3-2.2,15.4-5.8c-2.6-1.5-8.6-2.5-15.6-2.5s-13,1-15.6,2.5c4.2,3.6,9.5,5.7,15.4,5.8
				c0.1,0,0.1,0,0.2,0S224.1,198,224.2,198z"/>
			<path class="st1" d="M215.3,153c0,1.7,3.8,3,8.6,3c4.7,0,8.6-1.4,8.6-3c0-1.6-3.4-2.8-7.7-3c0,0-0.1,0-0.1,0c-0.3,0-0.5,0-0.8,0
				c-1.5,0-3,0.2-4.4,0.4C217,151,215.3,151.9,215.3,153z"/>
		</g>
		<g>
			<circle class="st0" cx="24" cy="224" r="24"/>
			<path class="st1" d="M9,242.7c4.1,3.3,9.2,5.2,14.8,5.3c0.2,0,0.3,0,0.5,0c5.5-0.1,10.5-2,14.5-5.1c-2.8-1.1-8.5-1.9-15.1-1.9
				C17.4,241,12,241.7,9,242.7z"/>
			<path class="st1" d="M12.9,203.5c0,1.9,4.9,3.5,10.9,3.5s10.9-1.6,10.9-3.5c0-0.5-0.3-1-0.9-1.4c-2.6-1.2-5.5-1.9-8.5-2.1
				c-0.1,0-0.1,0-0.2,0c-0.2,0-0.4,0-0.6,0c-0.2,0-0.4,0-0.7,0c-3.7,0-7.3,0.9-10.4,2.4C13.1,202.8,12.9,203.1,12.9,203.5z"/>
		</g>
		<g>
			<circle class="st0" cx="74" cy="224" r="24"/>
			<path class="st1" d="M74.2,248c5.3,0,10.1-1.8,14.1-4.7c-3-0.8-8.3-1.4-14.3-1.4s-11.2,0.6-14.3,1.4c3.9,2.9,8.8,4.7,14.1,4.7
				c0.1,0,0.1,0,0.2,0S74.1,248,74.2,248z"/>
			<path class="st1" d="M89.6,205.8c-4.2-3.6-9.5-5.7-15.4-5.8c-0.3,0-0.5,0-0.8,0c-5.6,0.1-10.7,2.2-14.7,5.5
				c2.3,1.6,8.4,2.8,15.7,2.8C81.2,208.3,87.1,207.3,89.6,205.8z"/>
		</g>
		<g>
			<circle class="st0" cx="124" cy="224" r="24"/>
			<path class="st1" d="M124.1,248c4.8,0,9.3-1.5,13-3.9c-3.1-0.5-7.8-0.9-13.1-0.9c-5.3,0-10,0.3-13.2,0.9c3.7,2.5,8.2,3.9,13,3.9
				c0.1,0,0.1,0,0.2,0C124.1,248,124.1,248,124.1,248z"/>
			<path class="st1" d="M124.4,210.1c7.6,0,14-1.5,16-3.7c-4.2-4-9.9-6.4-16.1-6.4c-0.4,0-0.7,0-1.1,0c-5.8,0.2-11,2.4-15,6
				C109.6,208.4,116.3,210.1,124.4,210.1z"/>
		</g>
		<g>
			<circle class="st0" cx="174" cy="224" r="24"/>
			<path class="st1" d="M174.1,248c4.5,0,8.6-1.3,12.2-3.4c-3.1-0.4-7.5-0.6-12.3-0.6s-9.2,0.2-12.3,0.6c3.6,2.1,7.7,3.4,12.2,3.4
				c0,0,0.1,0,0.1,0S174.1,248,174.1,248z"/>
			<path class="st1" d="M174.4,211.2c8,0,14.7-1.9,16.3-4.4c-4.3-4.1-10.1-6.7-16.4-6.7c-0.4,0-0.9,0-1.3,0c-5.8,0.3-11,2.6-15,6.2
				C158.8,209,165.8,211.2,174.4,211.2z"/>
		</g>
		<g>
			<circle class="st0" cx="224" cy="224" r="24"/>
			<path class="st1" d="M213.5,245.6c3.1,1.5,6.6,2.4,10.4,2.4c0.1,0,0.2,0,0.4,0c3.7,0,7.1-0.9,10.2-2.4c-2.9-0.2-6.7-0.3-10.9-0.3
				C219.8,245.3,216.3,245.4,213.5,245.6z"/>
			<path class="st1" d="M223.9,213.1c9.1,0,16.5-2.9,16.6-6.5c-4.1-3.9-9.7-6.4-15.8-6.6c-0.3,0-0.6,0-0.9,0c0,0-0.1,0-0.1,0
				c-6.4,0-12.2,2.6-16.5,6.7C207.6,210.3,214.9,213.1,223.9,213.1z"/>
		</g>
		<g>
			<circle class="st0" cx="24" cy="274" r="24"/>
			<path class="st1" d="M15,296.2c2.8,1.1,5.8,1.8,8.9,1.8c0.1,0,0.2,0,0.2,0c3.1,0,6.1-0.6,8.9-1.8c-2.6-0.1-5.8-0.2-9.2-0.2
				C20.6,296.1,17.5,296.1,15,296.2z"/>
			<path class="st1" d="M24.2,264.9c9.2,0,16.6-3.3,16.6-7.4c0-0.2,0-0.4-0.1-0.6c-4.3-4.2-10.2-6.8-16.6-6.8c-0.5,0-1,0-1.5,0
				c-5.7,0.3-10.9,2.6-14.8,6.2c-0.1,0.4-0.2,0.8-0.2,1.2C7.6,261.6,15,264.9,24.2,264.9z"/>
		</g>
		<g>
			<circle class="st0" cx="74" cy="274" r="24"/>
			<path class="st1" d="M74.1,298c2.6,0,5.1-0.4,7.5-1.2c-2.3,0-4.9-0.1-7.6-0.1s-5.3,0-7.6,0.1c2.4,0.8,4.9,1.2,7.5,1.2
				c0,0,0.1,0,0.1,0S74.1,298,74.1,298z"/>
			<path class="st1" d="M74.4,266.6c9.2,0,16.6-3.7,16.6-8.3c0-0.5-0.1-1-0.3-1.5c-4.3-4.1-10.1-6.7-16.5-6.8c-1,0-1.9,0.1-2.9,0.1
				c-4.7,0.5-9.1,2.4-12.6,5.3c-0.7,0.9-1.1,1.9-1.1,2.9C57.8,262.9,65.2,266.6,74.4,266.6z"/>
		</g>
		<g>
			<circle class="st0" cx="124" cy="274" r="24"/>
			<path class="st1" d="M124.1,298c2.2,0,4.4-0.3,6.4-0.9c-2,0-4.2,0-6.5,0c-2.3,0-4.5,0-6.5,0c2,0.6,4.2,0.9,6.4,0.9
				C123.9,298,124,298,124.1,298C124,298,124.1,298,124.1,298z"/>
			<path class="st1" d="M107.8,259.2c0,5.1,7.4,9.2,16.6,9.2s16.6-4.1,16.6-9.2c0-1.1-0.4-2.1-1-3.1c-4.2-3.8-9.7-6.1-15.8-6.1
				c-1.5,0-2.9,0.1-4.3,0.3c-3.4,0.6-6.6,1.9-9.4,3.8C108.8,255.6,107.8,257.3,107.8,259.2z"/>
		</g>
		<g>
			<circle class="st0" cx="174" cy="274" r="24"/>
			<ellipse class="st1" cx="174" cy="260.1" rx="16.6" ry="10.1"/>
		</g>
		<g>
			<circle class="st0" cx="224" cy="274" r="24"/>
			<ellipse class="st1" cx="224" cy="260.9" rx="16.6" ry="10.9"/>
		</g>
		<g>
			<circle class="st0" cx="24" cy="324" r="24"/>
			<ellipse class="st1" cx="24" cy="312" rx="16.6" ry="12"/>
		</g>
		<g>
			<circle class="st0" cx="74" cy="324" r="24"/>
			<ellipse class="st1" cx="74" cy="313.2" rx="16.6" ry="12.9"/>
		</g>
		<g>
			<circle class="st0" cx="124" cy="324" r="24"/>
			<ellipse class="st1" cx="124" cy="314.2" rx="16.6" ry="13.6"/>
		</g>
		<g>
			<circle class="st0" cx="174" cy="324" r="24"/>
			<ellipse class="st1" cx="174" cy="315.4" rx="16.6" ry="14.4"/>
		</g>
		<g>
			<circle class="st0" cx="224" cy="324" r="24"/>
			<ellipse class="st1" cx="224" cy="316.6" rx="16.6" ry="15"/>
		</g>
		<g>
			<circle class="st0" cx="24" cy="374" r="24"/>
			<ellipse class="st1" cx="24" cy="367.6" rx="16.6" ry="15.6"/>
		</g>
		<g>
			<circle class="st0" cx="74" cy="374" r="24"/>
			<ellipse class="st1" cx="74" cy="369" rx="16.6" ry="16.1"/>
		</g>
		<g>
			<circle class="st0" cx="124" cy="374" r="24"/>
			<ellipse class="st1" cx="124" cy="370.3" rx="16.6" ry="16.3"/>
		</g>
		<g>
			<circle class="st0" cx="174" cy="374" r="24"/>
			<circle class="st1" cx="174" cy="371.5" r="16.6"/>
		</g>
		<g>
			<circle class="st0" cx="224" cy="374" r="24"/>
			<ellipse class="st1" cx="224" cy="372.7" rx="16.6" ry="16.9"/>
		</g>
		<g>
			<circle class="st0" cx="24" cy="424" r="24"/>
			<ellipse class="st1" cx="24" cy="422.9" rx="16.6" ry="17"/>
		</g>
	</svg>

	<svg id="ball-sprite-sheet-15" viewBox="0 0 250 450" size="keep">
		<style type="text/css">
			.st0{fill:#700;}
			.st1{fill:#fff;}
		</style>
		<g>
			<circle class="st0" cx="24" cy="24" r="24"/>
			<circle class="st1" cx="24" cy="24" r="17"/>
		</g>
		<g>
			<circle class="st0" cx="74" cy="24" r="24"/>
			<ellipse class="st1" cx="74" cy="25.5" rx="17" ry="16.5"/>
		</g>
		<g>
			<circle class="st0" cx="124" cy="24" r="24"/>
			<circle class="st1" cx="124" cy="27" r="17"/>
		</g>
		<g>
			<circle class="st0" cx="174" cy="24" r="24"/>
			<ellipse class="st1" cx="174" cy="28" rx="17" ry="16.5"/>
		</g>
		<g>
			<circle class="st0" cx="224" cy="24" r="24"/>
			<ellipse class="st1" cx="224" cy="29.3" rx="17" ry="16.3"/>
		</g>
		<g>
			<circle class="st0" cx="24" cy="74" r="24"/>
			<ellipse class="st1" cx="24" cy="80.5" rx="17" ry="15.6"/>
		</g>
		<g>
			<circle class="st0" cx="74" cy="74" r="24"/>
			<ellipse class="st1" cx="74" cy="82" rx="17" ry="15.2"/>
		</g>
		<g>
			<circle class="st0" cx="124" cy="74" r="24"/>
			<ellipse class="st1" cx="124" cy="82.7" rx="17" ry="14.5"/>
		</g>
		<g>
			<circle class="st0" cx="174" cy="74" r="24"/>
			<ellipse class="st1" cx="174" cy="84" rx="17" ry="13.6"/>
		</g>
		<g>
			<circle class="st0" cx="224" cy="74" r="24"/>
			<ellipse class="st1" cx="224" cy="85.1" rx="17" ry="12.9"/>
		</g>
		<g>
			<circle class="st0" cx="24" cy="124" r="24"/>
			<ellipse class="st1" cx="24" cy="136.3" rx="17" ry="11.7"/>
		</g>
		<g>
			<circle class="st0" cx="74" cy="124" r="24"/>
			<ellipse class="st1" cx="74" cy="137.1" rx="17" ry="10.9"/>
		</g>
		<g>
			<circle class="st0" cx="124" cy="124" r="24"/>
			<path class="st1" d="M141,138.1c0,5.5-9.3,9.9-17,9.9c-7.7,0.1-17-4.5-17-9.9c0-5.5,7.6-9.9,17-9.9S141,132.6,141,138.1z"/>
		</g>
		<g>
			<circle class="st0" cx="174" cy="124" r="24"/>
			<ellipse class="st1" cx="174" cy="139" rx="17" ry="9"/>
		</g>
		<g>
			<circle class="st0" cx="224" cy="124" r="24"/>
			<path class="st1" d="M224,131.6c-9.4,0-17,3.7-17,8.2c0,0.9,0.6,1.8,1.6,2.7c0.8,0.6,1.6,1.2,2.5,1.8c3.4,2,8.4,3.7,12.9,3.7
				c0.1,0,0.2,0,0.3,0c0.3,0,0.7,0,1,0c0.1,0,0.3,0,0.4,0c1.9-0.2,3.8-0.6,5.6-1.1c3.4-1.1,6.5-3,9.1-5.4c0.4-0.5,0.6-1.1,0.6-1.6
				C241,135.3,233.4,131.6,224,131.6z"/>
			<path class="st1" d="M230.5,100.9c-2.1-0.6-4.3-0.9-6.6-0.9c0,0,0,0,0,0c-2.3,0-4.5,0.3-6.5,0.9c1.6,0.1,4,0.2,6.7,0.2
				C226.6,101.1,228.9,101,230.5,100.9z"/>
		</g>
		<g>
			<circle class="st0" cx="24" cy="174" r="24"/>
			<path class="st1" d="M40.7,190.6c0-4.1-7.6-7.4-17-7.4c-9.4,0-17,3.3-17,7.4c0,0.1,0.1,0.2,0.2,0.4c1.1,1.1,2.4,2.2,3.7,3
				c1.9,1.3,4.5,2.6,7.6,3.3c0.2,0,0.3,0.1,0.5,0.1c0.3,0.1,0.6,0.1,0.8,0.2c0.4,0.1,0.8,0.1,1.2,0.2c0.3,0,0.6,0.1,0.8,0.1
				c0.2,0,0.5,0,0.7,0.1c0.4,0,0.9,0.1,1.3,0.1c0,0,0.1,0,0.1,0c5.2,0,9.7-1.7,12.8-3.5c1-0.6,2-1.4,2.9-2.1
				C40.3,191.6,40.7,190.9,40.7,190.6z"/>
			<path class="st1" d="M23.6,152.8c4.7,0,8.5-0.6,8.6-1.4c-2.3-0.8-4.8-1.3-7.4-1.4c-0.3,0-0.7,0-1,0c-3,0-5.9,0.6-8.6,1.7
				C16,152.3,19.4,152.8,23.6,152.8z"/>
		</g>
		<g>
			<circle class="st0" cx="74" cy="174" r="24"/>
			<path class="st1" d="M74.8,198c6.3-0.2,11.9-2.8,16.1-7c-0.7-3.3-8-5.9-16.9-5.9s-16.2,2.6-16.9,5.9c4.2,4.1,9.8,6.8,16.1,7
				c0.3,0,0.6,0,0.8,0S74.6,198,74.8,198z"/>
			<path class="st1" d="M73.9,153.2c4.7,0,8.6-0.7,8.6-1.6c0,0,0-0.1,0-0.1c-2.5-0.9-5.2-1.5-8-1.5c-0.2,0-0.4,0-0.5,0
				c0,0-0.1,0-0.1,0c-3,0-5.8,0.6-8.5,1.6C65.3,152.5,69.2,153.2,73.9,153.2z"/>
		</g>
		<g>
			<circle class="st0" cx="124" cy="174" r="24"/>
			<path class="st1" d="M140.6,191.3c-1.7-2.5-8.5-4.4-16.6-4.4c-8.2,0-15,1.9-16.6,4.4c4.3,4.1,10.1,6.7,16.6,6.7c0,0,0,0,0,0
				C130.5,198,136.3,195.4,140.6,191.3z"/>
			<path class="st1" d="M123.9,153.2c4.7,0,8.6-0.7,8.6-1.6c0,0,0-0.1,0-0.1c-2.5-0.9-5.2-1.5-8-1.5c-0.2,0-0.3,0-0.5,0
				c0,0-0.1,0-0.1,0c-3,0-5.8,0.6-8.4,1.6C115.3,152.5,119.2,153.2,123.9,153.2z"/>
		</g>
		<g>
			<circle class="st0" cx="174" cy="174" r="24"/>
			<path class="st1" d="M173.7,188.1c-7.5,0-13.9,1.4-16.1,3.4c4.3,4,10,6.4,16.2,6.5c0.3,0,0.5,0,0.8,0c6-0.1,11.4-2.5,15.5-6.2
				C188.2,189.7,181.6,188.1,173.7,188.1z"/>
			<path class="st1" d="M165,152.2c0,1.2,3.8,2.2,8.6,2.2c4.7,0,8.6-1,8.6-2.2c0-0.5-0.6-0.9-1.7-1.3c-1.2-0.3-2.5-0.6-3.9-0.7
				c-0.9-0.1-1.8-0.1-2.8-0.1c-3,0-5.8,0.6-8.5,1.6C165.1,151.8,165,152,165,152.2z"/>
		</g>
		<g>
			<circle class="st0" cx="224" cy="174" r="24"/>
			<path class="st1" d="M224.2,198c5.9,0,11.3-2.2,15.4-5.8c-2.6-1.5-8.6-2.5-15.6-2.5s-13,1-15.6,2.5c4.2,3.6,9.5,5.7,15.4,5.8
				c0.1,0,0.1,0,0.2,0S224.1,198,224.2,198z"/>
			<path class="st1" d="M215.3,153c0,1.7,3.8,3,8.6,3c4.7,0,8.6-1.4,8.6-3c0-1.6-3.4-2.8-7.7-3c0,0-0.1,0-0.1,0c-0.3,0-0.5,0-0.8,0
				c-1.5,0-3,0.2-4.4,0.4C217,151,215.3,151.9,215.3,153z"/>
		</g>
		<g>
			<circle class="st0" cx="24" cy="224" r="24"/>
			<path class="st1" d="M9,242.7c4.1,3.3,9.2,5.2,14.8,5.3c0.2,0,0.3,0,0.5,0c5.5-0.1,10.5-2,14.5-5.1c-2.8-1.1-8.5-1.9-15.1-1.9
				C17.4,241,12,241.7,9,242.7z"/>
			<path class="st1" d="M12.9,203.5c0,1.9,4.9,3.5,10.9,3.5s10.9-1.6,10.9-3.5c0-0.5-0.3-1-0.9-1.4c-2.6-1.2-5.5-1.9-8.5-2.1
				c-0.1,0-0.1,0-0.2,0c-0.2,0-0.4,0-0.6,0c-0.2,0-0.4,0-0.7,0c-3.7,0-7.3,0.9-10.4,2.4C13.1,202.8,12.9,203.1,12.9,203.5z"/>
		</g>
		<g>
			<circle class="st0" cx="74" cy="224" r="24"/>
			<path class="st1" d="M74.2,248c5.3,0,10.1-1.8,14.1-4.7c-3-0.8-8.3-1.4-14.3-1.4s-11.2,0.6-14.3,1.4c3.9,2.9,8.8,4.7,14.1,4.7
				c0.1,0,0.1,0,0.2,0S74.1,248,74.2,248z"/>
			<path class="st1" d="M89.6,205.8c-4.2-3.6-9.5-5.7-15.4-5.8c-0.3,0-0.5,0-0.8,0c-5.6,0.1-10.7,2.2-14.7,5.5
				c2.3,1.6,8.4,2.8,15.7,2.8C81.2,208.3,87.1,207.3,89.6,205.8z"/>
		</g>
		<g>
			<circle class="st0" cx="124" cy="224" r="24"/>
			<path class="st1" d="M124.1,248c4.8,0,9.3-1.5,13-3.9c-3.1-0.5-7.8-0.9-13.1-0.9c-5.3,0-10,0.3-13.2,0.9c3.7,2.5,8.2,3.9,13,3.9
				c0.1,0,0.1,0,0.2,0C124.1,248,124.1,248,124.1,248z"/>
			<path class="st1" d="M124.4,210.1c7.6,0,14-1.5,16-3.7c-4.2-4-9.9-6.4-16.1-6.4c-0.4,0-0.7,0-1.1,0c-5.8,0.2-11,2.4-15,6
				C109.6,208.4,116.3,210.1,124.4,210.1z"/>
		</g>
		<g>
			<circle class="st0" cx="174" cy="224" r="24"/>
			<path class="st1" d="M174.1,248c4.5,0,8.6-1.3,12.2-3.4c-3.1-0.4-7.5-0.6-12.3-0.6s-9.2,0.2-12.3,0.6c3.6,2.1,7.7,3.4,12.2,3.4
				c0,0,0.1,0,0.1,0S174.1,248,174.1,248z"/>
			<path class="st1" d="M174.4,211.2c8,0,14.7-1.9,16.3-4.4c-4.3-4.1-10.1-6.7-16.4-6.7c-0.4,0-0.9,0-1.3,0c-5.8,0.3-11,2.6-15,6.2
				C158.8,209,165.8,211.2,174.4,211.2z"/>
		</g>
		<g>
			<circle class="st0" cx="224" cy="224" r="24"/>
			<path class="st1" d="M213.5,245.6c3.1,1.5,6.6,2.4,10.4,2.4c0.1,0,0.2,0,0.4,0c3.7,0,7.1-0.9,10.2-2.4c-2.9-0.2-6.7-0.3-10.9-0.3
				C219.8,245.3,216.3,245.4,213.5,245.6z"/>
			<path class="st1" d="M223.9,213.1c9.1,0,16.5-2.9,16.6-6.5c-4.1-3.9-9.7-6.4-15.8-6.6c-0.3,0-0.6,0-0.9,0c0,0-0.1,0-0.1,0
				c-6.4,0-12.2,2.6-16.5,6.7C207.6,210.3,214.9,213.1,223.9,213.1z"/>
		</g>
		<g>
			<circle class="st0" cx="24" cy="274" r="24"/>
			<path class="st1" d="M15,296.2c2.8,1.1,5.8,1.8,8.9,1.8c0.1,0,0.2,0,0.2,0c3.1,0,6.1-0.6,8.9-1.8c-2.6-0.1-5.8-0.2-9.2-0.2
				C20.6,296.1,17.5,296.1,15,296.2z"/>
			<path class="st1" d="M24.2,264.9c9.2,0,16.6-3.3,16.6-7.4c0-0.2,0-0.4-0.1-0.6c-4.3-4.2-10.2-6.8-16.6-6.8c-0.5,0-1,0-1.5,0
				c-5.7,0.3-10.9,2.6-14.8,6.2c-0.1,0.4-0.2,0.8-0.2,1.2C7.6,261.6,15,264.9,24.2,264.9z"/>
		</g>
		<g>
			<circle class="st0" cx="74" cy="274" r="24"/>
			<path class="st1" d="M74.1,298c2.6,0,5.1-0.4,7.5-1.2c-2.3,0-4.9-0.1-7.6-0.1s-5.3,0-7.6,0.1c2.4,0.8,4.9,1.2,7.5,1.2
				c0,0,0.1,0,0.1,0S74.1,298,74.1,298z"/>
			<path class="st1" d="M74.4,266.6c9.2,0,16.6-3.7,16.6-8.3c0-0.5-0.1-1-0.3-1.5c-4.3-4.1-10.1-6.7-16.5-6.8c-1,0-1.9,0.1-2.9,0.1
				c-4.7,0.5-9.1,2.4-12.6,5.3c-0.7,0.9-1.1,1.9-1.1,2.9C57.8,262.9,65.2,266.6,74.4,266.6z"/>
		</g>
		<g>
			<circle class="st0" cx="124" cy="274" r="24"/>
			<path class="st1" d="M124.1,298c2.2,0,4.4-0.3,6.4-0.9c-2,0-4.2,0-6.5,0c-2.3,0-4.5,0-6.5,0c2,0.6,4.2,0.9,6.4,0.9
				C123.9,298,124,298,124.1,298C124,298,124.1,298,124.1,298z"/>
			<path class="st1" d="M107.8,259.2c0,5.1,7.4,9.2,16.6,9.2s16.6-4.1,16.6-9.2c0-1.1-0.4-2.1-1-3.1c-4.2-3.8-9.7-6.1-15.8-6.1
				c-1.5,0-2.9,0.1-4.3,0.3c-3.4,0.6-6.6,1.9-9.4,3.8C108.8,255.6,107.8,257.3,107.8,259.2z"/>
		</g>
		<g>
			<circle class="st0" cx="174" cy="274" r="24"/>
			<ellipse class="st1" cx="174" cy="260.1" rx="16.6" ry="10.1"/>
		</g>
		<g>
			<circle class="st0" cx="224" cy="274" r="24"/>
			<ellipse class="st1" cx="224" cy="260.9" rx="16.6" ry="10.9"/>
		</g>
		<g>
			<circle class="st0" cx="24" cy="324" r="24"/>
			<ellipse class="st1" cx="24" cy="312" rx="16.6" ry="12"/>
		</g>
		<g>
			<circle class="st0" cx="74" cy="324" r="24"/>
			<ellipse class="st1" cx="74" cy="313.2" rx="16.6" ry="12.9"/>
		</g>
		<g>
			<circle class="st0" cx="124" cy="324" r="24"/>
			<ellipse class="st1" cx="124" cy="314.2" rx="16.6" ry="13.6"/>
		</g>
		<g>
			<circle class="st0" cx="174" cy="324" r="24"/>
			<ellipse class="st1" cx="174" cy="315.4" rx="16.6" ry="14.4"/>
		</g>
		<g>
			<circle class="st0" cx="224" cy="324" r="24"/>
			<ellipse class="st1" cx="224" cy="316.6" rx="16.6" ry="15"/>
		</g>
		<g>
			<circle class="st0" cx="24" cy="374" r="24"/>
			<ellipse class="st1" cx="24" cy="367.6" rx="16.6" ry="15.6"/>
		</g>
		<g>
			<circle class="st0" cx="74" cy="374" r="24"/>
			<ellipse class="st1" cx="74" cy="369" rx="16.6" ry="16.1"/>
		</g>
		<g>
			<circle class="st0" cx="124" cy="374" r="24"/>
			<ellipse class="st1" cx="124" cy="370.3" rx="16.6" ry="16.3"/>
		</g>
		<g>
			<circle class="st0" cx="174" cy="374" r="24"/>
			<circle class="st1" cx="174" cy="371.5" r="16.6"/>
		</g>
		<g>
			<circle class="st0" cx="224" cy="374" r="24"/>
			<ellipse class="st1" cx="224" cy="372.7" rx="16.6" ry="16.9"/>
		</g>
		<g>
			<circle class="st0" cx="24" cy="424" r="24"/>
			<ellipse class="st1" cx="24" cy="422.9" rx="16.6" ry="17"/>
		</g>
	</svg>

</svg>