<svg xmlns="http://www.w3.org/2000/svg" width="0" height="0">

	<svg id="solid-sprite-sheet" viewBox="0 0 148 148" size="keep">
		<style type="text/css">
			.st0{fill:#fff;}
			.st1{fill:#ff0;}
			.st2{fill:#00f;}
			.st3{fill:#f00;}
			.st4{fill:#f08;}
			.st5{fill:#f80;}
			.st6{fill:#080;}
			.st7{fill:#800;}
			.st8{fill:#000;}
		</style>
		<circle class="st0" cx="24" cy="24" r="24"/>
		<circle class="st1" cx="72" cy="24" r="24"/>
		<circle class="st2" cx="120" cy="24" r="24"/>
		<circle class="st3" cx="24" cy="72" r="24"/>
		<circle class="st4" cx="72" cy="72" r="24"/>
		<circle class="st5" cx="120" cy="72" r="24"/>
		<circle class="st6" cx="24" cy="120" r="24"/>
		<circle class="st7" cx="72" cy="120" r="24"/>
		<circle class="st8" cx="120" cy="120" r="24"/>
	</svg>

	<svg id="ball-shadow" viewBox="0 0 50 50" size="keep">
		<style type="text/css">
			.st0{fill:url(#SVGID_1_);}
		</style>
		<radialGradient id="SVGID_1_" cx="25" cy="25" r="15" gradientUnits="userSpaceOnUse">
			<stop  offset="0" style="stop-color:#000"/>
			<stop  offset="1" style="stop-color:#000;stop-opacity:0"/>
		</radialGradient>
		<circle class="st0" cx="25" cy="25" r="25"/>
	</svg>

	<svg id="ball-shade" viewBox="0 0 52 52" size="keep">
		<style type="text/css">
			.st0{opacity:0.9;fill:url(#SVGID_1_);}
		</style>
		<radialGradient id="SVGID_1_" cx="26" cy="26" r="32.7053" fx="25.7836" fy="6.1884" gradientUnits="userSpaceOnUse">
			<stop  offset="0.1481" style="stop-color:#F0F0F0;stop-opacity:0.5"/>
			<stop  offset="0.208" style="stop-color:#E7E7E7;stop-opacity:0.5"/>
			<stop  offset="0.3042" style="stop-color:#D0D0D0;stop-opacity:0.5"/>
			<stop  offset="0.8878" style="stop-color:#000;stop-opacity:0.8"/>
			<stop  offset="0.9121" style="stop-color:#000;stop-opacity:0.7"/>
			<stop  offset="0.9558" style="stop-color:#000;stop-opacity:0.6"/>
			<stop  offset="1" style="stop-color:#000;stop-opacity:0.5"/>
		</radialGradient>
		<circle class="st0" cx="26" cy="26" r="26"/>
	</svg>

	<svg id="ball-highlight" viewBox="0 0 52 52" size="keep">
		<style type="text/css">
			.st1{opacity:0.75;fill:url(#SVGID_2_);}
			.st2{opacity:1;fill:url(#SVGID_3_);}
			.st3{opacity:1;fill:url(#SVGID_4_);}
		</style>
		<linearGradient id="SVGID_2_" gradientUnits="userSpaceOnUse" x1="6.0811" y1="18.2199" x2="18.7608" y2="18.0038" gradientTransform="matrix(-0.808 -0.5892 0.5892 -0.808 10.1663 36.313)">
			<stop  offset="0" style="stop-color:#F0F0F0;stop-opacity:0"/>
			<stop  offset="1" style="stop-color:#F0F0F0;stop-opacity:0.8"/>
		</linearGradient>
		<radialGradient id="SVGID_3_" cx="34.5" cy="14.5" r="7.5" gradientUnits="userSpaceOnUse">
			<stop  offset="0" style="stop-color:#fff;stop-opacity:0.9"/>
			<stop  offset="0.2475" style="stop-color:#fff;stop-opacity:0.402"/>
			<stop  offset="0.5607" style="stop-color:#fff;stop-opacity:0.1514"/>
			<stop  offset="1" style="stop-color:#fff;stop-opacity:0"/>
		</radialGradient>
		<radialGradient id="SVGID_4_" cx="27" cy="20" r="5" gradientUnits="userSpaceOnUse">
			<stop  offset="0" style="stop-color:#fff;stop-opacity:0.9"/>
			<stop  offset="0.2691" style="stop-color:#fff;stop-opacity:0.5848"/>
			<stop  offset="0.5396" style="stop-color:#fff;stop-opacity:0.3683"/>
			<stop  offset="0.8101" style="stop-color:#fff;stop-opacity:0.1519"/>
			<stop  offset="1" style="stop-color:#fff;stop-opacity:0"/>
		</radialGradient>
		<path class="st1" d="M15.8,18c4.4-6,5.8-12.5,3.1-14.4S10.5,4.9,6.2,11S0.4,23.5,3,25.4S11.5,24.1,15.8,18z"/>
		<circle class="st2" cx="34.5" cy="14.5" r="9"/>
		<circle class="st3" cx="27" cy="20" r="5"/>
	</svg>

	<svg id="spot-sprite-sheet" viewBox="0 0 152 152" size="keep">
		<style type="text/css">
			.st0{fill:#fff;}
		</style>
		<g>
			<circle class="st0" cx="19" cy="19" r="19"/>
			<circle class="st0" cx="57" cy="19" r="19"/>
			<circle class="st0" cx="95" cy="19" r="19"/>
			<circle class="st0" cx="133" cy="19" r="19"/>
			<circle class="st0" cx="19" cy="57" r="19"/>
			<circle class="st0" cx="57" cy="57" r="19"/>
			<circle class="st0" cx="95" cy="57" r="19"/>
			<circle class="st0" cx="133" cy="57" r="19"/>
			<circle class="st0" cx="19" cy="95" r="19"/>
			<circle class="st0" cx="57" cy="95" r="19"/>
			<circle class="st0" cx="95" cy="95" r="19"/>
			<circle class="st0" cx="133" cy="95" r="19"/>
			<circle class="st0" cx="19" cy="133" r="19"/>
			<circle class="st0" cx="57" cy="133" r="19"/>
			<circle class="st0" cx="95" cy="133" r="19"/>
			<circle class="st0" cx="133" cy="133" r="19"/>
		</g>
		<circle cx="19" cy="19" r="7.5"/>
		<g>
			<path d="M118.2,125.6h0.6c4.2,0,5.4-2.2,5.5-3.9h3.6V144h-4.4v-15.3h-5.3V125.6z"/>
			<path d="M135.8,130.7c0.8-0.6,1.8-1.2,4-1.2c3,0,6.7,2.1,6.7,7.2c0,3-1.5,8-8.1,8c-3.5,0-7-2.1-7.2-6.6h4.4c0.2,1.8,1.2,3,3.1,3
				c2.1,0,3.3-1.8,3.3-4.2c0-2-0.9-4-3.3-4c-0.6,0-2.1,0-2.9,1.6l-3.9-0.2l1.5-12.2h12.2v3.7h-9.1L135.8,130.7z"/>
		</g>
		<g>
			<path d="M79.5,125.6h0.6c4.2,0,5.4-2.2,5.5-3.9h3.6V144h-4.4v-15.3h-5.3V125.6z"/>
			<path d="M108.2,139.1h-2.5v4.9h-4.4v-4.9h-8.8v-3.8l8.2-13.6h5v13.9h2.5V139.1z M101.3,135.7c0-5.4,0.1-8.9,0.1-9.6h-0.1l-5.6,9.6
				H101.3z"/>
		</g>
		<g>
			<path d="M42,125.6h0.6c4.2,0,5.4-2.2,5.5-3.9h3.6V144h-4.4v-15.3H42V125.6z"/>
			<path d="M60.8,131.1h0.7c1.3,0,3.7-0.1,3.7-3c0-0.8-0.4-2.9-2.8-2.9c-3,0-3,2.9-3,3.6h-4.1c0-4.2,2.4-7.2,7.4-7.2
				c3,0,6.9,1.5,6.9,6.2c0,2.3-1.4,3.7-2.7,4.2v0.1c0.8,0.2,3.4,1.4,3.4,5.2c0,4.2-3.1,7.2-7.6,7.2c-2.1,0-7.7-0.5-7.7-7.4h4.3l0,0
				c0,1.2,0.3,3.9,3.3,3.9c1.8,0,3.3-1.2,3.3-3.7c0-3-3-3.2-5-3.2V131.1z"/>
		</g>
		<g>
			<path d="M3.9,125.7h0.6c4.2,0,5.4-2.2,5.5-3.9h3.6v22.3H9.2v-15.3H3.9V125.7z"/>
			<path d="M17.1,129.7c0-7.2,5.3-7.9,7.3-7.9c4.3,0,7.7,2.5,7.7,7c0,3.8-2.5,5.8-4.6,7.2c-2.9,2.1-4.5,3.1-5,4.1h9.7v3.9H16.9
				c0.2-2.6,0.3-5.3,5.2-8.8c4-2.9,5.6-4,5.6-6.6c0-1.5-0.9-3.2-3.1-3.2c-3.1,0-3.2,2.5-3.2,4.2H17.1z"/>
		</g>
		<g>
			<path d="M120.3,87.4h0.6c4.2,0,5.4-2.2,5.5-3.9h3.6v22.3h-4.4V90.5h-5.3V87.4z"/>
			<path d="M133,87.4h0.6c4.2,0,5.4-2.2,5.5-3.9h3.6v22.3h-4.4V90.5H133V87.4z"/>
		</g>
		<g>
			<path d="M80.7,87.7h0.6c4.2,0,5.4-2.2,5.5-3.9h3.6v22.3H86V90.8h-5.3V87.7z"/>
			<path d="M101.6,83.9c5.2,0,7.7,3.6,7.7,11.4s-2.5,11.5-7.7,11.5c-5.2,0-7.7-3.6-7.7-11.5S96.3,83.9,101.6,83.9z M101.6,103.2
				c2.5,0,3.2-2.2,3.2-7.9c0-5.7-0.7-7.9-3.2-7.9c-2.5,0-3.2,2.2-3.2,7.9C98.4,101,99.1,103.2,101.6,103.2z"/>
		</g>
		<g>
			<path d="M54.1,100.7L54.1,100.7c0.3,1.6,1.2,2.2,2.6,2.2c1.8,0,3.6-1.5,3.7-6.2l-0.1-0.1c-1,1.5-2.7,1.9-4.2,1.9
				c-4.3,0-6.7-3.2-6.7-7c0-5.5,3.2-8,7.6-8c7.7,0,7.8,8.3,7.8,11.5c0,8.6-4.1,11.4-8.1,11.4c-3.8,0-6.5-2.2-6.9-5.7H54.1z M57,95
				c1.5,0,3.2-1.1,3.2-3.7c0-2.5-1.1-4.1-3.4-4.1c-1.1,0-3.2,0.6-3.2,3.8C53.7,94.3,55.3,95,57,95z"/>
		</g>
		<g>
			<path d="M19.1,106.4c-5.7,0-7.7-3.7-7.7-6.8c0-1.1,0-4.1,3.4-5.6C13,93.1,12,91.7,12,89.7c0-3.8,3-6.1,6.9-6.1
				c4.6,0,7.1,2.7,7.1,5.8c0,1.9-0.8,3.5-2.6,4.5c2.1,1.1,3.3,2.5,3.3,5.4C26.8,102,25,106.4,19.1,106.4z M19,95.9
				c-1.6,0-3.1,1-3.1,3.5c0,2.1,1.2,3.5,3.2,3.5c2.3,0,3.2-2,3.2-3.5C22.3,97.8,21.4,95.9,19,95.9z M21.8,89.8c0-1.7-1.2-2.8-2.6-2.8
				c-2,0-3,1.1-3,2.8c0,1.3,1,2.8,2.9,2.8C20.8,92.6,21.8,91.4,21.8,89.8z"/>
		</g>
		<g>
			<path d="M142.3,49.4c-2.1,2.3-7.6,8.9-8.1,18.5h-4.5c0.5-8.9,6.1-16,7.9-18h-11.1l0.1-3.9h15.7V49.4z"/>
		</g>
		<g>
			<path d="M97.9,51.2c-0.1-1.3-0.9-2.1-2.6-2.1c-2.9,0-3.5,3.3-3.7,6.1l0.1,0.1c0.6-0.8,1.7-1.9,4.2-1.9c4.6,0,6.8,3.5,6.8,6.9
				c0,4.9-3,8.1-7.3,8.1c-6.7,0-8.1-5.6-8.1-11.2c0-4.2,0.6-11.7,8.3-11.7c0.9,0,3.5,0.3,4.6,1.4c1.2,1.2,1.7,1.9,2.1,4.2H97.9z
				 M95.1,57c-1.7,0-3.4,1-3.4,3.8c0,2.4,1.4,4.1,3.5,4.1c1.6,0,3.1-1.2,3.1-4.2C98.3,57.9,96.5,57,95.1,57z"/>
		</g>
		<g>
			<path d="M53.9,54.3c0.8-0.6,1.8-1.2,4-1.2c3,0,6.7,2.1,6.7,7.2c0,3-1.5,8-8.1,8c-3.5,0-7-2.1-7.2-6.6h4.4c0.2,1.8,1.2,3,3.1,3
				c2.1,0,3.3-1.8,3.3-4.2c0-2-0.9-4-3.3-4c-0.6,0-2.1,0-3,1.6L50,58l1.5-12.2h12.2v3.7h-9.1L53.9,54.3z"/>
		</g>
		<g>
			<path d="M25.8,63.2h-2.5v4.9H19v-4.9h-8.8v-3.8l8.2-13.6h5v13.9h2.5V63.2z M19,59.8c0-5.4,0.1-8.9,0.1-9.6H19l-5.6,9.6H19z"/>
		</g>
		<g>
			<path d="M131.2,16.9h0.7c1.3,0,3.7-0.1,3.7-3c0-0.8-0.4-2.9-2.8-2.9c-3,0-3,2.9-3,3.6h-4.1c0-4.2,2.4-7.2,7.4-7.2
				c3,0,6.9,1.5,6.9,6.2c0,2.3-1.4,3.7-2.7,4.2v0.1c0.8,0.2,3.4,1.4,3.4,5.2c0,4.2-3.1,7.2-7.6,7.2c-2.1,0-7.7-0.5-7.7-7.4h4.3l0,0
				c0,1.2,0.3,3.9,3.3,3.9c1.8,0,3.3-1.2,3.3-3.7c0-3-3-3.2-5-3.2V16.9z"/>
		</g>
		<g>
			<path d="M86.5,15.7c0-7.2,5.3-7.9,7.3-7.9c4.3,0,7.7,2.5,7.7,7c0,3.8-2.5,5.8-4.6,7.2c-3,2.1-4.5,3.1-5,4.1h9.7v3.9H86.2
				c0.2-2.6,0.3-5.3,5.2-8.8c4-2.9,5.6-4,5.6-6.6c0-1.5-0.9-3.2-3.1-3.2c-3.1,0-3.2,2.5-3.2,4.2H86.5z"/>
		</g>
		<g>
			<path d="M50.2,11.7h0.6c4.2,0,5.4-2.2,5.5-3.9h3.6v22.3h-4.4V14.8h-5.3V11.7z"/>
		</g>
	</svg>

	<svg id="ball-sprite-sheet-9" viewBox="0 0 250 450" size="keep">
		<style type="text/css">
			.st0{fill:#ee0;}
			.st1{fill:#fff;}
		</style>
		<g>
			<circle class="st0" cx="24.5" cy="24.5" r="24.5"/>
			<circle class="st1" cx="24.5" cy="24.5" r="17.4"/>
		</g>
		<g>
			<circle class="st0" cx="74.5" cy="24.5" r="24.5"/>
			<ellipse class="st1" cx="74.5" cy="26" rx="17.4" ry="16.8"/>
		</g>
		<g>
			<circle class="st0" cx="124.5" cy="24.5" r="24.5"/>
			<circle class="st1" cx="124.5" cy="27.6" r="17.4"/>
		</g>
		<g>
			<circle class="st0" cx="174.5" cy="24.5" r="24.5"/>
			<ellipse class="st1" cx="174.5" cy="28.6" rx="17.4" ry="16.8"/>
		</g>
		<g>
			<circle class="st0" cx="224.5" cy="24.5" r="24.5"/>
			<ellipse class="st1" cx="224.5" cy="29.9" rx="17.4" ry="16.6"/>
		</g>
		<g>
			<circle class="st0" cx="24.5" cy="74.5" r="24.5"/>
			<ellipse class="st1" cx="24.5" cy="81.2" rx="17.4" ry="15.9"/>
		</g>
		<g>
			<circle class="st0" cx="74.5" cy="74.5" r="24.5"/>
			<ellipse class="st1" cx="74.5" cy="82.7" rx="17.4" ry="15.5"/>
		</g>
		<g>
			<circle class="st0" cx="124.5" cy="74.5" r="24.5"/>
			<ellipse class="st1" cx="124.5" cy="83.4" rx="17.4" ry="14.8"/>
		</g>
		<g>
			<circle class="st0" cx="174.5" cy="74.5" r="24.5"/>
			<ellipse class="st1" cx="174.5" cy="84.7" rx="17.4" ry="13.9"/>
		</g>
		<g>
			<circle class="st0" cx="224.5" cy="74.5" r="24.5"/>
			<ellipse class="st1" cx="224.5" cy="85.9" rx="17.4" ry="13.1"/>
		</g>
		<g>
			<circle class="st0" cx="24.5" cy="124.5" r="24.5"/>
			<ellipse class="st1" cx="24.5" cy="137.1" rx="17.4" ry="11.9"/>
		</g>
		<g>
			<circle class="st0" cx="74.5" cy="124.5" r="24.5"/>
			<ellipse class="st1" cx="74.5" cy="137.8" rx="17.4" ry="11.2"/>
		</g>
		<g>
			<circle class="st0" cx="124.5" cy="124.5" r="24.5"/>
			<path class="st1" d="M141.8,138.9c0,5.6-9.5,10.1-17.3,10.1c-7.8,0.1-17.3-4.5-17.3-10.1c0-5.6,7.8-10.1,17.3-10.1
				S141.8,133.3,141.8,138.9z"/>
		</g>
		<g>
			<circle class="st0" cx="174.5" cy="124.5" r="24.5"/>
			<ellipse class="st1" cx="174.5" cy="139.8" rx="17.4" ry="9.2"/>
		</g>
		<g>
			<circle class="st0" cx="224.5" cy="124.5" r="24.5"/>
			<path class="st1" d="M224.5,132.3c-9.6,0-17.4,3.7-17.4,8.4c0,0.9,0.6,1.8,1.7,2.8c0.8,0.7,1.6,1.3,2.5,1.8
				c3.5,2.1,8.6,3.7,13.1,3.8c0.1,0,0.2,0,0.4,0c0.4,0,0.7,0,1.1,0c0.1,0,0.3,0,0.4,0c1.9-0.2,3.9-0.6,5.7-1.1
				c3.5-1.1,6.7-3.1,9.3-5.5c0.4-0.6,0.6-1.1,0.6-1.6C241.9,136,234.1,132.3,224.5,132.3z"/>
			<path class="st1" d="M231.1,100.9c-2.1-0.6-4.4-0.9-6.7-0.9c0,0,0,0,0,0c-2.3,0-4.5,0.3-6.7,0.9c1.6,0.1,4.1,0.2,6.8,0.2
				C227.1,101.1,229.5,101.1,231.1,100.9z"/>
		</g>
		<g>
			<circle class="st0" cx="24.5" cy="174.5" r="24.5"/>
			<path class="st1" d="M41.6,191.4c0-4.2-7.8-7.6-17.4-7.6c-9.6,0-17.4,3.4-17.4,7.6c0,0.1,0.1,0.2,0.2,0.4c1.1,1.2,2.4,2.2,3.8,3.1
				c2,1.3,4.6,2.6,7.7,3.4c0.2,0,0.3,0.1,0.5,0.1c0.3,0.1,0.6,0.1,0.9,0.2c0.4,0.1,0.8,0.1,1.2,0.2c0.3,0,0.6,0.1,0.9,0.1
				c0.2,0,0.5,0,0.8,0.1c0.4,0,0.9,0.1,1.4,0.1c0,0,0.1,0,0.1,0c5.3,0,9.9-1.7,13-3.6c1.1-0.7,2.1-1.4,3-2.2
				C41.1,192.4,41.6,191.8,41.6,191.4z"/>
			<path class="st1" d="M24.1,152.9c4.8,0,8.7-0.6,8.8-1.4c-2.4-0.9-4.9-1.4-7.6-1.4c-0.3,0-0.7,0-1,0c-3.1,0-6,0.6-8.7,1.7
				C16.3,152.4,19.8,152.9,24.1,152.9z"/>
		</g>
		<g>
			<circle class="st0" cx="74.5" cy="174.5" r="24.5"/>
			<path class="st1" d="M75.4,199c6.4-0.2,12.2-2.9,16.4-7.1c-0.8-3.4-8.2-6-17.3-6s-16.5,2.6-17.3,6c4.2,4.2,10,6.9,16.4,7.1
				c0.3,0,0.6,0,0.9,0S75.1,199,75.4,199z"/>
			<path class="st1" d="M74.4,153.3c4.8,0,8.8-0.7,8.8-1.6c0,0,0-0.1,0-0.1c-2.6-1-5.3-1.5-8.2-1.5c-0.2,0-0.4,0-0.6,0
				c0,0-0.1,0-0.1,0c-3,0-6,0.6-8.6,1.7C65.7,152.6,69.6,153.3,74.4,153.3z"/>
		</g>
		<g>
			<circle class="st0" cx="124.5" cy="174.5" r="24.5"/>
			<path class="st1" d="M141.5,192.2c-1.7-2.5-8.6-4.5-17-4.5c-8.3,0-15.3,1.9-17,4.5c4.4,4.2,10.4,6.8,16.9,6.8c0,0,0,0,0,0
				C131.1,199,137.1,196.4,141.5,192.2z"/>
			<path class="st1" d="M124.4,153.3c4.8,0,8.8-0.7,8.8-1.6c0,0,0-0.1,0-0.1c-2.6-1-5.3-1.5-8.2-1.6c-0.2,0-0.4,0-0.5,0
				c0,0-0.1,0-0.1,0c-3,0-5.9,0.6-8.6,1.7C115.7,152.6,119.6,153.3,124.4,153.3z"/>
		</g>
		<g>
			<circle class="st0" cx="174.5" cy="174.5" r="24.5"/>
			<path class="st1" d="M174.2,188.9c-7.7,0-14.2,1.5-16.5,3.5c4.3,4.1,10.2,6.6,16.6,6.6c0.3,0,0.5,0,0.8,0
				c6.1-0.2,11.6-2.5,15.8-6.3C189,190.5,182.2,188.9,174.2,188.9z"/>
			<path class="st1" d="M165.3,152.2c0,1.2,3.9,2.2,8.8,2.2c4.8,0,8.8-1,8.8-2.2c0-0.5-0.6-1-1.7-1.3c-1.3-0.4-2.6-0.6-3.9-0.8
				c-0.9-0.1-1.9-0.1-2.9-0.1c-3,0-6,0.6-8.6,1.7C165.4,151.8,165.3,152,165.3,152.2z"/>
		</g>
		<g>
			<circle class="st0" cx="224.5" cy="174.5" r="24.5"/>
			<path class="st1" d="M224.7,199c6,0,11.5-2.3,15.7-5.9c-2.7-1.5-8.8-2.6-15.9-2.6s-13.3,1.1-15.9,2.6c4.2,3.6,9.7,5.8,15.7,5.9
				c0.1,0,0.1,0,0.2,0S224.6,199,224.7,199z"/>
			<path class="st1" d="M215.6,153.1c0,1.7,3.9,3.1,8.8,3.1c4.8,0,8.8-1.4,8.8-3.1c0-1.6-3.4-2.9-7.8-3.1c0,0-0.1,0-0.1,0
				c-0.3,0-0.5,0-0.8,0c-1.5,0-3.1,0.2-4.5,0.4C217.3,151,215.6,152,215.6,153.1z"/>
		</g>
		<g>
			<circle class="st0" cx="24.5" cy="224.5" r="24.5"/>
			<path class="st1" d="M9.2,243.6c4.2,3.3,9.4,5.3,15.1,5.4c0.2,0,0.3,0,0.5,0c5.6-0.1,10.7-2,14.8-5.2c-2.9-1.1-8.7-1.9-15.4-1.9
				C17.8,241.8,12.2,242.6,9.2,243.6z"/>
			<path class="st1" d="M13.2,203.6c0,2,5,3.6,11.1,3.6s11.1-1.6,11.1-3.6c0-0.5-0.3-1-0.9-1.4c-2.7-1.2-5.6-2-8.7-2.1
				c-0.1,0-0.1,0-0.2,0c-0.2,0-0.4,0-0.6,0c-0.2,0-0.5,0-0.7,0c-3.8,0-7.4,0.9-10.6,2.5C13.4,202.8,13.2,203.2,13.2,203.6z"/>
		</g>
		<g>
			<circle class="st0" cx="74.5" cy="224.5" r="24.5"/>
			<path class="st1" d="M74.7,249c5.4,0,10.4-1.8,14.4-4.8c-3.1-0.8-8.4-1.4-14.5-1.4S63,243.4,60,244.2c4,3,9,4.7,14.4,4.8
				c0.1,0,0.1,0,0.2,0S74.6,249,74.7,249z"/>
			<path class="st1" d="M90.5,205.9c-4.2-3.6-9.7-5.9-15.8-5.9c-0.3,0-0.5,0-0.8,0c-5.7,0.1-10.9,2.2-15,5.6c2.3,1.7,8.6,2.8,16,2.8
				C81.9,208.5,87.8,207.4,90.5,205.9z"/>
		</g>
		<g>
			<circle class="st0" cx="124.5" cy="224.5" r="24.5"/>
			<path class="st1" d="M124.6,249c4.9,0,9.5-1.5,13.3-4c-3.2-0.5-8-0.9-13.4-0.9c-5.4,0-10.2,0.3-13.4,0.9c3.8,2.5,8.4,4,13.3,4
				c0.1,0,0.1,0,0.2,0C124.6,249,124.6,249,124.6,249z"/>
			<path class="st1" d="M124.9,210.3c7.7,0,14.3-1.6,16.3-3.7c-4.3-4-10.1-6.5-16.5-6.6c-0.4,0-0.7,0-1.1,0
				c-5.9,0.2-11.2,2.5-15.4,6.1C109.8,208.5,116.7,210.3,124.9,210.3z"/>
		</g>
		<g>
			<circle class="st0" cx="174.5" cy="224.5" r="24.5"/>
			<path class="st1" d="M174.6,249c4.6,0,8.8-1.3,12.4-3.5c-3.2-0.4-7.6-0.6-12.6-0.6s-9.4,0.2-12.6,0.6c3.6,2.2,7.9,3.5,12.4,3.5
				c0,0,0.1,0,0.1,0S174.6,249,174.6,249z"/>
			<path class="st1" d="M174.9,211.4c8.2,0,15-1.9,16.6-4.5c-4.4-4.2-10.3-6.8-16.8-6.9c-0.4,0-0.9,0-1.3,0
				c-5.9,0.3-11.3,2.6-15.4,6.3C159,209.2,166.2,211.4,174.9,211.4z"/>
		</g>
		<g>
			<circle class="st0" cx="224.5" cy="224.5" r="24.5"/>
			<path class="st1" d="M213.8,246.5c3.2,1.6,6.8,2.4,10.6,2.5c0.1,0,0.2,0,0.4,0c3.7,0,7.3-0.9,10.4-2.4c-3-0.2-6.9-0.3-11.1-0.3
				C220.2,246.3,216.6,246.4,213.8,246.5z"/>
			<path class="st1" d="M224.4,213.3c9.3,0,16.9-2.9,17-6.6c-4.2-4-9.9-6.5-16.1-6.7c-0.3,0-0.6,0-0.9,0c0,0-0.1,0-0.1,0
				c-6.6,0-12.5,2.7-16.9,6.9C207.8,210.5,215.2,213.3,224.4,213.3z"/>
		</g>
		<g>
			<circle class="st0" cx="24.5" cy="274.5" r="24.5"/>
			<path class="st1" d="M15.3,297.2c2.8,1.1,5.9,1.8,9.1,1.8c0.1,0,0.2,0,0.2,0c3.2,0,6.3-0.7,9.1-1.8c-2.7-0.1-5.9-0.2-9.4-0.2
				C21,297,17.9,297.1,15.3,297.2z"/>
			<path class="st1" d="M24.7,265.2c9.4,0,17-3.4,17-7.6c0-0.2,0-0.4-0.1-0.6c-4.4-4.3-10.4-6.9-17-7c-0.5,0-1,0-1.5,0
				c-5.8,0.3-11.1,2.7-15.2,6.4c-0.1,0.4-0.2,0.8-0.2,1.2C7.8,261.8,15.4,265.2,24.7,265.2z"/>
		</g>
		<g>
			<circle class="st0" cx="74.5" cy="274.5" r="24.5"/>
			<path class="st1" d="M74.6,299c2.7,0,5.2-0.5,7.6-1.3c-2.3,0-5-0.1-7.8-0.1s-5.4,0-7.8,0.1c2.4,0.8,5,1.2,7.6,1.3c0,0,0.1,0,0.1,0
				S74.6,299,74.6,299z"/>
			<path class="st1" d="M74.9,267c9.4,0,17-3.8,17-8.5c0-0.5-0.1-1.1-0.3-1.6c-4.4-4.2-10.3-6.8-16.8-6.9c-1,0-2,0.1-2.9,0.1
				c-4.8,0.5-9.3,2.5-12.8,5.4c-0.7,0.9-1.1,1.9-1.1,3C57.9,263.2,65.5,267,74.9,267z"/>
		</g>
		<g>
			<circle class="st0" cx="124.5" cy="274.5" r="24.5"/>
			<path class="st1" d="M124.6,299c2.3,0,4.5-0.3,6.5-0.9c-2,0-4.3,0-6.6,0c-2.4,0-4.6,0-6.7,0c2.1,0.6,4.3,0.9,6.5,0.9
				C124.4,299,124.5,299,124.6,299C124.5,299,124.6,299,124.6,299z"/>
			<path class="st1" d="M107.9,259.4c0,5.2,7.6,9.4,17,9.4s17-4.2,17-9.4c0-1.1-0.4-2.2-1-3.1c-4.3-3.9-9.9-6.2-16.1-6.3
				c-1.5,0-3,0.1-4.4,0.3c-3.5,0.6-6.7,1.9-9.6,3.8C109,255.7,107.9,257.5,107.9,259.4z"/>
		</g>
		<g>
			<circle class="st0" cx="174.5" cy="274.5" r="24.5"/>
			<ellipse class="st1" cx="174.5" cy="260.3" rx="17" ry="10.3"/>
		</g>
		<g>
			<circle class="st0" cx="224.5" cy="274.5" r="24.5"/>
			<ellipse class="st1" cx="224.5" cy="261.2" rx="17" ry="11.2"/>
		</g>
		<g>
			<circle class="st0" cx="24.5" cy="324.5" r="24.5"/>
			<ellipse class="st1" cx="24.5" cy="312.2" rx="17" ry="12.2"/>
		</g>
		<g>
			<circle class="st0" cx="74.5" cy="324.5" r="24.5"/>
			<ellipse class="st1" cx="74.5" cy="313.4" rx="17" ry="13.1"/>
		</g>
		<g>
			<circle class="st0" cx="124.5" cy="324.5" r="24.5"/>
			<ellipse class="st1" cx="124.5" cy="314.5" rx="17" ry="13.9"/>
		</g>
		<g>
			<circle class="st0" cx="174.5" cy="324.5" r="24.5"/>
			<ellipse class="st1" cx="174.5" cy="315.7" rx="17" ry="14.7"/>
		</g>
		<g>
			<circle class="st0" cx="224.5" cy="324.5" r="24.5"/>
			<ellipse class="st1" cx="224.5" cy="316.9" rx="17" ry="15.3"/>
		</g>
		<g>
			<circle class="st0" cx="24.5" cy="374.5" r="24.5"/>
			<ellipse class="st1" cx="24.5" cy="368" rx="17" ry="16"/>
		</g>
		<g>
			<circle class="st0" cx="74.5" cy="374.5" r="24.5"/>
			<ellipse class="st1" cx="74.5" cy="369.4" rx="17" ry="16.4"/>
		</g>
		<g>
			<circle class="st0" cx="124.5" cy="374.5" r="24.5"/>
			<ellipse class="st1" cx="124.5" cy="370.7" rx="17" ry="16.7"/>
		</g>
		<g>
			<circle class="st0" cx="174.5" cy="374.5" r="24.5"/>
			<circle class="st1" cx="174.5" cy="372" r="17"/>
		</g>
		<g>
			<circle class="st0" cx="224.5" cy="374.5" r="24.5"/>
			<ellipse class="st1" cx="224.5" cy="373.2" rx="17" ry="17.2"/>
		</g>
		<g>
			<circle class="st0" cx="24.5" cy="424.5" r="24.5"/>
			<ellipse class="st1" cx="24.5" cy="423.4" rx="17" ry="17.3"/>
		</g>
	</svg>

	<svg id="ball-sprite-sheet-10" viewBox="0 0 250 450" size="keep">
		<style type="text/css">
			.st0{fill:#3550A1;}
			.st1{fill:#fff;}
		</style>
		<g>
			<circle class="st0" cx="24.5" cy="24.5" r="24.5"/>
			<circle class="st1" cx="24.5" cy="24.5" r="17.4"/>
		</g>
		<g>
			<circle class="st0" cx="74.5" cy="24.5" r="24.5"/>
			<ellipse class="st1" cx="74.5" cy="26" rx="17.4" ry="16.8"/>
		</g>
		<g>
			<circle class="st0" cx="124.5" cy="24.5" r="24.5"/>
			<circle class="st1" cx="124.5" cy="27.6" r="17.4"/>
		</g>
		<g>
			<circle class="st0" cx="174.5" cy="24.5" r="24.5"/>
			<ellipse class="st1" cx="174.5" cy="28.6" rx="17.4" ry="16.8"/>
		</g>
		<g>
			<circle class="st0" cx="224.5" cy="24.5" r="24.5"/>
			<ellipse class="st1" cx="224.5" cy="29.9" rx="17.4" ry="16.6"/>
		</g>
		<g>
			<circle class="st0" cx="24.5" cy="74.5" r="24.5"/>
			<ellipse class="st1" cx="24.5" cy="81.2" rx="17.4" ry="15.9"/>
		</g>
		<g>
			<circle class="st0" cx="74.5" cy="74.5" r="24.5"/>
			<ellipse class="st1" cx="74.5" cy="82.7" rx="17.4" ry="15.5"/>
		</g>
		<g>
			<circle class="st0" cx="124.5" cy="74.5" r="24.5"/>
			<ellipse class="st1" cx="124.5" cy="83.4" rx="17.4" ry="14.8"/>
		</g>
		<g>
			<circle class="st0" cx="174.5" cy="74.5" r="24.5"/>
			<ellipse class="st1" cx="174.5" cy="84.7" rx="17.4" ry="13.9"/>
		</g>
		<g>
			<circle class="st0" cx="224.5" cy="74.5" r="24.5"/>
			<ellipse class="st1" cx="224.5" cy="85.9" rx="17.4" ry="13.1"/>
		</g>
		<g>
			<circle class="st0" cx="24.5" cy="124.5" r="24.5"/>
			<ellipse class="st1" cx="24.5" cy="137.1" rx="17.4" ry="11.9"/>
		</g>
		<g>
			<circle class="st0" cx="74.5" cy="124.5" r="24.5"/>
			<ellipse class="st1" cx="74.5" cy="137.8" rx="17.4" ry="11.2"/>
		</g>
		<g>
			<circle class="st0" cx="124.5" cy="124.5" r="24.5"/>
			<path class="st1" d="M141.8,138.9c0,5.6-9.5,10.1-17.3,10.1c-7.8,0.1-17.3-4.5-17.3-10.1c0-5.6,7.8-10.1,17.3-10.1
				S141.8,133.3,141.8,138.9z"/>
		</g>
		<g>
			<circle class="st0" cx="174.5" cy="124.5" r="24.5"/>
			<ellipse class="st1" cx="174.5" cy="139.8" rx="17.4" ry="9.2"/>
		</g>
		<g>
			<circle class="st0" cx="224.5" cy="124.5" r="24.5"/>
			<path class="st1" d="M224.5,132.3c-9.6,0-17.4,3.7-17.4,8.4c0,0.9,0.6,1.8,1.7,2.8c0.8,0.7,1.6,1.3,2.5,1.8
				c3.5,2.1,8.6,3.7,13.1,3.8c0.1,0,0.2,0,0.4,0c0.4,0,0.7,0,1.1,0c0.1,0,0.3,0,0.4,0c1.9-0.2,3.9-0.6,5.7-1.1
				c3.5-1.1,6.7-3.1,9.3-5.5c0.4-0.6,0.6-1.1,0.6-1.6C241.9,136,234.1,132.3,224.5,132.3z"/>
			<path class="st1" d="M231.1,100.9c-2.1-0.6-4.4-0.9-6.7-0.9c0,0,0,0,0,0c-2.3,0-4.5,0.3-6.7,0.9c1.6,0.1,4.1,0.2,6.8,0.2
				C227.1,101.1,229.5,101.1,231.1,100.9z"/>
		</g>
		<g>
			<circle class="st0" cx="24.5" cy="174.5" r="24.5"/>
			<path class="st1" d="M41.6,191.4c0-4.2-7.8-7.6-17.4-7.6c-9.6,0-17.4,3.4-17.4,7.6c0,0.1,0.1,0.2,0.2,0.4c1.1,1.2,2.4,2.2,3.8,3.1
				c2,1.3,4.6,2.6,7.7,3.4c0.2,0,0.3,0.1,0.5,0.1c0.3,0.1,0.6,0.1,0.9,0.2c0.4,0.1,0.8,0.1,1.2,0.2c0.3,0,0.6,0.1,0.9,0.1
				c0.2,0,0.5,0,0.8,0.1c0.4,0,0.9,0.1,1.4,0.1c0,0,0.1,0,0.1,0c5.3,0,9.9-1.7,13-3.6c1.1-0.7,2.1-1.4,3-2.2
				C41.1,192.4,41.6,191.8,41.6,191.4z"/>
			<path class="st1" d="M24.1,152.9c4.8,0,8.7-0.6,8.8-1.4c-2.4-0.9-4.9-1.4-7.6-1.4c-0.3,0-0.7,0-1,0c-3.1,0-6,0.6-8.7,1.7
				C16.3,152.4,19.8,152.9,24.1,152.9z"/>
		</g>
		<g>
			<circle class="st0" cx="74.5" cy="174.5" r="24.5"/>
			<path class="st1" d="M75.4,199c6.4-0.2,12.2-2.9,16.4-7.1c-0.8-3.4-8.2-6-17.3-6s-16.5,2.6-17.3,6c4.2,4.2,10,6.9,16.4,7.1
				c0.3,0,0.6,0,0.9,0S75.1,199,75.4,199z"/>
			<path class="st1" d="M74.4,153.3c4.8,0,8.8-0.7,8.8-1.6c0,0,0-0.1,0-0.1c-2.6-1-5.3-1.5-8.2-1.5c-0.2,0-0.4,0-0.6,0
				c0,0-0.1,0-0.1,0c-3,0-6,0.6-8.6,1.7C65.7,152.6,69.6,153.3,74.4,153.3z"/>
		</g>
		<g>
			<circle class="st0" cx="124.5" cy="174.5" r="24.5"/>
			<path class="st1" d="M141.5,192.2c-1.7-2.5-8.6-4.5-17-4.5c-8.3,0-15.3,1.9-17,4.5c4.4,4.2,10.4,6.8,16.9,6.8c0,0,0,0,0,0
				C131.1,199,137.1,196.4,141.5,192.2z"/>
			<path class="st1" d="M124.4,153.3c4.8,0,8.8-0.7,8.8-1.6c0,0,0-0.1,0-0.1c-2.6-1-5.3-1.5-8.2-1.6c-0.2,0-0.4,0-0.5,0
				c0,0-0.1,0-0.1,0c-3,0-5.9,0.6-8.6,1.7C115.7,152.6,119.6,153.3,124.4,153.3z"/>
		</g>
		<g>
			<circle class="st0" cx="174.5" cy="174.5" r="24.5"/>
			<path class="st1" d="M174.2,188.9c-7.7,0-14.2,1.5-16.5,3.5c4.3,4.1,10.2,6.6,16.6,6.6c0.3,0,0.5,0,0.8,0
				c6.1-0.2,11.6-2.5,15.8-6.3C189,190.5,182.2,188.9,174.2,188.9z"/>
			<path class="st1" d="M165.3,152.2c0,1.2,3.9,2.2,8.8,2.2c4.8,0,8.8-1,8.8-2.2c0-0.5-0.6-1-1.7-1.3c-1.3-0.4-2.6-0.6-3.9-0.8
				c-0.9-0.1-1.9-0.1-2.9-0.1c-3,0-6,0.6-8.6,1.7C165.4,151.8,165.3,152,165.3,152.2z"/>
		</g>
		<g>
			<circle class="st0" cx="224.5" cy="174.5" r="24.5"/>
			<path class="st1" d="M224.7,199c6,0,11.5-2.3,15.7-5.9c-2.7-1.5-8.8-2.6-15.9-2.6s-13.3,1.1-15.9,2.6c4.2,3.6,9.7,5.8,15.7,5.9
				c0.1,0,0.1,0,0.2,0S224.6,199,224.7,199z"/>
			<path class="st1" d="M215.6,153.1c0,1.7,3.9,3.1,8.8,3.1c4.8,0,8.8-1.4,8.8-3.1c0-1.6-3.4-2.9-7.8-3.1c0,0-0.1,0-0.1,0
				c-0.3,0-0.5,0-0.8,0c-1.5,0-3.1,0.2-4.5,0.4C217.3,151,215.6,152,215.6,153.1z"/>
		</g>
		<g>
			<circle class="st0" cx="24.5" cy="224.5" r="24.5"/>
			<path class="st1" d="M9.2,243.6c4.2,3.3,9.4,5.3,15.1,5.4c0.2,0,0.3,0,0.5,0c5.6-0.1,10.7-2,14.8-5.2c-2.9-1.1-8.7-1.9-15.4-1.9
				C17.8,241.8,12.2,242.6,9.2,243.6z"/>
			<path class="st1" d="M13.2,203.6c0,2,5,3.6,11.1,3.6s11.1-1.6,11.1-3.6c0-0.5-0.3-1-0.9-1.4c-2.7-1.2-5.6-2-8.7-2.1
				c-0.1,0-0.1,0-0.2,0c-0.2,0-0.4,0-0.6,0c-0.2,0-0.5,0-0.7,0c-3.8,0-7.4,0.9-10.6,2.5C13.4,202.8,13.2,203.2,13.2,203.6z"/>
		</g>
		<g>
			<circle class="st0" cx="74.5" cy="224.5" r="24.5"/>
			<path class="st1" d="M74.7,249c5.4,0,10.4-1.8,14.4-4.8c-3.1-0.8-8.4-1.4-14.5-1.4S63,243.4,60,244.2c4,3,9,4.7,14.4,4.8
				c0.1,0,0.1,0,0.2,0S74.6,249,74.7,249z"/>
			<path class="st1" d="M90.5,205.9c-4.2-3.6-9.7-5.9-15.8-5.9c-0.3,0-0.5,0-0.8,0c-5.7,0.1-10.9,2.2-15,5.6c2.3,1.7,8.6,2.8,16,2.8
				C81.9,208.5,87.8,207.4,90.5,205.9z"/>
		</g>
		<g>
			<circle class="st0" cx="124.5" cy="224.5" r="24.5"/>
			<path class="st1" d="M124.6,249c4.9,0,9.5-1.5,13.3-4c-3.2-0.5-8-0.9-13.4-0.9c-5.4,0-10.2,0.3-13.4,0.9c3.8,2.5,8.4,4,13.3,4
				c0.1,0,0.1,0,0.2,0C124.6,249,124.6,249,124.6,249z"/>
			<path class="st1" d="M124.9,210.3c7.7,0,14.3-1.6,16.3-3.7c-4.3-4-10.1-6.5-16.5-6.6c-0.4,0-0.7,0-1.1,0
				c-5.9,0.2-11.2,2.5-15.4,6.1C109.8,208.5,116.7,210.3,124.9,210.3z"/>
		</g>
		<g>
			<circle class="st0" cx="174.5" cy="224.5" r="24.5"/>
			<path class="st1" d="M174.6,249c4.6,0,8.8-1.3,12.4-3.5c-3.2-0.4-7.6-0.6-12.6-0.6s-9.4,0.2-12.6,0.6c3.6,2.2,7.9,3.5,12.4,3.5
				c0,0,0.1,0,0.1,0S174.6,249,174.6,249z"/>
			<path class="st1" d="M174.9,211.4c8.2,0,15-1.9,16.6-4.5c-4.4-4.2-10.3-6.8-16.8-6.9c-0.4,0-0.9,0-1.3,0
				c-5.9,0.3-11.3,2.6-15.4,6.3C159,209.2,166.2,211.4,174.9,211.4z"/>
		</g>
		<g>
			<circle class="st0" cx="224.5" cy="224.5" r="24.5"/>
			<path class="st1" d="M213.8,246.5c3.2,1.6,6.8,2.4,10.6,2.5c0.1,0,0.2,0,0.4,0c3.7,0,7.3-0.9,10.4-2.4c-3-0.2-6.9-0.3-11.1-0.3
				C220.2,246.3,216.6,246.4,213.8,246.5z"/>
			<path class="st1" d="M224.4,213.3c9.3,0,16.9-2.9,17-6.6c-4.2-4-9.9-6.5-16.1-6.7c-0.3,0-0.6,0-0.9,0c0,0-0.1,0-0.1,0
				c-6.6,0-12.5,2.7-16.9,6.9C207.8,210.5,215.2,213.3,224.4,213.3z"/>
		</g>
		<g>
			<circle class="st0" cx="24.5" cy="274.5" r="24.5"/>
			<path class="st1" d="M15.3,297.2c2.8,1.1,5.9,1.8,9.1,1.8c0.1,0,0.2,0,0.2,0c3.2,0,6.3-0.7,9.1-1.8c-2.7-0.1-5.9-0.2-9.4-0.2
				C21,297,17.9,297.1,15.3,297.2z"/>
			<path class="st1" d="M24.7,265.2c9.4,0,17-3.4,17-7.6c0-0.2,0-0.4-0.1-0.6c-4.4-4.3-10.4-6.9-17-7c-0.5,0-1,0-1.5,0
				c-5.8,0.3-11.1,2.7-15.2,6.4c-0.1,0.4-0.2,0.8-0.2,1.2C7.8,261.8,15.4,265.2,24.7,265.2z"/>
		</g>
		<g>
			<circle class="st0" cx="74.5" cy="274.5" r="24.5"/>
			<path class="st1" d="M74.6,299c2.7,0,5.2-0.5,7.6-1.3c-2.3,0-5-0.1-7.8-0.1s-5.4,0-7.8,0.1c2.4,0.8,5,1.2,7.6,1.3c0,0,0.1,0,0.1,0
				S74.6,299,74.6,299z"/>
			<path class="st1" d="M74.9,267c9.4,0,17-3.8,17-8.5c0-0.5-0.1-1.1-0.3-1.6c-4.4-4.2-10.3-6.8-16.8-6.9c-1,0-2,0.1-2.9,0.1
				c-4.8,0.5-9.3,2.5-12.8,5.4c-0.7,0.9-1.1,1.9-1.1,3C57.9,263.2,65.5,267,74.9,267z"/>
		</g>
		<g>
			<circle class="st0" cx="124.5" cy="274.5" r="24.5"/>
			<path class="st1" d="M124.6,299c2.3,0,4.5-0.3,6.5-0.9c-2,0-4.3,0-6.6,0c-2.4,0-4.6,0-6.7,0c2.1,0.6,4.3,0.9,6.5,0.9
				C124.4,299,124.5,299,124.6,299C124.5,299,124.6,299,124.6,299z"/>
			<path class="st1" d="M107.9,259.4c0,5.2,7.6,9.4,17,9.4s17-4.2,17-9.4c0-1.1-0.4-2.2-1-3.1c-4.3-3.9-9.9-6.2-16.1-6.3
				c-1.5,0-3,0.1-4.4,0.3c-3.5,0.6-6.7,1.9-9.6,3.8C109,255.7,107.9,257.5,107.9,259.4z"/>
		</g>
		<g>
			<circle class="st0" cx="174.5" cy="274.5" r="24.5"/>
			<ellipse class="st1" cx="174.5" cy="260.3" rx="17" ry="10.3"/>
		</g>
		<g>
			<circle class="st0" cx="224.5" cy="274.5" r="24.5"/>
			<ellipse class="st1" cx="224.5" cy="261.2" rx="17" ry="11.2"/>
		</g>
		<g>
			<circle class="st0" cx="24.5" cy="324.5" r="24.5"/>
			<ellipse class="st1" cx="24.5" cy="312.2" rx="17" ry="12.2"/>
		</g>
		<g>
			<circle class="st0" cx="74.5" cy="324.5" r="24.5"/>
			<ellipse class="st1" cx="74.5" cy="313.4" rx="17" ry="13.1"/>
		</g>
		<g>
			<circle class="st0" cx="124.5" cy="324.5" r="24.5"/>
			<ellipse class="st1" cx="124.5" cy="314.5" rx="17" ry="13.9"/>
		</g>
		<g>
			<circle class="st0" cx="174.5" cy="324.5" r="24.5"/>
			<ellipse class="st1" cx="174.5" cy="315.7" rx="17" ry="14.7"/>
		</g>
		<g>
			<circle class="st0" cx="224.5" cy="324.5" r="24.5"/>
			<ellipse class="st1" cx="224.5" cy="316.9" rx="17" ry="15.3"/>
		</g>
		<g>
			<circle class="st0" cx="24.5" cy="374.5" r="24.5"/>
			<ellipse class="st1" cx="24.5" cy="368" rx="17" ry="16"/>
		</g>
		<g>
			<circle class="st0" cx="74.5" cy="374.5" r="24.5"/>
			<ellipse class="st1" cx="74.5" cy="369.4" rx="17" ry="16.4"/>
		</g>
		<g>
			<circle class="st0" cx="124.5" cy="374.5" r="24.5"/>
			<ellipse class="st1" cx="124.5" cy="370.7" rx="17" ry="16.7"/>
		</g>
		<g>
			<circle class="st0" cx="174.5" cy="374.5" r="24.5"/>
			<circle class="st1" cx="174.5" cy="372" r="17"/>
		</g>
		<g>
			<circle class="st0" cx="224.5" cy="374.5" r="24.5"/>
			<ellipse class="st1" cx="224.5" cy="373.2" rx="17" ry="17.2"/>
		</g>
		<g>
			<circle class="st0" cx="24.5" cy="424.5" r="24.5"/>
			<ellipse class="st1" cx="24.5" cy="423.4" rx="17" ry="17.3"/>
		</g>
	</svg>

	<svg id="ball-sprite-sheet-11" viewBox="0 0 250 450" size="keep">
		<style type="text/css">
			.st0{fill:#e00;}
			.st1{fill:#fff;}
		</style>
		<g>
			<circle class="st0" cx="24.5" cy="24.5" r="24.5"/>
			<circle class="st1" cx="24.5" cy="24.5" r="17.4"/>
		</g>
		<g>
			<circle class="st0" cx="74.5" cy="24.5" r="24.5"/>
			<ellipse class="st1" cx="74.5" cy="26" rx="17.4" ry="16.8"/>
		</g>
		<g>
			<circle class="st0" cx="124.5" cy="24.5" r="24.5"/>
			<circle class="st1" cx="124.5" cy="27.6" r="17.4"/>
		</g>
		<g>
			<circle class="st0" cx="174.5" cy="24.5" r="24.5"/>
			<ellipse class="st1" cx="174.5" cy="28.6" rx="17.4" ry="16.8"/>
		</g>
		<g>
			<circle class="st0" cx="224.5" cy="24.5" r="24.5"/>
			<ellipse class="st1" cx="224.5" cy="29.9" rx="17.4" ry="16.6"/>
		</g>
		<g>
			<circle class="st0" cx="24.5" cy="74.5" r="24.5"/>
			<ellipse class="st1" cx="24.5" cy="81.2" rx="17.4" ry="15.9"/>
		</g>
		<g>
			<circle class="st0" cx="74.5" cy="74.5" r="24.5"/>
			<ellipse class="st1" cx="74.5" cy="82.7" rx="17.4" ry="15.5"/>
		</g>
		<g>
			<circle class="st0" cx="124.5" cy="74.5" r="24.5"/>
			<ellipse class="st1" cx="124.5" cy="83.4" rx="17.4" ry="14.8"/>
		</g>
		<g>
			<circle class="st0" cx="174.5" cy="74.5" r="24.5"/>
			<ellipse class="st1" cx="174.5" cy="84.7" rx="17.4" ry="13.9"/>
		</g>
		<g>
			<circle class="st0" cx="224.5" cy="74.5" r="24.5"/>
			<ellipse class="st1" cx="224.5" cy="85.9" rx="17.4" ry="13.1"/>
		</g>
		<g>
			<circle class="st0" cx="24.5" cy="124.5" r="24.5"/>
			<ellipse class="st1" cx="24.5" cy="137.1" rx="17.4" ry="11.9"/>
		</g>
		<g>
			<circle class="st0" cx="74.5" cy="124.5" r="24.5"/>
			<ellipse class="st1" cx="74.5" cy="137.8" rx="17.4" ry="11.2"/>
		</g>
		<g>
			<circle class="st0" cx="124.5" cy="124.5" r="24.5"/>
			<path class="st1" d="M141.8,138.9c0,5.6-9.5,10.1-17.3,10.1c-7.8,0.1-17.3-4.5-17.3-10.1c0-5.6,7.8-10.1,17.3-10.1
				S141.8,133.3,141.8,138.9z"/>
		</g>
		<g>
			<circle class="st0" cx="174.5" cy="124.5" r="24.5"/>
			<ellipse class="st1" cx="174.5" cy="139.8" rx="17.4" ry="9.2"/>
		</g>
		<g>
			<circle class="st0" cx="224.5" cy="124.5" r="24.5"/>
			<path class="st1" d="M224.5,132.3c-9.6,0-17.4,3.7-17.4,8.4c0,0.9,0.6,1.8,1.7,2.8c0.8,0.7,1.6,1.3,2.5,1.8
				c3.5,2.1,8.6,3.7,13.1,3.8c0.1,0,0.2,0,0.4,0c0.4,0,0.7,0,1.1,0c0.1,0,0.3,0,0.4,0c1.9-0.2,3.9-0.6,5.7-1.1
				c3.5-1.1,6.7-3.1,9.3-5.5c0.4-0.6,0.6-1.1,0.6-1.6C241.9,136,234.1,132.3,224.5,132.3z"/>
			<path class="st1" d="M231.1,100.9c-2.1-0.6-4.4-0.9-6.7-0.9c0,0,0,0,0,0c-2.3,0-4.5,0.3-6.7,0.9c1.6,0.1,4.1,0.2,6.8,0.2
				C227.1,101.1,229.5,101.1,231.1,100.9z"/>
		</g>
		<g>
			<circle class="st0" cx="24.5" cy="174.5" r="24.5"/>
			<path class="st1" d="M41.6,191.4c0-4.2-7.8-7.6-17.4-7.6c-9.6,0-17.4,3.4-17.4,7.6c0,0.1,0.1,0.2,0.2,0.4c1.1,1.2,2.4,2.2,3.8,3.1
				c2,1.3,4.6,2.6,7.7,3.4c0.2,0,0.3,0.1,0.5,0.1c0.3,0.1,0.6,0.1,0.9,0.2c0.4,0.1,0.8,0.1,1.2,0.2c0.3,0,0.6,0.1,0.9,0.1
				c0.2,0,0.5,0,0.8,0.1c0.4,0,0.9,0.1,1.4,0.1c0,0,0.1,0,0.1,0c5.3,0,9.9-1.7,13-3.6c1.1-0.7,2.1-1.4,3-2.2
				C41.1,192.4,41.6,191.8,41.6,191.4z"/>
			<path class="st1" d="M24.1,152.9c4.8,0,8.7-0.6,8.8-1.4c-2.4-0.9-4.9-1.4-7.6-1.4c-0.3,0-0.7,0-1,0c-3.1,0-6,0.6-8.7,1.7
				C16.3,152.4,19.8,152.9,24.1,152.9z"/>
		</g>
		<g>
			<circle class="st0" cx="74.5" cy="174.5" r="24.5"/>
			<path class="st1" d="M75.4,199c6.4-0.2,12.2-2.9,16.4-7.1c-0.8-3.4-8.2-6-17.3-6s-16.5,2.6-17.3,6c4.2,4.2,10,6.9,16.4,7.1
				c0.3,0,0.6,0,0.9,0S75.1,199,75.4,199z"/>
			<path class="st1" d="M74.4,153.3c4.8,0,8.8-0.7,8.8-1.6c0,0,0-0.1,0-0.1c-2.6-1-5.3-1.5-8.2-1.5c-0.2,0-0.4,0-0.6,0
				c0,0-0.1,0-0.1,0c-3,0-6,0.6-8.6,1.7C65.7,152.6,69.6,153.3,74.4,153.3z"/>
		</g>
		<g>
			<circle class="st0" cx="124.5" cy="174.5" r="24.5"/>
			<path class="st1" d="M141.5,192.2c-1.7-2.5-8.6-4.5-17-4.5c-8.3,0-15.3,1.9-17,4.5c4.4,4.2,10.4,6.8,16.9,6.8c0,0,0,0,0,0
				C131.1,199,137.1,196.4,141.5,192.2z"/>
			<path class="st1" d="M124.4,153.3c4.8,0,8.8-0.7,8.8-1.6c0,0,0-0.1,0-0.1c-2.6-1-5.3-1.5-8.2-1.6c-0.2,0-0.4,0-0.5,0
				c0,0-0.1,0-0.1,0c-3,0-5.9,0.6-8.6,1.7C115.7,152.6,119.6,153.3,124.4,153.3z"/>
		</g>
		<g>
			<circle class="st0" cx="174.5" cy="174.5" r="24.5"/>
			<path class="st1" d="M174.2,188.9c-7.7,0-14.2,1.5-16.5,3.5c4.3,4.1,10.2,6.6,16.6,6.6c0.3,0,0.5,0,0.8,0
				c6.1-0.2,11.6-2.5,15.8-6.3C189,190.5,182.2,188.9,174.2,188.9z"/>
			<path class="st1" d="M165.3,152.2c0,1.2,3.9,2.2,8.8,2.2c4.8,0,8.8-1,8.8-2.2c0-0.5-0.6-1-1.7-1.3c-1.3-0.4-2.6-0.6-3.9-0.8
				c-0.9-0.1-1.9-0.1-2.9-0.1c-3,0-6,0.6-8.6,1.7C165.4,151.8,165.3,152,165.3,152.2z"/>
		</g>
		<g>
			<circle class="st0" cx="224.5" cy="174.5" r="24.5"/>
			<path class="st1" d="M224.7,199c6,0,11.5-2.3,15.7-5.9c-2.7-1.5-8.8-2.6-15.9-2.6s-13.3,1.1-15.9,2.6c4.2,3.6,9.7,5.8,15.7,5.9
				c0.1,0,0.1,0,0.2,0S224.6,199,224.7,199z"/>
			<path class="st1" d="M215.6,153.1c0,1.7,3.9,3.1,8.8,3.1c4.8,0,8.8-1.4,8.8-3.1c0-1.6-3.4-2.9-7.8-3.1c0,0-0.1,0-0.1,0
				c-0.3,0-0.5,0-0.8,0c-1.5,0-3.1,0.2-4.5,0.4C217.3,151,215.6,152,215.6,153.1z"/>
		</g>
		<g>
			<circle class="st0" cx="24.5" cy="224.5" r="24.5"/>
			<path class="st1" d="M9.2,243.6c4.2,3.3,9.4,5.3,15.1,5.4c0.2,0,0.3,0,0.5,0c5.6-0.1,10.7-2,14.8-5.2c-2.9-1.1-8.7-1.9-15.4-1.9
				C17.8,241.8,12.2,242.6,9.2,243.6z"/>
			<path class="st1" d="M13.2,203.6c0,2,5,3.6,11.1,3.6s11.1-1.6,11.1-3.6c0-0.5-0.3-1-0.9-1.4c-2.7-1.2-5.6-2-8.7-2.1
				c-0.1,0-0.1,0-0.2,0c-0.2,0-0.4,0-0.6,0c-0.2,0-0.5,0-0.7,0c-3.8,0-7.4,0.9-10.6,2.5C13.4,202.8,13.2,203.2,13.2,203.6z"/>
		</g>
		<g>
			<circle class="st0" cx="74.5" cy="224.5" r="24.5"/>
			<path class="st1" d="M74.7,249c5.4,0,10.4-1.8,14.4-4.8c-3.1-0.8-8.4-1.4-14.5-1.4S63,243.4,60,244.2c4,3,9,4.7,14.4,4.8
				c0.1,0,0.1,0,0.2,0S74.6,249,74.7,249z"/>
			<path class="st1" d="M90.5,205.9c-4.2-3.6-9.7-5.9-15.8-5.9c-0.3,0-0.5,0-0.8,0c-5.7,0.1-10.9,2.2-15,5.6c2.3,1.7,8.6,2.8,16,2.8
				C81.9,208.5,87.8,207.4,90.5,205.9z"/>
		</g>
		<g>
			<circle class="st0" cx="124.5" cy="224.5" r="24.5"/>
			<path class="st1" d="M124.6,249c4.9,0,9.5-1.5,13.3-4c-3.2-0.5-8-0.9-13.4-0.9c-5.4,0-10.2,0.3-13.4,0.9c3.8,2.5,8.4,4,13.3,4
				c0.1,0,0.1,0,0.2,0C124.6,249,124.6,249,124.6,249z"/>
			<path class="st1" d="M124.9,210.3c7.7,0,14.3-1.6,16.3-3.7c-4.3-4-10.1-6.5-16.5-6.6c-0.4,0-0.7,0-1.1,0
				c-5.9,0.2-11.2,2.5-15.4,6.1C109.8,208.5,116.7,210.3,124.9,210.3z"/>
		</g>
		<g>
			<circle class="st0" cx="174.5" cy="224.5" r="24.5"/>
			<path class="st1" d="M174.6,249c4.6,0,8.8-1.3,12.4-3.5c-3.2-0.4-7.6-0.6-12.6-0.6s-9.4,0.2-12.6,0.6c3.6,2.2,7.9,3.5,12.4,3.5
				c0,0,0.1,0,0.1,0S174.6,249,174.6,249z"/>
			<path class="st1" d="M174.9,211.4c8.2,0,15-1.9,16.6-4.5c-4.4-4.2-10.3-6.8-16.8-6.9c-0.4,0-0.9,0-1.3,0
				c-5.9,0.3-11.3,2.6-15.4,6.3C159,209.2,166.2,211.4,174.9,211.4z"/>
		</g>
		<g>
			<circle class="st0" cx="224.5" cy="224.5" r="24.5"/>
			<path class="st1" d="M213.8,246.5c3.2,1.6,6.8,2.4,10.6,2.5c0.1,0,0.2,0,0.4,0c3.7,0,7.3-0.9,10.4-2.4c-3-0.2-6.9-0.3-11.1-0.3
				C220.2,246.3,216.6,246.4,213.8,246.5z"/>
			<path class="st1" d="M224.4,213.3c9.3,0,16.9-2.9,17-6.6c-4.2-4-9.9-6.5-16.1-6.7c-0.3,0-0.6,0-0.9,0c0,0-0.1,0-0.1,0
				c-6.6,0-12.5,2.7-16.9,6.9C207.8,210.5,215.2,213.3,224.4,213.3z"/>
		</g>
		<g>
			<circle class="st0" cx="24.5" cy="274.5" r="24.5"/>
			<path class="st1" d="M15.3,297.2c2.8,1.1,5.9,1.8,9.1,1.8c0.1,0,0.2,0,0.2,0c3.2,0,6.3-0.7,9.1-1.8c-2.7-0.1-5.9-0.2-9.4-0.2
				C21,297,17.9,297.1,15.3,297.2z"/>
			<path class="st1" d="M24.7,265.2c9.4,0,17-3.4,17-7.6c0-0.2,0-0.4-0.1-0.6c-4.4-4.3-10.4-6.9-17-7c-0.5,0-1,0-1.5,0
				c-5.8,0.3-11.1,2.7-15.2,6.4c-0.1,0.4-0.2,0.8-0.2,1.2C7.8,261.8,15.4,265.2,24.7,265.2z"/>
		</g>
		<g>
			<circle class="st0" cx="74.5" cy="274.5" r="24.5"/>
			<path class="st1" d="M74.6,299c2.7,0,5.2-0.5,7.6-1.3c-2.3,0-5-0.1-7.8-0.1s-5.4,0-7.8,0.1c2.4,0.8,5,1.2,7.6,1.3c0,0,0.1,0,0.1,0
				S74.6,299,74.6,299z"/>
			<path class="st1" d="M74.9,267c9.4,0,17-3.8,17-8.5c0-0.5-0.1-1.1-0.3-1.6c-4.4-4.2-10.3-6.8-16.8-6.9c-1,0-2,0.1-2.9,0.1
				c-4.8,0.5-9.3,2.5-12.8,5.4c-0.7,0.9-1.1,1.9-1.1,3C57.9,263.2,65.5,267,74.9,267z"/>
		</g>
		<g>
			<circle class="st0" cx="124.5" cy="274.5" r="24.5"/>
			<path class="st1" d="M124.6,299c2.3,0,4.5-0.3,6.5-0.9c-2,0-4.3,0-6.6,0c-2.4,0-4.6,0-6.7,0c2.1,0.6,4.3,0.9,6.5,0.9
				C124.4,299,124.5,299,124.6,299C124.5,299,124.6,299,124.6,299z"/>
			<path class="st1" d="M107.9,259.4c0,5.2,7.6,9.4,17,9.4s17-4.2,17-9.4c0-1.1-0.4-2.2-1-3.1c-4.3-3.9-9.9-6.2-16.1-6.3
				c-1.5,0-3,0.1-4.4,0.3c-3.5,0.6-6.7,1.9-9.6,3.8C109,255.7,107.9,257.5,107.9,259.4z"/>
		</g>
		<g>
			<circle class="st0" cx="174.5" cy="274.5" r="24.5"/>
			<ellipse class="st1" cx="174.5" cy="260.3" rx="17" ry="10.3"/>
		</g>
		<g>
			<circle class="st0" cx="224.5" cy="274.5" r="24.5"/>
			<ellipse class="st1" cx="224.5" cy="261.2" rx="17" ry="11.2"/>
		</g>
		<g>
			<circle class="st0" cx="24.5" cy="324.5" r="24.5"/>
			<ellipse class="st1" cx="24.5" cy="312.2" rx="17" ry="12.2"/>
		</g>
		<g>
			<circle class="st0" cx="74.5" cy="324.5" r="24.5"/>
			<ellipse class="st1" cx="74.5" cy="313.4" rx="17" ry="13.1"/>
		</g>
		<g>
			<circle class="st0" cx="124.5" cy="324.5" r="24.5"/>
			<ellipse class="st1" cx="124.5" cy="314.5" rx="17" ry="13.9"/>
		</g>
		<g>
			<circle class="st0" cx="174.5" cy="324.5" r="24.5"/>
			<ellipse class="st1" cx="174.5" cy="315.7" rx="17" ry="14.7"/>
		</g>
		<g>
			<circle class="st0" cx="224.5" cy="324.5" r="24.5"/>
			<ellipse class="st1" cx="224.5" cy="316.9" rx="17" ry="15.3"/>
		</g>
		<g>
			<circle class="st0" cx="24.5" cy="374.5" r="24.5"/>
			<ellipse class="st1" cx="24.5" cy="368" rx="17" ry="16"/>
		</g>
		<g>
			<circle class="st0" cx="74.5" cy="374.5" r="24.5"/>
			<ellipse class="st1" cx="74.5" cy="369.4" rx="17" ry="16.4"/>
		</g>
		<g>
			<circle class="st0" cx="124.5" cy="374.5" r="24.5"/>
			<ellipse class="st1" cx="124.5" cy="370.7" rx="17" ry="16.7"/>
		</g>
		<g>
			<circle class="st0" cx="174.5" cy="374.5" r="24.5"/>
			<circle class="st1" cx="174.5" cy="372" r="17"/>
		</g>
		<g>
			<circle class="st0" cx="224.5" cy="374.5" r="24.5"/>
			<ellipse class="st1" cx="224.5" cy="373.2" rx="17" ry="17.2"/>
		</g>
		<g>
			<circle class="st0" cx="24.5" cy="424.5" r="24.5"/>
			<ellipse class="st1" cx="24.5" cy="423.4" rx="17" ry="17.3"/>
		</g>
	</svg>

	<svg id="ball-sprite-sheet-12" viewBox="0 0 250 450" size="keep">
		<style type="text/css">
			.st0{fill:#e07;}
			.st1{fill:#fff;}
		</style>
		<g>
			<circle class="st0" cx="24.5" cy="24.5" r="24.5"/>
			<circle class="st1" cx="24.5" cy="24.5" r="17.4"/>
		</g>
		<g>
			<circle class="st0" cx="74.5" cy="24.5" r="24.5"/>
			<ellipse class="st1" cx="74.5" cy="26" rx="17.4" ry="16.8"/>
		</g>
		<g>
			<circle class="st0" cx="124.5" cy="24.5" r="24.5"/>
			<circle class="st1" cx="124.5" cy="27.6" r="17.4"/>
		</g>
		<g>
			<circle class="st0" cx="174.5" cy="24.5" r="24.5"/>
			<ellipse class="st1" cx="174.5" cy="28.6" rx="17.4" ry="16.8"/>
		</g>
		<g>
			<circle class="st0" cx="224.5" cy="24.5" r="24.5"/>
			<ellipse class="st1" cx="224.5" cy="29.9" rx="17.4" ry="16.6"/>
		</g>
		<g>
			<circle class="st0" cx="24.5" cy="74.5" r="24.5"/>
			<ellipse class="st1" cx="24.5" cy="81.2" rx="17.4" ry="15.9"/>
		</g>
		<g>
			<circle class="st0" cx="74.5" cy="74.5" r="24.5"/>
			<ellipse class="st1" cx="74.5" cy="82.7" rx="17.4" ry="15.5"/>
		</g>
		<g>
			<circle class="st0" cx="124.5" cy="74.5" r="24.5"/>
			<ellipse class="st1" cx="124.5" cy="83.4" rx="17.4" ry="14.8"/>
		</g>
		<g>
			<circle class="st0" cx="174.5" cy="74.5" r="24.5"/>
			<ellipse class="st1" cx="174.5" cy="84.7" rx="17.4" ry="13.9"/>
		</g>
		<g>
			<circle class="st0" cx="224.5" cy="74.5" r="24.5"/>
			<ellipse class="st1" cx="224.5" cy="85.9" rx="17.4" ry="13.1"/>
		</g>
		<g>
			<circle class="st0" cx="24.5" cy="124.5" r="24.5"/>
			<ellipse class="st1" cx="24.5" cy="137.1" rx="17.4" ry="11.9"/>
		</g>
		<g>
			<circle class="st0" cx="74.5" cy="124.5" r="24.5"/>
			<ellipse class="st1" cx="74.5" cy="137.8" rx="17.4" ry="11.2"/>
		</g>
		<g>
			<circle class="st0" cx="124.5" cy="124.5" r="24.5"/>
			<path class="st1" d="M141.8,138.9c0,5.6-9.5,10.1-17.3,10.1c-7.8,0.1-17.3-4.5-17.3-10.1c0-5.6,7.8-10.1,17.3-10.1
				S141.8,133.3,141.8,138.9z"/>
		</g>
		<g>
			<circle class="st0" cx="174.5" cy="124.5" r="24.5"/>
			<ellipse class="st1" cx="174.5" cy="139.8" rx="17.4" ry="9.2"/>
		</g>
		<g>
			<circle class="st0" cx="224.5" cy="124.5" r="24.5"/>
			<path class="st1" d="M224.5,132.3c-9.6,0-17.4,3.7-17.4,8.4c0,0.9,0.6,1.8,1.7,2.8c0.8,0.7,1.6,1.3,2.5,1.8
				c3.5,2.1,8.6,3.7,13.1,3.8c0.1,0,0.2,0,0.4,0c0.4,0,0.7,0,1.1,0c0.1,0,0.3,0,0.4,0c1.9-0.2,3.9-0.6,5.7-1.1
				c3.5-1.1,6.7-3.1,9.3-5.5c0.4-0.6,0.6-1.1,0.6-1.6C241.9,136,234.1,132.3,224.5,132.3z"/>
			<path class="st1" d="M231.1,100.9c-2.1-0.6-4.4-0.9-6.7-0.9c0,0,0,0,0,0c-2.3,0-4.5,0.3-6.7,0.9c1.6,0.1,4.1,0.2,6.8,0.2
				C227.1,101.1,229.5,101.1,231.1,100.9z"/>
		</g>
		<g>
			<circle class="st0" cx="24.5" cy="174.5" r="24.5"/>
			<path class="st1" d="M41.6,191.4c0-4.2-7.8-7.6-17.4-7.6c-9.6,0-17.4,3.4-17.4,7.6c0,0.1,0.1,0.2,0.2,0.4c1.1,1.2,2.4,2.2,3.8,3.1
				c2,1.3,4.6,2.6,7.7,3.4c0.2,0,0.3,0.1,0.5,0.1c0.3,0.1,0.6,0.1,0.9,0.2c0.4,0.1,0.8,0.1,1.2,0.2c0.3,0,0.6,0.1,0.9,0.1
				c0.2,0,0.5,0,0.8,0.1c0.4,0,0.9,0.1,1.4,0.1c0,0,0.1,0,0.1,0c5.3,0,9.9-1.7,13-3.6c1.1-0.7,2.1-1.4,3-2.2
				C41.1,192.4,41.6,191.8,41.6,191.4z"/>
			<path class="st1" d="M24.1,152.9c4.8,0,8.7-0.6,8.8-1.4c-2.4-0.9-4.9-1.4-7.6-1.4c-0.3,0-0.7,0-1,0c-3.1,0-6,0.6-8.7,1.7
				C16.3,152.4,19.8,152.9,24.1,152.9z"/>
		</g>
		<g>
			<circle class="st0" cx="74.5" cy="174.5" r="24.5"/>
			<path class="st1" d="M75.4,199c6.4-0.2,12.2-2.9,16.4-7.1c-0.8-3.4-8.2-6-17.3-6s-16.5,2.6-17.3,6c4.2,4.2,10,6.9,16.4,7.1
				c0.3,0,0.6,0,0.9,0S75.1,199,75.4,199z"/>
			<path class="st1" d="M74.4,153.3c4.8,0,8.8-0.7,8.8-1.6c0,0,0-0.1,0-0.1c-2.6-1-5.3-1.5-8.2-1.5c-0.2,0-0.4,0-0.6,0
				c0,0-0.1,0-0.1,0c-3,0-6,0.6-8.6,1.7C65.7,152.6,69.6,153.3,74.4,153.3z"/>
		</g>
		<g>
			<circle class="st0" cx="124.5" cy="174.5" r="24.5"/>
			<path class="st1" d="M141.5,192.2c-1.7-2.5-8.6-4.5-17-4.5c-8.3,0-15.3,1.9-17,4.5c4.4,4.2,10.4,6.8,16.9,6.8c0,0,0,0,0,0
				C131.1,199,137.1,196.4,141.5,192.2z"/>
			<path class="st1" d="M124.4,153.3c4.8,0,8.8-0.7,8.8-1.6c0,0,0-0.1,0-0.1c-2.6-1-5.3-1.5-8.2-1.6c-0.2,0-0.4,0-0.5,0
				c0,0-0.1,0-0.1,0c-3,0-5.9,0.6-8.6,1.7C115.7,152.6,119.6,153.3,124.4,153.3z"/>
		</g>
		<g>
			<circle class="st0" cx="174.5" cy="174.5" r="24.5"/>
			<path class="st1" d="M174.2,188.9c-7.7,0-14.2,1.5-16.5,3.5c4.3,4.1,10.2,6.6,16.6,6.6c0.3,0,0.5,0,0.8,0
				c6.1-0.2,11.6-2.5,15.8-6.3C189,190.5,182.2,188.9,174.2,188.9z"/>
			<path class="st1" d="M165.3,152.2c0,1.2,3.9,2.2,8.8,2.2c4.8,0,8.8-1,8.8-2.2c0-0.5-0.6-1-1.7-1.3c-1.3-0.4-2.6-0.6-3.9-0.8
				c-0.9-0.1-1.9-0.1-2.9-0.1c-3,0-6,0.6-8.6,1.7C165.4,151.8,165.3,152,165.3,152.2z"/>
		</g>
		<g>
			<circle class="st0" cx="224.5" cy="174.5" r="24.5"/>
			<path class="st1" d="M224.7,199c6,0,11.5-2.3,15.7-5.9c-2.7-1.5-8.8-2.6-15.9-2.6s-13.3,1.1-15.9,2.6c4.2,3.6,9.7,5.8,15.7,5.9
				c0.1,0,0.1,0,0.2,0S224.6,199,224.7,199z"/>
			<path class="st1" d="M215.6,153.1c0,1.7,3.9,3.1,8.8,3.1c4.8,0,8.8-1.4,8.8-3.1c0-1.6-3.4-2.9-7.8-3.1c0,0-0.1,0-0.1,0
				c-0.3,0-0.5,0-0.8,0c-1.5,0-3.1,0.2-4.5,0.4C217.3,151,215.6,152,215.6,153.1z"/>
		</g>
		<g>
			<circle class="st0" cx="24.5" cy="224.5" r="24.5"/>
			<path class="st1" d="M9.2,243.6c4.2,3.3,9.4,5.3,15.1,5.4c0.2,0,0.3,0,0.5,0c5.6-0.1,10.7-2,14.8-5.2c-2.9-1.1-8.7-1.9-15.4-1.9
				C17.8,241.8,12.2,242.6,9.2,243.6z"/>
			<path class="st1" d="M13.2,203.6c0,2,5,3.6,11.1,3.6s11.1-1.6,11.1-3.6c0-0.5-0.3-1-0.9-1.4c-2.7-1.2-5.6-2-8.7-2.1
				c-0.1,0-0.1,0-0.2,0c-0.2,0-0.4,0-0.6,0c-0.2,0-0.5,0-0.7,0c-3.8,0-7.4,0.9-10.6,2.5C13.4,202.8,13.2,203.2,13.2,203.6z"/>
		</g>
		<g>
			<circle class="st0" cx="74.5" cy="224.5" r="24.5"/>
			<path class="st1" d="M74.7,249c5.4,0,10.4-1.8,14.4-4.8c-3.1-0.8-8.4-1.4-14.5-1.4S63,243.4,60,244.2c4,3,9,4.7,14.4,4.8
				c0.1,0,0.1,0,0.2,0S74.6,249,74.7,249z"/>
			<path class="st1" d="M90.5,205.9c-4.2-3.6-9.7-5.9-15.8-5.9c-0.3,0-0.5,0-0.8,0c-5.7,0.1-10.9,2.2-15,5.6c2.3,1.7,8.6,2.8,16,2.8
				C81.9,208.5,87.8,207.4,90.5,205.9z"/>
		</g>
		<g>
			<circle class="st0" cx="124.5" cy="224.5" r="24.5"/>
			<path class="st1" d="M124.6,249c4.9,0,9.5-1.5,13.3-4c-3.2-0.5-8-0.9-13.4-0.9c-5.4,0-10.2,0.3-13.4,0.9c3.8,2.5,8.4,4,13.3,4
				c0.1,0,0.1,0,0.2,0C124.6,249,124.6,249,124.6,249z"/>
			<path class="st1" d="M124.9,210.3c7.7,0,14.3-1.6,16.3-3.7c-4.3-4-10.1-6.5-16.5-6.6c-0.4,0-0.7,0-1.1,0
				c-5.9,0.2-11.2,2.5-15.4,6.1C109.8,208.5,116.7,210.3,124.9,210.3z"/>
		</g>
		<g>
			<circle class="st0" cx="174.5" cy="224.5" r="24.5"/>
			<path class="st1" d="M174.6,249c4.6,0,8.8-1.3,12.4-3.5c-3.2-0.4-7.6-0.6-12.6-0.6s-9.4,0.2-12.6,0.6c3.6,2.2,7.9,3.5,12.4,3.5
				c0,0,0.1,0,0.1,0S174.6,249,174.6,249z"/>
			<path class="st1" d="M174.9,211.4c8.2,0,15-1.9,16.6-4.5c-4.4-4.2-10.3-6.8-16.8-6.9c-0.4,0-0.9,0-1.3,0
				c-5.9,0.3-11.3,2.6-15.4,6.3C159,209.2,166.2,211.4,174.9,211.4z"/>
		</g>
		<g>
			<circle class="st0" cx="224.5" cy="224.5" r="24.5"/>
			<path class="st1" d="M213.8,246.5c3.2,1.6,6.8,2.4,10.6,2.5c0.1,0,0.2,0,0.4,0c3.7,0,7.3-0.9,10.4-2.4c-3-0.2-6.9-0.3-11.1-0.3
				C220.2,246.3,216.6,246.4,213.8,246.5z"/>
			<path class="st1" d="M224.4,213.3c9.3,0,16.9-2.9,17-6.6c-4.2-4-9.9-6.5-16.1-6.7c-0.3,0-0.6,0-0.9,0c0,0-0.1,0-0.1,0
				c-6.6,0-12.5,2.7-16.9,6.9C207.8,210.5,215.2,213.3,224.4,213.3z"/>
		</g>
		<g>
			<circle class="st0" cx="24.5" cy="274.5" r="24.5"/>
			<path class="st1" d="M15.3,297.2c2.8,1.1,5.9,1.8,9.1,1.8c0.1,0,0.2,0,0.2,0c3.2,0,6.3-0.7,9.1-1.8c-2.7-0.1-5.9-0.2-9.4-0.2
				C21,297,17.9,297.1,15.3,297.2z"/>
			<path class="st1" d="M24.7,265.2c9.4,0,17-3.4,17-7.6c0-0.2,0-0.4-0.1-0.6c-4.4-4.3-10.4-6.9-17-7c-0.5,0-1,0-1.5,0
				c-5.8,0.3-11.1,2.7-15.2,6.4c-0.1,0.4-0.2,0.8-0.2,1.2C7.8,261.8,15.4,265.2,24.7,265.2z"/>
		</g>
		<g>
			<circle class="st0" cx="74.5" cy="274.5" r="24.5"/>
			<path class="st1" d="M74.6,299c2.7,0,5.2-0.5,7.6-1.3c-2.3,0-5-0.1-7.8-0.1s-5.4,0-7.8,0.1c2.4,0.8,5,1.2,7.6,1.3c0,0,0.1,0,0.1,0
				S74.6,299,74.6,299z"/>
			<path class="st1" d="M74.9,267c9.4,0,17-3.8,17-8.5c0-0.5-0.1-1.1-0.3-1.6c-4.4-4.2-10.3-6.8-16.8-6.9c-1,0-2,0.1-2.9,0.1
				c-4.8,0.5-9.3,2.5-12.8,5.4c-0.7,0.9-1.1,1.9-1.1,3C57.9,263.2,65.5,267,74.9,267z"/>
		</g>
		<g>
			<circle class="st0" cx="124.5" cy="274.5" r="24.5"/>
			<path class="st1" d="M124.6,299c2.3,0,4.5-0.3,6.5-0.9c-2,0-4.3,0-6.6,0c-2.4,0-4.6,0-6.7,0c2.1,0.6,4.3,0.9,6.5,0.9
				C124.4,299,124.5,299,124.6,299C124.5,299,124.6,299,124.6,299z"/>
			<path class="st1" d="M107.9,259.4c0,5.2,7.6,9.4,17,9.4s17-4.2,17-9.4c0-1.1-0.4-2.2-1-3.1c-4.3-3.9-9.9-6.2-16.1-6.3
				c-1.5,0-3,0.1-4.4,0.3c-3.5,0.6-6.7,1.9-9.6,3.8C109,255.7,107.9,257.5,107.9,259.4z"/>
		</g>
		<g>
			<circle class="st0" cx="174.5" cy="274.5" r="24.5"/>
			<ellipse class="st1" cx="174.5" cy="260.3" rx="17" ry="10.3"/>
		</g>
		<g>
			<circle class="st0" cx="224.5" cy="274.5" r="24.5"/>
			<ellipse class="st1" cx="224.5" cy="261.2" rx="17" ry="11.2"/>
		</g>
		<g>
			<circle class="st0" cx="24.5" cy="324.5" r="24.5"/>
			<ellipse class="st1" cx="24.5" cy="312.2" rx="17" ry="12.2"/>
		</g>
		<g>
			<circle class="st0" cx="74.5" cy="324.5" r="24.5"/>
			<ellipse class="st1" cx="74.5" cy="313.4" rx="17" ry="13.1"/>
		</g>
		<g>
			<circle class="st0" cx="124.5" cy="324.5" r="24.5"/>
			<ellipse class="st1" cx="124.5" cy="314.5" rx="17" ry="13.9"/>
		</g>
		<g>
			<circle class="st0" cx="174.5" cy="324.5" r="24.5"/>
			<ellipse class="st1" cx="174.5" cy="315.7" rx="17" ry="14.7"/>
		</g>
		<g>
			<circle class="st0" cx="224.5" cy="324.5" r="24.5"/>
			<ellipse class="st1" cx="224.5" cy="316.9" rx="17" ry="15.3"/>
		</g>
		<g>
			<circle class="st0" cx="24.5" cy="374.5" r="24.5"/>
			<ellipse class="st1" cx="24.5" cy="368" rx="17" ry="16"/>
		</g>
		<g>
			<circle class="st0" cx="74.5" cy="374.5" r="24.5"/>
			<ellipse class="st1" cx="74.5" cy="369.4" rx="17" ry="16.4"/>
		</g>
		<g>
			<circle class="st0" cx="124.5" cy="374.5" r="24.5"/>
			<ellipse class="st1" cx="124.5" cy="370.7" rx="17" ry="16.7"/>
		</g>
		<g>
			<circle class="st0" cx="174.5" cy="374.5" r="24.5"/>
			<circle class="st1" cx="174.5" cy="372" r="17"/>
		</g>
		<g>
			<circle class="st0" cx="224.5" cy="374.5" r="24.5"/>
			<ellipse class="st1" cx="224.5" cy="373.2" rx="17" ry="17.2"/>
		</g>
		<g>
			<circle class="st0" cx="24.5" cy="424.5" r="24.5"/>
			<ellipse class="st1" cx="24.5" cy="423.4" rx="17" ry="17.3"/>
		</g>
	</svg>

	<svg id="ball-sprite-sheet-13" viewBox="0 0 250 450" size="keep">
		<style type="text/css">
			.st0{fill:#e70;}
			.st1{fill:#fff;}
		</style>
		<g>
			<circle class="st0" cx="24.5" cy="24.5" r="24.5"/>
			<circle class="st1" cx="24.5" cy="24.5" r="17.4"/>
		</g>
		<g>
			<circle class="st0" cx="74.5" cy="24.5" r="24.5"/>
			<ellipse class="st1" cx="74.5" cy="26" rx="17.4" ry="16.8"/>
		</g>
		<g>
			<circle class="st0" cx="124.5" cy="24.5" r="24.5"/>
			<circle class="st1" cx="124.5" cy="27.6" r="17.4"/>
		</g>
		<g>
			<circle class="st0" cx="174.5" cy="24.5" r="24.5"/>
			<ellipse class="st1" cx="174.5" cy="28.6" rx="17.4" ry="16.8"/>
		</g>
		<g>
			<circle class="st0" cx="224.5" cy="24.5" r="24.5"/>
			<ellipse class="st1" cx="224.5" cy="29.9" rx="17.4" ry="16.6"/>
		</g>
		<g>
			<circle class="st0" cx="24.5" cy="74.5" r="24.5"/>
			<ellipse class="st1" cx="24.5" cy="81.2" rx="17.4" ry="15.9"/>
		</g>
		<g>
			<circle class="st0" cx="74.5" cy="74.5" r="24.5"/>
			<ellipse class="st1" cx="74.5" cy="82.7" rx="17.4" ry="15.5"/>
		</g>
		<g>
			<circle class="st0" cx="124.5" cy="74.5" r="24.5"/>
			<ellipse class="st1" cx="124.5" cy="83.4" rx="17.4" ry="14.8"/>
		</g>
		<g>
			<circle class="st0" cx="174.5" cy="74.5" r="24.5"/>
			<ellipse class="st1" cx="174.5" cy="84.7" rx="17.4" ry="13.9"/>
		</g>
		<g>
			<circle class="st0" cx="224.5" cy="74.5" r="24.5"/>
			<ellipse class="st1" cx="224.5" cy="85.9" rx="17.4" ry="13.1"/>
		</g>
		<g>
			<circle class="st0" cx="24.5" cy="124.5" r="24.5"/>
			<ellipse class="st1" cx="24.5" cy="137.1" rx="17.4" ry="11.9"/>
		</g>
		<g>
			<circle class="st0" cx="74.5" cy="124.5" r="24.5"/>
			<ellipse class="st1" cx="74.5" cy="137.8" rx="17.4" ry="11.2"/>
		</g>
		<g>
			<circle class="st0" cx="124.5" cy="124.5" r="24.5"/>
			<path class="st1" d="M141.8,138.9c0,5.6-9.5,10.1-17.3,10.1c-7.8,0.1-17.3-4.5-17.3-10.1c0-5.6,7.8-10.1,17.3-10.1
				S141.8,133.3,141.8,138.9z"/>
		</g>
		<g>
			<circle class="st0" cx="174.5" cy="124.5" r="24.5"/>
			<ellipse class="st1" cx="174.5" cy="139.8" rx="17.4" ry="9.2"/>
		</g>
		<g>
			<circle class="st0" cx="224.5" cy="124.5" r="24.5"/>
			<path class="st1" d="M224.5,132.3c-9.6,0-17.4,3.7-17.4,8.4c0,0.9,0.6,1.8,1.7,2.8c0.8,0.7,1.6,1.3,2.5,1.8
				c3.5,2.1,8.6,3.7,13.1,3.8c0.1,0,0.2,0,0.4,0c0.4,0,0.7,0,1.1,0c0.1,0,0.3,0,0.4,0c1.9-0.2,3.9-0.6,5.7-1.1
				c3.5-1.1,6.7-3.1,9.3-5.5c0.4-0.6,0.6-1.1,0.6-1.6C241.9,136,234.1,132.3,224.5,132.3z"/>
			<path class="st1" d="M231.1,100.9c-2.1-0.6-4.4-0.9-6.7-0.9c0,0,0,0,0,0c-2.3,0-4.5,0.3-6.7,0.9c1.6,0.1,4.1,0.2,6.8,0.2
				C227.1,101.1,229.5,101.1,231.1,100.9z"/>
		</g>
		<g>
			<circle class="st0" cx="24.5" cy="174.5" r="24.5"/>
			<path class="st1" d="M41.6,191.4c0-4.2-7.8-7.6-17.4-7.6c-9.6,0-17.4,3.4-17.4,7.6c0,0.1,0.1,0.2,0.2,0.4c1.1,1.2,2.4,2.2,3.8,3.1
				c2,1.3,4.6,2.6,7.7,3.4c0.2,0,0.3,0.1,0.5,0.1c0.3,0.1,0.6,0.1,0.9,0.2c0.4,0.1,0.8,0.1,1.2,0.2c0.3,0,0.6,0.1,0.9,0.1
				c0.2,0,0.5,0,0.8,0.1c0.4,0,0.9,0.1,1.4,0.1c0,0,0.1,0,0.1,0c5.3,0,9.9-1.7,13-3.6c1.1-0.7,2.1-1.4,3-2.2
				C41.1,192.4,41.6,191.8,41.6,191.4z"/>
			<path class="st1" d="M24.1,152.9c4.8,0,8.7-0.6,8.8-1.4c-2.4-0.9-4.9-1.4-7.6-1.4c-0.3,0-0.7,0-1,0c-3.1,0-6,0.6-8.7,1.7
				C16.3,152.4,19.8,152.9,24.1,152.9z"/>
		</g>
		<g>
			<circle class="st0" cx="74.5" cy="174.5" r="24.5"/>
			<path class="st1" d="M75.4,199c6.4-0.2,12.2-2.9,16.4-7.1c-0.8-3.4-8.2-6-17.3-6s-16.5,2.6-17.3,6c4.2,4.2,10,6.9,16.4,7.1
				c0.3,0,0.6,0,0.9,0S75.1,199,75.4,199z"/>
			<path class="st1" d="M74.4,153.3c4.8,0,8.8-0.7,8.8-1.6c0,0,0-0.1,0-0.1c-2.6-1-5.3-1.5-8.2-1.5c-0.2,0-0.4,0-0.6,0
				c0,0-0.1,0-0.1,0c-3,0-6,0.6-8.6,1.7C65.7,152.6,69.6,153.3,74.4,153.3z"/>
		</g>
		<g>
			<circle class="st0" cx="124.5" cy="174.5" r="24.5"/>
			<path class="st1" d="M141.5,192.2c-1.7-2.5-8.6-4.5-17-4.5c-8.3,0-15.3,1.9-17,4.5c4.4,4.2,10.4,6.8,16.9,6.8c0,0,0,0,0,0
				C131.1,199,137.1,196.4,141.5,192.2z"/>
			<path class="st1" d="M124.4,153.3c4.8,0,8.8-0.7,8.8-1.6c0,0,0-0.1,0-0.1c-2.6-1-5.3-1.5-8.2-1.6c-0.2,0-0.4,0-0.5,0
				c0,0-0.1,0-0.1,0c-3,0-5.9,0.6-8.6,1.7C115.7,152.6,119.6,153.3,124.4,153.3z"/>
		</g>
		<g>
			<circle class="st0" cx="174.5" cy="174.5" r="24.5"/>
			<path class="st1" d="M174.2,188.9c-7.7,0-14.2,1.5-16.5,3.5c4.3,4.1,10.2,6.6,16.6,6.6c0.3,0,0.5,0,0.8,0
				c6.1-0.2,11.6-2.5,15.8-6.3C189,190.5,182.2,188.9,174.2,188.9z"/>
			<path class="st1" d="M165.3,152.2c0,1.2,3.9,2.2,8.8,2.2c4.8,0,8.8-1,8.8-2.2c0-0.5-0.6-1-1.7-1.3c-1.3-0.4-2.6-0.6-3.9-0.8
				c-0.9-0.1-1.9-0.1-2.9-0.1c-3,0-6,0.6-8.6,1.7C165.4,151.8,165.3,152,165.3,152.2z"/>
		</g>
		<g>
			<circle class="st0" cx="224.5" cy="174.5" r="24.5"/>
			<path class="st1" d="M224.7,199c6,0,11.5-2.3,15.7-5.9c-2.7-1.5-8.8-2.6-15.9-2.6s-13.3,1.1-15.9,2.6c4.2,3.6,9.7,5.8,15.7,5.9
				c0.1,0,0.1,0,0.2,0S224.6,199,224.7,199z"/>
			<path class="st1" d="M215.6,153.1c0,1.7,3.9,3.1,8.8,3.1c4.8,0,8.8-1.4,8.8-3.1c0-1.6-3.4-2.9-7.8-3.1c0,0-0.1,0-0.1,0
				c-0.3,0-0.5,0-0.8,0c-1.5,0-3.1,0.2-4.5,0.4C217.3,151,215.6,152,215.6,153.1z"/>
		</g>
		<g>
			<circle class="st0" cx="24.5" cy="224.5" r="24.5"/>
			<path class="st1" d="M9.2,243.6c4.2,3.3,9.4,5.3,15.1,5.4c0.2,0,0.3,0,0.5,0c5.6-0.1,10.7-2,14.8-5.2c-2.9-1.1-8.7-1.9-15.4-1.9
				C17.8,241.8,12.2,242.6,9.2,243.6z"/>
			<path class="st1" d="M13.2,203.6c0,2,5,3.6,11.1,3.6s11.1-1.6,11.1-3.6c0-0.5-0.3-1-0.9-1.4c-2.7-1.2-5.6-2-8.7-2.1
				c-0.1,0-0.1,0-0.2,0c-0.2,0-0.4,0-0.6,0c-0.2,0-0.5,0-0.7,0c-3.8,0-7.4,0.9-10.6,2.5C13.4,202.8,13.2,203.2,13.2,203.6z"/>
		</g>
		<g>
			<circle class="st0" cx="74.5" cy="224.5" r="24.5"/>
			<path class="st1" d="M74.7,249c5.4,0,10.4-1.8,14.4-4.8c-3.1-0.8-8.4-1.4-14.5-1.4S63,243.4,60,244.2c4,3,9,4.7,14.4,4.8
				c0.1,0,0.1,0,0.2,0S74.6,249,74.7,249z"/>
			<path class="st1" d="M90.5,205.9c-4.2-3.6-9.7-5.9-15.8-5.9c-0.3,0-0.5,0-0.8,0c-5.7,0.1-10.9,2.2-15,5.6c2.3,1.7,8.6,2.8,16,2.8
				C81.9,208.5,87.8,207.4,90.5,205.9z"/>
		</g>
		<g>
			<circle class="st0" cx="124.5" cy="224.5" r="24.5"/>
			<path class="st1" d="M124.6,249c4.9,0,9.5-1.5,13.3-4c-3.2-0.5-8-0.9-13.4-0.9c-5.4,0-10.2,0.3-13.4,0.9c3.8,2.5,8.4,4,13.3,4
				c0.1,0,0.1,0,0.2,0C124.6,249,124.6,249,124.6,249z"/>
			<path class="st1" d="M124.9,210.3c7.7,0,14.3-1.6,16.3-3.7c-4.3-4-10.1-6.5-16.5-6.6c-0.4,0-0.7,0-1.1,0
				c-5.9,0.2-11.2,2.5-15.4,6.1C109.8,208.5,116.7,210.3,124.9,210.3z"/>
		</g>
		<g>
			<circle class="st0" cx="174.5" cy="224.5" r="24.5"/>
			<path class="st1" d="M174.6,249c4.6,0,8.8-1.3,12.4-3.5c-3.2-0.4-7.6-0.6-12.6-0.6s-9.4,0.2-12.6,0.6c3.6,2.2,7.9,3.5,12.4,3.5
				c0,0,0.1,0,0.1,0S174.6,249,174.6,249z"/>
			<path class="st1" d="M174.9,211.4c8.2,0,15-1.9,16.6-4.5c-4.4-4.2-10.3-6.8-16.8-6.9c-0.4,0-0.9,0-1.3,0
				c-5.9,0.3-11.3,2.6-15.4,6.3C159,209.2,166.2,211.4,174.9,211.4z"/>
		</g>
		<g>
			<circle class="st0" cx="224.5" cy="224.5" r="24.5"/>
			<path class="st1" d="M213.8,246.5c3.2,1.6,6.8,2.4,10.6,2.5c0.1,0,0.2,0,0.4,0c3.7,0,7.3-0.9,10.4-2.4c-3-0.2-6.9-0.3-11.1-0.3
				C220.2,246.3,216.6,246.4,213.8,246.5z"/>
			<path class="st1" d="M224.4,213.3c9.3,0,16.9-2.9,17-6.6c-4.2-4-9.9-6.5-16.1-6.7c-0.3,0-0.6,0-0.9,0c0,0-0.1,0-0.1,0
				c-6.6,0-12.5,2.7-16.9,6.9C207.8,210.5,215.2,213.3,224.4,213.3z"/>
		</g>
		<g>
			<circle class="st0" cx="24.5" cy="274.5" r="24.5"/>
			<path class="st1" d="M15.3,297.2c2.8,1.1,5.9,1.8,9.1,1.8c0.1,0,0.2,0,0.2,0c3.2,0,6.3-0.7,9.1-1.8c-2.7-0.1-5.9-0.2-9.4-0.2
				C21,297,17.9,297.1,15.3,297.2z"/>
			<path class="st1" d="M24.7,265.2c9.4,0,17-3.4,17-7.6c0-0.2,0-0.4-0.1-0.6c-4.4-4.3-10.4-6.9-17-7c-0.5,0-1,0-1.5,0
				c-5.8,0.3-11.1,2.7-15.2,6.4c-0.1,0.4-0.2,0.8-0.2,1.2C7.8,261.8,15.4,265.2,24.7,265.2z"/>
		</g>
		<g>
			<circle class="st0" cx="74.5" cy="274.5" r="24.5"/>
			<path class="st1" d="M74.6,299c2.7,0,5.2-0.5,7.6-1.3c-2.3,0-5-0.1-7.8-0.1s-5.4,0-7.8,0.1c2.4,0.8,5,1.2,7.6,1.3c0,0,0.1,0,0.1,0
				S74.6,299,74.6,299z"/>
			<path class="st1" d="M74.9,267c9.4,0,17-3.8,17-8.5c0-0.5-0.1-1.1-0.3-1.6c-4.4-4.2-10.3-6.8-16.8-6.9c-1,0-2,0.1-2.9,0.1
				c-4.8,0.5-9.3,2.5-12.8,5.4c-0.7,0.9-1.1,1.9-1.1,3C57.9,263.2,65.5,267,74.9,267z"/>
		</g>
		<g>
			<circle class="st0" cx="124.5" cy="274.5" r="24.5"/>
			<path class="st1" d="M124.6,299c2.3,0,4.5-0.3,6.5-0.9c-2,0-4.3,0-6.6,0c-2.4,0-4.6,0-6.7,0c2.1,0.6,4.3,0.9,6.5,0.9
				C124.4,299,124.5,299,124.6,299C124.5,299,124.6,299,124.6,299z"/>
			<path class="st1" d="M107.9,259.4c0,5.2,7.6,9.4,17,9.4s17-4.2,17-9.4c0-1.1-0.4-2.2-1-3.1c-4.3-3.9-9.9-6.2-16.1-6.3
				c-1.5,0-3,0.1-4.4,0.3c-3.5,0.6-6.7,1.9-9.6,3.8C109,255.7,107.9,257.5,107.9,259.4z"/>
		</g>
		<g>
			<circle class="st0" cx="174.5" cy="274.5" r="24.5"/>
			<ellipse class="st1" cx="174.5" cy="260.3" rx="17" ry="10.3"/>
		</g>
		<g>
			<circle class="st0" cx="224.5" cy="274.5" r="24.5"/>
			<ellipse class="st1" cx="224.5" cy="261.2" rx="17" ry="11.2"/>
		</g>
		<g>
			<circle class="st0" cx="24.5" cy="324.5" r="24.5"/>
			<ellipse class="st1" cx="24.5" cy="312.2" rx="17" ry="12.2"/>
		</g>
		<g>
			<circle class="st0" cx="74.5" cy="324.5" r="24.5"/>
			<ellipse class="st1" cx="74.5" cy="313.4" rx="17" ry="13.1"/>
		</g>
		<g>
			<circle class="st0" cx="124.5" cy="324.5" r="24.5"/>
			<ellipse class="st1" cx="124.5" cy="314.5" rx="17" ry="13.9"/>
		</g>
		<g>
			<circle class="st0" cx="174.5" cy="324.5" r="24.5"/>
			<ellipse class="st1" cx="174.5" cy="315.7" rx="17" ry="14.7"/>
		</g>
		<g>
			<circle class="st0" cx="224.5" cy="324.5" r="24.5"/>
			<ellipse class="st1" cx="224.5" cy="316.9" rx="17" ry="15.3"/>
		</g>
		<g>
			<circle class="st0" cx="24.5" cy="374.5" r="24.5"/>
			<ellipse class="st1" cx="24.5" cy="368" rx="17" ry="16"/>
		</g>
		<g>
			<circle class="st0" cx="74.5" cy="374.5" r="24.5"/>
			<ellipse class="st1" cx="74.5" cy="369.4" rx="17" ry="16.4"/>
		</g>
		<g>
			<circle class="st0" cx="124.5" cy="374.5" r="24.5"/>
			<ellipse class="st1" cx="124.5" cy="370.7" rx="17" ry="16.7"/>
		</g>
		<g>
			<circle class="st0" cx="174.5" cy="374.5" r="24.5"/>
			<circle class="st1" cx="174.5" cy="372" r="17"/>
		</g>
		<g>
			<circle class="st0" cx="224.5" cy="374.5" r="24.5"/>
			<ellipse class="st1" cx="224.5" cy="373.2" rx="17" ry="17.2"/>
		</g>
		<g>
			<circle class="st0" cx="24.5" cy="424.5" r="24.5"/>
			<ellipse class="st1" cx="24.5" cy="423.4" rx="17" ry="17.3"/>
		</g>
	</svg>

	<svg id="ball-sprite-sheet-14" viewBox="0 0 250 450" size="keep">
		<style type="text/css">
			.st0{fill:#070;}
			.st1{fill:#fff;}
		</style>
		<g>
			<circle class="st0" cx="24.5" cy="24.5" r="24.5"/>
			<circle class="st1" cx="24.5" cy="24.5" r="17.4"/>
		</g>
		<g>
			<circle class="st0" cx="74.5" cy="24.5" r="24.5"/>
			<ellipse class="st1" cx="74.5" cy="26" rx="17.4" ry="16.8"/>
		</g>
		<g>
			<circle class="st0" cx="124.5" cy="24.5" r="24.5"/>
			<circle class="st1" cx="124.5" cy="27.6" r="17.4"/>
		</g>
		<g>
			<circle class="st0" cx="174.5" cy="24.5" r="24.5"/>
			<ellipse class="st1" cx="174.5" cy="28.6" rx="17.4" ry="16.8"/>
		</g>
		<g>
			<circle class="st0" cx="224.5" cy="24.5" r="24.5"/>
			<ellipse class="st1" cx="224.5" cy="29.9" rx="17.4" ry="16.6"/>
		</g>
		<g>
			<circle class="st0" cx="24.5" cy="74.5" r="24.5"/>
			<ellipse class="st1" cx="24.5" cy="81.2" rx="17.4" ry="15.9"/>
		</g>
		<g>
			<circle class="st0" cx="74.5" cy="74.5" r="24.5"/>
			<ellipse class="st1" cx="74.5" cy="82.7" rx="17.4" ry="15.5"/>
		</g>
		<g>
			<circle class="st0" cx="124.5" cy="74.5" r="24.5"/>
			<ellipse class="st1" cx="124.5" cy="83.4" rx="17.4" ry="14.8"/>
		</g>
		<g>
			<circle class="st0" cx="174.5" cy="74.5" r="24.5"/>
			<ellipse class="st1" cx="174.5" cy="84.7" rx="17.4" ry="13.9"/>
		</g>
		<g>
			<circle class="st0" cx="224.5" cy="74.5" r="24.5"/>
			<ellipse class="st1" cx="224.5" cy="85.9" rx="17.4" ry="13.1"/>
		</g>
		<g>
			<circle class="st0" cx="24.5" cy="124.5" r="24.5"/>
			<ellipse class="st1" cx="24.5" cy="137.1" rx="17.4" ry="11.9"/>
		</g>
		<g>
			<circle class="st0" cx="74.5" cy="124.5" r="24.5"/>
			<ellipse class="st1" cx="74.5" cy="137.8" rx="17.4" ry="11.2"/>
		</g>
		<g>
			<circle class="st0" cx="124.5" cy="124.5" r="24.5"/>
			<path class="st1" d="M141.8,138.9c0,5.6-9.5,10.1-17.3,10.1c-7.8,0.1-17.3-4.5-17.3-10.1c0-5.6,7.8-10.1,17.3-10.1
				S141.8,133.3,141.8,138.9z"/>
		</g>
		<g>
			<circle class="st0" cx="174.5" cy="124.5" r="24.5"/>
			<ellipse class="st1" cx="174.5" cy="139.8" rx="17.4" ry="9.2"/>
		</g>
		<g>
			<circle class="st0" cx="224.5" cy="124.5" r="24.5"/>
			<path class="st1" d="M224.5,132.3c-9.6,0-17.4,3.7-17.4,8.4c0,0.9,0.6,1.8,1.7,2.8c0.8,0.7,1.6,1.3,2.5,1.8
				c3.5,2.1,8.6,3.7,13.1,3.8c0.1,0,0.2,0,0.4,0c0.4,0,0.7,0,1.1,0c0.1,0,0.3,0,0.4,0c1.9-0.2,3.9-0.6,5.7-1.1
				c3.5-1.1,6.7-3.1,9.3-5.5c0.4-0.6,0.6-1.1,0.6-1.6C241.9,136,234.1,132.3,224.5,132.3z"/>
			<path class="st1" d="M231.1,100.9c-2.1-0.6-4.4-0.9-6.7-0.9c0,0,0,0,0,0c-2.3,0-4.5,0.3-6.7,0.9c1.6,0.1,4.1,0.2,6.8,0.2
				C227.1,101.1,229.5,101.1,231.1,100.9z"/>
		</g>
		<g>
			<circle class="st0" cx="24.5" cy="174.5" r="24.5"/>
			<path class="st1" d="M41.6,191.4c0-4.2-7.8-7.6-17.4-7.6c-9.6,0-17.4,3.4-17.4,7.6c0,0.1,0.1,0.2,0.2,0.4c1.1,1.2,2.4,2.2,3.8,3.1
				c2,1.3,4.6,2.6,7.7,3.4c0.2,0,0.3,0.1,0.5,0.1c0.3,0.1,0.6,0.1,0.9,0.2c0.4,0.1,0.8,0.1,1.2,0.2c0.3,0,0.6,0.1,0.9,0.1
				c0.2,0,0.5,0,0.8,0.1c0.4,0,0.9,0.1,1.4,0.1c0,0,0.1,0,0.1,0c5.3,0,9.9-1.7,13-3.6c1.1-0.7,2.1-1.4,3-2.2
				C41.1,192.4,41.6,191.8,41.6,191.4z"/>
			<path class="st1" d="M24.1,152.9c4.8,0,8.7-0.6,8.8-1.4c-2.4-0.9-4.9-1.4-7.6-1.4c-0.3,0-0.7,0-1,0c-3.1,0-6,0.6-8.7,1.7
				C16.3,152.4,19.8,152.9,24.1,152.9z"/>
		</g>
		<g>
			<circle class="st0" cx="74.5" cy="174.5" r="24.5"/>
			<path class="st1" d="M75.4,199c6.4-0.2,12.2-2.9,16.4-7.1c-0.8-3.4-8.2-6-17.3-6s-16.5,2.6-17.3,6c4.2,4.2,10,6.9,16.4,7.1
				c0.3,0,0.6,0,0.9,0S75.1,199,75.4,199z"/>
			<path class="st1" d="M74.4,153.3c4.8,0,8.8-0.7,8.8-1.6c0,0,0-0.1,0-0.1c-2.6-1-5.3-1.5-8.2-1.5c-0.2,0-0.4,0-0.6,0
				c0,0-0.1,0-0.1,0c-3,0-6,0.6-8.6,1.7C65.7,152.6,69.6,153.3,74.4,153.3z"/>
		</g>
		<g>
			<circle class="st0" cx="124.5" cy="174.5" r="24.5"/>
			<path class="st1" d="M141.5,192.2c-1.7-2.5-8.6-4.5-17-4.5c-8.3,0-15.3,1.9-17,4.5c4.4,4.2,10.4,6.8,16.9,6.8c0,0,0,0,0,0
				C131.1,199,137.1,196.4,141.5,192.2z"/>
			<path class="st1" d="M124.4,153.3c4.8,0,8.8-0.7,8.8-1.6c0,0,0-0.1,0-0.1c-2.6-1-5.3-1.5-8.2-1.6c-0.2,0-0.4,0-0.5,0
				c0,0-0.1,0-0.1,0c-3,0-5.9,0.6-8.6,1.7C115.7,152.6,119.6,153.3,124.4,153.3z"/>
		</g>
		<g>
			<circle class="st0" cx="174.5" cy="174.5" r="24.5"/>
			<path class="st1" d="M174.2,188.9c-7.7,0-14.2,1.5-16.5,3.5c4.3,4.1,10.2,6.6,16.6,6.6c0.3,0,0.5,0,0.8,0
				c6.1-0.2,11.6-2.5,15.8-6.3C189,190.5,182.2,188.9,174.2,188.9z"/>
			<path class="st1" d="M165.3,152.2c0,1.2,3.9,2.2,8.8,2.2c4.8,0,8.8-1,8.8-2.2c0-0.5-0.6-1-1.7-1.3c-1.3-0.4-2.6-0.6-3.9-0.8
				c-0.9-0.1-1.9-0.1-2.9-0.1c-3,0-6,0.6-8.6,1.7C165.4,151.8,165.3,152,165.3,152.2z"/>
		</g>
		<g>
			<circle class="st0" cx="224.5" cy="174.5" r="24.5"/>
			<path class="st1" d="M224.7,199c6,0,11.5-2.3,15.7-5.9c-2.7-1.5-8.8-2.6-15.9-2.6s-13.3,1.1-15.9,2.6c4.2,3.6,9.7,5.8,15.7,5.9
				c0.1,0,0.1,0,0.2,0S224.6,199,224.7,199z"/>
			<path class="st1" d="M215.6,153.1c0,1.7,3.9,3.1,8.8,3.1c4.8,0,8.8-1.4,8.8-3.1c0-1.6-3.4-2.9-7.8-3.1c0,0-0.1,0-0.1,0
				c-0.3,0-0.5,0-0.8,0c-1.5,0-3.1,0.2-4.5,0.4C217.3,151,215.6,152,215.6,153.1z"/>
		</g>
		<g>
			<circle class="st0" cx="24.5" cy="224.5" r="24.5"/>
			<path class="st1" d="M9.2,243.6c4.2,3.3,9.4,5.3,15.1,5.4c0.2,0,0.3,0,0.5,0c5.6-0.1,10.7-2,14.8-5.2c-2.9-1.1-8.7-1.9-15.4-1.9
				C17.8,241.8,12.2,242.6,9.2,243.6z"/>
			<path class="st1" d="M13.2,203.6c0,2,5,3.6,11.1,3.6s11.1-1.6,11.1-3.6c0-0.5-0.3-1-0.9-1.4c-2.7-1.2-5.6-2-8.7-2.1
				c-0.1,0-0.1,0-0.2,0c-0.2,0-0.4,0-0.6,0c-0.2,0-0.5,0-0.7,0c-3.8,0-7.4,0.9-10.6,2.5C13.4,202.8,13.2,203.2,13.2,203.6z"/>
		</g>
		<g>
			<circle class="st0" cx="74.5" cy="224.5" r="24.5"/>
			<path class="st1" d="M74.7,249c5.4,0,10.4-1.8,14.4-4.8c-3.1-0.8-8.4-1.4-14.5-1.4S63,243.4,60,244.2c4,3,9,4.7,14.4,4.8
				c0.1,0,0.1,0,0.2,0S74.6,249,74.7,249z"/>
			<path class="st1" d="M90.5,205.9c-4.2-3.6-9.7-5.9-15.8-5.9c-0.3,0-0.5,0-0.8,0c-5.7,0.1-10.9,2.2-15,5.6c2.3,1.7,8.6,2.8,16,2.8
				C81.9,208.5,87.8,207.4,90.5,205.9z"/>
		</g>
		<g>
			<circle class="st0" cx="124.5" cy="224.5" r="24.5"/>
			<path class="st1" d="M124.6,249c4.9,0,9.5-1.5,13.3-4c-3.2-0.5-8-0.9-13.4-0.9c-5.4,0-10.2,0.3-13.4,0.9c3.8,2.5,8.4,4,13.3,4
				c0.1,0,0.1,0,0.2,0C124.6,249,124.6,249,124.6,249z"/>
			<path class="st1" d="M124.9,210.3c7.7,0,14.3-1.6,16.3-3.7c-4.3-4-10.1-6.5-16.5-6.6c-0.4,0-0.7,0-1.1,0
				c-5.9,0.2-11.2,2.5-15.4,6.1C109.8,208.5,116.7,210.3,124.9,210.3z"/>
		</g>
		<g>
			<circle class="st0" cx="174.5" cy="224.5" r="24.5"/>
			<path class="st1" d="M174.6,249c4.6,0,8.8-1.3,12.4-3.5c-3.2-0.4-7.6-0.6-12.6-0.6s-9.4,0.2-12.6,0.6c3.6,2.2,7.9,3.5,12.4,3.5
				c0,0,0.1,0,0.1,0S174.6,249,174.6,249z"/>
			<path class="st1" d="M174.9,211.4c8.2,0,15-1.9,16.6-4.5c-4.4-4.2-10.3-6.8-16.8-6.9c-0.4,0-0.9,0-1.3,0
				c-5.9,0.3-11.3,2.6-15.4,6.3C159,209.2,166.2,211.4,174.9,211.4z"/>
		</g>
		<g>
			<circle class="st0" cx="224.5" cy="224.5" r="24.5"/>
			<path class="st1" d="M213.8,246.5c3.2,1.6,6.8,2.4,10.6,2.5c0.1,0,0.2,0,0.4,0c3.7,0,7.3-0.9,10.4-2.4c-3-0.2-6.9-0.3-11.1-0.3
				C220.2,246.3,216.6,246.4,213.8,246.5z"/>
			<path class="st1" d="M224.4,213.3c9.3,0,16.9-2.9,17-6.6c-4.2-4-9.9-6.5-16.1-6.7c-0.3,0-0.6,0-0.9,0c0,0-0.1,0-0.1,0
				c-6.6,0-12.5,2.7-16.9,6.9C207.8,210.5,215.2,213.3,224.4,213.3z"/>
		</g>
		<g>
			<circle class="st0" cx="24.5" cy="274.5" r="24.5"/>
			<path class="st1" d="M15.3,297.2c2.8,1.1,5.9,1.8,9.1,1.8c0.1,0,0.2,0,0.2,0c3.2,0,6.3-0.7,9.1-1.8c-2.7-0.1-5.9-0.2-9.4-0.2
				C21,297,17.9,297.1,15.3,297.2z"/>
			<path class="st1" d="M24.7,265.2c9.4,0,17-3.4,17-7.6c0-0.2,0-0.4-0.1-0.6c-4.4-4.3-10.4-6.9-17-7c-0.5,0-1,0-1.5,0
				c-5.8,0.3-11.1,2.7-15.2,6.4c-0.1,0.4-0.2,0.8-0.2,1.2C7.8,261.8,15.4,265.2,24.7,265.2z"/>
		</g>
		<g>
			<circle class="st0" cx="74.5" cy="274.5" r="24.5"/>
			<path class="st1" d="M74.6,299c2.7,0,5.2-0.5,7.6-1.3c-2.3,0-5-0.1-7.8-0.1s-5.4,0-7.8,0.1c2.4,0.8,5,1.2,7.6,1.3c0,0,0.1,0,0.1,0
				S74.6,299,74.6,299z"/>
			<path class="st1" d="M74.9,267c9.4,0,17-3.8,17-8.5c0-0.5-0.1-1.1-0.3-1.6c-4.4-4.2-10.3-6.8-16.8-6.9c-1,0-2,0.1-2.9,0.1
				c-4.8,0.5-9.3,2.5-12.8,5.4c-0.7,0.9-1.1,1.9-1.1,3C57.9,263.2,65.5,267,74.9,267z"/>
		</g>
		<g>
			<circle class="st0" cx="124.5" cy="274.5" r="24.5"/>
			<path class="st1" d="M124.6,299c2.3,0,4.5-0.3,6.5-0.9c-2,0-4.3,0-6.6,0c-2.4,0-4.6,0-6.7,0c2.1,0.6,4.3,0.9,6.5,0.9
				C124.4,299,124.5,299,124.6,299C124.5,299,124.6,299,124.6,299z"/>
			<path class="st1" d="M107.9,259.4c0,5.2,7.6,9.4,17,9.4s17-4.2,17-9.4c0-1.1-0.4-2.2-1-3.1c-4.3-3.9-9.9-6.2-16.1-6.3
				c-1.5,0-3,0.1-4.4,0.3c-3.5,0.6-6.7,1.9-9.6,3.8C109,255.7,107.9,257.5,107.9,259.4z"/>
		</g>
		<g>
			<circle class="st0" cx="174.5" cy="274.5" r="24.5"/>
			<ellipse class="st1" cx="174.5" cy="260.3" rx="17" ry="10.3"/>
		</g>
		<g>
			<circle class="st0" cx="224.5" cy="274.5" r="24.5"/>
			<ellipse class="st1" cx="224.5" cy="261.2" rx="17" ry="11.2"/>
		</g>
		<g>
			<circle class="st0" cx="24.5" cy="324.5" r="24.5"/>
			<ellipse class="st1" cx="24.5" cy="312.2" rx="17" ry="12.2"/>
		</g>
		<g>
			<circle class="st0" cx="74.5" cy="324.5" r="24.5"/>
			<ellipse class="st1" cx="74.5" cy="313.4" rx="17" ry="13.1"/>
		</g>
		<g>
			<circle class="st0" cx="124.5" cy="324.5" r="24.5"/>
			<ellipse class="st1" cx="124.5" cy="314.5" rx="17" ry="13.9"/>
		</g>
		<g>
			<circle class="st0" cx="174.5" cy="324.5" r="24.5"/>
			<ellipse class="st1" cx="174.5" cy="315.7" rx="17" ry="14.7"/>
		</g>
		<g>
			<circle class="st0" cx="224.5" cy="324.5" r="24.5"/>
			<ellipse class="st1" cx="224.5" cy="316.9" rx="17" ry="15.3"/>
		</g>
		<g>
			<circle class="st0" cx="24.5" cy="374.5" r="24.5"/>
			<ellipse class="st1" cx="24.5" cy="368" rx="17" ry="16"/>
		</g>
		<g>
			<circle class="st0" cx="74.5" cy="374.5" r="24.5"/>
			<ellipse class="st1" cx="74.5" cy="369.4" rx="17" ry="16.4"/>
		</g>
		<g>
			<circle class="st0" cx="124.5" cy="374.5" r="24.5"/>
			<ellipse class="st1" cx="124.5" cy="370.7" rx="17" ry="16.7"/>
		</g>
		<g>
			<circle class="st0" cx="174.5" cy="374.5" r="24.5"/>
			<circle class="st1" cx="174.5" cy="372" r="17"/>
		</g>
		<g>
			<circle class="st0" cx="224.5" cy="374.5" r="24.5"/>
			<ellipse class="st1" cx="224.5" cy="373.2" rx="17" ry="17.2"/>
		</g>
		<g>
			<circle class="st0" cx="24.5" cy="424.5" r="24.5"/>
			<ellipse class="st1" cx="24.5" cy="423.4" rx="17" ry="17.3"/>
		</g>
	</svg>

	<svg id="ball-sprite-sheet-15" viewBox="0 0 250 450" size="keep">
		<style type="text/css">
			.st0{fill:#700;}
			.st1{fill:#fff;}
		</style>
		<g>
			<circle class="st0" cx="24.5" cy="24.5" r="24.5"/>
			<circle class="st1" cx="24.5" cy="24.5" r="17.4"/>
		</g>
		<g>
			<circle class="st0" cx="74.5" cy="24.5" r="24.5"/>
			<ellipse class="st1" cx="74.5" cy="26" rx="17.4" ry="16.8"/>
		</g>
		<g>
			<circle class="st0" cx="124.5" cy="24.5" r="24.5"/>
			<circle class="st1" cx="124.5" cy="27.6" r="17.4"/>
		</g>
		<g>
			<circle class="st0" cx="174.5" cy="24.5" r="24.5"/>
			<ellipse class="st1" cx="174.5" cy="28.6" rx="17.4" ry="16.8"/>
		</g>
		<g>
			<circle class="st0" cx="224.5" cy="24.5" r="24.5"/>
			<ellipse class="st1" cx="224.5" cy="29.9" rx="17.4" ry="16.6"/>
		</g>
		<g>
			<circle class="st0" cx="24.5" cy="74.5" r="24.5"/>
			<ellipse class="st1" cx="24.5" cy="81.2" rx="17.4" ry="15.9"/>
		</g>
		<g>
			<circle class="st0" cx="74.5" cy="74.5" r="24.5"/>
			<ellipse class="st1" cx="74.5" cy="82.7" rx="17.4" ry="15.5"/>
		</g>
		<g>
			<circle class="st0" cx="124.5" cy="74.5" r="24.5"/>
			<ellipse class="st1" cx="124.5" cy="83.4" rx="17.4" ry="14.8"/>
		</g>
		<g>
			<circle class="st0" cx="174.5" cy="74.5" r="24.5"/>
			<ellipse class="st1" cx="174.5" cy="84.7" rx="17.4" ry="13.9"/>
		</g>
		<g>
			<circle class="st0" cx="224.5" cy="74.5" r="24.5"/>
			<ellipse class="st1" cx="224.5" cy="85.9" rx="17.4" ry="13.1"/>
		</g>
		<g>
			<circle class="st0" cx="24.5" cy="124.5" r="24.5"/>
			<ellipse class="st1" cx="24.5" cy="137.1" rx="17.4" ry="11.9"/>
		</g>
		<g>
			<circle class="st0" cx="74.5" cy="124.5" r="24.5"/>
			<ellipse class="st1" cx="74.5" cy="137.8" rx="17.4" ry="11.2"/>
		</g>
		<g>
			<circle class="st0" cx="124.5" cy="124.5" r="24.5"/>
			<path class="st1" d="M141.8,138.9c0,5.6-9.5,10.1-17.3,10.1c-7.8,0.1-17.3-4.5-17.3-10.1c0-5.6,7.8-10.1,17.3-10.1
				S141.8,133.3,141.8,138.9z"/>
		</g>
		<g>
			<circle class="st0" cx="174.5" cy="124.5" r="24.5"/>
			<ellipse class="st1" cx="174.5" cy="139.8" rx="17.4" ry="9.2"/>
		</g>
		<g>
			<circle class="st0" cx="224.5" cy="124.5" r="24.5"/>
			<path class="st1" d="M224.5,132.3c-9.6,0-17.4,3.7-17.4,8.4c0,0.9,0.6,1.8,1.7,2.8c0.8,0.7,1.6,1.3,2.5,1.8
				c3.5,2.1,8.6,3.7,13.1,3.8c0.1,0,0.2,0,0.4,0c0.4,0,0.7,0,1.1,0c0.1,0,0.3,0,0.4,0c1.9-0.2,3.9-0.6,5.7-1.1
				c3.5-1.1,6.7-3.1,9.3-5.5c0.4-0.6,0.6-1.1,0.6-1.6C241.9,136,234.1,132.3,224.5,132.3z"/>
			<path class="st1" d="M231.1,100.9c-2.1-0.6-4.4-0.9-6.7-0.9c0,0,0,0,0,0c-2.3,0-4.5,0.3-6.7,0.9c1.6,0.1,4.1,0.2,6.8,0.2
				C227.1,101.1,229.5,101.1,231.1,100.9z"/>
		</g>
		<g>
			<circle class="st0" cx="24.5" cy="174.5" r="24.5"/>
			<path class="st1" d="M41.6,191.4c0-4.2-7.8-7.6-17.4-7.6c-9.6,0-17.4,3.4-17.4,7.6c0,0.1,0.1,0.2,0.2,0.4c1.1,1.2,2.4,2.2,3.8,3.1
				c2,1.3,4.6,2.6,7.7,3.4c0.2,0,0.3,0.1,0.5,0.1c0.3,0.1,0.6,0.1,0.9,0.2c0.4,0.1,0.8,0.1,1.2,0.2c0.3,0,0.6,0.1,0.9,0.1
				c0.2,0,0.5,0,0.8,0.1c0.4,0,0.9,0.1,1.4,0.1c0,0,0.1,0,0.1,0c5.3,0,9.9-1.7,13-3.6c1.1-0.7,2.1-1.4,3-2.2
				C41.1,192.4,41.6,191.8,41.6,191.4z"/>
			<path class="st1" d="M24.1,152.9c4.8,0,8.7-0.6,8.8-1.4c-2.4-0.9-4.9-1.4-7.6-1.4c-0.3,0-0.7,0-1,0c-3.1,0-6,0.6-8.7,1.7
				C16.3,152.4,19.8,152.9,24.1,152.9z"/>
		</g>
		<g>
			<circle class="st0" cx="74.5" cy="174.5" r="24.5"/>
			<path class="st1" d="M75.4,199c6.4-0.2,12.2-2.9,16.4-7.1c-0.8-3.4-8.2-6-17.3-6s-16.5,2.6-17.3,6c4.2,4.2,10,6.9,16.4,7.1
				c0.3,0,0.6,0,0.9,0S75.1,199,75.4,199z"/>
			<path class="st1" d="M74.4,153.3c4.8,0,8.8-0.7,8.8-1.6c0,0,0-0.1,0-0.1c-2.6-1-5.3-1.5-8.2-1.5c-0.2,0-0.4,0-0.6,0
				c0,0-0.1,0-0.1,0c-3,0-6,0.6-8.6,1.7C65.7,152.6,69.6,153.3,74.4,153.3z"/>
		</g>
		<g>
			<circle class="st0" cx="124.5" cy="174.5" r="24.5"/>
			<path class="st1" d="M141.5,192.2c-1.7-2.5-8.6-4.5-17-4.5c-8.3,0-15.3,1.9-17,4.5c4.4,4.2,10.4,6.8,16.9,6.8c0,0,0,0,0,0
				C131.1,199,137.1,196.4,141.5,192.2z"/>
			<path class="st1" d="M124.4,153.3c4.8,0,8.8-0.7,8.8-1.6c0,0,0-0.1,0-0.1c-2.6-1-5.3-1.5-8.2-1.6c-0.2,0-0.4,0-0.5,0
				c0,0-0.1,0-0.1,0c-3,0-5.9,0.6-8.6,1.7C115.7,152.6,119.6,153.3,124.4,153.3z"/>
		</g>
		<g>
			<circle class="st0" cx="174.5" cy="174.5" r="24.5"/>
			<path class="st1" d="M174.2,188.9c-7.7,0-14.2,1.5-16.5,3.5c4.3,4.1,10.2,6.6,16.6,6.6c0.3,0,0.5,0,0.8,0
				c6.1-0.2,11.6-2.5,15.8-6.3C189,190.5,182.2,188.9,174.2,188.9z"/>
			<path class="st1" d="M165.3,152.2c0,1.2,3.9,2.2,8.8,2.2c4.8,0,8.8-1,8.8-2.2c0-0.5-0.6-1-1.7-1.3c-1.3-0.4-2.6-0.6-3.9-0.8
				c-0.9-0.1-1.9-0.1-2.9-0.1c-3,0-6,0.6-8.6,1.7C165.4,151.8,165.3,152,165.3,152.2z"/>
		</g>
		<g>
			<circle class="st0" cx="224.5" cy="174.5" r="24.5"/>
			<path class="st1" d="M224.7,199c6,0,11.5-2.3,15.7-5.9c-2.7-1.5-8.8-2.6-15.9-2.6s-13.3,1.1-15.9,2.6c4.2,3.6,9.7,5.8,15.7,5.9
				c0.1,0,0.1,0,0.2,0S224.6,199,224.7,199z"/>
			<path class="st1" d="M215.6,153.1c0,1.7,3.9,3.1,8.8,3.1c4.8,0,8.8-1.4,8.8-3.1c0-1.6-3.4-2.9-7.8-3.1c0,0-0.1,0-0.1,0
				c-0.3,0-0.5,0-0.8,0c-1.5,0-3.1,0.2-4.5,0.4C217.3,151,215.6,152,215.6,153.1z"/>
		</g>
		<g>
			<circle class="st0" cx="24.5" cy="224.5" r="24.5"/>
			<path class="st1" d="M9.2,243.6c4.2,3.3,9.4,5.3,15.1,5.4c0.2,0,0.3,0,0.5,0c5.6-0.1,10.7-2,14.8-5.2c-2.9-1.1-8.7-1.9-15.4-1.9
				C17.8,241.8,12.2,242.6,9.2,243.6z"/>
			<path class="st1" d="M13.2,203.6c0,2,5,3.6,11.1,3.6s11.1-1.6,11.1-3.6c0-0.5-0.3-1-0.9-1.4c-2.7-1.2-5.6-2-8.7-2.1
				c-0.1,0-0.1,0-0.2,0c-0.2,0-0.4,0-0.6,0c-0.2,0-0.5,0-0.7,0c-3.8,0-7.4,0.9-10.6,2.5C13.4,202.8,13.2,203.2,13.2,203.6z"/>
		</g>
		<g>
			<circle class="st0" cx="74.5" cy="224.5" r="24.5"/>
			<path class="st1" d="M74.7,249c5.4,0,10.4-1.8,14.4-4.8c-3.1-0.8-8.4-1.4-14.5-1.4S63,243.4,60,244.2c4,3,9,4.7,14.4,4.8
				c0.1,0,0.1,0,0.2,0S74.6,249,74.7,249z"/>
			<path class="st1" d="M90.5,205.9c-4.2-3.6-9.7-5.9-15.8-5.9c-0.3,0-0.5,0-0.8,0c-5.7,0.1-10.9,2.2-15,5.6c2.3,1.7,8.6,2.8,16,2.8
				C81.9,208.5,87.8,207.4,90.5,205.9z"/>
		</g>
		<g>
			<circle class="st0" cx="124.5" cy="224.5" r="24.5"/>
			<path class="st1" d="M124.6,249c4.9,0,9.5-1.5,13.3-4c-3.2-0.5-8-0.9-13.4-0.9c-5.4,0-10.2,0.3-13.4,0.9c3.8,2.5,8.4,4,13.3,4
				c0.1,0,0.1,0,0.2,0C124.6,249,124.6,249,124.6,249z"/>
			<path class="st1" d="M124.9,210.3c7.7,0,14.3-1.6,16.3-3.7c-4.3-4-10.1-6.5-16.5-6.6c-0.4,0-0.7,0-1.1,0
				c-5.9,0.2-11.2,2.5-15.4,6.1C109.8,208.5,116.7,210.3,124.9,210.3z"/>
		</g>
		<g>
			<circle class="st0" cx="174.5" cy="224.5" r="24.5"/>
			<path class="st1" d="M174.6,249c4.6,0,8.8-1.3,12.4-3.5c-3.2-0.4-7.6-0.6-12.6-0.6s-9.4,0.2-12.6,0.6c3.6,2.2,7.9,3.5,12.4,3.5
				c0,0,0.1,0,0.1,0S174.6,249,174.6,249z"/>
			<path class="st1" d="M174.9,211.4c8.2,0,15-1.9,16.6-4.5c-4.4-4.2-10.3-6.8-16.8-6.9c-0.4,0-0.9,0-1.3,0
				c-5.9,0.3-11.3,2.6-15.4,6.3C159,209.2,166.2,211.4,174.9,211.4z"/>
		</g>
		<g>
			<circle class="st0" cx="224.5" cy="224.5" r="24.5"/>
			<path class="st1" d="M213.8,246.5c3.2,1.6,6.8,2.4,10.6,2.5c0.1,0,0.2,0,0.4,0c3.7,0,7.3-0.9,10.4-2.4c-3-0.2-6.9-0.3-11.1-0.3
				C220.2,246.3,216.6,246.4,213.8,246.5z"/>
			<path class="st1" d="M224.4,213.3c9.3,0,16.9-2.9,17-6.6c-4.2-4-9.9-6.5-16.1-6.7c-0.3,0-0.6,0-0.9,0c0,0-0.1,0-0.1,0
				c-6.6,0-12.5,2.7-16.9,6.9C207.8,210.5,215.2,213.3,224.4,213.3z"/>
		</g>
		<g>
			<circle class="st0" cx="24.5" cy="274.5" r="24.5"/>
			<path class="st1" d="M15.3,297.2c2.8,1.1,5.9,1.8,9.1,1.8c0.1,0,0.2,0,0.2,0c3.2,0,6.3-0.7,9.1-1.8c-2.7-0.1-5.9-0.2-9.4-0.2
				C21,297,17.9,297.1,15.3,297.2z"/>
			<path class="st1" d="M24.7,265.2c9.4,0,17-3.4,17-7.6c0-0.2,0-0.4-0.1-0.6c-4.4-4.3-10.4-6.9-17-7c-0.5,0-1,0-1.5,0
				c-5.8,0.3-11.1,2.7-15.2,6.4c-0.1,0.4-0.2,0.8-0.2,1.2C7.8,261.8,15.4,265.2,24.7,265.2z"/>
		</g>
		<g>
			<circle class="st0" cx="74.5" cy="274.5" r="24.5"/>
			<path class="st1" d="M74.6,299c2.7,0,5.2-0.5,7.6-1.3c-2.3,0-5-0.1-7.8-0.1s-5.4,0-7.8,0.1c2.4,0.8,5,1.2,7.6,1.3c0,0,0.1,0,0.1,0
				S74.6,299,74.6,299z"/>
			<path class="st1" d="M74.9,267c9.4,0,17-3.8,17-8.5c0-0.5-0.1-1.1-0.3-1.6c-4.4-4.2-10.3-6.8-16.8-6.9c-1,0-2,0.1-2.9,0.1
				c-4.8,0.5-9.3,2.5-12.8,5.4c-0.7,0.9-1.1,1.9-1.1,3C57.9,263.2,65.5,267,74.9,267z"/>
		</g>
		<g>
			<circle class="st0" cx="124.5" cy="274.5" r="24.5"/>
			<path class="st1" d="M124.6,299c2.3,0,4.5-0.3,6.5-0.9c-2,0-4.3,0-6.6,0c-2.4,0-4.6,0-6.7,0c2.1,0.6,4.3,0.9,6.5,0.9
				C124.4,299,124.5,299,124.6,299C124.5,299,124.6,299,124.6,299z"/>
			<path class="st1" d="M107.9,259.4c0,5.2,7.6,9.4,17,9.4s17-4.2,17-9.4c0-1.1-0.4-2.2-1-3.1c-4.3-3.9-9.9-6.2-16.1-6.3
				c-1.5,0-3,0.1-4.4,0.3c-3.5,0.6-6.7,1.9-9.6,3.8C109,255.7,107.9,257.5,107.9,259.4z"/>
		</g>
		<g>
			<circle class="st0" cx="174.5" cy="274.5" r="24.5"/>
			<ellipse class="st1" cx="174.5" cy="260.3" rx="17" ry="10.3"/>
		</g>
		<g>
			<circle class="st0" cx="224.5" cy="274.5" r="24.5"/>
			<ellipse class="st1" cx="224.5" cy="261.2" rx="17" ry="11.2"/>
		</g>
		<g>
			<circle class="st0" cx="24.5" cy="324.5" r="24.5"/>
			<ellipse class="st1" cx="24.5" cy="312.2" rx="17" ry="12.2"/>
		</g>
		<g>
			<circle class="st0" cx="74.5" cy="324.5" r="24.5"/>
			<ellipse class="st1" cx="74.5" cy="313.4" rx="17" ry="13.1"/>
		</g>
		<g>
			<circle class="st0" cx="124.5" cy="324.5" r="24.5"/>
			<ellipse class="st1" cx="124.5" cy="314.5" rx="17" ry="13.9"/>
		</g>
		<g>
			<circle class="st0" cx="174.5" cy="324.5" r="24.5"/>
			<ellipse class="st1" cx="174.5" cy="315.7" rx="17" ry="14.7"/>
		</g>
		<g>
			<circle class="st0" cx="224.5" cy="324.5" r="24.5"/>
			<ellipse class="st1" cx="224.5" cy="316.9" rx="17" ry="15.3"/>
		</g>
		<g>
			<circle class="st0" cx="24.5" cy="374.5" r="24.5"/>
			<ellipse class="st1" cx="24.5" cy="368" rx="17" ry="16"/>
		</g>
		<g>
			<circle class="st0" cx="74.5" cy="374.5" r="24.5"/>
			<ellipse class="st1" cx="74.5" cy="369.4" rx="17" ry="16.4"/>
		</g>
		<g>
			<circle class="st0" cx="124.5" cy="374.5" r="24.5"/>
			<ellipse class="st1" cx="124.5" cy="370.7" rx="17" ry="16.7"/>
		</g>
		<g>
			<circle class="st0" cx="174.5" cy="374.5" r="24.5"/>
			<circle class="st1" cx="174.5" cy="372" r="17"/>
		</g>
		<g>
			<circle class="st0" cx="224.5" cy="374.5" r="24.5"/>
			<ellipse class="st1" cx="224.5" cy="373.2" rx="17" ry="17.2"/>
		</g>
		<g>
			<circle class="st0" cx="24.5" cy="424.5" r="24.5"/>
			<ellipse class="st1" cx="24.5" cy="423.4" rx="17" ry="17.3"/>
		</g>
	</svg>

</svg>