<svg id="logo" viewBox="0 0 500 340">
<style type="text/css">
	.st0{fill:url(#SVGID_1_);}
	.st1{fill:url(#SVGID_2_);}
	.st2{fill:url(#SVGID_3_);stroke:#5E3C15;stroke-miterlimit:10;}
	.st3{fill:#7A3519;}
	.st4{fill:url(#SVGID_4_);}
	.st5{fill:#230F11;}
	.st6{fill:none;stroke:#7A3519;stroke-miterlimit:10;}
	.st7{fill:url(#SVGID_5_);}
	.st8{fill:url(#SVGID_6_);}
	.st9{fill:url(#SVGID_7_);stroke:#5E3C15;stroke-miterlimit:10;}
	.st10{fill:url(#SVGID_8_);}
	.st11{fill:url(#SVGID_9_);}
	.st12{fill:#D8BA28;}
	.st13{fill:#FFFFFF;}
	.st14{fill:url(#SVGID_10_);stroke:#161247;stroke-width:1.25;stroke-miterlimit:10;}
	.st15{fill:url(#SVGID_11_);stroke:#191647;stroke-width:0.5;stroke-miterlimit:10;}
	.st16{opacity:0.35;fill:#8686BC;}
	.st17{opacity:0.41;fill:url(#SVGID_12_);}
	.st18{opacity:0.51;fill:#FFFFFF;}
	.st19{fill:#E2E2E2;}
	.st20{opacity:0.6;fill:#32487C;}
	.st21{fill:url(#SVGID_13_);stroke:#431414;stroke-width:1.25;stroke-miterlimit:10;}
	.st22{opacity:0.63;fill:url(#SVGID_14_);stroke:#5E0A0B;stroke-width:0.5;stroke-miterlimit:10;}
	.st23{opacity:0.35;fill:#F6998D;}
	.st24{opacity:0.41;fill:url(#SVGID_15_);}
	.st25{opacity:0.6;fill:#A91F24;}
	.st26{fill:url(#SVGID_16_);stroke:#20421E;stroke-width:1.25;stroke-miterlimit:10;}
	.st27{opacity:0.63;fill:url(#SVGID_17_);stroke:#1E5C2E;stroke-width:0.5;stroke-miterlimit:10;}
	.st28{opacity:0.35;fill:#9DD087;}
	.st29{opacity:0.41;fill:url(#SVGID_18_);}
	.st30{opacity:0.6;fill:#15572C;}
	.st31{fill:url(#SVGID_19_);stroke:#795321;stroke-width:1.25;stroke-miterlimit:10;}
	.st32{opacity:0.63;fill:url(#SVGID_20_);stroke:#BE7B2A;stroke-width:0.5;stroke-miterlimit:10;}
	.st33{opacity:0.41;fill:url(#SVGID_21_);}
	.st34{opacity:0.6;fill:#723117;}
	.st35{fill:url(#SVGID_22_);stroke:#652A78;stroke-width:1.25;stroke-miterlimit:10;}
	.st36{opacity:0.63;fill:url(#SVGID_23_);stroke:#6A2772;stroke-width:0.5;stroke-miterlimit:10;}
	.st37{opacity:0.35;fill:#D294C1;}
	.st38{opacity:0.41;fill:url(#SVGID_24_);}
	.st39{opacity:0.6;fill:#6F1C56;}
	.st40{fill:url(#SVGID_25_);stroke:#000000;stroke-width:2;stroke-miterlimit:10;}
	.st41{fill:url(#SVGID_26_);stroke:#000000;stroke-width:0.5;stroke-miterlimit:10;}
	.st42{opacity:0.35;fill:#939393;}
	.st43{fill:#373440;}
	.st44{opacity:0.41;fill:url(#SVGID_27_);}
	.st45{fill:#0D0D0D;}
	.st46{fill:url(#SVGID_28_);stroke:#722F55;stroke-width:1.25;stroke-miterlimit:10;}
	.st47{fill:url(#SVGID_29_);stroke:#7F236A;stroke-width:0.5;stroke-miterlimit:10;}
	.st48{opacity:0.41;fill:url(#SVGID_30_);}
	.st49{opacity:0.6;fill:#963681;}
	.st50{fill:url(#SVGID_31_);stroke:#841536;stroke-width:0.75;stroke-miterlimit:10;}
	.st51{fill:url(#SVGID_32_);stroke:#841536;stroke-width:0.5;stroke-miterlimit:10;}
	.st52{opacity:0.41;fill:url(#SVGID_33_);}
	.st53{opacity:0.6;fill:#89181B;}
	.st54{fill:url(#SVGID_34_);stroke:#4B2C13;stroke-width:0.75;stroke-miterlimit:10;}
	.st55{fill:url(#SVGID_35_);stroke:#4B2C13;stroke-width:0.5;stroke-miterlimit:10;}
	.st56{opacity:0.35;fill:#F4D68E;}
	.st57{opacity:0.41;fill:url(#SVGID_36_);}
	.st58{opacity:0.6;fill:#2A110E;}
	.st59{fill:url(#SVGID_37_);stroke:#2C2F74;stroke-width:1.25;stroke-miterlimit:10;}
	.st60{opacity:0.63;fill:url(#SVGID_38_);stroke:#3F469C;stroke-width:0.5;stroke-miterlimit:10;}
	.st61{opacity:0.35;fill:#A39BCC;}
	.st62{opacity:0.41;fill:url(#SVGID_39_);}
	.st63{opacity:0.6;fill:#26235F;}
	.st64{fill:url(#SVGID_40_);stroke:#26225A;stroke-width:1.25;stroke-miterlimit:10;}
	.st65{fill:url(#SVGID_41_);stroke:#3E1B10;stroke-miterlimit:10;}
	.st66{fill:url(#SVGID_42_);stroke:#3E1B10;stroke-miterlimit:10;}
	.st67{fill:url(#SVGID_43_);stroke:#3E1B10;stroke-miterlimit:10;}
	.st68{fill:url(#SVGID_44_);stroke:#3E1B10;stroke-miterlimit:10;}
	.st69{fill:url(#SVGID_45_);stroke:#461D12;stroke-miterlimit:10;}
	.st70{fill:url(#SVGID_46_);stroke:#3E1B10;stroke-miterlimit:10;}
	.st71{fill:url(#SVGID_47_);}
	.st72{fill:url(#SVGID_48_);}
	.st73{fill:url(#SVGID_49_);}
	.st74{fill:url(#SVGID_50_);}
	.st75{fill:url(#SVGID_51_);}
	.st76{fill:url(#SVGID_52_);}
	.st77{fill:url(#SVGID_53_);}
	.st78{fill:url(#SVGID_54_);}
	.st79{fill:url(#SVGID_55_);}
	.st80{fill:url(#SVGID_56_);}
	.st81{fill:url(#SVGID_57_);}
	.st82{fill:url(#SVGID_58_);}
	.st83{fill:none;stroke:#F89C20;stroke-miterlimit:10;}
	.st84{fill:#FFEE99;}
	.st85{fill:#104C91;stroke:#172D55;stroke-miterlimit:10;}
	.st86{fill:#153055;}
	.st87{fill:#1B3663;}
	.st88{fill:url(#SVGID_59_);stroke:#000000;stroke-miterlimit:10;}
	.st89{fill:url(#SVGID_60_);}
	.st90{opacity:0.35;fill:url(#SVGID_61_);}
	.st91{fill:url(#SVGID_62_);}
	.st92{fill:#BCD6EA;stroke:#121B36;stroke-miterlimit:10;}
	.st93{fill:#DE222E;}
	.st94{fill:#1880C3;}
	.st95{fill:#1A4682;}
	.st96{fill:#172D55;}
	.st97{fill:#136DA0;}
</style>
<g id="Cue">
	<linearGradient id="SVGID_1_" gradientUnits="userSpaceOnUse" x1="264.1329" y1="161.2964" x2="253.9405" y2="177.3786">
		<stop  offset="0" style="stop-color:#8E3B1F"/>
		<stop  offset="3.726552e-02" style="stop-color:#8F3C1F"/>
		<stop  offset="5.068908e-02" style="stop-color:#914022"/>
		<stop  offset="6.026115e-02" style="stop-color:#954728"/>
		<stop  offset="6.800357e-02" style="stop-color:#9B5232"/>
		<stop  offset="7.463472e-02" style="stop-color:#A25F41"/>
		<stop  offset="8.050042e-02" style="stop-color:#AB6F54"/>
		<stop  offset="8.581319e-02" style="stop-color:#B6846D"/>
		<stop  offset="9.052802e-02" style="stop-color:#C29E8D"/>
		<stop  offset="9.477082e-02" style="stop-color:#D3C0B8"/>
		<stop  offset="0.1495" style="stop-color:#D3BEB6"/>
		<stop  offset="0.1716" style="stop-color:#D0BAB0"/>
		<stop  offset="0.1878" style="stop-color:#CDB2A5"/>
		<stop  offset="0.201" style="stop-color:#C8A896"/>
		<stop  offset="0.2072" style="stop-color:#C4A28D"/>
		<stop  offset="0.2425" style="stop-color:#C39F8B"/>
		<stop  offset="0.2613" style="stop-color:#BF9882"/>
		<stop  offset="0.2761" style="stop-color:#BA8E76"/>
		<stop  offset="0.289" style="stop-color:#B38066"/>
		<stop  offset="0.3005" style="stop-color:#AB6F52"/>
		<stop  offset="0.3109" style="stop-color:#A05B3B"/>
		<stop  offset="0.3158" style="stop-color:#9A5030"/>
		<stop  offset="0.3718" style="stop-color:#984E2E"/>
		<stop  offset="0.4188" style="stop-color:#90472A"/>
		<stop  offset="0.4201" style="stop-color:#904629"/>
		<stop  offset="0.443" style="stop-color:#8A4327"/>
		<stop  offset="0.4764" style="stop-color:#7C3922"/>
		<stop  offset="0.516" style="stop-color:#662A18"/>
		<stop  offset="0.5243" style="stop-color:#622615"/>
		<stop  offset="0.5935" style="stop-color:#501F13"/>
		<stop  offset="0.645" style="stop-color:#411810"/>
		<stop  offset="0.7713" style="stop-color:#270E0D"/>
		<stop  offset="0.8899" style="stop-color:#361612"/>
		<stop  offset="1" style="stop-color:#924F34"/>
	</linearGradient>
	<path class="st0" d="M33.7,16.8c10.4,6,451.7,285.2,457.8,289.3c6,4.1,2.5,12.4,1.1,13.7c-1.4,1.4-4.7,9.9-15.1,3.3
		C467,316.6,34.7,34.7,27.4,27.8C19.5,20.5,28.6,13.9,33.7,16.8z"/>
	<linearGradient id="SVGID_2_" gradientUnits="userSpaceOnUse" x1="471.7028" y1="320.3655" x2="484.1039" y2="301.1025">
		<stop  offset="0" style="stop-color:#E3A459"/>
		<stop  offset="2.464264e-02" style="stop-color:#E3A55A"/>
		<stop  offset="3.351930e-02" style="stop-color:#E4A860"/>
		<stop  offset="3.984661e-02" style="stop-color:#E7AE6A"/>
		<stop  offset="4.496329e-02" style="stop-color:#EAB777"/>
		<stop  offset="4.934433e-02" style="stop-color:#EEC388"/>
		<stop  offset="5.315328e-02" style="stop-color:#F4D29F"/>
		<stop  offset="5.644455e-02" style="stop-color:#FBE3BA"/>
		<stop  offset="9.789579e-02" style="stop-color:#F8E0B7"/>
		<stop  offset="0.1139" style="stop-color:#F0D6AD"/>
		<stop  offset="0.1254" style="stop-color:#E4C79E"/>
		<stop  offset="0.1349" style="stop-color:#D5B38B"/>
		<stop  offset="0.143" style="stop-color:#C39B75"/>
		<stop  offset="0.1503" style="stop-color:#AF815D"/>
		<stop  offset="0.1567" style="stop-color:#9A6744"/>
		<stop  offset="0.1599" style="stop-color:#8E5936"/>
		<stop  offset="0.1872" style="stop-color:#8C5836"/>
		<stop  offset="0.1992" style="stop-color:#865435"/>
		<stop  offset="0.2082" style="stop-color:#7C4E32"/>
		<stop  offset="0.2157" style="stop-color:#6E452F"/>
		<stop  offset="0.2223" style="stop-color:#5D3A2A"/>
		<stop  offset="0.2282" style="stop-color:#4A2C22"/>
		<stop  offset="0.2335" style="stop-color:#341C17"/>
		<stop  offset="0.2352" style="stop-color:#2C1411"/>
		<stop  offset="0.2709" style="stop-color:#2E1613"/>
		<stop  offset="0.2884" style="stop-color:#331A17"/>
		<stop  offset="0.302" style="stop-color:#3B221C"/>
		<stop  offset="0.3136" style="stop-color:#462C23"/>
		<stop  offset="0.3239" style="stop-color:#55372B"/>
		<stop  offset="0.3331" style="stop-color:#694634"/>
		<stop  offset="0.3416" style="stop-color:#83583D"/>
		<stop  offset="0.3417" style="stop-color:#83583D"/>
		<stop  offset="0.3934" style="stop-color:#855B3F"/>
		<stop  offset="0.4238" style="stop-color:#8D6245"/>
		<stop  offset="0.4487" style="stop-color:#9A704F"/>
		<stop  offset="0.4705" style="stop-color:#AE845F"/>
		<stop  offset="0.4902" style="stop-color:#CAA376"/>
		<stop  offset="0.4941" style="stop-color:#D4AD7D"/>
		<stop  offset="0.5178" style="stop-color:#D5AF7F"/>
		<stop  offset="0.5366" style="stop-color:#DBB687"/>
		<stop  offset="0.5536" style="stop-color:#E4C294"/>
		<stop  offset="0.5695" style="stop-color:#F2D5AA"/>
		<stop  offset="0.5715" style="stop-color:#F5D7AD"/>
		<stop  offset="0.7207" style="stop-color:#F6DAB1"/>
		<stop  offset="0.8096" style="stop-color:#F7DEB7"/>
		<stop  offset="0.8127" style="stop-color:#F8E2BD"/>
		<stop  offset="0.8173" style="stop-color:#F9EBCF"/>
		<stop  offset="0.8203" style="stop-color:#FAF3DF"/>
		<stop  offset="0.8648" style="stop-color:#FCF6E7"/>
		<stop  offset="0.9253" style="stop-color:#FFFFFB"/>
		<stop  offset="0.937" style="stop-color:#FBF0E1"/>
		<stop  offset="0.9617" style="stop-color:#F4D4A9"/>
		<stop  offset="0.9972" style="stop-color:#EAAB5A"/>
		<stop  offset="1" style="stop-color:#E9A754"/>
	</linearGradient>
	<path class="st1" d="M481.4,323.9c-8.3-4.3-16.5-10.3-19.6-12.6c-0.4-9.9,5.6-15,10.5-16.5c7.2,4.1,16.9,9.3,19.6,12.2
		c2.7,2.9,2.9,9.5,0,12.8C489,323.1,486.5,326.6,481.4,323.9z"/>
	
		<radialGradient id="SVGID_3_" cx="486.8916" cy="315.8011" r="10.9003" fx="486.2576" fy="313.6215" gradientUnits="userSpaceOnUse">
		<stop  offset="0" style="stop-color:#9B5635"/>
		<stop  offset="0.2283" style="stop-color:#79432D"/>
		<stop  offset="0.5414" style="stop-color:#532B21"/>
		<stop  offset="0.7772" style="stop-color:#3E1C17"/>
		<stop  offset="0.9066" style="stop-color:#361612"/>
	</radialGradient>
	<path class="st2" d="M492.3,308.4c-2.7-4.2-11,2.7-11.7,7c-0.7,4.3-0.6,9.6,4.5,9C490.2,323.8,496.2,314.6,492.3,308.4z"/>
	<path class="st3" d="M463.9,314.2c-0.5-1.8-0.5-5,1.6-9.3c2.6-5.2,6.1-8.3,11.1-8.9l1.8,1.8c-4.2,0.5-8.4,3.8-10.6,8.3
		c-1.8,3.5-2.5,7.7-1.3,9.9L463.9,314.2z"/>
	<linearGradient id="SVGID_4_" gradientUnits="userSpaceOnUse" x1="36.6363" y1="36.8816" x2="45.6009" y2="22.9567">
		<stop  offset="0" style="stop-color:#E3A459"/>
		<stop  offset="2.464264e-02" style="stop-color:#E3A55A"/>
		<stop  offset="3.351930e-02" style="stop-color:#E4A860"/>
		<stop  offset="3.984661e-02" style="stop-color:#E7AE6A"/>
		<stop  offset="4.496329e-02" style="stop-color:#EAB777"/>
		<stop  offset="4.934433e-02" style="stop-color:#EEC388"/>
		<stop  offset="5.315328e-02" style="stop-color:#F4D29F"/>
		<stop  offset="5.644455e-02" style="stop-color:#FBE3BA"/>
		<stop  offset="9.789579e-02" style="stop-color:#F8E0B7"/>
		<stop  offset="0.1139" style="stop-color:#F0D6AD"/>
		<stop  offset="0.1254" style="stop-color:#E4C79E"/>
		<stop  offset="0.1349" style="stop-color:#D5B38B"/>
		<stop  offset="0.143" style="stop-color:#C39B75"/>
		<stop  offset="0.1503" style="stop-color:#AF815D"/>
		<stop  offset="0.1567" style="stop-color:#9A6744"/>
		<stop  offset="0.1599" style="stop-color:#8E5936"/>
		<stop  offset="0.1872" style="stop-color:#8C5836"/>
		<stop  offset="0.1992" style="stop-color:#865435"/>
		<stop  offset="0.2082" style="stop-color:#7C4E32"/>
		<stop  offset="0.2157" style="stop-color:#6E452F"/>
		<stop  offset="0.2223" style="stop-color:#5D3A2A"/>
		<stop  offset="0.2282" style="stop-color:#4A2C22"/>
		<stop  offset="0.2335" style="stop-color:#341C17"/>
		<stop  offset="0.2352" style="stop-color:#2C1411"/>
		<stop  offset="0.2709" style="stop-color:#2E1613"/>
		<stop  offset="0.2884" style="stop-color:#331A17"/>
		<stop  offset="0.302" style="stop-color:#3B221C"/>
		<stop  offset="0.3136" style="stop-color:#462C23"/>
		<stop  offset="0.3239" style="stop-color:#55372B"/>
		<stop  offset="0.3331" style="stop-color:#694634"/>
		<stop  offset="0.3416" style="stop-color:#83583D"/>
		<stop  offset="0.3417" style="stop-color:#83583D"/>
		<stop  offset="0.3934" style="stop-color:#855B3F"/>
		<stop  offset="0.4238" style="stop-color:#8D6245"/>
		<stop  offset="0.4487" style="stop-color:#9A704F"/>
		<stop  offset="0.4705" style="stop-color:#AE845F"/>
		<stop  offset="0.4902" style="stop-color:#CAA376"/>
		<stop  offset="0.4941" style="stop-color:#D4AD7D"/>
		<stop  offset="0.5178" style="stop-color:#D5AF7F"/>
		<stop  offset="0.5366" style="stop-color:#DBB687"/>
		<stop  offset="0.5536" style="stop-color:#E4C294"/>
		<stop  offset="0.5695" style="stop-color:#F2D5AA"/>
		<stop  offset="0.5715" style="stop-color:#F5D7AD"/>
		<stop  offset="0.7207" style="stop-color:#F6DAB1"/>
		<stop  offset="0.8096" style="stop-color:#F7DEB7"/>
		<stop  offset="0.8127" style="stop-color:#F8E2BD"/>
		<stop  offset="0.8173" style="stop-color:#F9EBCF"/>
		<stop  offset="0.8203" style="stop-color:#FAF3DF"/>
		<stop  offset="0.8648" style="stop-color:#FCF6E7"/>
		<stop  offset="0.9253" style="stop-color:#FFFFFB"/>
		<stop  offset="0.937" style="stop-color:#FBF0E1"/>
		<stop  offset="0.9617" style="stop-color:#F4D4A9"/>
		<stop  offset="0.9972" style="stop-color:#EAAB5A"/>
		<stop  offset="1" style="stop-color:#E9A754"/>
	</linearGradient>
	<path class="st4" d="M45.1,40.6c-5.7-3.3-13-8.6-15.1-10.4c-0.3-7.7,4.4-10.5,7.8-11.6c5,3.2,11.7,7.7,14.3,9
		c5.7,2.7,1.4,3.2-1.6,7.7C47.4,39.8,48.6,42.7,45.1,40.6z"/>
	<path class="st5" d="M30.8,31.1c-0.2-3.2,1.1-10,8.4-11.2l1.5,0.7c-6.5,1.1-8.7,8.5-8.6,11.3L30.8,31.1z"/>
	<path class="st5" d="M43,39.5c-0.1-3.9,3.7-11.3,8.4-12.3l1,0.9c-3.7,0.8-8.5,8.3-8.4,12L43,39.5z"/>
	<path class="st6" d="M33.7,16.8c10.4,6,451.7,285.2,457.8,289.3c6,4.1,2.5,12.4,1.1,13.7c-1.4,1.4-4.7,9.9-15.1,3.3
		C467,316.6,34.7,34.7,27.4,27.8C19.5,20.5,28.6,13.9,33.7,16.8z"/>
</g>
<g id="Cue_1_">
	
		<linearGradient id="SVGID_5_" gradientUnits="userSpaceOnUse" x1="581.1329" y1="161.2964" x2="570.9405" y2="177.3786" gradientTransform="matrix(-1 0 0 1 814.9669 0)">
		<stop  offset="0" style="stop-color:#8E3B1F"/>
		<stop  offset="3.726552e-02" style="stop-color:#8F3C1F"/>
		<stop  offset="5.068908e-02" style="stop-color:#914022"/>
		<stop  offset="6.026115e-02" style="stop-color:#954728"/>
		<stop  offset="6.800357e-02" style="stop-color:#9B5232"/>
		<stop  offset="7.463472e-02" style="stop-color:#A25F41"/>
		<stop  offset="8.050042e-02" style="stop-color:#AB6F54"/>
		<stop  offset="8.581319e-02" style="stop-color:#B6846D"/>
		<stop  offset="9.052802e-02" style="stop-color:#C29E8D"/>
		<stop  offset="9.477082e-02" style="stop-color:#D3C0B8"/>
		<stop  offset="0.1495" style="stop-color:#D3BEB6"/>
		<stop  offset="0.1716" style="stop-color:#D0BAB0"/>
		<stop  offset="0.1878" style="stop-color:#CDB2A5"/>
		<stop  offset="0.201" style="stop-color:#C8A896"/>
		<stop  offset="0.2072" style="stop-color:#C4A28D"/>
		<stop  offset="0.2425" style="stop-color:#C39F8B"/>
		<stop  offset="0.2613" style="stop-color:#BF9882"/>
		<stop  offset="0.2761" style="stop-color:#BA8E76"/>
		<stop  offset="0.289" style="stop-color:#B38066"/>
		<stop  offset="0.3005" style="stop-color:#AB6F52"/>
		<stop  offset="0.3109" style="stop-color:#A05B3B"/>
		<stop  offset="0.3158" style="stop-color:#9A5030"/>
		<stop  offset="0.3718" style="stop-color:#984E2E"/>
		<stop  offset="0.4188" style="stop-color:#90472A"/>
		<stop  offset="0.4201" style="stop-color:#904629"/>
		<stop  offset="0.443" style="stop-color:#8A4327"/>
		<stop  offset="0.4764" style="stop-color:#7C3922"/>
		<stop  offset="0.516" style="stop-color:#662A18"/>
		<stop  offset="0.5243" style="stop-color:#622615"/>
		<stop  offset="0.5935" style="stop-color:#501F13"/>
		<stop  offset="0.645" style="stop-color:#411810"/>
		<stop  offset="0.7713" style="stop-color:#270E0D"/>
		<stop  offset="0.8899" style="stop-color:#361612"/>
		<stop  offset="1" style="stop-color:#924F34"/>
	</linearGradient>
	<path class="st7" d="M464.3,16.8c-10.4,6-451.7,285.2-457.8,289.3S4,318.5,5.4,319.9c1.4,1.4,4.7,9.9,15.1,3.3
		C31,316.6,463.2,34.7,470.6,27.8C478.4,20.5,469.4,13.9,464.3,16.8z"/>
	
		<linearGradient id="SVGID_6_" gradientUnits="userSpaceOnUse" x1="788.7028" y1="320.3655" x2="801.1039" y2="301.1025" gradientTransform="matrix(-1 0 0 1 814.9669 0)">
		<stop  offset="0" style="stop-color:#E3A459"/>
		<stop  offset="2.464264e-02" style="stop-color:#E3A55A"/>
		<stop  offset="3.351930e-02" style="stop-color:#E4A860"/>
		<stop  offset="3.984661e-02" style="stop-color:#E7AE6A"/>
		<stop  offset="4.496329e-02" style="stop-color:#EAB777"/>
		<stop  offset="4.934433e-02" style="stop-color:#EEC388"/>
		<stop  offset="5.315328e-02" style="stop-color:#F4D29F"/>
		<stop  offset="5.644455e-02" style="stop-color:#FBE3BA"/>
		<stop  offset="9.789579e-02" style="stop-color:#F8E0B7"/>
		<stop  offset="0.1139" style="stop-color:#F0D6AD"/>
		<stop  offset="0.1254" style="stop-color:#E4C79E"/>
		<stop  offset="0.1349" style="stop-color:#D5B38B"/>
		<stop  offset="0.143" style="stop-color:#C39B75"/>
		<stop  offset="0.1503" style="stop-color:#AF815D"/>
		<stop  offset="0.1567" style="stop-color:#9A6744"/>
		<stop  offset="0.1599" style="stop-color:#8E5936"/>
		<stop  offset="0.1872" style="stop-color:#8C5836"/>
		<stop  offset="0.1992" style="stop-color:#865435"/>
		<stop  offset="0.2082" style="stop-color:#7C4E32"/>
		<stop  offset="0.2157" style="stop-color:#6E452F"/>
		<stop  offset="0.2223" style="stop-color:#5D3A2A"/>
		<stop  offset="0.2282" style="stop-color:#4A2C22"/>
		<stop  offset="0.2335" style="stop-color:#341C17"/>
		<stop  offset="0.2352" style="stop-color:#2C1411"/>
		<stop  offset="0.2709" style="stop-color:#2E1613"/>
		<stop  offset="0.2884" style="stop-color:#331A17"/>
		<stop  offset="0.302" style="stop-color:#3B221C"/>
		<stop  offset="0.3136" style="stop-color:#462C23"/>
		<stop  offset="0.3239" style="stop-color:#55372B"/>
		<stop  offset="0.3331" style="stop-color:#694634"/>
		<stop  offset="0.3416" style="stop-color:#83583D"/>
		<stop  offset="0.3417" style="stop-color:#83583D"/>
		<stop  offset="0.3934" style="stop-color:#855B3F"/>
		<stop  offset="0.4238" style="stop-color:#8D6245"/>
		<stop  offset="0.4487" style="stop-color:#9A704F"/>
		<stop  offset="0.4705" style="stop-color:#AE845F"/>
		<stop  offset="0.4902" style="stop-color:#CAA376"/>
		<stop  offset="0.4941" style="stop-color:#D4AD7D"/>
		<stop  offset="0.5178" style="stop-color:#D5AF7F"/>
		<stop  offset="0.5366" style="stop-color:#DBB687"/>
		<stop  offset="0.5536" style="stop-color:#E4C294"/>
		<stop  offset="0.5695" style="stop-color:#F2D5AA"/>
		<stop  offset="0.5715" style="stop-color:#F5D7AD"/>
		<stop  offset="0.7207" style="stop-color:#F6DAB1"/>
		<stop  offset="0.8096" style="stop-color:#F7DEB7"/>
		<stop  offset="0.8127" style="stop-color:#F8E2BD"/>
		<stop  offset="0.8173" style="stop-color:#F9EBCF"/>
		<stop  offset="0.8203" style="stop-color:#FAF3DF"/>
		<stop  offset="0.8648" style="stop-color:#FCF6E7"/>
		<stop  offset="0.9253" style="stop-color:#FFFFFB"/>
		<stop  offset="0.937" style="stop-color:#FBF0E1"/>
		<stop  offset="0.9617" style="stop-color:#F4D4A9"/>
		<stop  offset="0.9972" style="stop-color:#EAAB5A"/>
		<stop  offset="1" style="stop-color:#E9A754"/>
	</linearGradient>
	<path class="st8" d="M16.6,323.9c8.3-4.3,16.5-10.3,19.6-12.6c0.4-9.9-5.6-15-10.5-16.5C18.4,299,8.8,304.1,6.1,307
		c-2.7,2.9-2.9,9.5,0,12.8C9,323.1,11.4,326.6,16.6,323.9z"/>
	
		<radialGradient id="SVGID_7_" cx="803.8916" cy="315.8011" r="10.9003" fx="803.2576" fy="313.6215" gradientTransform="matrix(-1 0 0 1 814.9669 0)" gradientUnits="userSpaceOnUse">
		<stop  offset="0" style="stop-color:#9B5635"/>
		<stop  offset="0.2283" style="stop-color:#79432D"/>
		<stop  offset="0.5414" style="stop-color:#532B21"/>
		<stop  offset="0.7772" style="stop-color:#3E1C17"/>
		<stop  offset="0.9066" style="stop-color:#361612"/>
	</radialGradient>
	<path class="st9" d="M5.7,308.4c2.7-4.2,11,2.7,11.7,7c0.7,4.3,0.6,9.6-4.5,9C7.7,323.8,1.8,314.6,5.7,308.4z"/>
	<path class="st3" d="M34.1,314.2c0.5-1.8,0.5-5-1.6-9.3c-2.6-5.2-6.1-8.3-11.1-8.9l-1.8,1.8c4.2,0.5,8.4,3.8,10.6,8.3
		c1.8,3.5,2.5,7.7,1.3,9.9L34.1,314.2z"/>
	
		<linearGradient id="SVGID_8_" gradientUnits="userSpaceOnUse" x1="353.6363" y1="36.8816" x2="362.6009" y2="22.9567" gradientTransform="matrix(-1 0 0 1 814.9669 0)">
		<stop  offset="0" style="stop-color:#E3A459"/>
		<stop  offset="2.464264e-02" style="stop-color:#E3A55A"/>
		<stop  offset="3.351930e-02" style="stop-color:#E4A860"/>
		<stop  offset="3.984661e-02" style="stop-color:#E7AE6A"/>
		<stop  offset="4.496329e-02" style="stop-color:#EAB777"/>
		<stop  offset="4.934433e-02" style="stop-color:#EEC388"/>
		<stop  offset="5.315328e-02" style="stop-color:#F4D29F"/>
		<stop  offset="5.644455e-02" style="stop-color:#FBE3BA"/>
		<stop  offset="9.789579e-02" style="stop-color:#F8E0B7"/>
		<stop  offset="0.1139" style="stop-color:#F0D6AD"/>
		<stop  offset="0.1254" style="stop-color:#E4C79E"/>
		<stop  offset="0.1349" style="stop-color:#D5B38B"/>
		<stop  offset="0.143" style="stop-color:#C39B75"/>
		<stop  offset="0.1503" style="stop-color:#AF815D"/>
		<stop  offset="0.1567" style="stop-color:#9A6744"/>
		<stop  offset="0.1599" style="stop-color:#8E5936"/>
		<stop  offset="0.1872" style="stop-color:#8C5836"/>
		<stop  offset="0.1992" style="stop-color:#865435"/>
		<stop  offset="0.2082" style="stop-color:#7C4E32"/>
		<stop  offset="0.2157" style="stop-color:#6E452F"/>
		<stop  offset="0.2223" style="stop-color:#5D3A2A"/>
		<stop  offset="0.2282" style="stop-color:#4A2C22"/>
		<stop  offset="0.2335" style="stop-color:#341C17"/>
		<stop  offset="0.2352" style="stop-color:#2C1411"/>
		<stop  offset="0.2709" style="stop-color:#2E1613"/>
		<stop  offset="0.2884" style="stop-color:#331A17"/>
		<stop  offset="0.302" style="stop-color:#3B221C"/>
		<stop  offset="0.3136" style="stop-color:#462C23"/>
		<stop  offset="0.3239" style="stop-color:#55372B"/>
		<stop  offset="0.3331" style="stop-color:#694634"/>
		<stop  offset="0.3416" style="stop-color:#83583D"/>
		<stop  offset="0.3417" style="stop-color:#83583D"/>
		<stop  offset="0.3934" style="stop-color:#855B3F"/>
		<stop  offset="0.4238" style="stop-color:#8D6245"/>
		<stop  offset="0.4487" style="stop-color:#9A704F"/>
		<stop  offset="0.4705" style="stop-color:#AE845F"/>
		<stop  offset="0.4902" style="stop-color:#CAA376"/>
		<stop  offset="0.4941" style="stop-color:#D4AD7D"/>
		<stop  offset="0.5178" style="stop-color:#D5AF7F"/>
		<stop  offset="0.5366" style="stop-color:#DBB687"/>
		<stop  offset="0.5536" style="stop-color:#E4C294"/>
		<stop  offset="0.5695" style="stop-color:#F2D5AA"/>
		<stop  offset="0.5715" style="stop-color:#F5D7AD"/>
		<stop  offset="0.7207" style="stop-color:#F6DAB1"/>
		<stop  offset="0.8096" style="stop-color:#F7DEB7"/>
		<stop  offset="0.8127" style="stop-color:#F8E2BD"/>
		<stop  offset="0.8173" style="stop-color:#F9EBCF"/>
		<stop  offset="0.8203" style="stop-color:#FAF3DF"/>
		<stop  offset="0.8648" style="stop-color:#FCF6E7"/>
		<stop  offset="0.9253" style="stop-color:#FFFFFB"/>
		<stop  offset="0.937" style="stop-color:#FBF0E1"/>
		<stop  offset="0.9617" style="stop-color:#F4D4A9"/>
		<stop  offset="0.9972" style="stop-color:#EAAB5A"/>
		<stop  offset="1" style="stop-color:#E9A754"/>
	</linearGradient>
	<path class="st10" d="M452.9,40.6c5.7-3.3,13-8.6,15.1-10.4c0.3-7.7-4.4-10.5-7.8-11.6c-5,3.2-11.7,7.7-14.3,9
		c-5.7,2.7-1.4,3.2,1.6,7.7C450.6,39.8,449.3,42.7,452.9,40.6z"/>
	<path class="st5" d="M467.1,31.1c0.2-3.2-1.1-10-8.4-11.2l-1.5,0.7c6.5,1.1,8.7,8.5,8.6,11.3L467.1,31.1z"/>
	<path class="st5" d="M455,39.5c0.1-3.9-3.7-11.3-8.4-12.3l-1,0.9c3.7,0.8,8.5,8.3,8.4,12L455,39.5z"/>
	<path class="st6" d="M464.3,16.8c-10.4,6-451.7,285.2-457.8,289.3S4,318.5,5.4,319.9c1.4,1.4,4.7,9.9,15.1,3.3
		C31,316.6,463.2,34.7,470.6,27.8C478.4,20.5,469.4,13.9,464.3,16.8z"/>
</g>
<g id="rack">
	<path class="st3" d="M249.5,11.9c14.8,0.5,20.6,9.5,30.9,19.8C290.7,42,451.9,189.1,457.3,199c5.4,9.9,13.2,49.5-82,19.4
		C247.6,178,94.2,228.7,81.4,229.1c-12.8,0.4-47-31.7-27.7-46.8c31-24.2,61.4-56.3,87.4-78.5s74.6-71.7,80-77.1
		S236.8,11.5,249.5,11.9z"/>
	<linearGradient id="SVGID_9_" gradientUnits="userSpaceOnUse" x1="249.152" y1="230.8263" x2="249.152" y2="18.6067">
		<stop  offset="0" style="stop-color:#000000"/>
		<stop  offset="0.3726" style="stop-color:#050505"/>
		<stop  offset="0.5069" style="stop-color:#171618"/>
		<stop  offset="0.6026" style="stop-color:#29282B"/>
		<stop  offset="0.68" style="stop-color:#37343B"/>
		<stop  offset="0.7463" style="stop-color:#3D3B45"/>
		<stop  offset="0.805" style="stop-color:#423E4E"/>
		<stop  offset="0.8581" style="stop-color:#433D55"/>
		<stop  offset="0.9069" style="stop-color:#403A5A"/>
		<stop  offset="0.9523" style="stop-color:#39325E"/>
		<stop  offset="0.9926" style="stop-color:#2A2561"/>
		<stop  offset="1" style="stop-color:#262262"/>
	</linearGradient>
	<path class="st11" d="M90.9,164c32.1-26,134-130.7,141-137.7s21.8-15.1,39.6,4.9c22.3,25.1,134.8,133.5,147.1,147.6
		s40.8,36.7,22.3,41.2c-18.5,4.5-269.1-36.7-329.7,2.1c-30.9,19.7-66.4,2.1-58.5-14S84.3,168.5,90.9,164z"/>
	<path class="st12" d="M50.7,204.4c-0.4-7.1,2.3-18.2,32.4-44.3c8.4-7.3,15.5-15.4,23.3-22.3c29.3-25.3,106.5-100.3,114.5-108.3
		c1-1,2-2.1,3-3c4.7-4.6,14.1-13.2,24.7-12.7c11.7,0.6,17.9,3.6,27.4,14.2c3.9,4.3,29,28.6,58.2,56.7c40.6,39.1,86.6,83.5,94.6,92.8
		l-4.7,4.1c-7.8-9.1-55.7-55.3-94.2-92.4c-29.2-28.2-53.3-52.6-57.4-57.1c-9.3-10.4-15.7-12.2-24.8-12.7
		c-7.8-0.4-12.4,4.3-19.3,11.4c-1,1-2,2-3,3.1c-8,8-85.4,83.2-113.3,108.9c-7.7,7.1-16.4,14.7-24.9,22
		c-16.2,14.1-40.6,35.3-40.6,40.4L50.7,204.4z"/>
	<path class="st13" d="M42.1,205.4c-0.4-6.5,15.6-20.9,42.1-43.9c8.4-7.3,16.9-15,24.8-21.9C140,112.3,214.6,39.3,222.2,30.8
		c1-1.1,2-2.1,3-3.1c7.2-7.4,12.9-13.2,22.7-12.7c11.3,0.6,17.5,3.9,26.7,14.2c3.9,4.4,30.1,30.6,59.3,58.7
		c40.6,39.1,85.5,81.5,93.5,90.8l-1.9,1.6c-7.9-9.2-53.8-53.4-94.3-92.5c-29.2-28.2-54.4-52.5-58.4-56.9c-8.7-9.8-14.3-12.8-25-13.3
		c-8.6-0.4-13.7,4.7-20.8,11.9c-1,1-2,2-3,3.1c-8,8-85.3,83.2-113.2,108.8c-7.7,7.1-16.4,14.6-24.8,22c-19.5,17-41.6,36.2-41.3,41.9
		L42.1,205.4z"/>
</g>
<g id="balls">
	<g id="_x32__ball">
		
			<radialGradient id="SVGID_10_" cx="249.1943" cy="51.2691" r="34.7037" fx="249.1539" fy="25.6371" gradientUnits="userSpaceOnUse">
			<stop  offset="0" style="stop-color:#5457A6"/>
			<stop  offset="1" style="stop-color:#091838"/>
		</radialGradient>
		<circle class="st14" cx="249.2" cy="51.3" r="27.3"/>
		
			<radialGradient id="SVGID_11_" cx="249.2684" cy="51.3931" r="24.9056" fx="249.5849" fy="31.9396" gradientUnits="userSpaceOnUse">
			<stop  offset="0" style="stop-color:#66B3E3"/>
			<stop  offset="1" style="stop-color:#04519D"/>
		</radialGradient>
		<circle class="st15" cx="249.3" cy="51.4" r="24.9"/>
		<ellipse class="st16" cx="249.5" cy="37.6" rx="17.2" ry="10.1"/>
		<ellipse class="st13" cx="249.2" cy="42.2" rx="10.1" ry="9.9"/>
		
			<radialGradient id="SVGID_12_" cx="233.4265" cy="39.0971" r="12.7121" fx="232.6312" fy="33.9198" gradientTransform="matrix(0.9973 7.328914e-02 -7.328914e-02 0.9973 8.0013 -17.0345)" gradientUnits="userSpaceOnUse">
			<stop  offset="0" style="stop-color:#FFFFFF"/>
			<stop  offset="1" style="stop-color:#FFFFFF;stop-opacity:0"/>
		</radialGradient>
		<path class="st17" d="M246.9,29.4c1.2,1.6-4.7,2.1-9.1,5.9c-7,6-9.7,11.4-9.7,11.4c-3.7-3.5,3.3-12.1,7.8-15.1
			C240.4,28.5,245.8,27.9,246.9,29.4z"/>
		<path class="st18" d="M250,28.6c0.3,0.9-3.5,0.5-7.2,1.9c-6,2.2-9.1,4.4-9.1,4.4c-1.4-2,5.3-5.4,8.9-6.4
			C246.2,27.6,249.7,27.8,250,28.6z"/>
		<path class="st19" d="M259.3,42.2c0,5.5-4.5,9.9-10.1,9.9c-5.6,0-8.5-4-8.7-4.9c0,0,3.3,4,11,2C257.7,47.5,259.3,36.7,259.3,42.2z
			"/>
		<path class="st20" d="M274.2,50c0.6,14.5-11.2,26.2-25,26.2c-13.8,0-21.4-10.1-23.7-17.5c0,0,8.9,12.1,27.9,6.5
			C270.7,60.1,273.7,39.6,274.2,50z"/>
		<g>
			<path d="M253.1,44.8v2.3h-7.7l3.7-4.7c0.4-0.5,0.7-0.9,0.8-1.3c0.2-0.4,0.3-0.7,0.3-1.1c0-0.4-0.1-0.6-0.4-0.9
				c-0.3-0.2-0.6-0.3-1-0.3c-0.3,0-0.6,0.1-0.8,0.3s-0.3,0.5-0.4,0.8l-2.2-1.4c0.5-0.8,1-1.3,1.6-1.6c0.6-0.3,1.2-0.4,2-0.4
				c0.6,0,1.3,0.1,1.8,0.4c0.5,0.3,1,0.7,1.3,1.2c0.3,0.5,0.5,1.1,0.5,1.8c0,0.5-0.1,0.9-0.2,1.4c-0.2,0.4-0.4,0.8-0.6,1.2
				c-0.2,0.3-0.5,0.7-0.8,1.1c-0.4,0.5-0.7,0.9-1,1.2H253.1z"/>
		</g>
	</g>
	<g id="_x33__ball">
		<radialGradient id="SVGID_13_" cx="218.4773" cy="82.466" r="36.937" fx="218.4343" fy="55.1844" gradientUnits="userSpaceOnUse">
			<stop  offset="0" style="stop-color:#F15F57"/>
			<stop  offset="1" style="stop-color:#481418"/>
		</radialGradient>
		<circle class="st21" cx="218.5" cy="82.5" r="29.1"/>
		<radialGradient id="SVGID_14_" cx="218.5561" cy="82.598" r="26.5084" fx="218.893" fy="61.8925" gradientUnits="userSpaceOnUse">
			<stop  offset="0" style="stop-color:#FBCFC9"/>
			<stop  offset="1" style="stop-color:#AB1F24"/>
		</radialGradient>
		<circle class="st22" cx="218.6" cy="82.6" r="26.5"/>
		<ellipse class="st23" cx="218.8" cy="67.9" rx="18.3" ry="10.7"/>
		<ellipse class="st13" cx="218.5" cy="72.8" rx="10.8" ry="10.5"/>
		
			<radialGradient id="SVGID_15_" cx="204.2982" cy="71.7312" r="13.5302" fx="203.4518" fy="66.2207" gradientTransform="matrix(0.9973 7.328914e-02 -7.328914e-02 0.9973 8.0013 -17.0345)" gradientUnits="userSpaceOnUse">
			<stop  offset="0" style="stop-color:#FFFFFF"/>
			<stop  offset="1" style="stop-color:#FFFFFF;stop-opacity:0"/>
		</radialGradient>
		<path class="st24" d="M216,59.2c1.3,1.7-5,2.2-9.6,6.2c-7.5,6.4-10.3,12.1-10.3,12.1c-4-3.7,3.5-12.9,8.3-16.1
			S214.8,57.6,216,59.2z"/>
		<path class="st18" d="M219.3,58.4c0.3,0.9-3.7,0.6-7.7,2c-6.4,2.3-9.7,4.7-9.7,4.7c-1.5-2.2,5.6-5.8,9.5-6.8
			C215.3,57.2,219,57.5,219.3,58.4z"/>
		<path class="st19" d="M229.2,72.8c0,5.8-4.8,10.5-10.8,10.5s-9-4.3-9.3-5.2c0,0,3.5,4.2,11.7,2.1C227.5,78.5,229.2,67,229.2,72.8z
			"/>
		<path class="st25" d="M245.1,81.2c0.7,15.4-11.9,27.9-26.6,27.9s-22.8-10.8-25.2-18.7c0,0,9.5,12.9,29.7,6.9
			C241.4,91.8,244.6,70.1,245.1,81.2z"/>
		<path d="M214.1,68.7c0.5-0.8,1.1-1.4,1.9-1.7c0.8-0.4,1.6-0.6,2.5-0.6c0.7,0,1.4,0.1,1.9,0.4c0.6,0.3,1.1,0.7,1.4,1.2
			c0.4,0.6,0.5,1.2,0.5,1.9c0,0.5-0.1,0.9-0.3,1.3c-0.2,0.4-0.5,0.7-0.9,1.1c0.3,0.2,0.7,0.4,0.9,0.7c0.3,0.3,0.4,0.6,0.6,1
			c0.1,0.4,0.2,0.7,0.2,1.1c0,0.7-0.1,1.3-0.4,1.8c-0.3,0.5-0.6,0.9-1.1,1.2c-0.5,0.3-1,0.6-1.5,0.7c-0.6,0.1-1.2,0.2-1.8,0.2
			c-0.5,0-1-0.1-1.5-0.2c-0.5-0.2-1-0.4-1.5-0.7c-0.5-0.3-0.9-0.6-1.2-1l2-2c0.3,0.4,0.7,0.7,1,0.9c0.3,0.2,0.7,0.3,1.2,0.3
			c0.5,0,0.9-0.1,1.2-0.4c0.3-0.2,0.5-0.6,0.5-1.1s-0.2-0.8-0.5-1c-0.3-0.2-0.8-0.2-1.4-0.2h-0.5c-0.1,0-0.1,0-0.2,0h-0.1l-0.1,0
			v-2.1c0.1,0,0.3,0,0.4,0h0.2l0.2,0c0.3,0,0.6,0,0.9-0.1c0.3-0.1,0.5-0.2,0.6-0.4c0.2-0.2,0.2-0.4,0.2-0.8c0-0.5-0.1-0.8-0.4-1
			c-0.3-0.2-0.6-0.3-1.1-0.3c-0.2,0-0.4,0-0.6,0.1c-0.1,0.1-0.3,0.1-0.4,0.2c-0.1,0.1-0.3,0.2-0.5,0.4c0,0-0.1,0.1-0.1,0.1
			c0,0-0.1,0.1-0.1,0.1c-0.1,0.1-0.2,0.1-0.2,0.2L214.1,68.7z"/>
	</g>
	<g id="_x36__ball">
		<radialGradient id="SVGID_16_" cx="279.6257" cy="82.466" r="36.937" fx="279.5827" fy="55.1844" gradientUnits="userSpaceOnUse">
			<stop  offset="0" style="stop-color:#58BA51"/>
			<stop  offset="1" style="stop-color:#0D351E"/>
		</radialGradient>
		<circle class="st26" cx="279.6" cy="82.5" r="29.1"/>
		
			<radialGradient id="SVGID_17_" cx="279.7046" cy="82.598" r="26.5084" fx="280.0414" fy="61.8925" gradientUnits="userSpaceOnUse">
			<stop  offset="0" style="stop-color:#BCDEAB"/>
			<stop  offset="1" style="stop-color:#0E522B"/>
		</radialGradient>
		<circle class="st27" cx="279.7" cy="82.6" r="26.5"/>
		<ellipse class="st28" cx="280" cy="67.9" rx="18.3" ry="10.7"/>
		<ellipse class="st13" cx="279.6" cy="72.8" rx="10.8" ry="10.5"/>
		
			<radialGradient id="SVGID_18_" cx="265.2822" cy="67.2497" r="13.5302" fx="264.4357" fy="61.7392" gradientTransform="matrix(0.9973 7.328914e-02 -7.328914e-02 0.9973 8.0013 -17.0345)" gradientUnits="userSpaceOnUse">
			<stop  offset="0" style="stop-color:#FFFFFF"/>
			<stop  offset="1" style="stop-color:#FFFFFF;stop-opacity:0"/>
		</radialGradient>
		<path class="st29" d="M277.1,59.2c1.3,1.7-5,2.2-9.6,6.2c-7.5,6.4-10.3,12.1-10.3,12.1c-4-3.7,3.5-12.9,8.3-16.1
			S276,57.6,277.1,59.2z"/>
		<path class="st18" d="M280.5,58.4c0.3,0.9-3.7,0.6-7.7,2c-6.4,2.3-9.7,4.7-9.7,4.7c-1.5-2.2,5.6-5.8,9.5-6.8
			S280.2,57.5,280.5,58.4z"/>
		<path class="st19" d="M290.4,72.8c0,5.8-4.8,10.5-10.8,10.5c-5.9,0-9-4.3-9.3-5.2c0,0,3.5,4.2,11.7,2.1
			C288.7,78.5,290.4,67,290.4,72.8z"/>
		<path class="st30" d="M306.2,81.2c0.7,15.4-11.9,27.9-26.6,27.9c-14.7,0-22.8-10.8-25.2-18.7c0,0,9.5,12.9,29.7,6.9
			C302.5,91.8,305.7,70.1,306.2,81.2z"/>
		<path d="M283.1,66.4c-1.1,1.1-2,2-2.5,2.6c-0.6,0.6-1,1.2-1.5,1.8l0,0c0.3-0.1,0.6-0.2,1-0.2c0.7,0,1.4,0.2,1.9,0.5
			c0.6,0.4,1,0.9,1.3,1.5c0.3,0.6,0.4,1.3,0.4,2c0,0.9-0.2,1.7-0.5,2.3c-0.4,0.7-0.9,1.2-1.6,1.6c-0.7,0.4-1.4,0.6-2.3,0.6
			c-0.9,0-1.7-0.2-2.4-0.6c-0.7-0.4-1.2-0.9-1.6-1.6c-0.4-0.7-0.6-1.5-0.6-2.4c0-1.4,0.4-2.8,1.3-4.1c0.8-1.3,1.9-2.6,3.4-4
			L283.1,66.4z M277.8,75.6c0.1,0.3,0.3,0.5,0.6,0.6c0.3,0.2,0.5,0.2,0.8,0.2c0.4,0,0.8-0.2,1.1-0.5c0.3-0.3,0.5-0.7,0.5-1.2
			c0-0.3-0.1-0.6-0.2-0.9s-0.3-0.5-0.6-0.6c-0.2-0.2-0.5-0.2-0.8-0.2c-0.5,0-0.9,0.2-1.2,0.5c-0.3,0.3-0.5,0.7-0.5,1.2
			C277.6,75,277.7,75.3,277.8,75.6z"/>
	</g>
	<g id="_x39__ball">
		
			<radialGradient id="SVGID_19_" cx="185.9255" cy="117.3022" r="38.3871" fx="185.8808" fy="88.9496" gradientUnits="userSpaceOnUse">
			<stop  offset="0" style="stop-color:#FFC826"/>
			<stop  offset="1" style="stop-color:#5E2810"/>
		</radialGradient>
		<circle class="st31" cx="185.9" cy="117.3" r="30.2"/>
		
			<radialGradient id="SVGID_20_" cx="186.0074" cy="117.4394" r="27.5491" fx="186.3575" fy="95.9211" gradientUnits="userSpaceOnUse">
			<stop  offset="0" style="stop-color:#FDCD4C"/>
			<stop  offset="0.2602" style="stop-color:#FCCB4B"/>
			<stop  offset="0.4405" style="stop-color:#F8C347"/>
			<stop  offset="0.5967" style="stop-color:#F4B741"/>
			<stop  offset="0.739" style="stop-color:#EEA638"/>
			<stop  offset="0.8708" style="stop-color:#E7912F"/>
			<stop  offset="0.9953" style="stop-color:#E07927"/>
			<stop  offset="1" style="stop-color:#E07827"/>
		</radialGradient>
		<circle class="st32" cx="186" cy="117.4" r="27.5"/>
		<ellipse class="st23" cx="186.3" cy="102.2" rx="19" ry="11.1"/>
		<ellipse class="st13" cx="182" cy="107.2" rx="11.2" ry="10.9"/>
		
			<radialGradient id="SVGID_21_" cx="173.8805" cy="108.3854" r="14.0614" fx="173.0008" fy="102.6585" gradientTransform="matrix(0.9973 7.328914e-02 -7.328914e-02 0.9973 8.0013 -17.0345)" gradientUnits="userSpaceOnUse">
			<stop  offset="0" style="stop-color:#FFFFFF"/>
			<stop  offset="1" style="stop-color:#FFFFFF;stop-opacity:0"/>
		</radialGradient>
		<path class="st33" d="M183.3,93.1c1.3,1.8-5.2,2.3-10,6.5c-7.8,6.7-10.8,12.6-10.8,12.6c-4.1-3.9,3.6-13.4,8.6-16.7
			S182.1,91.5,183.3,93.1z"/>
		<path class="st18" d="M186.8,92.3c0.4,1-3.8,0.6-8,2.1c-6.6,2.4-10.1,4.9-10.1,4.9c-1.5-2.2,5.9-6,9.9-7.1
			C182.6,91.1,186.5,91.4,186.8,92.3z"/>
		<path class="st19" d="M193.2,107.2c0,6-5,10.9-11.2,10.9c-6.2,0-9.4-4.4-9.6-5.4c0,0,3.6,4.4,12.1,2.2
			C191.4,113.1,193.2,101.1,193.2,107.2z"/>
		<path class="st34" d="M214.9,115.3c0.7,16.8-13,30.4-29,30.4s-24.9-11.8-27.5-20.3c0,0,10.4,14.1,32.4,7.5
			C210.8,126.9,214.4,103.2,214.9,115.3z"/>
		<path class="st13" d="M157.7,121.6c-0.5,0.1,12.8-2.2,22,0.7c13,4.1,21.6,12.9,20.3,20.9C184.5,149.4,161.3,142.3,157.7,121.6z"/>
		<g>
			<path d="M177.6,113.7c1-1,1.9-1.9,2.7-2.7c0.6-0.6,1.1-1.2,1.5-1.9l0,0c-0.3,0.1-0.6,0.2-1,0.2c-0.8,0-1.4-0.2-2-0.5
				c-0.6-0.4-1-0.9-1.3-1.5c-0.3-0.6-0.5-1.3-0.5-2.1c0-0.9,0.2-1.7,0.6-2.4c0.4-0.7,0.9-1.2,1.6-1.6c0.7-0.4,1.5-0.6,2.4-0.6
				c0.9,0,1.8,0.2,2.5,0.6c0.7,0.4,1.3,0.9,1.7,1.6c0.4,0.7,0.6,1.5,0.6,2.5c0,1.5-0.4,2.9-1.3,4.2c-0.9,1.3-2.1,2.7-3.6,4.2
				L177.6,113.7z M183.1,104.3c-0.2-0.3-0.4-0.5-0.6-0.6c-0.3-0.2-0.6-0.2-0.9-0.2c-0.5,0-0.9,0.2-1.2,0.5c-0.3,0.3-0.5,0.7-0.5,1.2
				c0,0.3,0.1,0.6,0.2,0.9c0.1,0.3,0.3,0.5,0.6,0.6c0.3,0.2,0.5,0.2,0.9,0.2c0.5,0,0.9-0.2,1.2-0.5c0.3-0.3,0.5-0.8,0.5-1.2
				C183.3,104.8,183.2,104.6,183.1,104.3z"/>
		</g>
		<path class="st19" d="M195,130.8c-10.3,5.8-30.4,2.1-37.4-9.1c0.8,6.1,4.9,19.4,18.5,23.3c13.5,3.9,22.7-0.6,23.9-1.7
			C200.7,137,196.6,132.3,195,130.8z"/>
	</g>
	<g id="_x31_1_ball">
		
			<radialGradient id="SVGID_22_" cx="310.7182" cy="117.3022" r="38.3871" fx="310.6735" fy="88.9496" gradientUnits="userSpaceOnUse">
			<stop  offset="0" style="stop-color:#EBC8DC"/>
			<stop  offset="1" style="stop-color:#510E3F"/>
		</radialGradient>
		<circle class="st35" cx="310.7" cy="117.3" r="30.2"/>
		
			<radialGradient id="SVGID_23_" cx="310.8001" cy="117.4394" r="27.5491" fx="311.1502" fy="95.9211" gradientUnits="userSpaceOnUse">
			<stop  offset="0" style="stop-color:#FDEEF5"/>
			<stop  offset="0.4552" style="stop-color:#9E738B"/>
			<stop  offset="0.8309" style="stop-color:#6D3157"/>
			<stop  offset="1" style="stop-color:#5D1448"/>
		</radialGradient>
		<circle class="st36" cx="310.8" cy="117.4" r="27.5"/>
		<ellipse class="st37" cx="311.1" cy="102.2" rx="19" ry="11.1"/>
		<ellipse class="st13" cx="317.6" cy="108.3" rx="11.2" ry="10.9"/>
		
			<radialGradient id="SVGID_24_" cx="298.3376" cy="99.2394" r="14.0614" fx="297.4579" fy="93.5126" gradientTransform="matrix(0.9973 7.328914e-02 -7.328914e-02 0.9973 8.0013 -17.0345)" gradientUnits="userSpaceOnUse">
			<stop  offset="0" style="stop-color:#FFFFFF"/>
			<stop  offset="1" style="stop-color:#FFFFFF;stop-opacity:0"/>
		</radialGradient>
		<path class="st38" d="M308.1,93.1c1.3,1.8-5.2,2.3-10,6.5c-7.8,6.7-10.8,12.6-10.8,12.6c-4.1-3.9,3.6-13.4,8.6-16.7
			S306.9,91.5,308.1,93.1z"/>
		<path class="st18" d="M311.6,92.3c0.4,1-3.8,0.6-8,2.1c-6.6,2.4-10.1,4.9-10.1,4.9c-1.5-2.2,5.9-6,9.9-7.1
			C307.4,91.1,311.3,91.4,311.6,92.3z"/>
		<path class="st19" d="M328.8,108.3c0,6-5,10.9-11.2,10.9s-9.4-4.4-9.6-5.4c0,0,3.6,4.4,12.1,2.2
			C327,114.2,328.8,102.2,328.8,108.3z"/>
		<path class="st39" d="M339.7,115.3c0.7,16.8-13,30.4-29,30.4c-16,0-24.9-11.8-27.5-20.3c0,0,10.4,14.1,32.4,7.5
			C335.6,126.9,339.2,103.2,339.7,115.3z"/>
		<path class="st13" d="M282.4,121.6c-0.5,0.1,12.8-2.2,22,0.7c13,4.1,21.6,12.9,20.3,20.9C309.3,149.4,286.1,142.3,282.4,121.6z"/>
		<path class="st19" d="M319.8,130.8c-10.3,5.8-30.4,2.1-37.4-9.1c0.8,6.1,4.9,19.4,18.5,23.3c13.5,3.9,22.7-0.6,23.9-1.7
			C325.5,137,321.4,132.3,319.8,130.8z"/>
		<g>
			<path d="M312,105.1l-0.4-2.1l4.3-0.7l2.1,12.4l-2.9,0.5l-1.8-10.3L312,105.1z"/>
			<path d="M318.3,104l-0.4-2.1l4.3-0.7l2.1,12.4l-2.9,0.5l-1.8-10.3L318.3,104z"/>
		</g>
	</g>
	<g id="_x38__ball">
		
			<radialGradient id="SVGID_25_" cx="248.4252" cy="122.0482" r="52.4854" fx="248.3641" fy="83.2826" gradientUnits="userSpaceOnUse">
			<stop  offset="0" style="stop-color:#787878"/>
			<stop  offset="1.083708e-02" style="stop-color:#767676"/>
			<stop  offset="0.2683" style="stop-color:#515155"/>
			<stop  offset="0.5049" style="stop-color:#37373D"/>
			<stop  offset="0.7132" style="stop-color:#25252C"/>
			<stop  offset="0.8854" style="stop-color:#191921"/>
			<stop  offset="1" style="stop-color:#14131C"/>
		</radialGradient>
		<circle class="st40" cx="248.4" cy="122" r="41.3"/>
		
			<radialGradient id="SVGID_26_" cx="248.5372" cy="122.2357" r="37.667" fx="249.0159" fy="92.8144" gradientUnits="userSpaceOnUse">
			<stop  offset="0" style="stop-color:#BABABA"/>
			<stop  offset="1" style="stop-color:#14131C"/>
		</radialGradient>
		<circle class="st41" cx="248.5" cy="122.2" r="37.7"/>
		<ellipse class="st42" cx="248.9" cy="101.4" rx="26" ry="15.2"/>
		<ellipse class="st13" cx="248.9" cy="118.4" rx="21" ry="20.5"/>
		<path class="st43" d="M242.7,110.6c0.4-0.8,0.9-1.4,1.6-1.9c0.7-0.5,1.4-0.9,2.3-1.1c0.9-0.2,1.8-0.4,2.7-0.4
			c1.9,0,3.5,0.5,4.7,1.6c1.3,1.1,1.9,2.6,1.9,4.5c0,0.8-0.2,1.6-0.6,2.4c-0.4,0.8-0.9,1.4-1.6,1.8c1,0.7,1.7,1.4,2.2,2.2
			c0.5,0.8,0.7,1.8,0.7,3c0,1-0.2,1.9-0.6,2.7c-0.4,0.8-1,1.4-1.7,2c-0.7,0.5-1.5,0.9-2.4,1.2c-0.9,0.3-1.8,0.4-2.7,0.4
			c-1.3,0-2.5-0.2-3.6-0.7c-1.1-0.5-2.1-1.2-2.8-2.2c-0.7-1-1.1-2.1-1.1-3.3c0-1,0.3-1.9,0.8-2.8c0.5-0.9,1.2-1.6,2.1-2.1
			c-1.6-1.1-2.3-2.6-2.3-4.3C242.2,112.2,242.4,111.3,242.7,110.6z M251.4,120.9c-0.3-0.4-1.1-0.9-2.4-1.5c-1,0.5-1.7,1-2,1.4
			c-0.3,0.4-0.5,0.9-0.5,1.4c0,0.7,0.2,1.2,0.7,1.7c0.5,0.5,1.1,0.7,1.8,0.7c0.8,0,1.5-0.2,2.1-0.6s0.8-1,0.8-1.8
			C251.8,121.8,251.7,121.3,251.4,120.9z M249.2,115.3c0.8-0.4,1.4-0.8,1.6-1.2c0.3-0.3,0.4-0.7,0.4-1.2c0-1.1-0.7-1.6-2.2-1.6
			c-0.5,0-1,0.2-1.4,0.5c-0.4,0.4-0.6,0.8-0.6,1.3C247,113.7,247.7,114.4,249.2,115.3z"/>
		
			<radialGradient id="SVGID_27_" cx="231.6346" cy="103.9287" r="19.2257" fx="230.4318" fy="96.0986" gradientTransform="matrix(0.9973 7.328914e-02 -7.328914e-02 0.9973 8.0013 -17.0345)" gradientUnits="userSpaceOnUse">
			<stop  offset="0" style="stop-color:#FFFFFF"/>
			<stop  offset="1" style="stop-color:#FFFFFF;stop-opacity:0"/>
		</radialGradient>
		<path class="st44" d="M244.9,89c1.8,2.4-7.1,3.2-13.7,8.9c-10.6,9.1-14.7,17.2-14.7,17.2c-5.6-5.3,5-18.4,11.8-22.9
			C235.1,87.6,243.2,86.8,244.9,89z"/>
		<path class="st18" d="M249.6,87.8c0.5,1.3-5.3,0.8-10.9,2.8c-9,3.3-13.8,6.7-13.8,6.7c-2.1-3.1,8-8.2,13.5-9.7
			C243.9,86.2,249.2,86.6,249.6,87.8z"/>
		<path class="st19" d="M269.9,118.4c0,11.3-9.4,20.5-21,20.5s-17.7-8.3-18.1-10.1c0,0,6.8,8.3,22.8,4.1
			C266.6,129.5,269.9,107,269.9,118.4z"/>
		<path class="st45" d="M286.2,120.2c0.9,21.9-16.9,39.6-37.8,39.6s-31.7-16-32.6-19.5c0,0,13,20.5,41.7,12
			C283.7,144.5,285.5,104.4,286.2,120.2z"/>
	</g>
	<g id="_x34__ball">
		
			<radialGradient id="SVGID_28_" cx="148.6912" cy="156.1915" r="40.2298" fx="148.6443" fy="126.4779" gradientUnits="userSpaceOnUse">
			<stop  offset="0" style="stop-color:#F6998D"/>
			<stop  offset="1" style="stop-color:#751B55"/>
		</radialGradient>
		<circle class="st46" cx="148.7" cy="156.2" r="31.7"/>
		
			<radialGradient id="SVGID_29_" cx="148.777" cy="156.3352" r="28.8715" fx="149.1439" fy="133.784" gradientUnits="userSpaceOnUse">
			<stop  offset="0" style="stop-color:#D8A0C9"/>
			<stop  offset="1" style="stop-color:#B33C85"/>
		</radialGradient>
		<circle class="st47" cx="148.8" cy="156.3" r="28.9"/>
		<ellipse class="st23" cx="149.1" cy="140.4" rx="19.9" ry="11.7"/>
		
			<ellipse transform="matrix(4.162092e-02 -0.9991 0.9991 4.162092e-02 -9.5969 282.3559)" class="st13" cx="142.4" cy="146.2" rx="11.5" ry="11.4"/>
		
			<radialGradient id="SVGID_30_" cx="138.9527" cy="149.2964" r="14.7364" fx="138.0308" fy="143.2947" gradientTransform="matrix(0.9973 7.328914e-02 -7.328914e-02 0.9973 8.0013 -17.0345)" gradientUnits="userSpaceOnUse">
			<stop  offset="0" style="stop-color:#FFFFFF"/>
			<stop  offset="1" style="stop-color:#FFFFFF;stop-opacity:0"/>
		</radialGradient>
		<path class="st48" d="M146,130.8c1.4,1.9-5.4,2.4-10.5,6.8c-8.1,7-11.3,13.2-11.3,13.2c-4.3-4.1,3.8-14.1,9-17.5
			S144.7,129.1,146,130.8z"/>
		<path class="st18" d="M149.6,130c0.4,1-4,0.6-8.4,2.2c-6.9,2.5-10.5,5.1-10.5,5.1c-1.6-2.3,6.1-6.3,10.3-7.4
			C145.2,128.7,149.3,129,149.6,130z"/>
		<path class="st19" d="M153.8,146.7c-0.3,6.3-5.6,11.2-11.9,11c-6.3-0.3-9.4-5-9.6-6.1c0,0,3.5,4.8,12.3,2.8
			C151.7,152.8,154,140.3,153.8,146.7z"/>
		<path class="st49" d="M177.6,154.8c0.7,16.8-13,30.4-29,30.4s-24.8-11.8-27.5-20.3c0,0,10.4,14.1,32.4,7.5
			C173.6,166.4,177.1,142.7,177.6,154.8z"/>
		<path d="M146.9,148.8l-1.6-0.2l-0.8,5.4l-3-0.4l0.8-5.3l-5.2-0.7l1.1-8.1l3,0.4l-0.8,5.4l2.2,0.3l0.8-5.4l3,0.4l-0.8,5.4l1.6,0.2
			L146.9,148.8z"/>
	</g>
	<g id="_x31_3_ball">
		
			<radialGradient id="SVGID_31_" cx="348.3595" cy="156.1915" r="40.2298" fx="348.3127" fy="126.4779" gradientUnits="userSpaceOnUse">
			<stop  offset="0" style="stop-color:#FBC7C2"/>
			<stop  offset="1" style="stop-color:#A81E29"/>
		</radialGradient>
		<circle class="st50" cx="348.4" cy="156.2" r="31.7"/>
		
			<radialGradient id="SVGID_32_" cx="348.4453" cy="156.3352" r="28.8715" fx="348.8123" fy="133.784" gradientUnits="userSpaceOnUse">
			<stop  offset="0" style="stop-color:#FBC7C2"/>
			<stop  offset="1" style="stop-color:#A81E29"/>
		</radialGradient>
		<circle class="st51" cx="348.4" cy="156.3" r="28.9"/>
		<ellipse class="st23" cx="348.7" cy="140.4" rx="19.9" ry="11.7"/>
		
			<ellipse transform="matrix(4.162092e-02 -0.9991 0.9991 4.162092e-02 196.4935 494.6033)" class="st13" cx="356.1" cy="144.9" rx="11.5" ry="11.4"/>
		
			<radialGradient id="SVGID_33_" cx="338.0841" cy="134.6629" r="14.7364" fx="337.1621" fy="128.6612" gradientTransform="matrix(0.9973 7.328914e-02 -7.328914e-02 0.9973 8.0013 -17.0345)" gradientUnits="userSpaceOnUse">
			<stop  offset="0" style="stop-color:#FFFFFF"/>
			<stop  offset="1" style="stop-color:#FFFFFF;stop-opacity:0"/>
		</radialGradient>
		<path class="st52" d="M345.7,130.8c1.4,1.9-5.4,2.4-10.5,6.8c-8.1,7-11.3,13.2-11.3,13.2c-4.3-4.1,3.8-14.1,9-17.5
			S344.4,129.1,345.7,130.8z"/>
		<path class="st18" d="M349.3,130c0.4,1-4,0.6-8.4,2.2c-6.9,2.5-10.5,5.1-10.5,5.1c-1.6-2.3,6.1-6.3,10.3-7.4S348.9,129,349.3,130z
			"/>
		<path class="st19" d="M367.5,145.4c-0.3,6.3-5.6,11.2-11.9,11s-9.4-5-9.6-6.1c0,0,3.5,4.8,12.3,2.8
			C365.5,151.5,367.8,139,367.5,145.4z"/>
		<path class="st53" d="M377.3,154.8c0.7,16.8-13,30.4-29,30.4c-16,0-24.8-11.8-27.5-20.3c0,0,10.4,14.1,32.4,7.5
			C373.3,166.4,376.8,142.7,377.3,154.8z"/>
		<path class="st13" d="M321.5,166.8c4-2.9,11.9-4.4,21.6-4.4c13.7-0.1,24,7.5,24.6,15.6C354,187.6,329.9,186,321.5,166.8z"/>
		<path class="st19" d="M361.9,168.1c-8.7,8-31,7.9-40.4-1.3c2.2,5.8,10.5,17,24.6,17.7c14.1,0.7,20.7-5.2,21.6-6.5
			C367.1,173,363.4,169.4,361.9,168.1z"/>
		<g>
			<path d="M349.5,142.8l-0.5-1.9l3.9-1.1l3.1,11.3l-2.6,0.7l-2.5-9.4L349.5,142.8z"/>
			<path d="M353.8,141.5c0.3-0.8,0.7-1.5,1.3-2.1c0.6-0.5,1.3-0.9,2.2-1.2c0.7-0.2,1.3-0.2,1.9-0.1c0.6,0.1,1.2,0.4,1.6,0.8
				c0.5,0.4,0.8,1,1,1.6c0.1,0.5,0.2,0.9,0.1,1.3c-0.1,0.4-0.3,0.8-0.5,1.2c0.4,0.1,0.7,0.2,1,0.4c0.3,0.2,0.6,0.5,0.8,0.8
				c0.2,0.3,0.4,0.6,0.5,1c0.2,0.6,0.2,1.2,0.1,1.7c-0.1,0.5-0.4,1-0.7,1.4c-0.4,0.4-0.8,0.8-1.2,1c-0.5,0.3-1,0.5-1.6,0.7
				c-0.5,0.1-1,0.2-1.5,0.2c-0.5,0-1-0.1-1.5-0.3c-0.5-0.2-1-0.4-1.4-0.7l1.3-2.4c0.4,0.3,0.8,0.5,1.1,0.6c0.4,0.1,0.7,0.1,1.2,0
				c0.5-0.1,0.8-0.3,1-0.6s0.3-0.7,0.2-1.2s-0.4-0.7-0.7-0.8c-0.4-0.1-0.8,0-1.4,0.1l-0.4,0.1c0,0-0.1,0-0.2,0.1l-0.1,0l-0.1,0
				l-0.5-2c0.1,0,0.2-0.1,0.4-0.1l0.2-0.1l0.2-0.1c0.3-0.1,0.5-0.2,0.8-0.3c0.2-0.1,0.4-0.3,0.5-0.5c0.1-0.2,0.1-0.5,0-0.8
				c-0.1-0.4-0.3-0.7-0.6-0.9c-0.3-0.1-0.7-0.2-1.1,0c-0.2,0.1-0.4,0.1-0.5,0.2c-0.1,0.1-0.2,0.2-0.4,0.3c-0.1,0.1-0.2,0.3-0.3,0.5
				c0,0-0.1,0.1-0.1,0.1c0,0,0,0.1-0.1,0.1c-0.1,0.1-0.1,0.2-0.1,0.2L353.8,141.5z"/>
		</g>
	</g>
	<g id="_x34__ball_1_">
		
			<radialGradient id="SVGID_34_" cx="200.4746" cy="164.7869" r="41.2524" fx="200.4265" fy="134.318" gradientTransform="matrix(1.0376 0 0 1.0315 -6.9683 -4.0529)" gradientUnits="userSpaceOnUse">
			<stop  offset="0" style="stop-color:#F8B617"/>
			<stop  offset="1" style="stop-color:#29100E"/>
		</radialGradient>
		<ellipse class="st54" cx="201" cy="165.9" rx="33.7" ry="33.5"/>
		
			<radialGradient id="SVGID_35_" cx="200.5626" cy="164.9343" r="29.6054" fx="200.9388" fy="141.8098" gradientTransform="matrix(1.0376 0 0 1.0376 -6.9683 -5.062)" gradientUnits="userSpaceOnUse">
			<stop  offset="0" style="stop-color:#F8B617"/>
			<stop  offset="1" style="stop-color:#29100E"/>
		</radialGradient>
		<ellipse class="st55" cx="201.1" cy="166.1" rx="30.7" ry="30.5"/>
		<ellipse class="st56" cx="201.4" cy="149.2" rx="21.2" ry="12.3"/>
		
			<ellipse transform="matrix(0.9657 -0.2597 0.2597 0.9657 -33.6704 55.7928)" class="st13" cx="194.3" cy="155.3" rx="12.1" ry="12.1"/>
		
			<radialGradient id="SVGID_36_" cx="190.8695" cy="153.7393" r="15.111" fx="189.9242" fy="147.585" gradientTransform="matrix(1.0348 7.559792e-02 -7.604633e-02 1.0287 1.3341 -21.624)" gradientUnits="userSpaceOnUse">
			<stop  offset="0" style="stop-color:#FFFFFF"/>
			<stop  offset="1" style="stop-color:#FFFFFF;stop-opacity:0"/>
		</radialGradient>
		<path class="st57" d="M198.2,139.1c1.5,2-5.8,2.6-11.2,7.2c-8.7,7.4-12,13.9-12,13.9c-4.6-4.3,4-14.9,9.6-18.5
			C190.2,138,196.8,137.3,198.2,139.1z"/>
		<path class="st18" d="M202,138.2c0.4,1.1-4.3,0.7-8.9,2.3c-7.4,2.6-11.2,5.4-11.2,5.4c-1.7-2.5,6.5-6.7,11-7.8
			S201.7,137.2,202,138.2z"/>
		<path class="st19" d="M206.4,155.8c-0.3,6.7-5.9,11.9-12.6,11.6s-10-5.3-10.2-6.4c0,0,3.7,5,13.1,3
			C204.2,162.3,206.7,149.2,206.4,155.8z"/>
		<path class="st58" d="M231.9,164.4c0.8,17.7-13.8,32.1-30.8,32.1s-26.4-12.4-29.3-21.5c0,0,11,14.9,34.4,8
			C227.6,176.7,231.3,151.6,231.9,164.4z"/>
		<path d="M195,151.9l-4.8-0.4l0.3-2.9l9.1,0.7l-5.4,12.6l-3.6-0.3L195,151.9z"/>
	</g>
	<g id="_x39__ball_1_">
		
			<radialGradient id="SVGID_37_" cx="295.3885" cy="166.6956" r="40.4695" fx="295.3414" fy="136.805" gradientUnits="userSpaceOnUse">
			<stop  offset="0" style="stop-color:#9DB9DD"/>
			<stop  offset="1" style="stop-color:#161E47"/>
		</radialGradient>
		<circle class="st59" cx="295.4" cy="166.7" r="31.9"/>
		
			<radialGradient id="SVGID_38_" cx="295.4749" cy="166.8402" r="29.0436" fx="295.844" fy="144.1546" gradientUnits="userSpaceOnUse">
			<stop  offset="0" style="stop-color:#CBD5E9"/>
			<stop  offset="0.2071" style="stop-color:#C7D1E5"/>
			<stop  offset="0.3507" style="stop-color:#BBC4D9"/>
			<stop  offset="0.475" style="stop-color:#AAB1C9"/>
			<stop  offset="0.5884" style="stop-color:#959AB5"/>
			<stop  offset="0.6944" style="stop-color:#7C7F9D"/>
			<stop  offset="0.7948" style="stop-color:#616384"/>
			<stop  offset="0.891" style="stop-color:#42466B"/>
			<stop  offset="0.9814" style="stop-color:#212952"/>
			<stop  offset="1" style="stop-color:#1A234E"/>
		</radialGradient>
		<circle class="st60" cx="295.5" cy="166.8" r="29"/>
		<ellipse class="st61" cx="295.8" cy="150.8" rx="20" ry="11.7"/>
		<ellipse class="st13" cx="299.9" cy="155.8" rx="11.8" ry="11.5"/>
		
			<radialGradient id="SVGID_39_" cx="285.9416" cy="148.9427" r="14.8242" fx="285.0142" fy="142.9052" gradientTransform="matrix(0.9973 7.328914e-02 -7.328914e-02 0.9973 8.0013 -17.0345)" gradientUnits="userSpaceOnUse">
			<stop  offset="0" style="stop-color:#FFFFFF"/>
			<stop  offset="1" style="stop-color:#FFFFFF;stop-opacity:0"/>
		</radialGradient>
		<path class="st62" d="M292.7,141.2c1.4,1.9-5.5,2.4-10.6,6.8c-8.2,7-11.3,13.2-11.3,13.2c-4.3-4.1,3.8-14.2,9.1-17.6
			C285.1,140.1,291.4,139.5,292.7,141.2z"/>
		<path class="st18" d="M296.3,140.3c0.4,1-4,0.6-8.4,2.2c-7,2.5-10.6,5.1-10.6,5.1c-1.6-2.4,6.2-6.3,10.4-7.4
			C291.9,139.1,296,139.4,296.3,140.3z"/>
		<path class="st19" d="M311.7,155.8c0,6.4-5.3,11.5-11.8,11.5c-6.5,0-9.9-4.7-10.2-5.7c0,0,3.8,4.6,12.8,2.3
			C309.8,162,311.7,149.4,311.7,155.8z"/>
		<path class="st63" d="M325.9,164.6c0.8,17.7-13.7,32-30.6,32c-16.9,0-25-11.1-27.9-20.1c0,0,9.8,13.5,33,6.6
			C321.6,176.9,325.4,151.8,325.9,164.6z"/>
		<path class="st13" d="M267.5,176.5c-0.5,0.2,12.4-3.5,22.5-3.3c14.3,0.4,25.6,6.1,26.7,14.6C303.9,198.5,274.1,198.4,267.5,176.5z
			"/>
		<path class="st19" d="M309.9,178.5c-8.8,8.9-32.2,7.3-42.5-2c1.6,6.6,10.9,20.1,25.7,20.1c15.9,0,22.6-7.4,23.4-8.8
			C315.5,181.4,312,179.5,309.9,178.5z"/>
		<g>
			<path d="M294.4,152.3l0-1.7h3.6V161l-2.4,0v-8.6L294.4,152.3z"/>
			<path d="M305,150.8c0.5,0.3,0.9,0.8,1.2,1.3c0.3,0.5,0.5,1.1,0.6,1.7c0.1,0.6,0.2,1.3,0.2,1.9c0,0.9-0.1,1.7-0.3,2.5
				c-0.2,0.8-0.6,1.5-1.2,2.1c-0.6,0.6-1.3,0.8-2.3,0.8c-0.7,0-1.3-0.2-1.8-0.5c-0.5-0.3-0.9-0.8-1.2-1.3c-0.3-0.6-0.5-1.1-0.6-1.7
				c-0.1-0.6-0.2-1.2-0.2-1.9s0.1-1.3,0.2-1.9c0.1-0.6,0.3-1.2,0.6-1.7c0.3-0.6,0.7-1,1.2-1.3c0.5-0.3,1.1-0.5,1.8-0.5
				C303.9,150.3,304.5,150.5,305,150.8z M302.3,153.1c-0.2,0.3-0.3,0.6-0.4,1.1c-0.1,0.5-0.1,1-0.1,1.6c0,0.6,0,1.2,0.1,1.6
				c0.1,0.5,0.2,0.8,0.4,1.1c0.2,0.3,0.5,0.4,0.8,0.4c0.9,0,1.4-1,1.4-3.1s-0.5-3.1-1.4-3.1C302.8,152.7,302.5,152.8,302.3,153.1z"
				/>
		</g>
	</g>
</g>
<g id="billiards">
	<linearGradient id="SVGID_40_" gradientUnits="userSpaceOnUse" x1="252.5705" y1="255.0809" x2="252.5705" y2="159.4939">
		<stop  offset="0" style="stop-color:#5457A6"/>
		<stop  offset="1" style="stop-color:#091838"/>
	</linearGradient>
	<path class="st64" d="M47.1,168.3c-4.6,1.6-5.9,4.9-5.9,6.5s0.2,5.6,0.2,6.7c1.7,1,4.4,3.4,4.5,4.3c0.1,0.9-3.5,51.3-3.6,51.9
		c-0.1,0.6-4.1,3.1-4.5,4.3c-0.4,1.2-1.7,7.4,0.5,9.2c2.2,1.8,4.4,4,6.8,3.9c2.4-0.1,39.4-7.7,43.5-8.9c4.1-1.2,12-4.9,14.5-9.6
		c1,1.6,2.1,3.7,6.9,3c4.8-0.7,21.3-3.1,22.3-3.4c1-0.3,2-1.5,2.3-2c0.7,1.2,2,1,3.2,0.9c1.2-0.2,35.5-4.9,37-5.2
		c1.5-0.2,3.9-1.3,4.1-2.4c1.4,1.3,1.8,1.6,4.7,1.4s34.6-2.3,36.1-2.3c1.5,0.1,3.5-1.6,3.9-2.9c0.9,1.6,2.2,2.4,5.3,2.3
		c3.1-0.1,32.9-0.3,34.8-0.3c1.9,0,3.6,0.3,4.8-2.6c1.2-2.9,2.3-4.3,2.1-5.3s-1.4-2.8-2.1-3.1c1.3,0.1,7.7-0.1,8.8-0.1
		c-0.7,1-0.8,2.9-0.7,4.6c0.2,1.7,3.9,7,5.6,7c1.6,0.1,18.2,0.5,19.6,0.6c1.4,0.1,1.8-1.8,2-2.1c0.3,1.2,0.5,2.6,1.4,2.6
		c0.9,0.1,20.7,2.1,22.5,1.6c1.8-0.5,3.3-1.5,3.6-2.4c0.8,2.7,2.7,4,5.9,4.4c3.1,0.4,13.7,1.8,15.1,1.9c1.4,0.1,2.2,0.1,2.7-0.6
		c0.4,0.9,1.8,1.9,5.5,2.2c3.7,0.3,16.5,3,20.8,3.2c4.2,0.2,17.4-0.2,22.9-8.1c0,4.7,0.1,10.6,1.5,12c1.4,1.3,6.7,3.9,7.9,3.6
		s4.2,1.1,6.9,2.7c2.7,1.6,18.4,7.1,29.4,2.4s18.9-15,18-27.3c-0.9-12.2-8.3-17.7-9.3-18.6c4.8-2.1,5.5-5.4,5.4-10.9
		c-0.1-5.5-0.6-19.5-2.5-21.3c-1.9-1.9-6.1-3.9-8.3-3.8c-2.2,0.1-4.7-1.4-8.2-2.5c-3.5-1.1-15.8-4.1-21-3.4
		c-5.3,0.7-15.4,4-18.2,11.4c-1.4,2.9-2.5,5.7-2.8,7.2c-1.6-1.9-7.7-8.4-14.2-9.5s-28.9-4.4-31.9-5.4c-3-1-7.2,0.7-7.6,2.1
		c-0.4,1.4-0.8,3.2-0.8,4.1c-1.7-2.8-9.4-7.8-16.2-8.6c-6.7-0.8-13.7-1-18-1.3s-11.2-1.3-12.7-1.3c-1.5,0-4.8,1.9-4.9,4.3
		c-0.1,2.4,0.2,4.6,0.3,6.1c0.1,1.4,4.4,3.8,4.4,9.1c0.1,5.3,0,16.7-0.1,18.4c-6.6-17.5-10.9-30.3-11.2-32.4c-0.4-2.1-1.5-6.4-9-6.8
		c-7.5-0.4-17.9-0.4-21-0.5s-4.3,3.1-4.2,6c0.1,2.9-0.2,5.9,0.6,6.9s3.7,3.6,1.9,8.3c-1.8,4.8-8.2,17.6-8.8,18.8
		c-0.2-8.8-0.8-21.2-0.5-22.4c0.4-1.2,4.1-2.2,4.2-5.4s0.4-7,0.3-8.2s-1.7-3.9-7.1-3.9s-20.5,0.5-23.6,0.5c-3.1,0-4.3,4.6-4,7.4
		s1.6,6.1,2.9,7.8c1.3,1.7,1.2,5.9,1.3,11.2c0.1,5.3-0.4,9.3-0.4,9.8c-2.4,0.1-7.2-0.4-8.4,2c-1.2,2.4-4.9,6.6-6.3,6.7
		c-1.4,0.2-2.2,0.2-2.7,0.2c-0.4-8.1-0.3-25.7,0.1-27.1s3.5-3,3.7-5.9c0.2-2.9,0.2-5.6-0.1-7.7c-0.2-2.1-4.2-4.3-8.6-4
		c-4.4,0.3-18.7,1.7-21.8,1.9c-3.1,0.2-5.7,1.4-5.8,6.1c-0.1,4.6,1.4,7,2.8,8.4c1.4,1.5,2.6,1.5,2.4,7.9s-0.2,12.9-0.3,14.2
		c-4,0.1-6.8,1.3-7.5,2.2c-0.7,0.9-4.2,6.1-5.5,6.9c-1.3,0.8-3.6,0.9-4.1,0.9c-0.3-9.2-0.4-25.6-0.1-26.9c0.4-1.3,4.1-4.9,4.2-6.6
		c0.1-1.8-0.1-6.3-0.1-7.4c0-1.1-1.5-4.7-5.9-4.2s-50.1,6.8-51.2,6.9c-1.1,0.1-1.4,0.6-1.8,0.8c-1.9-3-8-10.5-23.9-9.6
		C79.5,162.1,49.4,167.5,47.1,168.3z"/>
	<g>
		<linearGradient id="SVGID_41_" gradientUnits="userSpaceOnUse" x1="75.3056" y1="172.0335" x2="75.3056" y2="250.7723">
			<stop  offset="0" style="stop-color:#89441E"/>
			<stop  offset="1" style="stop-color:#9A630E"/>
		</linearGradient>
		<path class="st65" d="M107.9,217.4c-0.7-12.5-10.9-15-12.4-15c8.1-5.2,9-11.6,8.7-16.7c-0.3-5-5.6-15.2-22.9-13.4
			c-17.3,1.9-30.8,3.9-34.8,5c0,0,3.2,2.4,3.2,3.3c3.4,0.7,4.4,3.6,4.1,7.4c-0.3,3.8-2.9,51.7-3.4,53.7c-0.7,2.9-6.7,5.2-7.7,6
			c0,1,2.8,2.3,2.9,3c26.6-5.9,39.9-8.6,45.4-10.4C96.5,238.5,108.6,229.9,107.9,217.4z M73.2,184.5c4.3-0.8,12.9-3.4,13.3,4.9
			c0.4,8.3-5.4,10.6-14,12.5C72.4,196.8,73.2,184.5,73.2,184.5z M71.2,233.5c0-4.5,0.7-17.6,0.8-19.9c9.2-2.1,16.4-3,16.7,6
			C89,228.6,82.2,231.6,71.2,233.5z"/>
		<linearGradient id="SVGID_42_" gradientUnits="userSpaceOnUse" x1="120.7958" y1="172.3247" x2="120.7958" y2="235.3163">
			<stop  offset="0" style="stop-color:#89441E"/>
			<stop  offset="1" style="stop-color:#9A630E"/>
		</linearGradient>
		<path class="st66" d="M108.2,179.6c0,1.3,2.5,2.7,2.5,3.2c3.3,0.6,3.6,2.8,3.6,6.9s-0.3,36.1-0.6,38.3c-0.3,2.3-5.1,3.7-6.1,4
			c0,0.9,2.5,2.7,2.6,3.2c4.4-0.8,22-4.7,22.7-4.9c0-0.7-0.9-3-0.9-3.3c-2-0.1-2-1.3-1.9-5.4c-0.1-4.5,0.4-34.5,0.3-36.6
			s2.8-5.7,3.5-6c0-1.1-1-6.6-1.1-6.9C127.9,173,109.2,179.5,108.2,179.6z"/>
		<linearGradient id="SVGID_43_" gradientUnits="userSpaceOnUse" x1="156.618" y1="168.6153" x2="156.618" y2="230.3704">
			<stop  offset="0" style="stop-color:#89441E"/>
			<stop  offset="1" style="stop-color:#9A630E"/>
		</linearGradient>
		<path class="st67" d="M135,174.9c0,1.2,2.2,3.1,2.2,3.5c3,0.4,3.5,3.5,3.4,6.9c-0.1,3.4-0.4,35.9-0.5,37.6
			c-0.1,1.8-4.9,4.1-5.8,4.4c0,0.6,1.9,2.7,2,3c5-0.7,37.7-5.6,39.4-5.8c1.1-4.3,3-15.8,3.2-16.9c-0.1-2-0.4-4.3-0.5-4.1
			c-1.6,3.2-9.3,13-12.1,13.6c-1.9,0.4-9.3,1.1-10.6,1.2c0.1-5.2,0.3-36,0.5-37.8c0.1-1.8,2.6-4.1,3.7-4.5c0.1-1.7-0.8-7.4-0.8-7.4
			C156.1,168.9,135.8,174.8,135,174.9z"/>
		<linearGradient id="SVGID_44_" gradientUnits="userSpaceOnUse" x1="201.6883" y1="165.9363" x2="201.6883" y2="224.3254">
			<stop  offset="0" style="stop-color:#89441E"/>
			<stop  offset="1" style="stop-color:#9A630E"/>
		</linearGradient>
		<path class="st68" d="M179.1,171.2c2.9-0.3,24.5-5.3,25.6-5.3c0,0.8,0.2,6.1,0.3,6.5c-2.4,0.7-4.5,3.4-4.5,6.5s-0.1,33.4-0.1,34.6
			c4.6,0,8.5-0.2,9.9-0.3c1.4-0.1,14.1-13.1,14.1-12.9c0,0.1-0.1,4.7-0.1,4.5c-0.8,4.9-3.6,15.4-4.1,16.5c-5.8,0.3-38.2,2.9-39.1,3
			c0-0.8-1.9-2.9-1.8-3.3c1.1-0.4,5.6-1.8,5.6-3.9s-0.2-35.6-0.2-37.8c0-2.2-1.8-5.1-3.7-4.9C180.9,173.5,179.1,171.9,179.1,171.2z"
			/>
		<linearGradient id="SVGID_45_" gradientUnits="userSpaceOnUse" x1="315.2637" y1="168.2957" x2="315.2637" y2="233.438">
			<stop  offset="0" style="stop-color:#89441E"/>
			<stop  offset="1" style="stop-color:#9A630E"/>
		</linearGradient>
		<path class="st69" d="M401.8,192.6c-5.7-9.4-18.8-13.7-29.1-14.7c-10.3-1-18.1-3.8-18.6-3.8c0,1.2,0.2,3.2,0.2,3.6
			c1.4,0.6,3.6,4.2,3.3,6.8c-0.3,2.6,0.9,35.1,1.1,37.6c0.2,2.5-2.5,2.6-3.3,2.6c-0.8-0.1-4.5-1-5.5-2.9c-1.1-1.8-6.1-10.6-7-12.7
			c-1-2.1-2.7-4.8-5.3-5c5.1-0.4,11.7-1.3,12.1-12.2c0.4-10.8-9-17.4-16.5-18.2c-7.6-0.8-28.8-5-30.4-5.1c-0.2,0.8,1,4.2,1.1,4.8
			c2.9,1.1,3.4,3.3,3.4,6.6c0,3.2,0.5,34.7,0.4,36.9c-0.1,2.2-2.3,1.3-2.8,1.6c-2.5-1.6-4.6-2.5-6.6-9.5c-2-7-14-38.3-14.8-38.9
			c-1-0.1-20.3-1.6-21.5-1.6c-0.3,1.2,0.7,2.9,0.8,3.2c1.7,0.3,3.8,3.2,3.6,5.4c-0.2,2.2-3.4,9.7-4.3,12c-0.9,2.3-9.4,25.1-9.9,26.4
			c-0.5,1.2-3.5,1.9-4.3,2.2c-1.5-1.1-2.5-0.9-2.8-3.9c-0.3-3,0.3-35.9,0.2-37.5c0.8-2.8,2.8-4.5,3.7-4.7c0.1-0.8,0-2.8,0-3.2
			c-3.3,0-21.3-0.2-24-0.1c0,1,1.3,3,1.3,3.4c1.4,0.9,3.3,2.5,3.2,6.2c-0.1,3.7,0.3,34.7,0.3,37.3c0,2.6-3.7,3.3-4.8,3.7
			c0,0.7,1.3,2.9,1.3,3.2c2.9,0,37.5-0.4,38.7-0.3c0-0.8,0.2-2.9,0.2-3.2c-0.9-0.5-3.8-1.1-3.7-2.2c0.1-1.1,2.6-5.5,2.9-6
			c4,0,17.6,0.3,18.5,0.3c0.8,1.4,2.4,6.1,2.2,7.1s-2.4,0.4-3.1,0.6c0,0.4,0.8,3.2,0.9,3.4c5.1,0,42.9,3.3,44,3.5
			c0-0.8,0.8-3,0.8-3.2c-1.4-0.8-5.6-1.2-5.6-6c0.1-4.8,0.4-11,0.4-11.5c1.4,0,3.1,0.4,4.7,3.6s8.4,14.4,9.2,16.1
			c0.9,1.6,2.5,2.6,5.5,2.9c3,0.3,12.7,1.6,13.7,1.6c1,0.1,18.1,3.3,20.9,3.7c5.9,0.9,17.6,3,25-5.9
			C407.1,219.3,407.5,202,401.8,192.6z M267.3,201.4c1.3-2.3,3.6-8.1,6.3-15.2c0.7,2.3,3.1,7.9,6.3,15.7
			C277.7,201.4,272.5,201.4,267.3,201.4z M322.6,197.8c0,0,0-10.5,0-15.8c4,0,10.4,0,10.8,7.3C333.8,196.7,331.5,197.8,322.6,197.8z
			 M390,210.9c-0.1,9.3-5.2,11.4-8,12.3c-2.8,0.8-5,0.5-8.2,0c0.1-2.1,0-30.7,0-35.2c2.5,0.1,7.4,1,11.3,4
			C389.2,194.9,390.1,201.6,390,210.9z"/>
		<linearGradient id="SVGID_46_" gradientUnits="userSpaceOnUse" x1="433.3979" y1="170.7597" x2="433.3979" y2="247.7629">
			<stop  offset="0" style="stop-color:#89441E"/>
			<stop  offset="1" style="stop-color:#9A630E"/>
		</linearGradient>
		<path class="st70" d="M410.2,218.5c2.5,0,5,0.1,5.4,0.8c0.4,0.8,2,3.1,3.6,6.5c1.6,3.4,8.1,9.4,14.4,9s8.6-7.4,4.5-11.2
			c-4.2-3.7-20.8-12.7-25.6-19.1c-4.8-6.4-6.9-17.2-3.7-23.6c3.1-6.5,11.1-12.2,23.4-9.5s15.7,6.2,17.3,6.3c1.6,0.1,2.3-1.4,3.4-1.2
			s2,1.2,2.3,2c-1.4,1,1.1,13.3,1.4,15.7c0.3,2.4-1.2,2.9-1.4,3.8c-2.2-0.1-5.9-1.2-7.2-1.9c-1.6-7.8-7.8-13.8-14.7-14.3
			s-8.7,3.2-8.7,6.2s9.2,10,15.9,13.4c6.7,3.4,15.3,11.3,17.6,16.7c2.3,5.6,1.9,13.9-0.8,19.1s-8.8,12.6-22.7,10.1
			c-14-2.5-18.9-7.5-20-7.5c-1.1,0-2.4,1.4-2.7,2c-0.5-0.5-0.8-0.9-1.6-2.2C410.2,233,410.2,220.5,410.2,218.5z"/>
	</g>
	<g>
		<linearGradient id="SVGID_47_" gradientUnits="userSpaceOnUse" x1="74.6115" y1="168.2897" x2="74.6115" y2="247.0285">
			<stop  offset="6.242228e-02" style="stop-color:#FEF0B9"/>
			<stop  offset="0.4573" style="stop-color:#FDD745"/>
		</linearGradient>
		<path class="st71" d="M106,213.6c-0.7-12.5-11-15-12.5-15c8.1-5.2,9.1-11.6,8.8-16.7c-0.3-5-5.7-15.2-23.1-13.4
			c-17.4,1.9-27.9,4.8-31.9,5.9c0,0,0,1.5,0,2.5c3.4,0.7,4.4,3.6,4.1,7.4c-0.3,3.8-3,51.7-3.4,53.7c-0.7,2.9-3.8,5.4-4.8,6.2
			c0,1-0.1,2.1,0,2.8c26.9-5.9,40.3-8.6,45.8-10.4C94.6,234.8,106.7,226.1,106,213.6z M71,180.8c4.3-0.8,13-3.4,13.4,4.9
			c0.4,8.3-5.5,10.6-14.1,12.5C70.3,193,71,180.8,71,180.8z M69,229.7c0-4.5,0.8-17.6,0.8-19.9c9.3-2.1,16.6-3,16.8,6
			C87,224.8,80.2,227.9,69,229.7z"/>
		<linearGradient id="SVGID_48_" gradientUnits="userSpaceOnUse" x1="120.3553" y1="172.9945" x2="120.3553" y2="231.5725">
			<stop  offset="6.242228e-02" style="stop-color:#FEF0B9"/>
			<stop  offset="0.4573" style="stop-color:#FDD745"/>
		</linearGradient>
		<path class="st72" d="M108.9,176.3c0,1.3,0,2.3,0,2.8c3.3,0.6,3.6,2.8,3.6,6.9c0,4.1-0.3,36.1-0.6,38.3c-0.3,2.3-2.6,4.6-3.6,4.9
			c0,0.9-0.1,1.8,0,2.3c4.4-0.8,22.2-4.7,22.9-4.9c0-0.7-0.1-1.5-0.1-1.8c-2-0.1-2.8-2.8-2.7-6.9c-0.1-4.5,0.4-34.5,0.3-36.6
			c-0.1-2.1,2.8-5.7,3.6-6c0-1.1,0.1-2.2,0-2.5C127.3,173.7,109.8,176.2,108.9,176.3z"/>
		<linearGradient id="SVGID_49_" gradientUnits="userSpaceOnUse" x1="156.1864" y1="169.4053" x2="156.1864" y2="226.6266">
			<stop  offset="6.242228e-02" style="stop-color:#FEF0B9"/>
			<stop  offset="0.4573" style="stop-color:#FDD745"/>
		</linearGradient>
		<path class="st73" d="M135.6,172.3c0,1.2,0.1,1.9,0,2.3c3,0.4,3.5,3.5,3.4,6.9c-0.1,3.4-0.4,35.9-0.5,37.6s-2.9,5.4-3.8,5.6
			c0,0.6-0.1,1.4,0,1.8c5-0.7,38-5.6,39.8-5.8c1.1-4.3,3-15.8,3.2-16.9c-2.1-0.1-5.3,1.3-6.1,3.8c-1.2,3.4-3.8,5.2-6.6,5.8
			c-2,0.4-9.3,1.1-10.7,1.2c0.1-5.2,0.3-36,0.5-37.8c0.1-1.8,2.6-4.1,3.7-4.5c0.1-1.7-0.1-2.9-0.1-2.9
			C155.4,169.7,136.3,172.2,135.6,172.3z"/>
		<linearGradient id="SVGID_50_" gradientUnits="userSpaceOnUse" x1="201.5086" y1="166.5889" x2="201.5086" y2="220.5816">
			<stop  offset="6.242228e-02" style="stop-color:#FEF0B9"/>
			<stop  offset="0.4573" style="stop-color:#FDD745"/>
		</linearGradient>
		<path class="st74" d="M179.8,168.2c2.9-0.3,23.1-1.6,24.2-1.6c0,0.8-0.1,1.7,0,2.1c-2.4,0.7-4.5,3.4-4.5,6.5s-0.1,33.4-0.1,34.6
			c4.7,0,8.6-0.2,10-0.3c1.4-0.1,5.3-2.1,6.9-4.9c1.6-2.9,3.4-3.9,7.1-3.5c-0.8,4.9-3.6,15.4-4.1,16.5c-5.8,0.3-38.5,2.9-39.4,3
			c0-0.8-0.1-1.3,0-1.7c1.1-0.4,3.8-3.3,3.8-5.4s-0.2-35.6-0.2-37.8s-1.8-5.1-3.7-4.9C179.7,169.7,179.8,168.9,179.8,168.2z"/>
		<linearGradient id="SVGID_51_" gradientUnits="userSpaceOnUse" x1="315.8802" y1="165.5241" x2="315.8802" y2="229.6942">
			<stop  offset="6.242228e-02" style="stop-color:#FEF0B9"/>
			<stop  offset="0.4573" style="stop-color:#FDD745"/>
		</linearGradient>
		<path class="st75" d="M402.6,188.9c-5.7-9.4-19-13.7-29.4-14.7c-10.4-1-18.1-2.9-18.7-2.9c0,1.2,0.1,2.2,0,2.6
			c1.4,0.6,3.6,4.2,3.3,6.8c-0.3,2.6,0.9,35.1,1.1,37.6c0.2,2.5-2.7,5.2-3.5,5.2c-0.8-0.1-4.3-3.6-5.4-5.4
			c-1.1-1.8-6.1-10.6-7.1-12.7c-1-2.1-2.7-4.8-5.4-5c5.1-0.4,11.8-1.3,12.2-12.2c0.4-10.8-9.1-17.4-16.7-18.2
			c-7.6-0.8-28.1-2.5-29.7-2.6c-0.2,0.8,0,1.7,0.1,2.3c2.9,1.1,3.4,3.3,3.4,6.6s0.5,34.7,0.4,36.9c-0.1,2.2-2.3,4.1-2.8,4.4
			c-2.5-1.6-4.6-5.4-6.7-12.4c-2.1-7-14.2-38.3-14.9-38.9c-1-0.1-19.6-0.6-20.8-0.5c-0.3,1.2-0.2,1.8-0.1,2.1
			c1.7,0.3,3.8,3.2,3.6,5.4c-0.2,2.2-3.5,9.7-4.4,12c-0.9,2.3-9.5,25.1-10,26.4s-3.6,3.5-4.4,3.7c-1.5-1.1-2.5-2.4-2.7-5.4
			c-0.3-3,0.3-35.9,0.2-37.5c0.8-2.8,2.8-4.5,3.7-4.7c0.1-0.8,0-1.9,0.1-2.3c-3.3,0-20.1,0.3-22.9,0.3c0,1-0.1,1.7,0,2.1
			c1.4,0.9,3.3,2.5,3.2,6.2c-0.1,3.7,0.3,34.7,0.3,37.3c0,2.6-2.4,4.4-3.6,4.8c0,0.7,0,1.8,0,2.1c2.9,0,37.9-0.4,39-0.3
			c0-0.8,0-1.2,0-1.6c-0.9-0.5-3.6-2.7-3.5-3.8c0.1-1.1,2.6-5.5,3-6c4,0,17.8,0.3,18.7,0.3c0.8,1.4,2.4,6.1,2.3,7.1
			c-0.1,1-1.7,2.7-2.4,2.9c0,0.4,0.1,0.9,0.1,1.2c5.2,0,43.3,3.3,44.4,3.5c0-0.8,0-1.2,0-1.4c-1.4-0.8-4.9-3.1-4.8-7.9
			c0.1-4.8,0.4-11,0.4-11.5c1.4,0,3.1,0.4,4.7,3.6c1.6,3.2,8.4,14.4,9.3,16.1c0.9,1.6,2.5,2.6,5.5,2.9c3,0.3,12.8,1.6,13.8,1.6
			c1,0.1,18.3,3.3,21.1,3.7c5.9,0.9,17.8,3,25.2-5.9C407.9,215.6,408.3,198.2,402.6,188.9z M266.9,197.6c1.3-2.3,3.6-8.1,6.4-15.2
			c0.7,2.3,3.1,7.9,6.4,15.7C277.4,197.7,272.1,197.6,266.9,197.6z M322.6,194.1c0,0,0-10.5,0-15.8c4,0,10.5,0,10.9,7.3
			C333.9,192.9,331.6,194.1,322.6,194.1z M390.6,207.2c-0.1,9.3-5.3,11.4-8,12.3c-2.8,0.8-5,0.5-8.2,0c0.1-2.1,0-30.7,0-35.2
			c2.5,0.1,7.4,1,11.4,4C389.8,191.2,390.7,197.9,390.6,207.2z"/>
		<linearGradient id="SVGID_52_" gradientUnits="userSpaceOnUse" x1="434.4152" y1="167.0159" x2="434.4152" y2="244.0191">
			<stop  offset="6.242228e-02" style="stop-color:#FEF0B9"/>
			<stop  offset="0.4573" style="stop-color:#FDD745"/>
		</linearGradient>
		<path class="st76" d="M411,214.7c2.5,0,5.1,0.1,5.5,0.8c0.4,0.8,2,3.1,3.6,6.5c1.6,3.4,8.2,9.4,14.6,9s8.7-7.4,4.5-11.2
			c-4.2-3.7-21-12.7-25.8-19.1c-4.9-6.4-6.9-17.2-3.8-23.6s11.2-12.2,23.6-9.5c12.4,2.7,15.9,6.2,17.4,6.3c1.6,0.1,2.3-1.4,3.4-1.2
			c1.1,0.2,2.1,1.2,2.3,2c-1.4,1-1.2,3-0.9,5.4c0.3,2.4,1.2,13.3,0.9,14.2c-2.3-0.1-6-1.2-7.3-1.9c-1.6-7.8-7.8-13.8-14.8-14.3
			c-7-0.5-8.8,3.2-8.8,6.2c0,3,9.3,10,16,13.4c6.7,3.4,15.4,11.3,17.7,16.7c2.3,5.6,1.9,13.9-0.8,19.1c-2.7,5.2-8.9,12.6-22.9,10.1
			c-14.1-2.5-19.1-7.5-20.2-7.5c-1.1,0-2.4,1.4-2.7,2c-0.5-0.5-0.8-0.9-1.6-2.2C411,229.3,411.1,216.8,411,214.7z"/>
	</g>
	<g>
		<linearGradient id="SVGID_53_" gradientUnits="userSpaceOnUse" x1="74.3979" y1="246.4277" x2="74.3979" y2="201.0982">
			<stop  offset="0" style="stop-color:#FAAE1A"/>
			<stop  offset="1" style="stop-color:#E99523"/>
		</linearGradient>
		<path class="st77" d="M43,243.6c0,1-0.1,2.1,0,2.8c26.9-5.9,40.3-8.6,45.8-10.4c5.6-1.9,17.7-10.5,17-23
			c-0.3-5.9-2.8-9.5-5.5-11.8c-5.8-0.2-10.9-0.3-13.9,0.2c-8.6,1.4-24.7,7.1-36.8,8.2c-0.8,13.2-1.6,26.7-1.9,27.8
			C47.1,240.3,43.9,242.8,43,243.6z M69.6,209.2c9.3-2.1,16.6-3,16.8,6c0.3,9-6.5,12-17.7,13.9C68.8,224.6,69.6,211.5,69.6,209.2z"
			/>
		<linearGradient id="SVGID_54_" gradientUnits="userSpaceOnUse" x1="119.5753" y1="230.9718" x2="119.5753" y2="201.8085">
			<stop  offset="0" style="stop-color:#FAAE1A"/>
			<stop  offset="1" style="stop-color:#E99523"/>
		</linearGradient>
		<path class="st78" d="M108.1,228.7c0,0.9-0.1,1.8,0,2.3c4.4-0.8,22.2-4.7,22.9-4.9c0-0.7-0.1-1.5-0.1-1.8c-2-0.1-2.8-2.8-2.7-6.9
			c0-1.9,0-8.5,0.1-15.5c-4.4,0.3-10.3,0.2-16.2-0.1c-0.1,9.9-0.3,20.7-0.5,22C111.4,226,109.1,228.4,108.1,228.7z"/>
		<linearGradient id="SVGID_55_" gradientUnits="userSpaceOnUse" x1="155.9728" y1="226.0258" x2="155.9728" y2="198.3737">
			<stop  offset="0" style="stop-color:#FAAE1A"/>
			<stop  offset="1" style="stop-color:#E99523"/>
		</linearGradient>
		<path class="st79" d="M134.5,224.2c0,0.6-0.1,1.4,0,1.8c5-0.7,38-5.6,39.8-5.8c1.1-4.3,3-15.8,3.2-16.9c-2.1-0.1-5.3,1.3-6.1,3.8
			c-1.2,3.4-3.8,5.2-6.6,5.8c-2,0.4-9.3,1.1-10.7,1.2c0.1-2.1,0.1-8.6,0.2-15.6c-6.3,0.8-11.7,1.5-15.7,2.1
			c-0.1,8.7-0.2,17.3-0.2,18.2C138.3,220.4,135.4,224,134.5,224.2z"/>
		<linearGradient id="SVGID_56_" gradientUnits="userSpaceOnUse" x1="201.295" y1="219.9809" x2="201.295" y2="193.8789">
			<stop  offset="0" style="stop-color:#FAAE1A"/>
			<stop  offset="1" style="stop-color:#E99523"/>
		</linearGradient>
		<path class="st80" d="M179.5,218.3c-0.1,0.4,0,0.9,0,1.7c0.9-0.1,33.6-2.7,39.4-3c0.5-1.1,3.3-11.6,4.1-16.5
			c-3.7-0.4-5.5,0.6-7.1,3.5c-1.6,2.9-5.6,4.8-6.9,4.9c-1.4,0.1-5.3,0.3-10,0.3c0-0.6,0-7.7,0.1-15.4c-5.4,0.4-10.7,0.9-15.8,1.4
			c0,8.5,0.1,16.6,0.1,17.6C183.4,215,180.6,217.9,179.5,218.3z"/>
		<linearGradient id="SVGID_57_" gradientUnits="userSpaceOnUse" x1="315.6581" y1="229.0934" x2="315.6581" y2="191.7676">
			<stop  offset="0" style="stop-color:#FAAE1A"/>
			<stop  offset="1" style="stop-color:#E99523"/>
		</linearGradient>
		<path class="st81" d="M224.9,215.7c0,0.7,0,1.8,0,2.1c2.9,0,37.9-0.4,39-0.3c0-0.8,0-1.2,0-1.6c-0.9-0.5-3.6-2.7-3.5-3.8
			s2.6-5.5,3-6c4,0,17.8,0.3,18.7,0.3c0.8,1.4,2.4,6.1,2.3,7.1c-0.1,1-1.7,2.7-2.4,2.9c0,0.4,0.1,0.9,0.1,1.2
			c5.2,0,43.3,3.3,44.4,3.5c0-0.8,0-1.2,0-1.4c-1.4-0.8-4.9-3.1-4.8-7.9c0.1-4.8,0.4-11,0.4-11.5c1.4,0,3.1,0.4,4.7,3.6
			c1.6,3.2,8.4,14.4,9.3,16.1c0.9,1.6,2.5,2.6,5.5,2.9c3,0.3,12.8,1.6,13.8,1.6c1,0.1,18.3,3.3,21.1,3.7c5.9,0.9,17.8,3,25.2-5.9
			c3.2-3.9,4.8-10.5,4.8-17.4c-6-0.4-11.6-0.8-16-1.2c0,0.9,0,1.8,0,2.8c-0.1,9.3-5.3,11.4-8,12.3c-2.8,0.8-5,0.5-8.2,0
			c0.1-1,0.1-8.6,0-16.6c-4.3-0.5-9.7-1.1-16.1-1.8c0.3,8.3,0.6,16.1,0.7,17.3c0.2,2.5-2.7,5.2-3.5,5.2c-0.8-0.1-4.3-3.6-5.4-5.4
			c-1.1-1.8-6.1-10.6-7.1-12.7c-1-2.1-2.7-4.8-5.4-5c1.7-0.1,3.7-0.4,5.5-1c-11-1.2-23.4-2.4-36-3.6c0.1,8.3,0.2,16.3,0.1,17.4
			c-0.1,2.2-2.3,4.1-2.8,4.4c-2.5-1.6-4.6-5.4-6.7-12.4c-0.6-2-2-5.9-3.7-10.5c-5.5-0.4-11-0.8-16.3-1.2c0.6,1.4,1.2,2.9,1.9,4.6
			c-2.3-0.4-7.5-0.5-12.8-0.5c0.6-1,1.3-2.6,2.1-4.6c-3.6-0.2-7.2-0.3-10.6-0.5c-2.9,7.6-6.9,18.3-7.2,19.2
			c-0.5,1.2-3.6,3.5-4.4,3.7c-1.5-1.1-2.5-2.4-2.7-5.4c-0.1-1.4-0.1-9.4,0-17.7c-5,0-10.3,0.2-15.6,0.4c0.1,8.7,0.2,17.4,0.2,18.7
			C228.5,213.4,226.1,215.2,224.9,215.7z"/>
		<linearGradient id="SVGID_58_" gradientUnits="userSpaceOnUse" x1="435.6088" y1="243.4184" x2="435.6088" y2="205.7955">
			<stop  offset="0" style="stop-color:#FAAE1A"/>
			<stop  offset="1" style="stop-color:#E99523"/>
		</linearGradient>
		<path class="st82" d="M434.5,230.5c-6.4,0.4-12.9-5.6-14.6-9c-1.6-3.4-3.2-5.8-3.6-6.5c-0.4-0.8-3-0.8-5.5-0.8
			c0.1,2.1,0,14.6-0.1,21.1c0.8,1.3,1,1.6,1.6,2.2c0.3-0.5,1.6-2,2.7-2c1.1,0,6.1,5,20.2,7.5c14.1,2.5,20.2-4.9,22.9-10.1
			c2.7-5.2,3.2-13.5,0.8-19.1c-0.8-2-2.6-4.3-4.7-6.7c-8.4,0.1-21.9-0.5-35.1-1.3c6.9,5.3,16.8,10.8,19.8,13.5
			C443.2,223.1,440.9,230.1,434.5,230.5z"/>
	</g>
	<g>
		<path class="st83" d="M106,213.6c-0.7-12.5-11-15-12.5-15c8.1-5.2,9.1-11.6,8.8-16.7c-0.3-5-5.7-15.2-23.1-13.4
			c-17.4,1.9-27.9,4.8-31.9,5.9c0,0,0,1.5,0,2.5c3.4,0.7,4.4,3.6,4.1,7.4c-0.3,3.8-3,51.7-3.4,53.7c-0.7,2.9-3.8,5.4-4.8,6.2
			c0,1-0.1,2.1,0,2.8c26.9-5.9,40.3-8.6,45.8-10.4C94.6,234.8,106.7,226.1,106,213.6z M71,180.8c4.3-0.8,13-3.4,13.4,4.9
			c0.4,8.3-5.5,10.6-14.1,12.5C70.3,193,71,180.8,71,180.8z M69,229.7c0-4.5,0.8-17.6,0.8-19.9c9.3-2.1,16.6-3,16.8,6
			C87,224.8,80.2,227.9,69,229.7z"/>
		<path class="st83" d="M108.9,176.3c0,1.3,0,2.3,0,2.8c3.3,0.6,3.6,2.8,3.6,6.9c0,4.1-0.3,36.1-0.6,38.3c-0.3,2.3-2.6,4.6-3.6,4.9
			c0,0.9-0.1,1.8,0,2.3c4.4-0.8,22.2-4.7,22.9-4.9c0-0.7-0.1-1.5-0.1-1.8c-2-0.1-2.8-2.8-2.7-6.9c-0.1-4.5,0.4-34.5,0.3-36.6
			c-0.1-2.1,2.8-5.7,3.6-6c0-1.1,0.1-2.2,0-2.5C127.3,173.7,109.8,176.2,108.9,176.3z"/>
		<path class="st83" d="M135.6,172.3c0,1.2,0.1,1.9,0,2.3c3,0.4,3.5,3.5,3.4,6.9c-0.1,3.4-0.4,35.9-0.5,37.6s-2.9,5.4-3.8,5.6
			c0,0.6-0.1,1.4,0,1.8c5-0.7,38-5.6,39.8-5.8c1.1-4.3,3-15.8,3.2-16.9c-2.1-0.1-5.3,1.3-6.1,3.8c-1.2,3.4-3.8,5.2-6.6,5.8
			c-2,0.4-9.3,1.1-10.7,1.2c0.1-5.2,0.3-36,0.5-37.8c0.1-1.8,2.6-4.1,3.7-4.5c0.1-1.7-0.1-2.9-0.1-2.9
			C155.4,169.7,136.3,172.2,135.6,172.3z"/>
		<path class="st83" d="M179.8,168.2c2.9-0.3,23.1-1.6,24.2-1.6c0,0.8-0.1,1.7,0,2.1c-2.4,0.7-4.5,3.4-4.5,6.5s-0.1,33.4-0.1,34.6
			c4.7,0,8.6-0.2,10-0.3c1.4-0.1,5.3-2.1,6.9-4.9c1.6-2.9,3.4-3.9,7.1-3.5c-0.8,4.9-3.6,15.4-4.1,16.5c-5.8,0.3-38.5,2.9-39.4,3
			c0-0.8-0.1-1.3,0-1.7c1.1-0.4,3.8-3.3,3.8-5.4s-0.2-35.6-0.2-37.8s-1.8-5.1-3.7-4.9C179.7,169.7,179.8,168.9,179.8,168.2z"/>
		<path class="st83" d="M402.6,188.9c-5.7-9.4-19-13.7-29.4-14.7c-10.4-1-18.1-2.9-18.7-2.9c0,1.2,0.1,2.2,0,2.6
			c1.4,0.6,3.6,4.2,3.3,6.8c-0.3,2.6,0.9,35.1,1.1,37.6c0.2,2.5-2.7,5.2-3.5,5.2c-0.8-0.1-4.3-3.6-5.4-5.4
			c-1.1-1.8-6.1-10.6-7.1-12.7c-1-2.1-2.7-4.8-5.4-5c5.1-0.4,11.8-1.3,12.2-12.2c0.4-10.8-9.1-17.4-16.7-18.2
			c-7.6-0.8-28.1-2.5-29.7-2.6c-0.2,0.8,0,1.7,0.1,2.3c2.9,1.1,3.4,3.3,3.4,6.6s0.5,34.7,0.4,36.9c-0.1,2.2-2.3,4.1-2.8,4.4
			c-2.5-1.6-4.6-5.4-6.7-12.4c-2.1-7-14.2-38.3-14.9-38.9c-1-0.1-19.6-0.6-20.8-0.5c-0.3,1.2-0.2,1.8-0.1,2.1
			c1.7,0.3,3.8,3.2,3.6,5.4c-0.2,2.2-3.5,9.7-4.4,12c-0.9,2.3-9.5,25.1-10,26.4s-3.6,3.5-4.4,3.7c-1.5-1.1-2.5-2.4-2.7-5.4
			c-0.3-3,0.3-35.9,0.2-37.5c0.8-2.8,2.8-4.5,3.7-4.7c0.1-0.8,0-1.9,0.1-2.3c-3.3,0-20.1,0.3-22.9,0.3c0,1-0.1,1.7,0,2.1
			c1.4,0.9,3.3,2.5,3.2,6.2c-0.1,3.7,0.3,34.7,0.3,37.3c0,2.6-2.4,4.4-3.6,4.8c0,0.7,0,1.8,0,2.1c2.9,0,37.9-0.4,39-0.3
			c0-0.8,0-1.2,0-1.6c-0.9-0.5-3.6-2.7-3.5-3.8c0.1-1.1,2.6-5.5,3-6c4,0,17.8,0.3,18.7,0.3c0.8,1.4,2.4,6.1,2.3,7.1
			c-0.1,1-1.7,2.7-2.4,2.9c0,0.4,0.1,0.9,0.1,1.2c5.2,0,43.3,3.3,44.4,3.5c0-0.8,0-1.2,0-1.4c-1.4-0.8-4.9-3.1-4.8-7.9
			c0.1-4.8,0.4-11,0.4-11.5c1.4,0,3.1,0.4,4.7,3.6c1.6,3.2,8.4,14.4,9.3,16.1c0.9,1.6,2.5,2.6,5.5,2.9c3,0.3,12.8,1.6,13.8,1.6
			c1,0.1,18.3,3.3,21.1,3.7c5.9,0.9,17.8,3,25.2-5.9C407.9,215.6,408.3,198.2,402.6,188.9z M266.9,197.6c1.3-2.3,3.6-8.1,6.4-15.2
			c0.7,2.3,3.1,7.9,6.4,15.7C277.4,197.7,272.1,197.6,266.9,197.6z M322.6,194.1c0,0,0-10.5,0-15.8c4,0,10.5,0,10.9,7.3
			C333.9,192.9,331.6,194.1,322.6,194.1z M390.6,207.2c-0.1,9.3-5.3,11.4-8,12.3c-2.8,0.8-5,0.5-8.2,0c0.1-2.1,0-30.7,0-35.2
			c2.5,0.1,7.4,1,11.4,4C389.8,191.2,390.7,197.9,390.6,207.2z"/>
		<path class="st83" d="M411,214.7c2.5,0,5.1,0.1,5.5,0.8c0.4,0.8,2,3.1,3.6,6.5c1.6,3.4,8.2,9.4,14.6,9s8.7-7.4,4.5-11.2
			c-4.2-3.7-21-12.7-25.8-19.1c-4.9-6.4-6.9-17.2-3.8-23.6s11.2-12.2,23.6-9.5c12.4,2.7,15.9,6.2,17.4,6.3c1.6,0.1,2.3-1.4,3.4-1.2
			c1.1,0.2,2.1,1.2,2.3,2c-1.4,1-1.2,3-0.9,5.4c0.3,2.4,1.2,13.3,0.9,14.2c-2.3-0.1-6-1.2-7.3-1.9c-1.6-7.8-7.8-13.8-14.8-14.3
			c-7-0.5-8.8,3.2-8.8,6.2c0,3,9.3,10,16,13.4c6.7,3.4,15.4,11.3,17.7,16.7c2.3,5.6,1.9,13.9-0.8,19.1c-2.7,5.2-8.9,12.6-22.9,10.1
			c-14.1-2.5-19.1-7.5-20.2-7.5c-1.1,0-2.4,1.4-2.7,2c-0.5-0.5-0.8-0.9-1.6-2.2C411,229.3,411.1,216.8,411,214.7z"/>
	</g>
	<g>
		<path class="st84" d="M44,246l0-1.3l0.1-0.1c1.1-0.9,4-3.4,4.7-6.3c0.3-1.3,1.3-17.4,2.8-42.9c0.3-5.5,0.6-9.9,0.7-10.9l0-0.1
			c-0.1,1,0,9.3-0.4,14.8c-1.6,26.9-2,38-2.3,39.3c-0.7,2.8-3,5.1-4.8,6.6l0,0c5.6-1.2,10.7-2.3,15.1-3.3l0.5-0.1
			c15.4-3.3,24-5.2,28.1-6.5c4.5-1.5,16.6-9.3,15.9-21.3c-0.6-11-9.5-13.5-10.8-13.5l-5.6,0l4.7-3l4.4-2l-6.5,4.3l3,0
			c1.4,0,10.9,2.7,11.6,14.2c0.7,12.4-11.8,20.6-16.4,22.1c-4.1,1.4-12.7,3.2-28.1,6.6l-0.5,0.1c-4.6,1-9.8,2.1-15.6,3.4L44,246z
			 M67.4,231.6v-1.9c0-3.1,0.6-8.8,0.8-13.9l0.8-4.7c-0.3,5.1-0.9,15.5-0.9,18.6v1l1-0.2c11.2-1.9,18.7-5.1,18.4-14.8l0-0.1
			c0.3,10.2-6.6,13.6-18.3,15.6L67.4,231.6z M68.6,200.2l0.2-1.7l1.2-10l-0.6,10.8l1.1-0.2c8.1-1.7,15.3-4.1,14.8-13.4l0.1,0
			c0.5,9.9-6.4,12.3-14.7,14.1L68.6,200.2z"/>
		<path class="st84" d="M109.2,230.5l0-0.7l0.2-0.2c1.4-1,3.1-3.2,3.4-5.2c0.3-2.4,0.6-34.9,0.6-38.4l0,5.2c0,3.6,0.5,31,0.1,33.4
			c-0.2,1.8-1.4,3.6-2.6,4.9c5.2-1,14.1-3,17.9-3.9c-1.4-1.3-2-3.8-1.9-7.6c0-2.4,0.5-9,0.6-17.7l0.3-3.3
			c-0.1,8.8-0.2,18.7-0.2,21.1c-0.1,4,0.7,6.6,2.3,7.4l0.9,0.5l-1,0.2c-3.5,0.8-15,3.3-20.1,4.3L109.2,230.5z"/>
		<path class="st84" d="M135.3,225.7l0.9-0.8c1.5-1.4,3.2-4.1,3.3-5.6c0-1,0.3-21.7,0.3-21.7s0.5,20.7,0.5,21.8
			c-0.1,1.5-1.4,3.7-2.7,5.3c8.6-1.2,30.4-4.5,35.7-5.3c0.8-3.7,2-10.3,2.6-13.4c-1.1,0.4-2.2,1.2-2.6,2.3c-1.2,3.5-4,6-7.8,6.8
			c-2,0.5-9.6,1.1-11,1.2l-1.8,0.1l0-1.8c0.1-2.4,1-18,1-18l0,0.1c-0.1,7.6-0.2,15.5-0.2,17.9l0,0.9l0.9,0c1.4-0.1,8.9-0.7,10.9-1.2
			c3.5-0.8,6.1-3.1,7.2-6.3c0.5-1.6,2.2-2.5,3.7-3l0.6-0.2l-0.1,0.6c-0.5,2.9-1.8,10.5-2.7,14.3l-0.1,0.2l-0.3,0
			c-5.1,0.8-29.2,4.3-37.1,5.4L135.3,225.7z"/>
		<path class="st84" d="M180.4,219.6l0.9-0.8c1.6-1.3,3.2-3.6,3.2-5.4c0-1.1-0.1-9.8-0.1-18.7c0,0,0.9,17.6,0.9,18.7
			c0,1.8-1.3,3.8-2.7,5.3c8-0.7,28.9-2.3,35.4-2.7c0.8-2.6,2.5-9.1,3.4-13.4c-1.7,0.1-2.7,0.9-3.8,2.8c-1.9,3.4-6.4,5.6-8.2,5.8
			c-1.4,0.1-5.3,0.4-10.1,0.4h-1.6v-1.6c0-0.5,0.8-11.1,0.8-11.1c0,5.9,0,10.6,0,11.1v0.9h0.9c4.8,0,8.7-0.2,10-0.3
			c1.6-0.2,5.8-2.2,7.6-5.4c1.3-2.3,2.6-3.2,4.9-3.2h0.5l-0.1,0.4c-0.9,4.5-2.8,11.7-3.6,14.2l-0.1,0.2l-0.3,0
			c-6.5,0.4-29.6,2.2-36.7,2.8L180.4,219.6z"/>
		<path class="st84" d="M385.6,228.8c-3.2,0-6.2-0.5-8.5-0.8l-0.3-0.1c-1.1-0.2-4.6-0.8-8.3-1.5l-0.8-0.2c-5.4-1-8.7-1.6-10.5-1.9
			l-0.9-0.1l0.7-0.5c0.3-0.2,0.6-0.5,0.8-0.7c0.5-0.5,2.3-2.5,2.1-4.8l0.1,0c0.2,2.6-1.1,4.7-1.7,5.3c-0.1,0.1-0.2,0.2-0.3,0.3
			c1.9,0.3,5,0.9,9.7,1.7l0.8,0.1c3.7,0.7,7.2,1.3,8.3,1.5l0.3,0.1c5.8,0.9,16.7,2.7,23.3-5.4c5.7-6.8,6.6-23.6,1.3-32.5l0-0.1
			c5.5,9,5.2,26-0.7,33C396.8,227.5,390.9,228.8,385.6,228.8z M354.5,224.1l-3.8-0.5c-3.2-0.4-7.2-0.9-8.9-1.1
			c-3.3-0.3-4.4-1.5-4.8-2.5c-0.4-0.7-1.6-2.9-3.1-5.4l-0.1-0.1c-2.3-3.9-5.1-8.7-6.1-10.5c-1.9-3.7-4-4.1-5.5-4.1h-0.9v0.9
			c0,0.1,0,0.6,0,1.3l0,0.4c-0.1,2.1-0.3,6.3-0.3,9.8c-0.1,3.7,1.9,6.1,3.5,7.5l1,0.8l-1.2-0.1c-4.1-0.4-11.7-1-18.8-1.6l-1-0.1
			l0.8-0.6c0.3-0.2,2.8-2.2,2.9-4.9c0.1-1.4-0.1-14.5-0.2-25c0,0,1,23.6,1,25.1c-0.1,2.2-1.6,4-2.5,4.9c6.3,0.5,12.8,1.1,16.8,1.4
			c-1.5-1.5-3-3.9-3-7.3c0-3.5,0.2-7.8,0.3-9.8l0-0.4c0-0.7,0-1.1,0-1.3v-1.6h1.6c1.7,0,4.1,0.5,6.2,4.5c0.9,1.9,3.8,6.7,6.1,10.5
			l0.1,0.1c1.6,2.6,2.8,4.7,3.2,5.4c0.4,0.8,1.3,1.8,4.2,2.1c1.7,0.2,5.7,0.7,9,1.1l1.3,0.2c-1.5-1.4-3-3.3-3.5-4.1
			c-1.1-1.8-6.2-10.7-7.2-12.9c-0.7-1.5-2.1-3.9-4-4.1l-0.3,0l0-3.2l0.3,0c5.7-0.5,11.2-1.6,11.5-10.6l0,0
			c-0.3,9.4-5.6,10.8-11.1,11.3l0,1.8c2.1,0.4,3.6,2.9,4.3,4.4c1,2.2,6.1,11,7.2,12.8c0.6,1,2.6,3.4,4.2,4.8L354.5,224.1z
			 M379.1,221.5c-1.6,0-3.2-0.2-5-0.5l-1.4-0.2l0.1-1.5c0.1-1.6,0-19.7,0-28.4l0-1.1c0-2.7,0.7-5.7,0.7-5.7c0,1,0,3,0,5.7l0,1.1
			c0,8.7,0.1,26.9,0,28.4l0,0.8l0.8,0.1c1.8,0.3,3.4,0.5,4.9,0.5c1.3,0,2.5-0.2,3.7-0.5c5.7-1.7,8.6-6.1,8.7-13.1
			c0.1-8.1-0.5-16.2-5.2-19.7l0,0.1c5,3.7,6,11.3,5.9,19.6c-0.1,7.4-3.2,12-9.2,13.8C381.7,221.4,380.5,221.5,379.1,221.5z
			 M304.4,218.7l-1.3-0.1c-6.3-0.5-14.7-1.2-18.9-1.4l-0.8,0l0.6-0.6c0.8-0.8,1.3-1.7,1.4-2.4l-1.5-4.6l2.3,4.6l0,0.1
			c-0.1,0.7-0.5,1.5-1.1,2.3c4.1,0.2,11.3,0.8,17,1.2c-2.2-2.2-5.2-12.3-5.2-12.3c2,6.7,4,10.5,6.5,12.5L304.4,218.7z M226,217.4
			v-0.6l0.2-0.1c1.6-0.9,3.4-2.9,3.4-5.3l-0.7-25.8l1.4,25.8c0,2.3-1.3,4.1-2.8,5.3c1.8,0,4.4,0,7.3-0.1c3.9,0,7.4-0.1,10.6-0.1
			c-1.6-1.3-2.8-2.9-3.1-6.3l0.9-26.3l-0.2,26.2c0.3,3.3,1.4,4.8,3.1,6l0.4,0.3l0.4-0.1c0.9-0.3,4.2-2.6,4.9-4.2
			c0.2-0.5,1.9-4.9,3.8-10l0.4-1c2.5-6.6,6.3-16.5,6.3-16.5s-3.1,10.1-5.6,16.7l-0.4,1c-2,5.3-3.6,9.5-3.8,10.1
			c-0.6,1.5-2.9,3.2-4.4,4.1c5.9,0,10.4-0.1,13.1-0.1c-1.3-1.1-2.5-2.5-2.4-3.9l0-0.2l3.4-4.7l-2.7,5c0,1,1.1,2.4,2.9,3.8l0.9,0.7
			h-1.1c-2.7,0-8.2,0-15.9,0.1l0,0l0,0c-3.5,0-7.4,0.1-11.6,0.1c-3.7,0-6.8,0.1-8.5,0.1L226,217.4z M282.3,200.2l-3-0.5
			c-2.2-0.4-7.5-0.4-12.5-0.4h-2.8l1.4-2.4l4.8-8.6l-4.2,9l-0.8,1.3h1.5c5,0,10.4,0.1,12.6,0.5l1.6,0.3l-0.6-1.5l-2.7-5.7l3.4,5.4
			L282.3,200.2z M322.6,195.7H321l0.9-13.2l-0.2,12.4h0.9c5.2,0,8.4-0.4,10.2-2.3c1.3-1.4,1.8-3.5,1.6-7.1c0,0,0.4,6.1-1.1,7.6
			C331.4,195.3,328,195.7,322.6,195.7z"/>
		<path class="st84" d="M440.8,243.2c-1.7,0-3.4-0.2-5.3-0.5c-10.4-1.8-15.7-5-18.3-6.6c-1-0.6-1.6-0.9-2.1-0.9
			c-1,0-1.9,0.7-2.5,1.2l-0.3,0.3l-0.2-0.4c-0.1-0.2-0.2-0.4-0.4-0.6l-0.1-0.1l0-0.1c0.1-5.5,0.1-15.6,0.1-19.5l0-0.4l0.4,0
			c2.4,0,3.1,0.2,3.4,0.4l0.1,0l0.1,0.1c0.1,0.2,0.3,0.4,0.4,0.7c0.7,1.1,1.9,3,3.1,5.6c1.7,3.5,8.5,9.9,15.4,9.5
			c3.3-0.2,6.1-2.2,7.1-5.1c0.9-2.7,0.2-5.6-2-7.6c-1.6-1.4-4.7-3.4-8.4-5.8c-6.4-4.1-14.3-9.2-17.3-13.1l0.1-0.1
			c2.9,3.9,11.3,8.5,17.6,12.6c3.7,2.4,6.9,4.4,8.5,5.9c2.4,2.1,3.3,5.4,2.2,8.4c-1.1,3.2-4.1,5.4-7.7,5.6c-0.2,0-0.5,0-0.7,0
			c-7,0-13.7-6.4-15.4-9.9c-1.2-2.5-2.4-4.4-3.1-5.5c-0.2-0.3-0.3-0.5-0.4-0.6c-0.3-0.1-0.9-0.2-2.6-0.2c0,4.1,0,13.6-0.1,19
			c0,0,0.1,0.1,0.1,0.1c0.7-0.6,1.6-1.1,2.6-1.1c0.7,0,1.3,0.4,2.5,1.1c2.5,1.5,7.7,4.7,18,6.5c9.9,1.7,17.1-1.4,21.2-9.3
			c2.6-4.8,2.9-12.6,0.8-17.7c-2-4.8-10.2-12.5-17-15.9c-5-2.5-16.2-10.4-16.2-14.9l0,0c0,3.5,9.9,10.9,16.5,14.2
			c6.8,3.5,15.3,11.4,17.3,16.3c2.2,5.3,1.9,13.3-0.8,18.4C454.1,239.8,448.4,243.1,440.8,243.2z M455.1,193.2
			c-1.7-0.3-3.9-0.9-5.1-1.4l-0.6-1.7c0.9,1.3,4.2,2.1,5.8,2.3L455.1,193.2z"/>
		<polygon class="st84" points="359.5,214.7 358.4,183.6 360.2,214.7 		"/>
	</g>
</g>
<g id="banner">
	<path class="st85" d="M128.4,249.2c-4.9,1-25,7-28.7,10.6c11.4,5.4,21,11.7,22,13.7c-2.3,5.8-8.5,20.1-11.7,21.7
		c9.8,2.6,36-2.3,41.2-4.1c5.2-1.8,9.5-2.6,9.8-3.8c0.3-1.2-1.5-3.8,0.3-4.9c1.8-1.1,35.9-12.9,92.5-12.9s94,10.7,96,12.1
		c2.1,1.4-3.6,0.5-3.8,3.6c-0.3,3,1,6.9,7,6.5s8.7-2.7,12-2.2c3.3,0.5,18.4,3.2,23.1,5.4c-1-10.4-4.3-19.6-5.6-20.5
		c3.7-2.2,20.6-12.5,21-13.6c0.4-1.1-23.6-10.4-27.5-10.7C372,249.7,136.7,247.6,128.4,249.2z"/>
	<path class="st85" d="M126.8,248.8c-1.4-3.8-3.7-6.6,3.3-8.9c7-2.3,52.8-15.9,122.4-15.9s120.4,15.2,123.9,16.7
		c3.5,1.4,4.1,3.1,2.9,5.8s-7.8,16.5-9.1,20.6c-1.2,4.1-4.9,13.8-5.4,15.5c-0.4,1.6-1.6,2.6-2.7,2.5c-4.3-0.4-3.4,4.3-9.1,4.3
		c-2.3,0-6.1-1.4-5.4-3c0.3-0.6-0.7-1,3.9-1.2c5-0.7,5.5-3.2,4-4.4c-28-9.9-68.8-14.4-103-14.4s-105.2,13.5-108.8,15.4
		s-1,2.1,2.1,2.1s12.1-0.3,12.6,1.2c0.5,1.5-22.4,8.5-30,7.3c-7.6-1.2,16.3-4.1,17.6-5.2c1.2-1.1-5.2-0.8-5.9-2.9
		C139.4,282.2,127.6,251,126.8,248.8z"/>
	<path class="st86" d="M155.5,236.3c-17,4-20.2,5.3-19,7.5c1.1,2.3,3.2,2.6,7.4,2.5c-6.4,2.6-8.7,6.2,1.1,4.9c-7,3.2-8.1,8.3,3,5.8
		c-8.7,4.1-9.6,7.7,1.7,6.6c-10.4,3.2-8.1,7.7,3.2,5.5c-7.9,2.8-11.9,7.2,4.3,5.8c1.7,1.1,6.2-0.2,10-0.8c-10,2.5-23.4,6.4-25.3,5.7
		c-1.9-0.8-4.3-12.4-6-18.3c-1.7-5.8-7.5-14.9-7-16.8C129.5,242.9,148.7,237.4,155.5,236.3z"/>
	<path class="st86" d="M115.1,256.7c7.6-3,9.5-4.9,11.1-4c1.6,1,6.5,14.3,8,18.3c1.5,4,3.7,13.3,5.9,14.3c2.2,1,5.6,1.2,4.1,1.8
		c-1.5,0.5-14.7,1.6-17.9,2.6c7.8-2.1,13.2-5.6-0.3-2.5c11-3.8,8.2-5.6,4.8-15.5c-3.4-9.9-4.8-12.2-5.9-14.6
		c-5.2,1.1-10.9,2.6-13.3,3.7C121.5,257.1,129.5,253,115.1,256.7z"/>
	<path class="st86" d="M353.5,238.9c15.5,5.5,18.5,9.4,8.8,8.2c3.4,1.6,11.5,8.8-6,4.5c11.5,4.7,12.8,9.3,0.4,6.6
		c5.9,3,7.7,7.1,0.5,6.5c4.5,3,6,5.8-6.7,1.6c12.6,5.9,9.5,6.2,0.5,4.5c10,4.4,4.4,3.8-6.6,3c12.6,4.1,15.2,6.6,17.4,4.7
		c2.2-1.9,3.7-14,5.5-17.2c1.8-3.2,7.3-14.6,5.9-16.1C371.9,243.9,359.8,240.7,353.5,238.9z"/>
	<path class="st86" d="M391.1,257.5c-10-1.4-13.7,1.5-9.8,3c-6.3,0.1-7.1,2.1-1.5,3.8c-5.5,0.3-8.8,3.8-3.2,6.5
		c-5.9,1-6.9,6.2,0.1,8.7c-8.5-1.8-9.5,1.5-1.9,3.8c-8.1-0.5-6.9,0.5,0.4,3c-7.3-1-6.9,1.6,1.1,3.6c-12.2-2.1-13.1-2.1-12.9-4
		c0.1-1.9,5.1-8.9,8.2-18.5c3.2-9.8,4.3-14.4,8.4-14.2C384.2,253.5,388.5,255.4,391.1,257.5z"/>
	<path class="st86" d="M141.2,293.1c12.1-3.2,17.4-6.5,17.2-8c-0.3-1.5-13.7-0.9-15.9-1.4c-2.3-0.5,2.3-3.9,23.3-7.1
		c21-3.2,70-10.9,89.5-10.2s78.5,5.2,100.6,14.7c2,4.3-6.9,3.7-7.5,4.5c-0.6,0.8-1.3,2.6,1.6,3.5c3,0.9,6,2.5,2.9,2.4
		c-3-0.1-7-2.1-7-4.5s2-4.4,3.7-4.8c1.8-0.4-0.8-1.4-8.2-3.4c-7.4-2-44.9-10.6-86.7-9.6s-85.7,7.1-94.4,13.9
		c0.1,1.5,1.6,3.1,0.6,4.2S143.2,292.9,141.2,293.1z"/>
	<path class="st86" d="M365.9,288c0,0-7.1,1.5-8.7,1.6c-3.8,0.4,2-4.3,6.3-4.7C366.2,284.6,365.9,288,365.9,288z"/>
	<g id="game">
		<path class="st87" d="M202.9,244.6c-2.3-2.7-5-4-8.9-3.6c-3.9,0.4-8.2,4.5-7.7,9.8s5,7.8,8.3,7.7c3.2-0.1,6.6-1.5,7.1-2.1
			c0-1.3,0-3.2-0.1-3.6c-1.5,0-3.9,0.1-4.5,0.1s-1.9,1.5-2,2.1c0-2.7-0.1-6.9-0.2-7.9c1.1,1,2,0.8,3.3,0.8c1.3,0,10.5-1.3,11.1-1.5
			c0,1.6,0.2,11.9,1,12.6c-1.6,1.7-5.6,5.6-16.5,6.3c-10.9,0.7-16.5-7.2-16.5-14.8c-0.1-7.6,6.5-16,18-16c6.4,0,11.1,3,11.6,3.6
			C206.4,239.2,203.6,243.5,202.9,244.6z"/>
		<path class="st87" d="M248.7,260.8c-1.2-0.2-2.8-2.6-3.5-4c-0.6-1.4-10.3-21.7-10.5-22.4c-0.2-0.7-0.1-1.4,0.2-1.6
			c-2,0.1-11.3,0.7-12.3,0.7c0,0.7,1.5,1.6,1.5,2.4c-0.1,0.7-8.6,22.8-9,24c-0.5,1.2-1.6,2.4-2.4,2.4c0,0-0.2,0.7,0,0.9
			c2.7,0,10.8-0.5,11.4-0.5c0-0.5,0.1-0.8,0-1.1c-1.1-0.5-1.3-1.3-1.1-2.3c0.3-0.9,0.8-1.9,1.1-2.6c3-0.1,10.8-0.2,12-0.4
			c0.8,2,1.4,3.1,1.3,3.6s-0.7,1.1-1.1,1.3c0,0,0.2,0.9,0.2,1c5-0.1,11.2-0.3,12.1-0.3C248.7,261.8,248.7,260.9,248.7,260.8z
			 M226.2,250.8c0-0.8,2.4-6.1,3.4-9.1c0.6,1,2.4,5.6,4.1,9.1C233,250.8,227.8,250.8,226.2,250.8z"/>
		<path class="st87" d="M250.7,260.8c0,0-0.1,0.7,0,1c1.1,0,10.3,0.1,11,0c0,0,0.2-0.9,0-1.2c-1-0.3-1.4-1.1-1.4-1.9
			c0-0.7,0.1-12,0.2-13.3c2.9,5.8,8.8,16.4,9,16.8c0.2,0.4,0.6,0.3,0.8,0c0.2-0.3,8.6-14.8,9.3-16.1c-0.3,3.9-0.3,12.3-0.3,13.1
			c-0.1,0.8-1,2.3-1.5,2.4l0.1,0.9c0,0,10.6,0.4,11.3,0.4c0,0,0-0.7,0-1c-1.1-0.4-1.4-1-1.4-3c0-2,0.1-20.7,0.1-21.7
			s1.1-2.1,1.9-2.1v-1.3c0,0-10.8-0.6-11.2-0.5c0.5,0.6-0.1,2-0.5,2.7s-7.5,11.4-7.8,12.1c-1.9-4.3-7.8-14.8-7.7-15.5
			c-2.3,0-10.5,0-11.1,0l0.1,1c0,0,1.3,0.7,1.3,2.5c0.1,1.9,0,21.3,0,22.5C252.7,260,251.5,260.7,250.7,260.8z"/>
		<path class="st87" d="M319.2,236.9c-0.4,0.5-0.7,1.6-0.6,2.9s-0.1,5.8,0,6.3c-0.9,0-1.1,0-1.1,0s-0.8-3.6-2.5-3.7
			c-1.6-0.2-9.6-0.9-10.3-0.9c0,1.3,0,4.3,0,5c2.9,0.4,7.2,1,8.2,1s1.6-0.8,1.8-1.1l0.5,0.4l-0.6,8.9c0,0-0.6,0.1-1.1,0
			c-0.1-1.3-0.9-2.7-3.9-2.9c-2.9-0.3-5-0.2-5.5-0.2c0,2.6,0,5.2,0,5.8c4.3,0.6,8.8,0.9,10.2,0.9c1.4,0,4.2-1.6,4.2-1.6l0.4,0.9
			c0,0-1.6,7.4-1.6,8.2c-3.1-1.3-3.6-1.2-5.6-1.5s-16.9-1.8-17.6-1.8v-1.1c0,0,1,0,1.4-1.2c0.5-1.2,1.2-22.8,1.1-24
			c-0.2-1.2-1.4-2.3-1.7-2.3l0.4-0.9L319.2,236.9z"/>
	</g>
	<g id="game_1_">
		<path class="st13" d="M202.9,242.1c-2.3-2.7-5-4-8.9-3.6c-3.9,0.4-8.2,4.5-7.7,9.8c0.5,5.3,5,7.8,8.3,7.7c3.2-0.1,6.6-1.5,7.1-2.1
			c0-1.3,0-3.2-0.1-3.6c-1.5,0-3.9,0.1-4.5,0.1s-1.9,1.5-2,2.1c0-2.7-0.1-6.9-0.2-7.9c1.1,1,2,0.8,3.3,0.8c1.3,0,10.5-1.3,11.1-1.5
			c0,1.6,0.2,11.9,1,12.6c-1.6,1.7-5.6,5.6-16.5,6.3c-10.9,0.7-16.5-7.2-16.5-14.8c-0.1-7.6,6.5-16,18-16c6.4,0,11.1,3,11.6,3.6
			C206.4,236.7,203.6,241,202.9,242.1z"/>
		<path class="st13" d="M248.7,258.3c-1.2-0.2-2.8-2.6-3.5-4c-0.6-1.4-10.3-21.7-10.5-22.4c-0.2-0.7-0.1-1.4,0.2-1.6
			c-2,0.1-11.3,0.7-12.3,0.7c0,0.7,1.5,1.6,1.5,2.4c-0.1,0.7-8.6,22.8-9,24c-0.5,1.2-1.6,2.4-2.4,2.4c0,0-0.2,0.7,0,0.9
			c2.7,0,10.8-0.5,11.4-0.5c0-0.5,0.1-0.8,0-1.1c-1.1-0.5-1.3-1.3-1.1-2.3c0.3-0.9,0.8-1.9,1.1-2.6c3-0.1,10.8-0.2,12-0.4
			c0.8,2,1.4,3.1,1.3,3.6c-0.1,0.5-0.7,1.1-1.1,1.3c0,0,0.2,0.9,0.2,1c5-0.1,11.2-0.3,12.1-0.3C248.7,259.3,248.7,258.4,248.7,258.3
			z M226.2,248.3c0-0.8,2.4-6.1,3.4-9.1c0.6,1,2.4,5.6,4.1,9.1C233,248.3,227.8,248.3,226.2,248.3z"/>
		<path class="st13" d="M250.7,258.3c0,0-0.1,0.7,0,1c1.1,0,10.3,0.1,11,0c0,0,0.2-0.9,0-1.2c-1-0.3-1.4-1.1-1.4-1.9
			c0-0.7,0.1-12,0.2-13.3c2.9,5.8,8.8,16.4,9,16.8c0.2,0.4,0.6,0.3,0.8,0c0.2-0.3,8.6-14.8,9.3-16.1c-0.3,3.9-0.3,12.3-0.3,13.1
			c-0.1,0.8-1,2.3-1.5,2.4l0.1,0.9c0,0,10.6,0.4,11.3,0.4c0,0,0-0.7,0-1c-1.1-0.4-1.4-1-1.4-3c0-2,0.1-20.7,0.1-21.7
			c0.1-1,1.1-2.1,1.9-2.1v-1.3c0,0-10.8-0.6-11.2-0.5c0.5,0.6-0.1,2-0.5,2.7c-0.5,0.7-7.5,11.4-7.8,12.1c-1.9-4.3-7.8-14.8-7.7-15.5
			c-2.3,0-10.5,0-11.1,0l0.1,1c0,0,1.3,0.7,1.3,2.5c0.1,1.9,0,21.3,0,22.5C252.7,257.5,251.5,258.2,250.7,258.3z"/>
		<path class="st13" d="M319.2,234.4c-0.4,0.5-0.7,1.6-0.6,2.9c0.1,1.3-0.1,5.8,0,6.3c-0.9,0-1.1,0-1.1,0s-0.8-3.6-2.5-3.7
			c-1.6-0.2-9.6-0.9-10.3-0.9c0,1.3,0,4.3,0,5c2.9,0.4,7.2,1,8.2,1s1.6-0.8,1.8-1.1l0.5,0.4l-0.6,8.9c0,0-0.6,0.1-1.1,0
			c-0.1-1.3-0.9-2.7-3.9-2.9c-2.9-0.3-5-0.2-5.5-0.2c0,2.6,0,5.2,0,5.8c4.3,0.6,8.8,0.9,10.2,0.9c1.4,0,4.2-1.6,4.2-1.6l0.4,0.9
			c0,0-1.6,7.4-1.6,8.2c-3.1-1.3-3.6-1.2-5.6-1.5S294.7,261,294,261V260c0,0,1,0,1.4-1.2s1.2-22.8,1.1-24c-0.2-1.2-1.4-2.3-1.7-2.3
			l0.4-0.9L319.2,234.4z"/>
	</g>
</g>
<g id="cue_ball">
	
		<radialGradient id="SVGID_59_" cx="240.2543" cy="294.3883" r="29.9838" fx="240.3238" fy="266.7014" gradientUnits="userSpaceOnUse">
		<stop  offset="0" style="stop-color:#FFFFFF"/>
		<stop  offset="1" style="stop-color:#D5C4B2"/>
	</radialGradient>
	<circle class="st88" cx="240.3" cy="294.4" r="30"/>
	
		<radialGradient id="SVGID_60_" cx="240.2543" cy="294.3883" r="35.3457" fx="230.7378" fy="260.3478" gradientUnits="userSpaceOnUse">
		<stop  offset="0.1065" style="stop-color:#EBDFCC"/>
		<stop  offset="0.4094" style="stop-color:#E9DCC9"/>
		<stop  offset="0.5185" style="stop-color:#E0D1BF"/>
		<stop  offset="0.5963" style="stop-color:#D4C2B0"/>
		<stop  offset="0.6592" style="stop-color:#C3AF9C"/>
		<stop  offset="0.713" style="stop-color:#B09784"/>
		<stop  offset="0.7598" style="stop-color:#9A7E6C"/>
		<stop  offset="0.8019" style="stop-color:#836454"/>
		<stop  offset="1" style="stop-color:#CCAC8B"/>
	</radialGradient>
	<circle class="st89" cx="240.3" cy="294.4" r="27.4"/>
	<radialGradient id="SVGID_61_" cx="241.2826" cy="274.099" r="22.731" fx="235.671" fy="267.7097" gradientUnits="userSpaceOnUse">
		<stop  offset="0" style="stop-color:#FFFFFF"/>
		<stop  offset="0.8592" style="stop-color:#FFFFFF;stop-opacity:0.5704"/>
		<stop  offset="1" style="stop-color:#FFFFFF;stop-opacity:0.5"/>
	</radialGradient>
	<path class="st90" d="M257.6,278.1c0,5.8-7.5-0.6-17.3-0.6s-15.3,6.5-15.3,0.7s4.9-10.5,14.8-10.5
		C249.6,267.6,257.6,272.3,257.6,278.1z"/>
	
		<radialGradient id="SVGID_62_" cx="221.2214" cy="293.2089" r="10.5376" fx="220.5621" fy="288.9172" gradientTransform="matrix(0.8589 0.1646 3.333095e-02 0.927 22.5088 -26.6057)" gradientUnits="userSpaceOnUse">
		<stop  offset="0" style="stop-color:#FFFFFF"/>
		<stop  offset="0.8592" style="stop-color:#FFFFFF;stop-opacity:0.1408"/>
		<stop  offset="1" style="stop-color:#FFFFFF;stop-opacity:0"/>
	</radialGradient>
	<path class="st91" d="M226.2,273c-3.1,4-0.7,4.2-4.2,7.4c-5.6,5.1-4.5,7.8-4.5,7.8c-1.6-2.8-0.1-8.9,3.1-11.9
		C224.5,272.6,227.3,271.5,226.2,273z"/>
</g>
<g id="chalk">
	<polygon class="st92" points="298.7,329.2 324.2,314.5 324.2,288.6 298.9,275.5 274.1,288.1 274.4,314.7 	"/>
	<polygon class="st93" points="275.3,288.6 298.6,276.6 322.8,289.2 298.6,300.5 	"/>
	<polygon class="st94" points="275.4,288.9 275.3,313.8 299.1,327.9 298.6,301.1 	"/>
	<polygon class="st95" points="299.8,328 323.5,313.8 323.7,289.2 299.4,301 	"/>
	<path class="st96" d="M300.5,327c11-7.8,22.6-14.8,22.7-34.7c0.3,18.2,0.2,21,0.2,21L300.5,327z"/>
	<path class="st97" d="M275.8,289.5c-4.2-2,21.3,11.1,22.2,12c0.2,5.7,0.7,23,0.6,24.6C297.4,310.3,285.3,294,275.8,289.5z"/>
</g>
</svg>
