
<svg id="settings" viewBox="0 0 498 400">
<style type="text/css">
	.st0{fill:url(#SVGID_1_);}
	.st1{fill:url(#SVGID_2_);stroke:#000000;stroke-miterlimit:10;}
	.st2{fill:url(#SVGID_3_);}
	.st3{fill:url(#SVGID_4_);stroke:#000000;stroke-miterlimit:10;}
	.st4{fill:url(#SVGID_5_);}
	.st5{fill:url(#SVGID_6_);stroke:#000000;stroke-miterlimit:10;}
	.st6{fill:url(#SVGID_7_);}
	.st7{fill:url(#SVGID_8_);stroke:#000000;stroke-miterlimit:10;}
	.st8{fill:url(#SVGID_9_);}
	.st9{fill:url(#SVGID_10_);stroke:#3D1E00;stroke-miterlimit:10;}
	.st10{fill:url(#SVGID_11_);stroke:#3D1E00;stroke-miterlimit:10;}
	.st11{fill:url(#SVGID_12_);stroke:#3D1E00;stroke-miterlimit:10;}
	.st12{fill:url(#SVGID_13_);stroke:#3D1E00;stroke-miterlimit:10;}
	.st13{fill:url(#SVGID_14_);stroke:#3D1E00;stroke-miterlimit:10;}
	.st14{fill:url(#SVGID_15_);stroke:#3D1E00;stroke-miterlimit:10;}
	.st15{fill:url(#SVGID_16_);stroke:#3D1E00;stroke-miterlimit:10;}
	.st16{fill:url(#SVGID_17_);stroke:#3D1E00;stroke-miterlimit:10;}
	.st17{fill:url(#SVGID_18_);}
	.st18{fill:url(#SVGID_19_);}
	.st19{fill:url(#SVGID_20_);}
	.st20{fill:url(#SVGID_21_);}
	.st21{fill:url(#SVGID_22_);stroke:#5E3300;stroke-width:0.5;stroke-miterlimit:10;}
	.st22{fill:none;stroke:#492D00;stroke-width:3;stroke-miterlimit:10;}
	.st23{fill:url(#SVGID_23_);stroke:#E2BD03;stroke-miterlimit:10;}
	.st24{fill:#FEE34F;stroke:#702C02;stroke-miterlimit:10;}
	.st25{fill:url(#SVGID_24_);stroke:#5E3300;stroke-width:0.5;stroke-miterlimit:10;}
	.st26{fill:none;stroke:#742F06;stroke-width:3;stroke-miterlimit:10;}
	.st27{fill:url(#SVGID_25_);stroke:#E2BD03;stroke-miterlimit:10;}
	.st28{fill:url(#SVGID_26_);stroke:#5E3300;stroke-width:0.5;stroke-miterlimit:10;}
	.st29{fill:url(#SVGID_27_);stroke:#E2BD03;stroke-miterlimit:10;}
	.st30{fill:url(#SVGID_28_);stroke:#4C2900;stroke-width:0.5;stroke-miterlimit:10;}
	.st31{fill:none;stroke:#522201;stroke-width:3;stroke-miterlimit:10;}
	.st32{fill:url(#SVGID_29_);stroke:#E2BD03;stroke-miterlimit:10;}
	.st33{fill:url(#SVGID_30_);}
	.st34{opacity:0.5;}
	.st35{fill:#023215;}
	.st36{fill:#FCD661;stroke:#935700;stroke-miterlimit:10;}
	.st37{fill:#391401;stroke:#CC6600;stroke-miterlimit:10;}
	.st38{fill:url(#SVGID_31_);stroke:#2D1A00;stroke-miterlimit:10;}
	.st39{fill:url(#SVGID_32_);stroke:#421313;stroke-miterlimit:10;}
	.st40{opacity:0.63;fill:url(#SVGID_33_);stroke:#5E0A0B;stroke-width:0.5;stroke-miterlimit:10;}
	.st41{opacity:0.35;fill:#F5998C;}
	.st42{fill:#FFFFFF;}
	.st43{opacity:0.41;fill:url(#SVGID_34_);}
	.st44{opacity:0.51;fill:#FFFFFF;}
	.st45{fill:#E2E2E2;}
	.st46{opacity:0.6;fill:#A81F24;}
	.st47{fill:#231F20;}
	.st48{fill:url(#SVGID_35_);stroke:#161247;stroke-miterlimit:10;}
	.st49{fill:url(#SVGID_36_);stroke:#191547;stroke-width:0.5;stroke-miterlimit:10;}
	.st50{opacity:0.35;fill:#8585BB;}
	.st51{opacity:0.41;fill:url(#SVGID_37_);}
	.st52{opacity:0.6;fill:#31487D;}
	.st53{fill:url(#SVGID_38_);stroke:#231F20;stroke-miterlimit:10;}
	.st54{fill:url(#SVGID_39_);stroke:#231F20;stroke-width:0.5;stroke-miterlimit:10;}
	.st55{opacity:0.35;fill:#939292;}
	.st56{fill:#373440;}
	.st57{opacity:0.41;fill:url(#SVGID_40_);}
	.st58{fill:#0C0D0D;}
	.st59{fill:url(#SVGID_41_);stroke:#492A08;stroke-miterlimit:10;}
	.st60{opacity:0.63;fill:url(#SVGID_42_);stroke:#BE7C2A;stroke-width:0.5;stroke-miterlimit:10;}
	.st61{opacity:0.41;fill:url(#SVGID_43_);}
	.st62{opacity:0.6;fill:#723116;}
	.st63{fill:url(#SVGID_44_);}
	.st64{fill:url(#SVGID_45_);}
	.st65{fill:url(#SVGID_46_);stroke:#5E3B15;stroke-miterlimit:10;}
	.st66{fill:#7A3419;}
	.st67{fill:url(#SVGID_47_);}
	.st68{fill:#220F11;}
	.st69{fill:none;stroke:#7A3419;stroke-width:0.5;stroke-miterlimit:10;}
	.st70{fill:#BBD5EA;stroke:#111B36;stroke-miterlimit:10;}
	.st71{fill:#DE202E;}
	.st72{fill:#1780C3;}
	.st73{fill:#1A4681;}
	.st74{fill:#172D55;}
	.st75{fill:#106EA0;}
	.st76{fill:#7BFFFF;}
	.st20-ds1{filter:url(#ds1);}
	.st20-ds2{filter:url(#ds2);}
</style>
<filter id="ds1" x="-40%" y="-40%" width="180%" height="180%">
	<feDropShadow dx="0" dy="7" stdDeviation="9" flood-color="#000000" flood-opacity="1" />
</filter>
<filter id="ds2" x="-100%" y="-100%" width="300%" height="300%">
	<feDropShadow dx="0" dy="0" stdDeviation="2.5" flood-color="#7bffff" flood-opacity="1" />
</filter>
<linearGradient id="SVGID_1_" gradientUnits="userSpaceOnUse" x1="248.7179" y1="105.941" x2="248.7179" y2="414.7637">
	<stop  offset="0" style="stop-color:#803505"/>
	<stop  offset="1" style="stop-color:#742F06"/>
</linearGradient>
<path class="st0" d="M487.9,400H9.5c-3.9,0-7.1-3.2-7.1-7.1V54.5c0-3.9,3.2-7.1,7.1-7.1h478.3c3.9,0,7.1,3.2,7.1,7.1v338.4
	C495,396.8,491.8,400,487.9,400z"/>
<g id="pocket">
	<radialGradient id="SVGID_2_" cx="29.7785" cy="75.3067" r="19.3496" fx="19.538" fy="65.5251" gradientUnits="userSpaceOnUse">
		<stop  offset="0" style="stop-color:#6C2E05"/>
		<stop  offset="0.9622" style="stop-color:#351603"/>
		<stop  offset="1" style="stop-color:#060101"/>
	</radialGradient>
	<circle class="st1" cx="29.8" cy="75.3" r="19.3"/>
	<radialGradient id="SVGID_3_" cx="32.0404" cy="77.586" r="16.1398" fx="23.4987" fy="69.4271" gradientUnits="userSpaceOnUse">
		<stop  offset="0" style="stop-color:#6C2E05;stop-opacity:0.7"/>
		<stop  offset="1" style="stop-color:#060101;stop-opacity:0.7"/>
	</radialGradient>
	<circle class="st2" cx="32" cy="77.6" r="16.1"/>
	<circle cx="33.4" cy="78.9" r="14.8"/>
</g>
<g id="pocket_1_">
	
		<radialGradient id="SVGID_4_" cx="-52.1668" cy="76.1261" r="19.3496" fx="-62.4073" fy="66.3445" gradientTransform="matrix(-1 0 0 1 415.2699 0)" gradientUnits="userSpaceOnUse">
		<stop  offset="0" style="stop-color:#6C2E05"/>
		<stop  offset="0.9622" style="stop-color:#351603"/>
		<stop  offset="1" style="stop-color:#060101"/>
	</radialGradient>
	<circle class="st3" cx="467.4" cy="76.1" r="19.3"/>
	
		<radialGradient id="SVGID_5_" cx="-49.905" cy="78.4054" r="16.1398" fx="-58.4467" fy="70.2465" gradientTransform="matrix(-1 0 0 1 415.2699 0)" gradientUnits="userSpaceOnUse">
		<stop  offset="0" style="stop-color:#6C2E05;stop-opacity:0.7"/>
		<stop  offset="1" style="stop-color:#060101;stop-opacity:0.7"/>
	</radialGradient>
	<circle class="st4" cx="465.2" cy="78.4" r="16.1"/>
	<circle cx="463.8" cy="79.7" r="14.8"/>
</g>
<g id="pocket_3_">
	
		<radialGradient id="SVGID_6_" cx="30.7867" cy="-220.634" r="19.3496" fx="20.5462" fy="-230.4156" gradientTransform="matrix(1 0 0 -1 0 151.4327)" gradientUnits="userSpaceOnUse">
		<stop  offset="0" style="stop-color:#6C2E05"/>
		<stop  offset="0.9622" style="stop-color:#351603"/>
		<stop  offset="1" style="stop-color:#060101"/>
	</radialGradient>
	<circle class="st5" cx="30.8" cy="372.1" r="19.3"/>
	
		<radialGradient id="SVGID_7_" cx="33.0486" cy="-218.3547" r="16.1398" fx="24.5068" fy="-226.5136" gradientTransform="matrix(1 0 0 -1 0 151.4327)" gradientUnits="userSpaceOnUse">
		<stop  offset="0" style="stop-color:#6C2E05;stop-opacity:0.7"/>
		<stop  offset="1" style="stop-color:#060101;stop-opacity:0.7"/>
	</radialGradient>
	<circle class="st6" cx="33" cy="369.8" r="16.1"/>
	<circle cx="34.4" cy="368.4" r="14.8"/>
</g>
<g id="pocket_2_">
	
		<radialGradient id="SVGID_8_" cx="-53.121" cy="-220.9682" r="19.3496" fx="-63.3615" fy="-230.7498" gradientTransform="matrix(-1 0 0 -1 415.2699 151.4327)" gradientUnits="userSpaceOnUse">
		<stop  offset="0" style="stop-color:#6C2E05"/>
		<stop  offset="0.9622" style="stop-color:#351603"/>
		<stop  offset="1" style="stop-color:#060101"/>
	</radialGradient>
	<circle class="st7" cx="468.4" cy="372.4" r="19.3"/>
	
		<radialGradient id="SVGID_9_" cx="-50.8591" cy="-218.6889" r="16.1398" fx="-59.4009" fy="-226.8478" gradientTransform="matrix(-1 0 0 -1 415.2699 151.4327)" gradientUnits="userSpaceOnUse">
		<stop  offset="0" style="stop-color:#6C2E05;stop-opacity:0.7"/>
		<stop  offset="1" style="stop-color:#060101;stop-opacity:0.7"/>
	</radialGradient>
	<circle class="st8" cx="466.1" cy="370.1" r="16.1"/>
	<circle cx="464.8" cy="368.8" r="14.8"/>
</g>
<g id="frame_1_">
	<linearGradient id="SVGID_10_" gradientUnits="userSpaceOnUse" x1="23.1022" y1="226.3512" x2="4.2409" y2="226.3512">
		<stop  offset="0" style="stop-color:#9C450B"/>
		<stop  offset="0.1909" style="stop-color:#934008"/>
		<stop  offset="0.4786" style="stop-color:#6F2F06"/>
		<stop  offset="0.8071" style="stop-color:#6C2E05"/>
		<stop  offset="0.8346" style="stop-color:#C8610B"/>
		<stop  offset="1" style="stop-color:#E4700D"/>
	</linearGradient>
	<rect x="4.2" y="100" class="st9" width="18.9" height="252.7"/>
	
		<linearGradient id="SVGID_11_" gradientUnits="userSpaceOnUse" x1="-446.8978" y1="226.3512" x2="-465.7591" y2="226.3512" gradientTransform="matrix(-1 0 0 -1 27.3431 452.7024)">
		<stop  offset="0" style="stop-color:#9C450B"/>
		<stop  offset="0.1909" style="stop-color:#934008"/>
		<stop  offset="0.4786" style="stop-color:#6F2F06"/>
		<stop  offset="0.8071" style="stop-color:#6C2E05"/>
		<stop  offset="0.8346" style="stop-color:#C8610B"/>
		<stop  offset="1" style="stop-color:#E4700D"/>
	</linearGradient>
	<polygon class="st10" points="474.2,100 493.1,100 493.1,352.7 474.2,352.7 	"/>
	
		<linearGradient id="SVGID_12_" gradientUnits="userSpaceOnUse" x1="-605.9934" y1="-8.2947" x2="-626.5438" y2="-8.2947" gradientTransform="matrix(-6.123234e-17 -1 1 -6.123234e-17 257.3203 -229.9773)">
		<stop  offset="0" style="stop-color:#9C450B"/>
		<stop  offset="0.1909" style="stop-color:#934008"/>
		<stop  offset="0.4786" style="stop-color:#6F2F06"/>
		<stop  offset="0.8634" style="stop-color:#6C2E05"/>
		<stop  offset="0.8742" style="stop-color:#C8610B"/>
		<stop  offset="1" style="stop-color:#E4700D"/>
	</linearGradient>
	<polygon class="st11" points="450.3,376 450.3,396.6 47.7,396.6 47.7,376 	"/>
	
		<linearGradient id="SVGID_13_" gradientUnits="userSpaceOnUse" x1="-935.2979" y1="-8.2947" x2="-953.5438" y2="-8.2947" gradientTransform="matrix(6.123234e-17 1 -1 6.123234e-17 240.731 1002.5599)">
		<stop  offset="0" style="stop-color:#9C450B"/>
		<stop  offset="0.1909" style="stop-color:#934008"/>
		<stop  offset="0.4786" style="stop-color:#6F2F06"/>
		<stop  offset="0.9028" style="stop-color:#6C2E05"/>
		<stop  offset="0.9155" style="stop-color:#C8610B"/>
		<stop  offset="1" style="stop-color:#E4700D"/>
	</linearGradient>
	<polygon class="st12" points="47.7,67.3 47.7,49 450.3,49 450.3,67.3 	"/>
	<g id="frame">
		<linearGradient id="SVGID_14_" gradientUnits="userSpaceOnUse" x1="23.1022" y1="223.5018" x2="30.3682" y2="223.5018">
			<stop  offset="0" style="stop-color:#9C450B"/>
			<stop  offset="0.1909" style="stop-color:#934008"/>
			<stop  offset="0.4786" style="stop-color:#6F2F06"/>
			<stop  offset="0.8071" style="stop-color:#6C2E05"/>
			<stop  offset="0.8346" style="stop-color:#C8610B"/>
			<stop  offset="1" style="stop-color:#E4700D"/>
		</linearGradient>
		<path class="st13" d="M30.4,92.6c0,0,0,258.4,0,261.1c-3,0.5-6.6,2-7.3,2.6c0-33.4,0-261.4,0-265.7C25.2,92.1,28.4,92.8,30.4,92.6
			z"/>
		<linearGradient id="SVGID_15_" gradientUnits="userSpaceOnUse" x1="475.2481" y1="223.222" x2="467.9821" y2="223.222">
			<stop  offset="0" style="stop-color:#9C450B"/>
			<stop  offset="0.1909" style="stop-color:#934008"/>
			<stop  offset="0.4786" style="stop-color:#6F2F06"/>
			<stop  offset="0.8071" style="stop-color:#6C2E05"/>
			<stop  offset="0.8346" style="stop-color:#C8610B"/>
			<stop  offset="1" style="stop-color:#E4700D"/>
		</linearGradient>
		<path class="st14" d="M468,354.4c0,0,0-260.4,0-263.1c2.8-0.8,6.6-2.5,7.3-3.2c0,33.4,0,265.9,0,270.2
			C472.8,355.5,470,354.2,468,354.4z"/>
		<linearGradient id="SVGID_16_" gradientUnits="userSpaceOnUse" x1="247.9643" y1="67.262" x2="247.9643" y2="75.8964">
			<stop  offset="0" style="stop-color:#9C450B"/>
			<stop  offset="0.1909" style="stop-color:#934008"/>
			<stop  offset="0.4786" style="stop-color:#6F2F06"/>
			<stop  offset="0.8071" style="stop-color:#6C2E05"/>
			<stop  offset="0.8346" style="stop-color:#C8610B"/>
			<stop  offset="1" style="stop-color:#E4700D"/>
		</linearGradient>
		<path class="st15" d="M448.3,75.9c0,0-396.4,0-399.1,0c0-4.3-2.1-7.2-3.6-8.6c33.4,0,400.4,0,404.7,0
			C448.9,68.8,448.2,73.5,448.3,75.9z"/>
		<linearGradient id="SVGID_17_" gradientUnits="userSpaceOnUse" x1="249" y1="376.0161" x2="249" y2="367.3818">
			<stop  offset="0" style="stop-color:#9C450B"/>
			<stop  offset="0.1909" style="stop-color:#934008"/>
			<stop  offset="0.4786" style="stop-color:#6F2F06"/>
			<stop  offset="0.8071" style="stop-color:#6C2E05"/>
			<stop  offset="0.8346" style="stop-color:#C8610B"/>
			<stop  offset="1" style="stop-color:#E4700D"/>
		</linearGradient>
		<path class="st16" d="M49.6,367.4c0,0,396.4,0,399.1,0c0,4.3,0.5,7,1.6,8.6c-33.4,0-398.4,0-402.7,0
			C49.1,374.5,49.8,369.7,49.6,367.4z"/>
	</g>
	<linearGradient id="SVGID_18_" gradientUnits="userSpaceOnUse" x1="43.2713" y1="381.4166" x2="456.8697" y2="381.4166">
		<stop  offset="0" style="stop-color:#0A0301;stop-opacity:0.1"/>
		<stop  offset="4.644421e-02" style="stop-color:#200F02;stop-opacity:0.1464"/>
		<stop  offset="0.1482" style="stop-color:#4B2505;stop-opacity:0.2482"/>
		<stop  offset="0.247" style="stop-color:#6C3707;stop-opacity:0.347"/>
		<stop  offset="0.3408" style="stop-color:#844409;stop-opacity:0.4408"/>
		<stop  offset="0.4274" style="stop-color:#934B0A;stop-opacity:0.5274"/>
		<stop  offset="0.5" style="stop-color:#984E0A;stop-opacity:0.6"/>
		<stop  offset="0.5809" style="stop-color:#944C0A;stop-opacity:0.5191"/>
		<stop  offset="0.664" style="stop-color:#884509;stop-opacity:0.436"/>
		<stop  offset="0.7481" style="stop-color:#733A08;stop-opacity:0.3519"/>
		<stop  offset="0.833" style="stop-color:#562B06;stop-opacity:0.267"/>
		<stop  offset="0.9175" style="stop-color:#311804;stop-opacity:0.1825"/>
		<stop  offset="1" style="stop-color:#060101;stop-opacity:0.1"/>
	</linearGradient>
	<rect x="43.3" y="367.4" class="st17" width="413.6" height="28.1"/>
	<linearGradient id="SVGID_19_" gradientUnits="userSpaceOnUse" x1="43.2713" y1="61.4166" x2="456.8697" y2="61.4166">
		<stop  offset="0" style="stop-color:#0A0301;stop-opacity:0.1"/>
		<stop  offset="4.644421e-02" style="stop-color:#200F02;stop-opacity:0.1464"/>
		<stop  offset="0.1482" style="stop-color:#4B2505;stop-opacity:0.2482"/>
		<stop  offset="0.247" style="stop-color:#6C3707;stop-opacity:0.347"/>
		<stop  offset="0.3408" style="stop-color:#844409;stop-opacity:0.4408"/>
		<stop  offset="0.4274" style="stop-color:#934B0A;stop-opacity:0.5274"/>
		<stop  offset="0.5" style="stop-color:#984E0A;stop-opacity:0.6"/>
		<stop  offset="0.5809" style="stop-color:#944C0A;stop-opacity:0.5191"/>
		<stop  offset="0.664" style="stop-color:#884509;stop-opacity:0.436"/>
		<stop  offset="0.7481" style="stop-color:#733A08;stop-opacity:0.3519"/>
		<stop  offset="0.833" style="stop-color:#562B06;stop-opacity:0.267"/>
		<stop  offset="0.9175" style="stop-color:#311804;stop-opacity:0.1825"/>
		<stop  offset="1" style="stop-color:#060101;stop-opacity:0.1"/>
	</linearGradient>
	<rect x="43.3" y="47.4" class="st18" width="413.6" height="28.1"/>
	
		<linearGradient id="SVGID_20_" gradientUnits="userSpaceOnUse" x1="280.382" y1="295.2884" x2="544.3076" y2="295.2884" gradientTransform="matrix(6.123234e-17 1 -1 6.123234e-17 311.4871 -188.6539)">
		<stop  offset="0" style="stop-color:#0A0301;stop-opacity:0.1"/>
		<stop  offset="4.644421e-02" style="stop-color:#200F02;stop-opacity:0.1464"/>
		<stop  offset="0.1482" style="stop-color:#4B2505;stop-opacity:0.2482"/>
		<stop  offset="0.247" style="stop-color:#6C3707;stop-opacity:0.347"/>
		<stop  offset="0.3408" style="stop-color:#844409;stop-opacity:0.4408"/>
		<stop  offset="0.4274" style="stop-color:#934B0A;stop-opacity:0.5274"/>
		<stop  offset="0.5" style="stop-color:#984E0A;stop-opacity:0.6"/>
		<stop  offset="0.5809" style="stop-color:#944C0A;stop-opacity:0.5191"/>
		<stop  offset="0.664" style="stop-color:#884509;stop-opacity:0.436"/>
		<stop  offset="0.7481" style="stop-color:#733A08;stop-opacity:0.3519"/>
		<stop  offset="0.833" style="stop-color:#562B06;stop-opacity:0.267"/>
		<stop  offset="0.9175" style="stop-color:#311804;stop-opacity:0.1825"/>
		<stop  offset="1" style="stop-color:#060101;stop-opacity:0.1"/>
	</linearGradient>
	<polygon class="st19" points="29.9,355.7 29.9,91.7 2.5,91.7 2.5,355.7 	"/>
	
		<linearGradient id="SVGID_21_" gradientUnits="userSpaceOnUse" x1="283.0423" y1="-169.8275" x2="546.9679" y2="-169.8275" gradientTransform="matrix(6.123234e-17 1 -1 6.123234e-17 311.4871 -188.6539)">
		<stop  offset="0" style="stop-color:#0A0301;stop-opacity:0.1"/>
		<stop  offset="4.644421e-02" style="stop-color:#200F02;stop-opacity:0.1464"/>
		<stop  offset="0.1482" style="stop-color:#4B2505;stop-opacity:0.2482"/>
		<stop  offset="0.247" style="stop-color:#6C3707;stop-opacity:0.347"/>
		<stop  offset="0.3408" style="stop-color:#844409;stop-opacity:0.4408"/>
		<stop  offset="0.4274" style="stop-color:#934B0A;stop-opacity:0.5274"/>
		<stop  offset="0.5" style="stop-color:#984E0A;stop-opacity:0.6"/>
		<stop  offset="0.5809" style="stop-color:#944C0A;stop-opacity:0.5191"/>
		<stop  offset="0.664" style="stop-color:#884509;stop-opacity:0.436"/>
		<stop  offset="0.7481" style="stop-color:#733A08;stop-opacity:0.3519"/>
		<stop  offset="0.833" style="stop-color:#562B06;stop-opacity:0.267"/>
		<stop  offset="0.9175" style="stop-color:#311804;stop-opacity:0.1825"/>
		<stop  offset="1" style="stop-color:#060101;stop-opacity:0.1"/>
	</linearGradient>
	<polygon class="st20" points="495.1,358.3 495.1,94.4 467.6,94.4 467.6,358.3 	"/>
</g>
<g id="corner">
	<linearGradient id="SVGID_22_" gradientUnits="userSpaceOnUse" x1="29.4713" y1="345.4511" x2="29.4713" y2="400.1703">
		<stop  offset="0" style="stop-color:#AB6009"/>
		<stop  offset="0.2409" style="stop-color:#AF630A"/>
		<stop  offset="0.4922" style="stop-color:#CB7D11"/>
		<stop  offset="0.5212" style="stop-color:#9D5607"/>
		<stop  offset="0.7572" style="stop-color:#823E04"/>
		<stop  offset="1" style="stop-color:#6D2B02"/>
	</linearGradient>
	<path class="st21" d="M58.9,383c0-4.8-3.3-4.8-4.8-4.8c-1.6,0-4.5,0-7.7,0c-0.3,1.2-4.5,9.8-15,9.8s-18.1-8.3-18.1-16.8
		s5.6-11.6,10-14.7c0-1.1,0-3.1,0-3.1c0-4.7-0.6-7.8-9-7.8c-4.2,0-6.6,0-10.2,0c-2.3,0-4.1,1.8-4.1,4.1v40.6c0,5.4,4.4,9.8,9.8,9.8
		l45,0.2c2.3,0,4.1-1.8,4.1-4.1V383z"/>
	<path class="st22" d="M4.2,347.8c0,6.6,0,38.5,0,42.1s2.8,5.6,6.9,5.6s45.1-0.1,46.2,0c0-2.2,0-11.5,0-13.3c0-1.8-1.5-3.1-3.1-3.1
		s-5.6,0-6.9,0c-0.8,2.5-4.5,10.1-16.1,10.1s-19.3-8-19.3-19.3c0-9.3,8.9-13.7,9.5-14c0-1.5,0-2.3,0-3.1c0-2.6-1.7-5-5.8-5
		S6.2,347.7,4.2,347.8z"/>
	<linearGradient id="SVGID_23_" gradientUnits="userSpaceOnUse" x1="30.7867" y1="347.7263" x2="30.7867" y2="395.4877">
		<stop  offset="0" style="stop-color:#AB6009"/>
		<stop  offset="0.2409" style="stop-color:#AF630A"/>
		<stop  offset="0.4922" style="stop-color:#CB7D11"/>
		<stop  offset="0.5212" style="stop-color:#9D5607"/>
		<stop  offset="0.7912" style="stop-color:#A35A07"/>
		<stop  offset="1" style="stop-color:#834102"/>
	</linearGradient>
	<path class="st23" d="M4.2,347.8c0,6.6,0,38.5,0,42.1s2.8,5.6,6.9,5.6s45.1-0.1,46.2,0c0-2.2,0-11.5,0-13.3c0-1.8-1.5-3.1-3.1-3.1
		s-5.6,0-6.9,0c-0.8,2.5-4.5,10.1-16.1,10.1s-19.3-8-19.3-19.3c0-9.3,8.9-13.7,9.5-14c0-1.5,0-2.3,0-3.1c0-2.6-1.7-5-5.8-5
		S6.2,347.7,4.2,347.8z"/>
	<circle class="st24" cx="13" cy="353.7" r="3.3"/>
	<circle class="st24" cx="52.3" cy="385.9" r="3.5"/>
</g>
<g id="corner_1_">
	<linearGradient id="SVGID_24_" gradientUnits="userSpaceOnUse" x1="27.4713" y1="45.3394" x2="27.4713" y2="104.282">
		<stop  offset="0" style="stop-color:#AB6009"/>
		<stop  offset="0.2409" style="stop-color:#AF630A"/>
		<stop  offset="0.4922" style="stop-color:#CB7D11"/>
		<stop  offset="0.5212" style="stop-color:#9D5607"/>
		<stop  offset="0.7572" style="stop-color:#823E04"/>
		<stop  offset="1" style="stop-color:#6D2B02"/>
	</linearGradient>
	<path class="st25" d="M17.3,104.3c4.8,0,4.8-3.3,4.8-4.8c0-1.6,0-5.5,0-8.7c-1.2-0.3-9.8-4.5-9.8-15s8.3-17.1,16.8-17.1
		s11.6,3.6,14.7,8c1.1,0,3.1,0,3.1,0c4.7,0,7.8-4.8,7.8-9s0-4.6,0-8.2c0-2.3-1.8-4.1-4.1-4.1H10.1c-5.4,0-9.8,4.4-9.8,9.8l-0.2,45
		c0,2.3,1.8,4.1,4.1,4.1H17.3z"/>
	<path class="st26" d="M52.5,49.6c-6.6,0-38.5,0-42.1,0s-5.6,2.8-5.6,6.9s0.1,45.1,0,46.2c2.2,0,11.5,0,13.3,0
		c1.8,0,3.1-1.5,3.1-3.1s0-6.6,0-7.9c-2.5-0.8-10.1-6.2-10.1-15.1c0-14.2,8-19.3,19.3-19.3c9.3,0,13.7,6.9,14,7.5c1.5,0,2.3,0,3.1,0
		c2.6,0,5-1.7,5-5.8S52.6,51.6,52.5,49.6z"/>
	<linearGradient id="SVGID_25_" gradientUnits="userSpaceOnUse" x1="28.675" y1="49.5802" x2="28.675" y2="102.6719">
		<stop  offset="0" style="stop-color:#AB6009"/>
		<stop  offset="0.2409" style="stop-color:#AF630A"/>
		<stop  offset="0.4922" style="stop-color:#CB7D11"/>
		<stop  offset="0.5212" style="stop-color:#9D5607"/>
		<stop  offset="0.7912" style="stop-color:#A35A07"/>
		<stop  offset="1" style="stop-color:#834102"/>
	</linearGradient>
	<path class="st27" d="M52.5,49.6c-6.6,0-38.5,0-42.1,0s-5.6,2.8-5.6,6.9s0.1,45.1,0,46.2c2.2,0,11.5,0,13.3,0
		c1.8,0,3.1-1.5,3.1-3.1s0-6.6,0-7.9c-2.5-0.8-10.1-6.2-10.1-15.1c0-14.2,8-19.3,19.3-19.3c9.3,0,13.7,6.9,14,7.5c1.5,0,2.3,0,3.1,0
		c2.6,0,5-1.7,5-5.8S52.6,51.6,52.5,49.6z"/>
	<circle class="st24" cx="46.5" cy="58.4" r="3.3"/>
	<circle class="st24" cx="14.4" cy="96.5" r="3.5"/>
</g>
<g id="corner_2_">
	<linearGradient id="SVGID_26_" gradientUnits="userSpaceOnUse" x1="468.5287" y1="45.9649" x2="468.5287" y2="100.684">
		<stop  offset="0" style="stop-color:#AB6009"/>
		<stop  offset="0.2409" style="stop-color:#AF630A"/>
		<stop  offset="0.4922" style="stop-color:#CB7D11"/>
		<stop  offset="0.5212" style="stop-color:#9D5607"/>
		<stop  offset="0.7572" style="stop-color:#823E04"/>
		<stop  offset="1" style="stop-color:#6D2B02"/>
	</linearGradient>
	<path class="st28" d="M439.1,63.2c0,4.8,3.3,4.8,4.8,4.8c1.6,0,4.5,0,7.7,0c0.3-1.2,4.5-9.8,15-9.8c10.5,0,18.1,7.3,18.1,15.8
		s-3.8,10.4-8,12.7c0,1.1,0,6.1,0,6.1c0,4.7,4.8,7.8,9,7.8c4.2,0,4.6,0,8.2,0c2.3,0,4.1-1.8,4.1-4.1V55.9c0-5.4-4.4-9.8-9.8-9.8
		l-45-0.2c-2.3,0-4.1,1.8-4.1,4.1V63.2z"/>
	<path class="st26" d="M493.8,98.4c0-6.6,0-38.5,0-42.1c0-3.6-2.8-5.6-6.9-5.6s-45.1,0.1-46.2,0c0,2.2,0,11.5,0,13.3
		s1.5,3.1,3.1,3.1c1.7,0,5.6,0,6.9,0c0.8-2.5,4.5-10.1,16.1-10.1S486,64,486,75.3c0,9.3-6.9,11.7-7.5,12c0,1.5,0,5.3,0,6.1
		c0,2.6,1.7,5,5.8,5C488.5,98.4,491.8,98.5,493.8,98.4z"/>
	<linearGradient id="SVGID_27_" gradientUnits="userSpaceOnUse" x1="467.2133" y1="50.6474" x2="467.2133" y2="98.4088">
		<stop  offset="0" style="stop-color:#AB6009"/>
		<stop  offset="0.2409" style="stop-color:#AF630A"/>
		<stop  offset="0.4922" style="stop-color:#CB7D11"/>
		<stop  offset="0.5212" style="stop-color:#9D5607"/>
		<stop  offset="0.7912" style="stop-color:#A35A07"/>
		<stop  offset="1" style="stop-color:#834102"/>
	</linearGradient>
	<path class="st29" d="M493.8,98.4c0-6.6,0-38.5,0-42.1c0-3.6-2.8-5.6-6.9-5.6s-45.1,0.1-46.2,0c0,2.2,0,11.5,0,13.3
		s1.5,3.1,3.1,3.1c1.7,0,5.6,0,6.9,0c0.8-2.5,4.5-10.1,16.1-10.1S486,65,486,76.3c0,9.3-6.9,10.7-7.5,11c0,1.5,0,5.3,0,6.1
		c0,2.6,1.7,5,5.8,5C488.5,98.4,491.8,98.5,493.8,98.4z"/>
	<circle class="st24" cx="485" cy="92.4" r="3.3"/>
	<circle class="st24" cx="444.7" cy="60.2" r="3.5"/>
</g>
<g id="corner_3_">
	<linearGradient id="SVGID_28_" gradientUnits="userSpaceOnUse" x1="468.6404" y1="343.2277" x2="468.6404" y2="400.1703">
		<stop  offset="0" style="stop-color:#AB6009"/>
		<stop  offset="0.2409" style="stop-color:#AF630A"/>
		<stop  offset="0.4922" style="stop-color:#CB7D11"/>
		<stop  offset="0.5212" style="stop-color:#9D5607"/>
		<stop  offset="0.7572" style="stop-color:#823E04"/>
		<stop  offset="1" style="stop-color:#6D2B02"/>
	</linearGradient>
	<path class="st30" d="M480.8,343.2c-4.8,0-4.8,3.3-4.8,4.8s0,4.5,0,7.7c1.2,0.3,7.8,4.5,7.8,15c0,10.5-8.3,16.1-16.8,16.1
		s-12.6-3.6-15.7-8c-1.1,0-6.1,0-6.1,0c-4.7,0-5.8,4.8-5.8,9c0,4.2,0,4.6,0,8.2c0,2.3,1.8,4.1,4.1,4.1H488c5.4,0,9.8-4.4,9.8-9.8
		l0.2-43c0-2.3-1.8-4.1-4.1-4.1H480.8z"/>
	<path class="st31" d="M441.6,395.9c6.6,0,42.5,0,46.1,0s5.6-2.8,5.6-6.9c0-4.1-0.1-43.1,0-44.2c-2.2,0-11.5,0-13.3,0
		c-1.8,0-3.1,1.5-3.1,3.1c0,1.7,0,5.6,0,6.9c2.5,0.8,8.1,4.5,8.1,16.1s-8,17.3-19.3,17.3c-9.3,0-14.7-6.9-15-7.5c-1.5,0-5.3,0-6.1,0
		c-2.6,0-3,1.7-3,5.8C441.6,390.6,441.5,393.9,441.6,395.9z"/>
	<linearGradient id="SVGID_29_" gradientUnits="userSpaceOnUse" x1="467.4367" y1="344.8377" x2="467.4367" y2="395.9294">
		<stop  offset="0" style="stop-color:#AB6009"/>
		<stop  offset="0.2409" style="stop-color:#AF630A"/>
		<stop  offset="0.4922" style="stop-color:#CB7D11"/>
		<stop  offset="0.5212" style="stop-color:#9D5607"/>
		<stop  offset="0.7912" style="stop-color:#A35A07"/>
		<stop  offset="1" style="stop-color:#834102"/>
	</linearGradient>
	<path class="st32" d="M441.6,395.9c6.6,0,42.5,0,46.1,0s5.6-2.8,5.6-6.9c0-4.1-0.1-43.1,0-44.2c-2.2,0-11.5,0-13.3,0
		c-1.8,0-3.1,1.5-3.1,3.1c0,1.7,0,5.6,0,6.9c2.5,0.8,8.1,4.5,8.1,16.1s-8,17.3-19.3,17.3c-9.3,0-14.7-6.9-15-7.5c-1.5,0-5.3,0-6.1,0
		c-2.6,0-3,1.7-3,5.8C441.6,390.6,441.5,393.9,441.6,395.9z"/>
	<circle class="st24" cx="448.6" cy="387.1" r="3.3"/>
	<circle class="st24" cx="483.7" cy="348.9" r="3.5"/>
</g>
<g id="cloth">
	<radialGradient id="SVGID_30_" cx="249" cy="221.8528" r="276.2846" fx="249.1716" fy="226.152" gradientUnits="userSpaceOnUse">
		<stop  offset="0" style="stop-color:#018E55"/>
		<stop  offset="1" style="stop-color:#004E25"/>
	</radialGradient>
	<path class="st33" d="M48.8,79c0,7.2-5.9,13.1-13.1,13.1c-1.7,0-3.4,0.3-4.9,0l0,261.7c1.5-0.6,3.4-0.1,5.2-0.1
		c7,0,12.4,7,12.8,13.8h401.5c0.8-7.6,7.2-13.4,15-13.4c0.7,0,1.3,0.1,2,0.1V90.5c-1.2,0.3-2.5,0.5-3.8,0.5
		c-8.2,0-14.9-6.7-14.9-14.9H48.5C48.7,77,48.8,78,48.8,79z"/>
	<g class="st34">
		<path class="st35" d="M48.7,80.6h400.6c-0.4-1.4-0.7-2.9-0.7-4.4H48.5c0.2,0.9,0.3,1.9,0.3,2.9C48.8,79.5,48.7,80,48.7,80.6z"/>
		<path class="st35" d="M36.1,92.1c-0.1,0-0.3,0-0.4,0c-1.7,0-3.4,0.1-4.9,0l-0.4,261.6c1.5-0.6,4.4-0.4,5.6,0c0.1,0.1,0,0,0.1,0
			V92.1z"/>
		<path class="st35" d="M463.4,91c-0.8,0-1.5-0.1-2.3-0.2v263.9c1.3-0.4,2.6-0.6,4-0.6c0.7,0,1.3,0.1,2,0.1V90.9
			C465.9,91,464.7,91,463.4,91z"/>
		<path class="st35" d="M47.6,363c0.6,1.4,1.1,3,1.1,4.6h401.5c0.2-1.6,0.6-3.2,1.3-4.6H47.6z"/>
	</g>
</g>
<g id="head" class="st20-ds1">
	<path class="st36" d="M60.6,32.6c-2.9,1.3-3.3,4.6-3.1,7.3c0.2,2.6,5.1,28,5.5,29.1c0.4,1.1,1.3,2,5.7,1.3
		c4.4-0.7,74.6-8.6,175.9-8.6s164.5,10.6,166.5,10.8c2,0.2,2.6-2.9,2.4-4.4s1.3-20.3,1.3-22.1c0-1.7-0.4-4.1-3.5-5.9
		C358,13,325.9,0,232.3,0S92.3,17.6,60.6,32.6z"/>
	<path class="st37" d="M66.1,33.9c-3,1.4-4,3.1-3.7,6.2c0.2,3.1,2.9,21.1,3.7,23.1c0.9,2,2,4.2,5.1,3.7S206.1,56.2,251,57
		s153.2,10.5,155.7,11c2.4,0.4,2.9-2.3,2.6-4.3s2-18.6,1.3-20.1C410,42,375,27.9,367.4,24.9S315.5,2.6,238.5,4.4S110.3,13,66.1,33.9
		z"/>
	
		<radialGradient id="SVGID_31_" cx="235.5099" cy="36.038" r="245.4974" fx="236.4119" fy="17.8595" gradientUnits="userSpaceOnUse">
		<stop  offset="0" style="stop-color:#804E21"/>
		<stop  offset="0.5022" style="stop-color:#6D3103"/>
		<stop  offset="1" style="stop-color:#763006"/>
	</radialGradient>
	<path class="st38" d="M67,34c-3,1.3-3.9,2.7-3.7,5.5c0.2,2.7,2.8,18.8,3.7,20.6c0.9,1.8,2,3.7,5,3.3c3-0.4,133.4-9.5,177.9-8.8
		s151.5,9.4,153.9,9.8s2.8-2,2.6-3.9s2-16.5,1.3-17.9c-0.7-1.4-35.2-13.9-42.8-16.7S313.6,6.2,237.4,7.7S110.7,15.4,67,34z"/>
</g>
<g id="_x33__ball" class="st20-ds1">
	
		<radialGradient id="SVGID_32_" cx="369.4621" cy="32.6414" r="26.8116" fx="369.4308" fy="12.8384" gradientUnits="userSpaceOnUse">
		<stop  offset="0" style="stop-color:#F05F57"/>
		<stop  offset="1" style="stop-color:#471418"/>
	</radialGradient>
	<circle class="st39" cx="369.5" cy="32.6" r="21.1"/>
	
		<radialGradient id="SVGID_33_" cx="369.5193" cy="32.7372" r="19.2417" fx="369.7638" fy="17.7077" gradientUnits="userSpaceOnUse">
		<stop  offset="0" style="stop-color:#FACEC9"/>
		<stop  offset="1" style="stop-color:#AA1F24"/>
	</radialGradient>
	<circle class="st40" cx="369.5" cy="32.7" r="19.2"/>
	<ellipse class="st41" cx="369.7" cy="22.1" rx="13.3" ry="7.8"/>
	<ellipse class="st42" cx="369.5" cy="25.6" rx="7.8" ry="7.6"/>
	
		<radialGradient id="SVGID_34_" cx="352.6346" cy="14.2901" r="9.8212" fx="352.0202" fy="10.2902" gradientTransform="matrix(0.9973 7.328914e-02 -7.328914e-02 0.9973 10.124 -16.8832)" gradientUnits="userSpaceOnUse">
		<stop  offset="0" style="stop-color:#FFFFFF"/>
		<stop  offset="1" style="stop-color:#FFFFFF;stop-opacity:0"/>
	</radialGradient>
	<path class="st43" d="M367.7,15.7c0.9,1.2-3.6,1.6-7,4.5c-5.4,4.6-7.5,8.8-7.5,8.8c-2.9-2.7,2.5-9.4,6-11.7
		C362.7,15,366.8,14.6,367.7,15.7z"/>
	<path class="st44" d="M370.1,15.2c0.2,0.7-2.7,0.4-5.6,1.4c-4.6,1.7-7,3.4-7,3.4c-1.1-1.6,4.1-4.2,6.9-4.9S369.9,14.5,370.1,15.2z"
		/>
	<path class="st45" d="M377.3,25.6c0,4.2-3.5,7.6-7.8,7.6s-6.6-3.1-6.7-3.8c0,0,2.5,3.1,8.5,1.5C376,29.7,377.3,21.4,377.3,25.6z"/>
	<path class="st46" d="M388.8,31.7c0.5,11.2-8.6,20.2-19.3,20.2s-16.5-7.8-18.3-13.5c0,0,6.9,9.4,21.6,5
		C386.1,39.4,388.4,23.6,388.8,31.7z"/>
	<path class="st47" d="M366.3,22.7c0.3-0.6,0.8-1,1.4-1.3c0.6-0.3,1.2-0.4,1.8-0.4c0.5,0,1,0.1,1.4,0.3c0.4,0.2,0.8,0.5,1,0.9
		c0.3,0.4,0.4,0.9,0.4,1.4c0,0.4-0.1,0.7-0.2,1c-0.1,0.3-0.3,0.5-0.6,0.8c0.3,0.1,0.5,0.3,0.7,0.5c0.2,0.2,0.3,0.5,0.4,0.7
		c0.1,0.3,0.1,0.5,0.1,0.8c0,0.5-0.1,0.9-0.3,1.3c-0.2,0.4-0.5,0.7-0.8,0.9c-0.3,0.2-0.7,0.4-1.1,0.5c-0.4,0.1-0.8,0.2-1.3,0.2
		c-0.4,0-0.7-0.1-1.1-0.2c-0.4-0.1-0.7-0.3-1.1-0.5c-0.3-0.2-0.6-0.5-0.9-0.7l1.4-1.5c0.2,0.3,0.5,0.5,0.7,0.7
		c0.2,0.1,0.5,0.2,0.9,0.2c0.4,0,0.6-0.1,0.9-0.3c0.2-0.2,0.3-0.5,0.3-0.8c0-0.4-0.1-0.6-0.4-0.7c-0.3-0.1-0.6-0.2-1-0.2h-0.3
		c0,0-0.1,0-0.2,0h-0.1l-0.1,0v-1.5c0.1,0,0.2,0,0.3,0h0.2l0.2,0c0.2,0,0.4,0,0.6-0.1c0.2,0,0.3-0.1,0.5-0.3
		c0.1-0.1,0.2-0.3,0.2-0.6c0-0.3-0.1-0.6-0.3-0.8c-0.2-0.2-0.5-0.2-0.8-0.2c-0.1,0-0.3,0-0.4,0.1c-0.1,0-0.2,0.1-0.3,0.2
		c-0.1,0.1-0.2,0.1-0.3,0.3c0,0-0.1,0.1-0.1,0.1c0,0,0,0-0.1,0.1c-0.1,0.1-0.1,0.1-0.1,0.1L366.3,22.7z"/>
</g>
<g id="_x32__ball" class="st20-ds1">
	
		<radialGradient id="SVGID_35_" cx="341.2689" cy="38.8927" r="23.8562" fx="341.2411" fy="21.2727" gradientUnits="userSpaceOnUse">
		<stop  offset="0" style="stop-color:#5456A4"/>
		<stop  offset="1" style="stop-color:#091738"/>
	</radialGradient>
	<circle class="st48" cx="341.3" cy="38.9" r="18.8"/>
	<radialGradient id="SVGID_36_" cx="341.3198" cy="38.978" r="17.1207" fx="341.5374" fy="25.6051" gradientUnits="userSpaceOnUse">
		<stop  offset="0" style="stop-color:#67B2E3"/>
		<stop  offset="1" style="stop-color:#04519C"/>
	</radialGradient>
	<circle class="st49" cx="341.3" cy="39" r="17.1"/>
	<ellipse class="st50" cx="341.5" cy="29.5" rx="11.8" ry="6.9"/>
	<ellipse class="st42" cx="341.3" cy="32.6" rx="7" ry="6.8"/>
	
		<radialGradient id="SVGID_37_" cx="326.0079" cy="23.5572" r="8.7386" fx="325.4612" fy="19.9981" gradientTransform="matrix(0.9973 7.328914e-02 -7.328914e-02 0.9973 10.124 -16.8832)" gradientUnits="userSpaceOnUse">
		<stop  offset="0" style="stop-color:#FFFFFF"/>
		<stop  offset="1" style="stop-color:#FFFFFF;stop-opacity:0"/>
	</radialGradient>
	<path class="st51" d="M339.7,23.9c0.8,1.1-3.2,1.4-6.2,4c-4.8,4.1-6.7,7.8-6.7,7.8c-2.6-2.4,2.3-8.3,5.4-10.4
		C335.2,23.2,338.9,22.9,339.7,23.9z"/>
	<path class="st44" d="M341.8,23.3c0.2,0.6-2.4,0.4-5,1.3c-4.1,1.5-6.2,3-6.2,3c-0.9-1.4,3.6-3.7,6.1-4.4
		C339.2,22.6,341.6,22.8,341.8,23.3z"/>
	<path class="st45" d="M348.2,32.6c0,3.8-3.1,6.8-7,6.8c-3.8,0-5.8-2.7-6-3.4c0,0,2.2,2.7,7.5,1.4C347.1,36.3,348.2,28.9,348.2,32.6
		z"/>
	<path class="st52" d="M358.4,38c0.4,9.9-7.7,18-17.2,18c-9.5,0-14.7-7-16.3-12c0,0,6.1,8.3,19.2,4.5C356,44.9,358.1,30.9,358.4,38z
		"/>
	<g>
		<path class="st47" d="M343.9,34.4V36h-5.3l2.6-3.2c0.3-0.3,0.4-0.6,0.6-0.9c0.1-0.2,0.2-0.5,0.2-0.8c0-0.2-0.1-0.4-0.3-0.6
			c-0.2-0.1-0.4-0.2-0.7-0.2c-0.2,0-0.4,0.1-0.5,0.2c-0.1,0.1-0.2,0.3-0.3,0.6l-1.5-1c0.3-0.5,0.7-0.9,1.1-1.1
			c0.4-0.2,0.8-0.3,1.3-0.3c0.4,0,0.9,0.1,1.2,0.3c0.4,0.2,0.7,0.5,0.9,0.8c0.2,0.4,0.3,0.8,0.3,1.2c0,0.3-0.1,0.6-0.2,0.9
			c-0.1,0.3-0.3,0.6-0.4,0.8c-0.2,0.2-0.4,0.5-0.6,0.8c-0.3,0.3-0.5,0.6-0.7,0.8H343.9z"/>
	</g>
</g>
<g id="_x38__ball" class="st20-ds1">
	<radialGradient id="SVGID_38_" cx="89.874" cy="31.9831" r="31.1551" fx="89.8377" fy="8.9721" gradientUnits="userSpaceOnUse">
		<stop  offset="0" style="stop-color:#787878"/>
		<stop  offset="0.2915" style="stop-color:#505054"/>
		<stop  offset="0.5886" style="stop-color:#2F2F35"/>
		<stop  offset="0.8355" style="stop-color:#1A1A23"/>
		<stop  offset="1" style="stop-color:#13131C"/>
	</radialGradient>
	<circle class="st53" cx="89.9" cy="32" r="24.5"/>
	<radialGradient id="SVGID_39_" cx="89.9405" cy="32.0945" r="22.359" fx="90.2247" fy="14.6301" gradientUnits="userSpaceOnUse">
		<stop  offset="0" style="stop-color:#B9B9BA"/>
		<stop  offset="1" style="stop-color:#13131C"/>
	</radialGradient>
	<circle class="st54" cx="89.9" cy="32.1" r="22.4"/>
	<ellipse class="st55" cx="90.2" cy="19.7" rx="15.4" ry="9"/>
	<ellipse class="st42" cx="90.2" cy="29.8" rx="12.5" ry="12.2"/>
	<path class="st56" d="M86.5,25.2c0.2-0.5,0.5-0.8,0.9-1.1c0.4-0.3,0.8-0.5,1.4-0.7c0.5-0.1,1.1-0.2,1.6-0.2c1.1,0,2.1,0.3,2.8,1
		c0.8,0.6,1.1,1.5,1.1,2.7c0,0.5-0.1,1-0.4,1.4c-0.2,0.5-0.6,0.8-1,1.1c0.6,0.4,1,0.8,1.3,1.3c0.3,0.5,0.4,1.1,0.4,1.8
		c0,0.6-0.1,1.1-0.4,1.6c-0.2,0.5-0.6,0.9-1,1.2c-0.4,0.3-0.9,0.5-1.4,0.7C91.4,36,90.8,36,90.3,36c-0.8,0-1.5-0.1-2.2-0.4
		c-0.7-0.3-1.2-0.7-1.6-1.3c-0.4-0.6-0.6-1.2-0.6-2c0-0.6,0.2-1.1,0.5-1.7c0.3-0.5,0.7-1,1.2-1.3c-0.9-0.7-1.4-1.5-1.4-2.6
		C86.2,26.2,86.3,25.6,86.5,25.2z M91.6,31.3c-0.2-0.3-0.6-0.5-1.4-0.9c-0.6,0.3-1,0.6-1.2,0.8c-0.2,0.3-0.3,0.5-0.3,0.8
		c0,0.4,0.1,0.7,0.4,1c0.3,0.3,0.6,0.4,1,0.4c0.5,0,0.9-0.1,1.2-0.4c0.3-0.2,0.5-0.6,0.5-1.1C91.9,31.8,91.8,31.6,91.6,31.3z
		 M90.3,28c0.5-0.2,0.8-0.5,1-0.7c0.2-0.2,0.2-0.4,0.2-0.7c0-0.6-0.4-0.9-1.3-0.9c-0.3,0-0.6,0.1-0.8,0.3c-0.2,0.2-0.3,0.5-0.3,0.8
		C89,27,89.5,27.4,90.3,28z"/>
	
		<radialGradient id="SVGID_40_" cx="72.2328" cy="32.7044" r="11.4123" fx="71.5188" fy="28.0564" gradientTransform="matrix(0.9973 7.328914e-02 -7.328914e-02 0.9973 10.124 -16.8832)" gradientUnits="userSpaceOnUse">
		<stop  offset="0" style="stop-color:#FFFFFF"/>
		<stop  offset="1" style="stop-color:#FFFFFF;stop-opacity:0"/>
	</radialGradient>
	<path class="st57" d="M87.8,12.4c1.1,1.4-4.2,1.9-8.1,5.3c-6.3,5.4-8.7,10.2-8.7,10.2c-3.3-3.1,2.9-10.9,7-13.6
		C82,11.5,86.8,11,87.8,12.4z"/>
	<path class="st44" d="M90.6,11.7c0.3,0.8-3.1,0.5-6.5,1.7c-5.4,1.9-8.2,4-8.2,4c-1.2-1.8,4.8-4.9,8-5.7
		C87.2,10.7,90.3,11,90.6,11.7z"/>
	<path class="st45" d="M102.6,29.8c0,6.7-5.6,12.2-12.5,12.2s-10.5-4.9-10.8-6c0,0,4,4.9,13.6,2.4C100.7,36.4,102.6,23.1,102.6,29.8
		z"/>
	<path class="st58" d="M112.3,30.9c0.6,13-10,23.5-22.4,23.5S71,44.9,70.5,42.8c0,0,7.7,12.2,24.8,7.1
		C110.8,45.3,111.9,21.5,112.3,30.9z"/>
</g>
<g id="_x39__ball" class="st20-ds1">
	
		<radialGradient id="SVGID_41_" cx="126.3758" cy="36.0373" r="25.2894" fx="126.3463" fy="17.3586" gradientUnits="userSpaceOnUse">
		<stop  offset="0" style="stop-color:#FFC725"/>
		<stop  offset="1" style="stop-color:#5E2810"/>
	</radialGradient>
	<circle class="st59" cx="126.4" cy="36" r="19.9"/>
	
		<radialGradient id="SVGID_42_" cx="126.4298" cy="36.1276" r="18.1493" fx="126.6604" fy="21.9514" gradientUnits="userSpaceOnUse">
		<stop  offset="0" style="stop-color:#FCCC4C"/>
		<stop  offset="0.2894" style="stop-color:#FBC94B"/>
		<stop  offset="0.4899" style="stop-color:#F8C047"/>
		<stop  offset="0.6635" style="stop-color:#F3B140"/>
		<stop  offset="0.8218" style="stop-color:#EB9B36"/>
		<stop  offset="0.9684" style="stop-color:#E17F2A"/>
		<stop  offset="1" style="stop-color:#DF7827"/>
	</radialGradient>
	<circle class="st60" cx="126.4" cy="36.1" r="18.1"/>
	<ellipse class="st41" cx="126.6" cy="26.1" rx="12.5" ry="7.3"/>
	<ellipse class="st42" cx="123.8" cy="29.4" rx="7.4" ry="7.2"/>
	
		<radialGradient id="SVGID_43_" cx="110.9827" cy="35.9901" r="9.2636" fx="110.4032" fy="32.2173" gradientTransform="matrix(0.9973 7.328914e-02 -7.328914e-02 0.9973 10.124 -16.8832)" gradientUnits="userSpaceOnUse">
		<stop  offset="0" style="stop-color:#FFFFFF"/>
		<stop  offset="1" style="stop-color:#FFFFFF;stop-opacity:0"/>
	</radialGradient>
	<path class="st61" d="M124.7,20.1c0.9,1.2-3.4,1.5-6.6,4.3c-5.1,4.4-7.1,8.3-7.1,8.3c-2.7-2.5,2.4-8.9,5.7-11S123.9,19,124.7,20.1z
		"/>
	<path class="st44" d="M127,19.5c0.2,0.6-2.5,0.4-5.3,1.4c-4.4,1.6-6.6,3.2-6.6,3.2c-1-1.5,3.9-4,6.5-4.7
		C124.2,18.8,126.7,19,127,19.5z"/>
	<path class="st45" d="M131.2,29.4c0,4-3.3,7.2-7.4,7.2s-6.2-2.9-6.4-3.6c0,0,2.4,2.9,8,1.4C130,33.3,131.2,25.4,131.2,29.4z"/>
	<path class="st62" d="M145.4,34.7c0.5,11-8.6,20-19.1,20S110,47,108.2,41.3c0,0,6.8,9.3,21.3,5C142.8,42.4,145.1,26.8,145.4,34.7z"
		/>
	<path class="st42" d="M107.8,38.9c-0.3,0.1,8.4-1.4,14.5,0.5c8.5,2.7,14.2,8.5,13.4,13.8C125.4,57.2,110.2,52.5,107.8,38.9z"/>
	<g>
		<path class="st47" d="M120.9,33.7c0.7-0.6,1.2-1.2,1.8-1.8c0.4-0.4,0.7-0.8,1-1.2l0,0c-0.2,0.1-0.4,0.1-0.7,0.1
			c-0.5,0-1-0.1-1.3-0.4c-0.4-0.2-0.7-0.6-0.9-1c-0.2-0.4-0.3-0.9-0.3-1.4c0-0.6,0.1-1.1,0.4-1.6c0.2-0.5,0.6-0.8,1.1-1.1
			c0.5-0.2,1-0.4,1.6-0.4c0.6,0,1.2,0.1,1.6,0.4c0.5,0.3,0.8,0.6,1.1,1.1c0.3,0.5,0.4,1,0.4,1.6c0,1-0.3,1.9-0.9,2.8
			c-0.6,0.9-1.4,1.8-2.4,2.7L120.9,33.7z M124.5,27.5c-0.1-0.2-0.2-0.3-0.4-0.4c-0.2-0.1-0.4-0.2-0.6-0.2c-0.3,0-0.6,0.1-0.8,0.3
			c-0.2,0.2-0.3,0.5-0.3,0.8c0,0.2,0,0.4,0.1,0.6c0.1,0.2,0.2,0.3,0.4,0.4c0.2,0.1,0.4,0.2,0.6,0.2c0.3,0,0.6-0.1,0.8-0.3
			c0.2-0.2,0.3-0.5,0.3-0.8C124.7,27.8,124.6,27.6,124.5,27.5z"/>
	</g>
	<path class="st45" d="M132.4,44.9c-6.8,3.8-20,1.4-24.6-6c0.5,4,3.3,12.8,12.2,15.3c8.9,2.6,15-0.4,15.7-1.1
		C136.1,49,133.4,45.9,132.4,44.9z"/>
</g>
<g id="Cue_1_" class="st20-ds1">
	
		<linearGradient id="SVGID_44_" gradientUnits="userSpaceOnUse" x1="667.7556" y1="66.3058" x2="664.4564" y2="71.5113" gradientTransform="matrix(-0.8814 -0.4724 -0.4724 0.8814 772.1609 310.1006)">
		<stop  offset="0" style="stop-color:#8E3B1F"/>
		<stop  offset="3.918308e-02" style="stop-color:#8F3D21"/>
		<stop  offset="5.329551e-02" style="stop-color:#924328"/>
		<stop  offset="6.335615e-02" style="stop-color:#974D33"/>
		<stop  offset="7.149736e-02" style="stop-color:#9F5B44"/>
		<stop  offset="7.846245e-02" style="stop-color:#A96F5A"/>
		<stop  offset="8.463337e-02" style="stop-color:#B58676"/>
		<stop  offset="9.007163e-02" style="stop-color:#C3A195"/>
		<stop  offset="9.477082e-02" style="stop-color:#D2BFB7"/>
		<stop  offset="0.1516" style="stop-color:#D1BEB5"/>
		<stop  offset="0.1745" style="stop-color:#CFB9AE"/>
		<stop  offset="0.1913" style="stop-color:#CBB0A2"/>
		<stop  offset="0.205" style="stop-color:#C5A491"/>
		<stop  offset="0.2072" style="stop-color:#C4A28D"/>
		<stop  offset="0.2447" style="stop-color:#C3A08B"/>
		<stop  offset="0.2647" style="stop-color:#BF9983"/>
		<stop  offset="0.2805" style="stop-color:#B98D75"/>
		<stop  offset="0.2941" style="stop-color:#B07C62"/>
		<stop  offset="0.3062" style="stop-color:#A56649"/>
		<stop  offset="0.3158" style="stop-color:#995030"/>
		<stop  offset="0.3807" style="stop-color:#964D2E"/>
		<stop  offset="0.4201" style="stop-color:#8F4629"/>
		<stop  offset="0.4497" style="stop-color:#884126"/>
		<stop  offset="0.4927" style="stop-color:#75331D"/>
		<stop  offset="0.5243" style="stop-color:#622615"/>
		<stop  offset="0.6175" style="stop-color:#491C11"/>
		<stop  offset="0.645" style="stop-color:#411810"/>
		<stop  offset="0.7713" style="stop-color:#270E0C"/>
		<stop  offset="0.8899" style="stop-color:#361512"/>
		<stop  offset="1" style="stop-color:#925034"/>
	</linearGradient>
	<path class="st63" d="M240.1,47.1c-3.9,0.1-172.5,12.3-174.8,12.6c-2.4,0.3-2.6,3.1-2.4,3.8c0.2,0.6-0.2,3.5,3.8,3.3
		s170.4-14.6,173.6-15.5C243.6,50.4,242,47.1,240.1,47.1z"/>
	
		<linearGradient id="SVGID_45_" gradientUnits="userSpaceOnUse" x1="734.9425" y1="117.7938" x2="738.9565" y2="111.5587" gradientTransform="matrix(-0.8814 -0.4724 -0.4724 0.8814 772.1609 310.1006)">
		<stop  offset="0" style="stop-color:#E2A358"/>
		<stop  offset="2.548856e-02" style="stop-color:#E2A45A"/>
		<stop  offset="3.466897e-02" style="stop-color:#E4A961"/>
		<stop  offset="4.121549e-02" style="stop-color:#E7B16C"/>
		<stop  offset="4.650587e-02" style="stop-color:#ECBC7D"/>
		<stop  offset="5.103699e-02" style="stop-color:#F2CA93"/>
		<stop  offset="5.497903e-02" style="stop-color:#F9DCAE"/>
		<stop  offset="5.644455e-02" style="stop-color:#FCE4BA"/>
		<stop  offset="9.792848e-02" style="stop-color:#FAE2B8"/>
		<stop  offset="0.1139" style="stop-color:#F5DBB2"/>
		<stop  offset="0.1255" style="stop-color:#EBCFA6"/>
		<stop  offset="0.1349" style="stop-color:#DEBE96"/>
		<stop  offset="0.1431" style="stop-color:#CCA781"/>
		<stop  offset="0.1503" style="stop-color:#B68C66"/>
		<stop  offset="0.1568" style="stop-color:#9C6C48"/>
		<stop  offset="0.1599" style="stop-color:#8D5936"/>
		<stop  offset="0.1896" style="stop-color:#8B5835"/>
		<stop  offset="0.2026" style="stop-color:#845232"/>
		<stop  offset="0.2124" style="stop-color:#77492E"/>
		<stop  offset="0.2206" style="stop-color:#653D27"/>
		<stop  offset="0.2277" style="stop-color:#4E2C1E"/>
		<stop  offset="0.2341" style="stop-color:#321813"/>
		<stop  offset="0.2352" style="stop-color:#2C1411"/>
		<stop  offset="0.2751" style="stop-color:#2E1612"/>
		<stop  offset="0.2947" style="stop-color:#361C16"/>
		<stop  offset="0.3099" style="stop-color:#43261D"/>
		<stop  offset="0.3228" style="stop-color:#563526"/>
		<stop  offset="0.3342" style="stop-color:#6D4933"/>
		<stop  offset="0.3417" style="stop-color:#82593D"/>
		<stop  offset="0.3921" style="stop-color:#845B3F"/>
		<stop  offset="0.4218" style="stop-color:#8C6445"/>
		<stop  offset="0.446" style="stop-color:#9A7250"/>
		<stop  offset="0.4673" style="stop-color:#AD865F"/>
		<stop  offset="0.4866" style="stop-color:#C6A073"/>
		<stop  offset="0.4941" style="stop-color:#D2AC7C"/>
		<stop  offset="0.5195" style="stop-color:#D4AF7F"/>
		<stop  offset="0.5395" style="stop-color:#DBB889"/>
		<stop  offset="0.5577" style="stop-color:#E7C79A"/>
		<stop  offset="0.5715" style="stop-color:#F4D7AC"/>
		<stop  offset="0.7205" style="stop-color:#F5DAB0"/>
		<stop  offset="0.8096" style="stop-color:#F7DEB6"/>
		<stop  offset="0.8128" style="stop-color:#F8E2BD"/>
		<stop  offset="0.8177" style="stop-color:#F9ECD2"/>
		<stop  offset="0.8203" style="stop-color:#FAF3DF"/>
		<stop  offset="0.8681" style="stop-color:#FCF7E8"/>
		<stop  offset="0.9253" style="stop-color:#FFFFFA"/>
		<stop  offset="0.9386" style="stop-color:#FCF2E2"/>
		<stop  offset="0.9668" style="stop-color:#F4D1A3"/>
		<stop  offset="1" style="stop-color:#E9A753"/>
	</linearGradient>
	<path class="st64" d="M65.4,66.3c3,0,6.3-0.4,7.5-0.6c1.6-2.8,0.7-5.1-0.5-6.3c-2.7,0.1-6.2,0.1-7.4,0.5s-2.3,2.3-2,3.6
		C63.4,64.9,63.6,66.3,65.4,66.3z"/>
	
		<radialGradient id="SVGID_46_" cx="739.8588" cy="116.3164" r="3.5283" fx="739.6536" fy="115.6109" gradientTransform="matrix(-0.8814 -0.4724 -0.4724 0.8814 772.1609 310.1006)" gradientUnits="userSpaceOnUse">
		<stop  offset="0" style="stop-color:#9B5635"/>
		<stop  offset="2.634692e-02" style="stop-color:#975434"/>
		<stop  offset="0.433" style="stop-color:#633222"/>
		<stop  offset="0.7387" style="stop-color:#421D16"/>
		<stop  offset="0.9066" style="stop-color:#361512"/>
	</radialGradient>
	<path class="st65" d="M64.7,60.2c1.4-0.8,2.7,2.5,2.3,3.8c-0.5,1.3-1.3,2.8-2.7,1.9C62.9,64.9,62.6,61.4,64.7,60.2z"/>
	<path class="st66" d="M71.9,66.2c0.4-0.4,0.9-1.3,0.9-2.9c0-1.9-0.5-3.3-1.8-4.2l-0.8,0.2c1.1,0.8,1.8,2.4,1.8,4
		c0,1.3-0.5,2.6-1.1,3L71.9,66.2z"/>
	
		<linearGradient id="SVGID_47_" gradientUnits="userSpaceOnUse" x1="594.1187" y1="26.0348" x2="597.0203" y2="21.5275" gradientTransform="matrix(-0.8814 -0.4724 -0.4724 0.8814 772.1609 310.1006)">
		<stop  offset="0" style="stop-color:#E2A358"/>
		<stop  offset="2.548856e-02" style="stop-color:#E2A45A"/>
		<stop  offset="3.466897e-02" style="stop-color:#E4A961"/>
		<stop  offset="4.121549e-02" style="stop-color:#E7B16C"/>
		<stop  offset="4.650587e-02" style="stop-color:#ECBC7D"/>
		<stop  offset="5.103699e-02" style="stop-color:#F2CA93"/>
		<stop  offset="5.497903e-02" style="stop-color:#F9DCAE"/>
		<stop  offset="5.644455e-02" style="stop-color:#FCE4BA"/>
		<stop  offset="9.792848e-02" style="stop-color:#FAE2B8"/>
		<stop  offset="0.1139" style="stop-color:#F5DBB2"/>
		<stop  offset="0.1255" style="stop-color:#EBCFA6"/>
		<stop  offset="0.1349" style="stop-color:#DEBE96"/>
		<stop  offset="0.1431" style="stop-color:#CCA781"/>
		<stop  offset="0.1503" style="stop-color:#B68C66"/>
		<stop  offset="0.1568" style="stop-color:#9C6C48"/>
		<stop  offset="0.1599" style="stop-color:#8D5936"/>
		<stop  offset="0.1896" style="stop-color:#8B5835"/>
		<stop  offset="0.2026" style="stop-color:#845232"/>
		<stop  offset="0.2124" style="stop-color:#77492E"/>
		<stop  offset="0.2206" style="stop-color:#653D27"/>
		<stop  offset="0.2277" style="stop-color:#4E2C1E"/>
		<stop  offset="0.2341" style="stop-color:#321813"/>
		<stop  offset="0.2352" style="stop-color:#2C1411"/>
		<stop  offset="0.2751" style="stop-color:#2E1612"/>
		<stop  offset="0.2947" style="stop-color:#361C16"/>
		<stop  offset="0.3099" style="stop-color:#43261D"/>
		<stop  offset="0.3228" style="stop-color:#563526"/>
		<stop  offset="0.3342" style="stop-color:#6D4933"/>
		<stop  offset="0.3417" style="stop-color:#82593D"/>
		<stop  offset="0.3921" style="stop-color:#845B3F"/>
		<stop  offset="0.4218" style="stop-color:#8C6445"/>
		<stop  offset="0.446" style="stop-color:#9A7250"/>
		<stop  offset="0.4673" style="stop-color:#AD865F"/>
		<stop  offset="0.4866" style="stop-color:#C6A073"/>
		<stop  offset="0.4941" style="stop-color:#D2AC7C"/>
		<stop  offset="0.5195" style="stop-color:#D4AF7F"/>
		<stop  offset="0.5395" style="stop-color:#DBB889"/>
		<stop  offset="0.5577" style="stop-color:#E7C79A"/>
		<stop  offset="0.5715" style="stop-color:#F4D7AC"/>
		<stop  offset="0.7205" style="stop-color:#F5DAB0"/>
		<stop  offset="0.8096" style="stop-color:#F7DEB6"/>
		<stop  offset="0.8128" style="stop-color:#F8E2BD"/>
		<stop  offset="0.8177" style="stop-color:#F9ECD2"/>
		<stop  offset="0.8203" style="stop-color:#FAF3DF"/>
		<stop  offset="0.8681" style="stop-color:#FCF7E8"/>
		<stop  offset="0.9253" style="stop-color:#FFFFFA"/>
		<stop  offset="0.9386" style="stop-color:#FCF2E2"/>
		<stop  offset="0.9668" style="stop-color:#F4D1A3"/>
		<stop  offset="1" style="stop-color:#E9A753"/>
	</linearGradient>
	<path class="st67" d="M233.2,52.2c2.1-0.1,5-0.5,5.9-0.7c1.3-2.1,0.4-3.7-0.5-4.5c-1.9,0.2-4.5,0.4-5.5,0.4c-2-0.1-0.9,0.7-0.7,2.5
		C232.7,51.6,231.9,52.2,233.2,52.2z"/>
	<path class="st68" d="M238.8,51.6c0.6-0.9,1.2-3-0.7-4.5l-0.5,0c1.7,1.3,1.2,3.8,0.7,4.5L238.8,51.6z"/>
	<path class="st68" d="M234,52.2c0.6-1.1,0.7-3.8-0.5-4.8l-0.4,0.1c0.9,0.8,1.2,3.7,0.6,4.7L234,52.2z"/>
	<path class="st69" d="M240.1,47.1c-3.9,0.1-172.5,12.3-174.8,12.6c-2.4,0.3-2.6,3.1-2.4,3.8c0.2,0.6-0.2,3.5,3.8,3.3
		s170.4-14.6,173.6-15.5C243.6,50.4,242,47.1,240.1,47.1z"/>
</g>
<g id="chalk" class="st20-ds1">
	<polygon class="st70" points="361.4,65.9 372.9,59.2 372.9,47.6 361.5,41.7 350.4,47.3 350.5,59.3 	"/>
	<polygon class="st71" points="350.9,47.6 361.4,42.1 372.3,47.8 361.4,52.9 	"/>
	<polygon class="st72" points="351,47.7 350.9,58.9 361.6,65.3 361.4,53.2 	"/>
	<polygon class="st73" points="362,65.3 372.6,58.9 372.7,47.8 361.8,53.2 	"/>
	<path class="st74" d="M362.2,64.9c5-3.5,10.2-6.7,10.2-15.6c0.1,8.2,0.1,9.5,0.1,9.5L362.2,64.9z"/>
	<path class="st75" d="M351.1,48c-1.9-0.9,9.6,5,10,5.4c0.1,2.6,0.3,10.3,0.3,11.1C360.8,57.3,355.4,50,351.1,48z"/>
</g>
<g id="diamond" class="st20-ds2">
	<polygon class="st76" points="19.7,221.9 15.3,219.3 12.4,221.9 15.3,224.4 	"/>
	<polygon class="st42" points="15.3,220.3 13.5,221.7 15.2,221.4 18.3,221.7 	"/>
</g>
<g id="diamond_1_" class="st20-ds2">
	<polygon class="st76" points="19.7,141 15.3,138.4 12.4,141 15.3,143.5 	"/>
	<polygon class="st42" points="15.3,139.4 13.5,140.8 15.2,140.5 18.3,140.8 	"/>
</g>
<g id="diamond_2_" class="st20-ds2">
	<polygon class="st76" points="19.7,305.8 15.3,303.3 12.4,305.8 15.3,308.4 	"/>
	<polygon class="st42" points="15.3,304.2 13.5,305.7 15.2,305.4 18.3,305.7 	"/>
</g>
<g id="diamond_8_" class="st20-ds2">
	<polygon class="st76" points="252.4,381.2 249.9,385.6 252.4,388.5 255,385.6 	"/>
	<polygon class="st42" points="250.9,385.6 252.3,387.4 252,385.7 252.3,382.6 	"/>
</g>
<g id="diamond_7_" class="st20-ds2">
	<polygon class="st76" points="150,381.3 147.4,385.7 150,388.7 152.6,385.7 	"/>
	<polygon class="st42" points="148.4,385.7 149.8,387.5 149.6,385.8 149.8,382.7 	"/>
</g>
<g id="diamond_6_" class="st20-ds2">
	<polygon class="st76" points="352,381.2 349.5,385.6 352,388.5 354.6,385.6 	"/>
	<polygon class="st42" points="350.4,385.6 351.9,387.4 351.6,385.7 351.9,382.6 	"/>
</g>
<g id="diamond_5_" class="st20-ds2">
	<polygon class="st76" points="478.4,221.9 482.8,219.3 485.7,221.9 482.8,224.4 	"/>
	<polygon class="st42" points="482.7,220.3 484.5,221.7 482.8,221.4 479.8,221.7 	"/>
</g>
<g id="diamond_4_" class="st20-ds2">
	<polygon class="st76" points="478.4,141 482.8,138.4 485.7,141 482.8,143.5 	"/>
	<polygon class="st42" points="482.7,139.4 484.5,140.8 482.8,140.5 479.8,140.8 	"/>
</g>
<g id="diamond_3_" class="st20-ds2">
	<polygon class="st76" points="478.4,305.8 482.8,303.3 485.7,305.8 482.8,308.4 	"/>
	<polygon class="st42" points="482.7,304.2 484.5,305.7 482.8,305.4 479.8,305.7 	"/>
</g>
</svg>
